solid OpenSCAD_Model
  facet normal -0.980779 -0.195122 0
    outer loop
      vertex 5.68546 6.22189 0
      vertex 5.64207 6.43999 3
      vertex 5.64207 6.43999 0
    endloop
  endfacet
  facet normal -0.980779 -0.195122 0
    outer loop
      vertex 5.64207 6.43999 3
      vertex 5.68546 6.22189 0
      vertex 5.68546 6.22189 3
    endloop
  endfacet
  facet normal -0.99786 -0.0653877 0
    outer loop
      vertex 5.7 6 0
      vertex 5.68546 6.22189 3
      vertex 5.68546 6.22189 0
    endloop
  endfacet
  facet normal -0.99786 -0.0653877 0
    outer loop
      vertex 5.68546 6.22189 3
      vertex 5.7 6 0
      vertex 5.7 6 3
    endloop
  endfacet
  facet normal 0.442278 -0.896878 0
    outer loop
      vertex 3.15 7.47224 0
      vertex 3.34944 7.57059 3
      vertex 3.15 7.47224 3
    endloop
  endfacet
  facet normal 0.442278 -0.896878 0
    outer loop
      vertex 3.34944 7.57059 3
      vertex 3.15 7.47224 0
      vertex 3.34944 7.57059 0
    endloop
  endfacet
  facet normal -0.555572 -0.831469 0
    outer loop
      vertex 4.85 7.47224 0
      vertex 5.03489 7.3487 3
      vertex 4.85 7.47224 3
    endloop
  endfacet
  facet normal -0.555572 -0.831469 -0
    outer loop
      vertex 5.03489 7.3487 3
      vertex 4.85 7.47224 0
      vertex 5.03489 7.3487 0
    endloop
  endfacet
  facet normal 0.659342 -0.751844 0
    outer loop
      vertex 2.79792 7.20208 0
      vertex 2.96511 7.3487 3
      vertex 2.79792 7.20208 3
    endloop
  endfacet
  facet normal 0.659342 -0.751844 0
    outer loop
      vertex 2.96511 7.3487 3
      vertex 2.79792 7.20208 0
      vertex 2.96511 7.3487 0
    endloop
  endfacet
  facet normal -0.321404 0.946942 0
    outer loop
      vertex 4.65056 4.4294 0
      vertex 4.43999 4.35793 3
      vertex 4.65056 4.4294 3
    endloop
  endfacet
  facet normal -0.321404 0.946942 0
    outer loop
      vertex 4.43999 4.35793 3
      vertex 4.65056 4.4294 0
      vertex 4.43999 4.35793 0
    endloop
  endfacet
  facet normal -0.831469 0.555572 0
    outer loop
      vertex 5.3487 4.96511 0
      vertex 5.47224 5.15 3
      vertex 5.47224 5.15 0
    endloop
  endfacet
  facet normal -0.831469 0.555572 0
    outer loop
      vertex 5.47224 5.15 3
      vertex 5.3487 4.96511 0
      vertex 5.3487 4.96511 3
    endloop
  endfacet
  facet normal -0.946929 0.321444 0
    outer loop
      vertex 5.57059 5.34944 0
      vertex 5.64207 5.56001 3
      vertex 5.64207 5.56001 0
    endloop
  endfacet
  facet normal -0.946929 0.321444 0
    outer loop
      vertex 5.64207 5.56001 3
      vertex 5.57059 5.34944 0
      vertex 5.57059 5.34944 3
    endloop
  endfacet
  facet normal -0.321444 -0.946929 0
    outer loop
      vertex 4.43999 7.64207 0
      vertex 4.65056 7.57059 3
      vertex 4.43999 7.64207 3
    endloop
  endfacet
  facet normal -0.321444 -0.946929 -0
    outer loop
      vertex 4.65056 7.57059 3
      vertex 4.43999 7.64207 0
      vertex 4.65056 7.57059 0
    endloop
  endfacet
  facet normal -0.195122 -0.980779 0
    outer loop
      vertex 4.22189 7.68546 0
      vertex 4.43999 7.64207 3
      vertex 4.22189 7.68546 3
    endloop
  endfacet
  facet normal -0.195122 -0.980779 -0
    outer loop
      vertex 4.43999 7.64207 3
      vertex 4.22189 7.68546 0
      vertex 4.43999 7.64207 0
    endloop
  endfacet
  facet normal 0.555572 -0.831469 0
    outer loop
      vertex 2.96511 7.3487 0
      vertex 3.15 7.47224 3
      vertex 2.96511 7.3487 3
    endloop
  endfacet
  facet normal 0.555572 -0.831469 0
    outer loop
      vertex 3.15 7.47224 3
      vertex 2.96511 7.3487 0
      vertex 3.15 7.47224 0
    endloop
  endfacet
  facet normal -0.896878 0.442278 0
    outer loop
      vertex 5.47224 5.15 0
      vertex 5.57059 5.34944 3
      vertex 5.57059 5.34944 0
    endloop
  endfacet
  facet normal -0.896878 0.442278 0
    outer loop
      vertex 5.57059 5.34944 3
      vertex 5.47224 5.15 0
      vertex 5.47224 5.15 3
    endloop
  endfacet
  facet normal -0.659342 -0.751844 0
    outer loop
      vertex 5.03489 7.3487 0
      vertex 5.20208 7.20208 3
      vertex 5.03489 7.3487 3
    endloop
  endfacet
  facet normal -0.659342 -0.751844 -0
    outer loop
      vertex 5.20208 7.20208 3
      vertex 5.03489 7.3487 0
      vertex 5.20208 7.20208 0
    endloop
  endfacet
  facet normal -0.555572 0.831469 0
    outer loop
      vertex 5.03489 4.6513 0
      vertex 4.85 4.52776 3
      vertex 5.03489 4.6513 3
    endloop
  endfacet
  facet normal -0.555572 0.831469 0
    outer loop
      vertex 4.85 4.52776 3
      vertex 5.03489 4.6513 0
      vertex 4.85 4.52776 0
    endloop
  endfacet
  facet normal -0.442278 -0.896878 0
    outer loop
      vertex 4.65056 7.57059 0
      vertex 4.85 7.47224 3
      vertex 4.65056 7.57059 3
    endloop
  endfacet
  facet normal -0.442278 -0.896878 -0
    outer loop
      vertex 4.85 7.47224 3
      vertex 4.65056 7.57059 0
      vertex 4.85 7.47224 0
    endloop
  endfacet
  facet normal 0.659342 0.751844 -0
    outer loop
      vertex 2.96511 4.6513 0
      vertex 2.79792 4.79792 3
      vertex 2.96511 4.6513 3
    endloop
  endfacet
  facet normal 0.659342 0.751844 0
    outer loop
      vertex 2.79792 4.79792 3
      vertex 2.96511 4.6513 0
      vertex 2.79792 4.79792 0
    endloop
  endfacet
  facet normal 0.751844 0.659342 0
    outer loop
      vertex 2.79792 4.79792 3
      vertex 2.6513 4.96511 0
      vertex 2.6513 4.96511 3
    endloop
  endfacet
  facet normal 0.751844 0.659342 0
    outer loop
      vertex 2.6513 4.96511 0
      vertex 2.79792 4.79792 3
      vertex 2.79792 4.79792 0
    endloop
  endfacet
  facet normal 0.831469 0.555572 0
    outer loop
      vertex 2.6513 4.96511 3
      vertex 2.52776 5.15 0
      vertex 2.52776 5.15 3
    endloop
  endfacet
  facet normal 0.831469 0.555572 0
    outer loop
      vertex 2.52776 5.15 0
      vertex 2.6513 4.96511 3
      vertex 2.6513 4.96511 0
    endloop
  endfacet
  facet normal -0.831469 -0.555572 0
    outer loop
      vertex 5.47224 6.85 0
      vertex 5.3487 7.03489 3
      vertex 5.3487 7.03489 0
    endloop
  endfacet
  facet normal -0.831469 -0.555572 0
    outer loop
      vertex 5.3487 7.03489 3
      vertex 5.47224 6.85 0
      vertex 5.47224 6.85 3
    endloop
  endfacet
  facet normal -0.195122 0.980779 0
    outer loop
      vertex 4.43999 4.35793 0
      vertex 4.22189 4.31454 3
      vertex 4.43999 4.35793 3
    endloop
  endfacet
  facet normal -0.195122 0.980779 0
    outer loop
      vertex 4.22189 4.31454 3
      vertex 4.43999 4.35793 0
      vertex 4.22189 4.31454 0
    endloop
  endfacet
  facet normal -0.980777 0.19513 0
    outer loop
      vertex 5.64207 5.56001 0
      vertex 5.68546 5.7781 3
      vertex 5.68546 5.7781 0
    endloop
  endfacet
  facet normal -0.980777 0.19513 0
    outer loop
      vertex 5.68546 5.7781 3
      vertex 5.64207 5.56001 0
      vertex 5.64207 5.56001 3
    endloop
  endfacet
  facet normal 0.946942 0.321404 0
    outer loop
      vertex 2.4294 5.34944 3
      vertex 2.35793 5.56001 0
      vertex 2.35793 5.56001 3
    endloop
  endfacet
  facet normal 0.946942 0.321404 0
    outer loop
      vertex 2.35793 5.56001 0
      vertex 2.4294 5.34944 3
      vertex 2.4294 5.34944 0
    endloop
  endfacet
  facet normal -0.442314 0.89686 0
    outer loop
      vertex 4.85 4.52776 0
      vertex 4.65056 4.4294 3
      vertex 4.85 4.52776 3
    endloop
  endfacet
  facet normal -0.442314 0.89686 0
    outer loop
      vertex 4.65056 4.4294 3
      vertex 4.85 4.52776 0
      vertex 4.65056 4.4294 0
    endloop
  endfacet
  facet normal -0.0653877 -0.99786 0
    outer loop
      vertex 4 7.7 0
      vertex 4.22189 7.68546 3
      vertex 4 7.7 3
    endloop
  endfacet
  facet normal -0.0653877 -0.99786 -0
    outer loop
      vertex 4.22189 7.68546 3
      vertex 4 7.7 0
      vertex 4.22189 7.68546 0
    endloop
  endfacet
  facet normal 0.321444 -0.946929 0
    outer loop
      vertex 3.34944 7.57059 0
      vertex 3.56001 7.64207 3
      vertex 3.34944 7.57059 3
    endloop
  endfacet
  facet normal 0.321444 -0.946929 0
    outer loop
      vertex 3.56001 7.64207 3
      vertex 3.34944 7.57059 0
      vertex 3.56001 7.64207 0
    endloop
  endfacet
  facet normal 0.19513 -0.980777 0
    outer loop
      vertex 3.56001 7.64207 0
      vertex 3.7781 7.68546 3
      vertex 3.56001 7.64207 3
    endloop
  endfacet
  facet normal 0.19513 -0.980777 0
    outer loop
      vertex 3.7781 7.68546 3
      vertex 3.56001 7.64207 0
      vertex 3.7781 7.68546 0
    endloop
  endfacet
  facet normal -0.896878 -0.442278 0
    outer loop
      vertex 5.57059 6.65056 0
      vertex 5.47224 6.85 3
      vertex 5.47224 6.85 0
    endloop
  endfacet
  facet normal -0.896878 -0.442278 0
    outer loop
      vertex 5.47224 6.85 3
      vertex 5.57059 6.65056 0
      vertex 5.57059 6.65056 3
    endloop
  endfacet
  facet normal -0.99786 0.0653848 0
    outer loop
      vertex 5.68546 5.7781 0
      vertex 5.7 6 3
      vertex 5.7 6 0
    endloop
  endfacet
  facet normal -0.99786 0.0653848 0
    outer loop
      vertex 5.7 6 3
      vertex 5.68546 5.7781 0
      vertex 5.68546 5.7781 3
    endloop
  endfacet
  facet normal -0.0653877 0.99786 0
    outer loop
      vertex 4.22189 4.31454 0
      vertex 4 4.3 3
      vertex 4.22189 4.31454 3
    endloop
  endfacet
  facet normal -0.0653877 0.99786 0
    outer loop
      vertex 4 4.3 3
      vertex 4.22189 4.31454 0
      vertex 4 4.3 0
    endloop
  endfacet
  facet normal -0.751844 -0.659342 0
    outer loop
      vertex 5.3487 7.03489 0
      vertex 5.20208 7.20208 3
      vertex 5.20208 7.20208 0
    endloop
  endfacet
  facet normal -0.751844 -0.659342 0
    outer loop
      vertex 5.20208 7.20208 3
      vertex 5.3487 7.03489 0
      vertex 5.3487 7.03489 3
    endloop
  endfacet
  facet normal 0.99786 0.0653848 0
    outer loop
      vertex 2.31454 5.7781 3
      vertex 2.3 6 0
      vertex 2.3 6 3
    endloop
  endfacet
  facet normal 0.99786 0.0653848 0
    outer loop
      vertex 2.3 6 0
      vertex 2.31454 5.7781 3
      vertex 2.31454 5.7781 0
    endloop
  endfacet
  facet normal -0.751844 0.659342 0
    outer loop
      vertex 5.20208 4.79792 0
      vertex 5.3487 4.96511 3
      vertex 5.3487 4.96511 0
    endloop
  endfacet
  facet normal -0.751844 0.659342 0
    outer loop
      vertex 5.3487 4.96511 3
      vertex 5.20208 4.79792 0
      vertex 5.20208 4.79792 3
    endloop
  endfacet
  facet normal 0.751844 -0.659342 0
    outer loop
      vertex 2.6513 7.03489 3
      vertex 2.79792 7.20208 0
      vertex 2.79792 7.20208 3
    endloop
  endfacet
  facet normal 0.751844 -0.659342 0
    outer loop
      vertex 2.79792 7.20208 0
      vertex 2.6513 7.03489 3
      vertex 2.6513 7.03489 0
    endloop
  endfacet
  facet normal 0.831469 -0.555572 0
    outer loop
      vertex 2.52776 6.85 3
      vertex 2.6513 7.03489 0
      vertex 2.6513 7.03489 3
    endloop
  endfacet
  facet normal 0.831469 -0.555572 0
    outer loop
      vertex 2.6513 7.03489 0
      vertex 2.52776 6.85 3
      vertex 2.52776 6.85 0
    endloop
  endfacet
  facet normal 0.0653848 -0.99786 0
    outer loop
      vertex 3.7781 7.68546 0
      vertex 4 7.7 3
      vertex 3.7781 7.68546 3
    endloop
  endfacet
  facet normal 0.0653848 -0.99786 0
    outer loop
      vertex 4 7.7 3
      vertex 3.7781 7.68546 0
      vertex 4 7.7 0
    endloop
  endfacet
  facet normal 0.980777 0.19513 0
    outer loop
      vertex 2.35793 5.56001 3
      vertex 2.31454 5.7781 0
      vertex 2.31454 5.7781 3
    endloop
  endfacet
  facet normal 0.980777 0.19513 0
    outer loop
      vertex 2.31454 5.7781 0
      vertex 2.35793 5.56001 3
      vertex 2.35793 5.56001 0
    endloop
  endfacet
  facet normal 0.321404 0.946942 -0
    outer loop
      vertex 3.56001 4.35793 0
      vertex 3.34944 4.4294 3
      vertex 3.56001 4.35793 3
    endloop
  endfacet
  facet normal 0.321404 0.946942 0
    outer loop
      vertex 3.34944 4.4294 3
      vertex 3.56001 4.35793 0
      vertex 3.34944 4.4294 0
    endloop
  endfacet
  facet normal -0.946929 -0.321444 0
    outer loop
      vertex 5.64207 6.43999 0
      vertex 5.57059 6.65056 3
      vertex 5.57059 6.65056 0
    endloop
  endfacet
  facet normal -0.946929 -0.321444 0
    outer loop
      vertex 5.57059 6.65056 3
      vertex 5.64207 6.43999 0
      vertex 5.64207 6.43999 3
    endloop
  endfacet
  facet normal 0.442314 0.89686 -0
    outer loop
      vertex 3.34944 4.4294 0
      vertex 3.15 4.52776 3
      vertex 3.34944 4.4294 3
    endloop
  endfacet
  facet normal 0.442314 0.89686 0
    outer loop
      vertex 3.15 4.52776 3
      vertex 3.34944 4.4294 0
      vertex 3.15 4.52776 0
    endloop
  endfacet
  facet normal 0.555572 0.831469 -0
    outer loop
      vertex 3.15 4.52776 0
      vertex 2.96511 4.6513 3
      vertex 3.15 4.52776 3
    endloop
  endfacet
  facet normal 0.555572 0.831469 0
    outer loop
      vertex 2.96511 4.6513 3
      vertex 3.15 4.52776 0
      vertex 2.96511 4.6513 0
    endloop
  endfacet
  facet normal 0.19513 0.980777 -0
    outer loop
      vertex 3.7781 4.31454 0
      vertex 3.56001 4.35793 3
      vertex 3.7781 4.31454 3
    endloop
  endfacet
  facet normal 0.19513 0.980777 0
    outer loop
      vertex 3.56001 4.35793 3
      vertex 3.7781 4.31454 0
      vertex 3.56001 4.35793 0
    endloop
  endfacet
  facet normal 0.89686 -0.442314 0
    outer loop
      vertex 2.4294 6.65056 3
      vertex 2.52776 6.85 0
      vertex 2.52776 6.85 3
    endloop
  endfacet
  facet normal 0.89686 -0.442314 0
    outer loop
      vertex 2.52776 6.85 0
      vertex 2.4294 6.65056 3
      vertex 2.4294 6.65056 0
    endloop
  endfacet
  facet normal 0.0653848 0.99786 -0
    outer loop
      vertex 4 4.3 0
      vertex 3.7781 4.31454 3
      vertex 4 4.3 3
    endloop
  endfacet
  facet normal 0.0653848 0.99786 0
    outer loop
      vertex 3.7781 4.31454 3
      vertex 4 4.3 0
      vertex 3.7781 4.31454 0
    endloop
  endfacet
  facet normal 0.89686 0.442314 0
    outer loop
      vertex 2.52776 5.15 3
      vertex 2.4294 5.34944 0
      vertex 2.4294 5.34944 3
    endloop
  endfacet
  facet normal 0.89686 0.442314 0
    outer loop
      vertex 2.4294 5.34944 0
      vertex 2.52776 5.15 3
      vertex 2.52776 5.15 0
    endloop
  endfacet
  facet normal 0.99786 -0.0653877 0
    outer loop
      vertex 2.3 6 3
      vertex 2.31454 6.22189 0
      vertex 2.31454 6.22189 3
    endloop
  endfacet
  facet normal 0.99786 -0.0653877 0
    outer loop
      vertex 2.31454 6.22189 0
      vertex 2.3 6 3
      vertex 2.3 6 0
    endloop
  endfacet
  facet normal 0.980779 -0.195122 0
    outer loop
      vertex 2.31454 6.22189 3
      vertex 2.35793 6.43999 0
      vertex 2.35793 6.43999 3
    endloop
  endfacet
  facet normal 0.980779 -0.195122 0
    outer loop
      vertex 2.35793 6.43999 0
      vertex 2.31454 6.22189 3
      vertex 2.31454 6.22189 0
    endloop
  endfacet
  facet normal 0.946942 -0.321404 0
    outer loop
      vertex 2.35793 6.43999 3
      vertex 2.4294 6.65056 0
      vertex 2.4294 6.65056 3
    endloop
  endfacet
  facet normal 0.946942 -0.321404 0
    outer loop
      vertex 2.4294 6.65056 0
      vertex 2.35793 6.43999 3
      vertex 2.35793 6.43999 0
    endloop
  endfacet
  facet normal -0.659342 0.751844 0
    outer loop
      vertex 5.20208 4.79792 0
      vertex 5.03489 4.6513 3
      vertex 5.20208 4.79792 3
    endloop
  endfacet
  facet normal -0.659342 0.751844 0
    outer loop
      vertex 5.03489 4.6513 3
      vertex 5.20208 4.79792 0
      vertex 5.03489 4.6513 0
    endloop
  endfacet
  facet normal -0.98077 -0.195165 0
    outer loop
      vertex 21.6855 6.22189 0
      vertex 21.6421 6.43999 3
      vertex 21.6421 6.43999 0
    endloop
  endfacet
  facet normal -0.98077 -0.195165 0
    outer loop
      vertex 21.6421 6.43999 3
      vertex 21.6855 6.22189 0
      vertex 21.6855 6.22189 3
    endloop
  endfacet
  facet normal -0.997872 -0.0652086 0
    outer loop
      vertex 21.7 6 0
      vertex 21.6855 6.22189 3
      vertex 21.6855 6.22189 0
    endloop
  endfacet
  facet normal -0.997872 -0.0652086 0
    outer loop
      vertex 21.6855 6.22189 3
      vertex 21.7 6 0
      vertex 21.7 6 3
    endloop
  endfacet
  facet normal 0.442349 -0.896843 0
    outer loop
      vertex 19.15 7.47224 0
      vertex 19.3494 7.57059 3
      vertex 19.15 7.47224 3
    endloop
  endfacet
  facet normal 0.442349 -0.896843 0
    outer loop
      vertex 19.3494 7.57059 3
      vertex 19.15 7.47224 0
      vertex 19.3494 7.57059 0
    endloop
  endfacet
  facet normal -0.555551 -0.831483 0
    outer loop
      vertex 20.85 7.47224 0
      vertex 21.0349 7.3487 3
      vertex 20.85 7.47224 3
    endloop
  endfacet
  facet normal -0.555551 -0.831483 -0
    outer loop
      vertex 21.0349 7.3487 3
      vertex 20.85 7.47224 0
      vertex 21.0349 7.3487 0
    endloop
  endfacet
  facet normal 0.659319 -0.751863 0
    outer loop
      vertex 18.7979 7.20208 0
      vertex 18.9651 7.3487 3
      vertex 18.7979 7.20208 3
    endloop
  endfacet
  facet normal 0.659319 -0.751863 0
    outer loop
      vertex 18.9651 7.3487 3
      vertex 18.7979 7.20208 0
      vertex 18.9651 7.3487 0
    endloop
  endfacet
  facet normal -0.321363 0.946956 0
    outer loop
      vertex 20.6506 4.4294 0
      vertex 20.44 4.35793 3
      vertex 20.6506 4.4294 3
    endloop
  endfacet
  facet normal -0.321363 0.946956 0
    outer loop
      vertex 20.44 4.35793 3
      vertex 20.6506 4.4294 0
      vertex 20.44 4.35793 0
    endloop
  endfacet
  facet normal -0.831552 0.555447 0
    outer loop
      vertex 21.3487 4.96511 0
      vertex 21.4722 5.15 3
      vertex 21.4722 5.15 0
    endloop
  endfacet
  facet normal -0.831552 0.555447 0
    outer loop
      vertex 21.4722 5.15 3
      vertex 21.3487 4.96511 0
      vertex 21.3487 4.96511 3
    endloop
  endfacet
  facet normal -0.946901 0.321525 0
    outer loop
      vertex 21.5706 5.34944 0
      vertex 21.6421 5.56001 3
      vertex 21.6421 5.56001 0
    endloop
  endfacet
  facet normal -0.946901 0.321525 0
    outer loop
      vertex 21.6421 5.56001 3
      vertex 21.5706 5.34944 0
      vertex 21.5706 5.34944 3
    endloop
  endfacet
  facet normal -0.321403 -0.946943 0
    outer loop
      vertex 20.44 7.64207 0
      vertex 20.6506 7.57059 3
      vertex 20.44 7.64207 3
    endloop
  endfacet
  facet normal -0.321403 -0.946943 -0
    outer loop
      vertex 20.6506 7.57059 3
      vertex 20.44 7.64207 0
      vertex 20.6506 7.57059 0
    endloop
  endfacet
  facet normal -0.195122 -0.980779 0
    outer loop
      vertex 20.2219 7.68546 0
      vertex 20.44 7.64207 3
      vertex 20.2219 7.68546 3
    endloop
  endfacet
  facet normal -0.195122 -0.980779 -0
    outer loop
      vertex 20.44 7.64207 3
      vertex 20.2219 7.68546 0
      vertex 20.44 7.64207 0
    endloop
  endfacet
  facet normal 0.555551 -0.831483 0
    outer loop
      vertex 18.9651 7.3487 0
      vertex 19.15 7.47224 3
      vertex 18.9651 7.3487 3
    endloop
  endfacet
  facet normal 0.555551 -0.831483 0
    outer loop
      vertex 19.15 7.47224 3
      vertex 18.9651 7.3487 0
      vertex 19.15 7.47224 0
    endloop
  endfacet
  facet normal -0.896789 0.442459 0
    outer loop
      vertex 21.4722 5.15 0
      vertex 21.5706 5.34944 3
      vertex 21.5706 5.34944 0
    endloop
  endfacet
  facet normal -0.896789 0.442459 0
    outer loop
      vertex 21.5706 5.34944 3
      vertex 21.4722 5.15 0
      vertex 21.4722 5.15 3
    endloop
  endfacet
  facet normal -0.659319 -0.751863 0
    outer loop
      vertex 21.0349 7.3487 0
      vertex 21.2021 7.20208 3
      vertex 21.0349 7.3487 3
    endloop
  endfacet
  facet normal -0.659319 -0.751863 -0
    outer loop
      vertex 21.2021 7.20208 3
      vertex 21.0349 7.3487 0
      vertex 21.2021 7.20208 0
    endloop
  endfacet
  facet normal -0.555551 0.831483 0
    outer loop
      vertex 21.0349 4.6513 0
      vertex 20.85 4.52776 3
      vertex 21.0349 4.6513 3
    endloop
  endfacet
  facet normal -0.555551 0.831483 0
    outer loop
      vertex 20.85 4.52776 3
      vertex 21.0349 4.6513 0
      vertex 20.85 4.52776 0
    endloop
  endfacet
  facet normal -0.442349 -0.896843 0
    outer loop
      vertex 20.6506 7.57059 0
      vertex 20.85 7.47224 3
      vertex 20.6506 7.57059 3
    endloop
  endfacet
  facet normal -0.442349 -0.896843 -0
    outer loop
      vertex 20.85 7.47224 3
      vertex 20.6506 7.57059 0
      vertex 20.85 7.47224 0
    endloop
  endfacet
  facet normal 0.997872 -0.0652086 0
    outer loop
      vertex 18.3 6 3
      vertex 18.3145 6.22189 0
      vertex 18.3145 6.22189 3
    endloop
  endfacet
  facet normal 0.997872 -0.0652086 0
    outer loop
      vertex 18.3145 6.22189 0
      vertex 18.3 6 3
      vertex 18.3 6 0
    endloop
  endfacet
  facet normal 0.659319 0.751863 -0
    outer loop
      vertex 18.9651 4.6513 0
      vertex 18.7979 4.79792 3
      vertex 18.9651 4.6513 3
    endloop
  endfacet
  facet normal 0.659319 0.751863 0
    outer loop
      vertex 18.7979 4.79792 3
      vertex 18.9651 4.6513 0
      vertex 18.7979 4.79792 0
    endloop
  endfacet
  facet normal 0.751888 0.659291 0
    outer loop
      vertex 18.7979 4.79792 3
      vertex 18.6513 4.96511 0
      vertex 18.6513 4.96511 3
    endloop
  endfacet
  facet normal 0.751888 0.659291 0
    outer loop
      vertex 18.6513 4.96511 0
      vertex 18.7979 4.79792 3
      vertex 18.7979 4.79792 0
    endloop
  endfacet
  facet normal 0.831552 0.555447 0
    outer loop
      vertex 18.6513 4.96511 3
      vertex 18.5278 5.15 0
      vertex 18.5278 5.15 3
    endloop
  endfacet
  facet normal 0.831552 0.555447 0
    outer loop
      vertex 18.5278 5.15 0
      vertex 18.6513 4.96511 3
      vertex 18.6513 4.96511 0
    endloop
  endfacet
  facet normal -0.831552 -0.555447 0
    outer loop
      vertex 21.4722 6.85 0
      vertex 21.3487 7.03489 3
      vertex 21.3487 7.03489 0
    endloop
  endfacet
  facet normal -0.831552 -0.555447 0
    outer loop
      vertex 21.3487 7.03489 3
      vertex 21.4722 6.85 0
      vertex 21.4722 6.85 3
    endloop
  endfacet
  facet normal -0.195122 0.980779 0
    outer loop
      vertex 20.44 4.35793 0
      vertex 20.2219 4.31454 3
      vertex 20.44 4.35793 3
    endloop
  endfacet
  facet normal -0.195122 0.980779 0
    outer loop
      vertex 20.2219 4.31454 3
      vertex 20.44 4.35793 0
      vertex 20.2219 4.31454 0
    endloop
  endfacet
  facet normal -0.980769 0.195173 0
    outer loop
      vertex 21.6421 5.56001 0
      vertex 21.6855 5.7781 3
      vertex 21.6855 5.7781 0
    endloop
  endfacet
  facet normal -0.980769 0.195173 0
    outer loop
      vertex 21.6855 5.7781 3
      vertex 21.6421 5.56001 0
      vertex 21.6421 5.56001 3
    endloop
  endfacet
  facet normal 0.946901 0.321525 0
    outer loop
      vertex 18.4294 5.34944 3
      vertex 18.3579 5.56001 0
      vertex 18.3579 5.56001 3
    endloop
  endfacet
  facet normal 0.946901 0.321525 0
    outer loop
      vertex 18.3579 5.56001 0
      vertex 18.4294 5.34944 3
      vertex 18.4294 5.34944 0
    endloop
  endfacet
  facet normal -0.442386 0.896825 0
    outer loop
      vertex 20.85 4.52776 0
      vertex 20.6506 4.4294 3
      vertex 20.85 4.52776 3
    endloop
  endfacet
  facet normal -0.442386 0.896825 0
    outer loop
      vertex 20.6506 4.4294 3
      vertex 20.85 4.52776 0
      vertex 20.6506 4.4294 0
    endloop
  endfacet
  facet normal -0.0653848 -0.99786 0
    outer loop
      vertex 20 7.7 0
      vertex 20.2219 7.68546 3
      vertex 20 7.7 3
    endloop
  endfacet
  facet normal -0.0653848 -0.99786 -0
    outer loop
      vertex 20.2219 7.68546 3
      vertex 20 7.7 0
      vertex 20.2219 7.68546 0
    endloop
  endfacet
  facet normal 0.321403 -0.946943 0
    outer loop
      vertex 19.3494 7.57059 0
      vertex 19.56 7.64207 3
      vertex 19.3494 7.57059 3
    endloop
  endfacet
  facet normal 0.321403 -0.946943 0
    outer loop
      vertex 19.56 7.64207 3
      vertex 19.3494 7.57059 0
      vertex 19.56 7.64207 0
    endloop
  endfacet
  facet normal 0.195122 -0.980779 0
    outer loop
      vertex 19.56 7.64207 0
      vertex 19.7781 7.68546 3
      vertex 19.56 7.64207 3
    endloop
  endfacet
  facet normal 0.195122 -0.980779 0
    outer loop
      vertex 19.7781 7.68546 3
      vertex 19.56 7.64207 0
      vertex 19.7781 7.68546 0
    endloop
  endfacet
  facet normal -0.896789 -0.442459 0
    outer loop
      vertex 21.5706 6.65056 0
      vertex 21.4722 6.85 3
      vertex 21.4722 6.85 0
    endloop
  endfacet
  facet normal -0.896789 -0.442459 0
    outer loop
      vertex 21.4722 6.85 3
      vertex 21.5706 6.65056 0
      vertex 21.5706 6.65056 3
    endloop
  endfacet
  facet normal -0.997872 0.0652057 0
    outer loop
      vertex 21.6855 5.7781 0
      vertex 21.7 6 3
      vertex 21.7 6 0
    endloop
  endfacet
  facet normal -0.997872 0.0652057 0
    outer loop
      vertex 21.7 6 3
      vertex 21.6855 5.7781 0
      vertex 21.6855 5.7781 3
    endloop
  endfacet
  facet normal -0.0653848 0.99786 0
    outer loop
      vertex 20.2219 4.31454 0
      vertex 20 4.3 3
      vertex 20.2219 4.31454 3
    endloop
  endfacet
  facet normal -0.0653848 0.99786 0
    outer loop
      vertex 20 4.3 3
      vertex 20.2219 4.31454 0
      vertex 20 4.3 0
    endloop
  endfacet
  facet normal -0.751888 -0.659291 0
    outer loop
      vertex 21.3487 7.03489 0
      vertex 21.2021 7.20208 3
      vertex 21.2021 7.20208 0
    endloop
  endfacet
  facet normal -0.751888 -0.659291 0
    outer loop
      vertex 21.2021 7.20208 3
      vertex 21.3487 7.03489 0
      vertex 21.3487 7.03489 3
    endloop
  endfacet
  facet normal 0.997872 0.0652057 0
    outer loop
      vertex 18.3145 5.7781 3
      vertex 18.3 6 0
      vertex 18.3 6 3
    endloop
  endfacet
  facet normal 0.997872 0.0652057 0
    outer loop
      vertex 18.3 6 0
      vertex 18.3145 5.7781 3
      vertex 18.3145 5.7781 0
    endloop
  endfacet
  facet normal -0.751888 0.659291 0
    outer loop
      vertex 21.2021 4.79792 0
      vertex 21.3487 4.96511 3
      vertex 21.3487 4.96511 0
    endloop
  endfacet
  facet normal -0.751888 0.659291 0
    outer loop
      vertex 21.3487 4.96511 3
      vertex 21.2021 4.79792 0
      vertex 21.2021 4.79792 3
    endloop
  endfacet
  facet normal 0.751888 -0.659291 0
    outer loop
      vertex 18.6513 7.03489 3
      vertex 18.7979 7.20208 0
      vertex 18.7979 7.20208 3
    endloop
  endfacet
  facet normal 0.751888 -0.659291 0
    outer loop
      vertex 18.7979 7.20208 0
      vertex 18.6513 7.03489 3
      vertex 18.6513 7.03489 0
    endloop
  endfacet
  facet normal 0.831552 -0.555447 0
    outer loop
      vertex 18.5278 6.85 3
      vertex 18.6513 7.03489 0
      vertex 18.6513 7.03489 3
    endloop
  endfacet
  facet normal 0.831552 -0.555447 0
    outer loop
      vertex 18.6513 7.03489 0
      vertex 18.5278 6.85 3
      vertex 18.5278 6.85 0
    endloop
  endfacet
  facet normal 0.0653848 -0.99786 0
    outer loop
      vertex 19.7781 7.68546 0
      vertex 20 7.7 3
      vertex 19.7781 7.68546 3
    endloop
  endfacet
  facet normal 0.0653848 -0.99786 0
    outer loop
      vertex 20 7.7 3
      vertex 19.7781 7.68546 0
      vertex 20 7.7 0
    endloop
  endfacet
  facet normal 0.980769 0.195173 0
    outer loop
      vertex 18.3579 5.56001 3
      vertex 18.3145 5.7781 0
      vertex 18.3145 5.7781 3
    endloop
  endfacet
  facet normal 0.980769 0.195173 0
    outer loop
      vertex 18.3145 5.7781 0
      vertex 18.3579 5.56001 3
      vertex 18.3579 5.56001 0
    endloop
  endfacet
  facet normal 0.321363 0.946956 -0
    outer loop
      vertex 19.56 4.35793 0
      vertex 19.3494 4.4294 3
      vertex 19.56 4.35793 3
    endloop
  endfacet
  facet normal 0.321363 0.946956 0
    outer loop
      vertex 19.3494 4.4294 3
      vertex 19.56 4.35793 0
      vertex 19.3494 4.4294 0
    endloop
  endfacet
  facet normal -0.946901 -0.321525 0
    outer loop
      vertex 21.6421 6.43999 0
      vertex 21.5706 6.65056 3
      vertex 21.5706 6.65056 0
    endloop
  endfacet
  facet normal -0.946901 -0.321525 0
    outer loop
      vertex 21.5706 6.65056 3
      vertex 21.6421 6.43999 0
      vertex 21.6421 6.43999 3
    endloop
  endfacet
  facet normal 0.442386 0.896825 -0
    outer loop
      vertex 19.3494 4.4294 0
      vertex 19.15 4.52776 3
      vertex 19.3494 4.4294 3
    endloop
  endfacet
  facet normal 0.442386 0.896825 0
    outer loop
      vertex 19.15 4.52776 3
      vertex 19.3494 4.4294 0
      vertex 19.15 4.52776 0
    endloop
  endfacet
  facet normal 0.555551 0.831483 -0
    outer loop
      vertex 19.15 4.52776 0
      vertex 18.9651 4.6513 3
      vertex 19.15 4.52776 3
    endloop
  endfacet
  facet normal 0.555551 0.831483 0
    outer loop
      vertex 18.9651 4.6513 3
      vertex 19.15 4.52776 0
      vertex 18.9651 4.6513 0
    endloop
  endfacet
  facet normal 0.0653848 0.99786 -0
    outer loop
      vertex 20 4.3 0
      vertex 19.7781 4.31454 3
      vertex 20 4.3 3
    endloop
  endfacet
  facet normal 0.0653848 0.99786 0
    outer loop
      vertex 19.7781 4.31454 3
      vertex 20 4.3 0
      vertex 19.7781 4.31454 0
    endloop
  endfacet
  facet normal 0.195122 0.980779 -0
    outer loop
      vertex 19.7781 4.31454 0
      vertex 19.56 4.35793 3
      vertex 19.7781 4.31454 3
    endloop
  endfacet
  facet normal 0.195122 0.980779 0
    outer loop
      vertex 19.56 4.35793 3
      vertex 19.7781 4.31454 0
      vertex 19.56 4.35793 0
    endloop
  endfacet
  facet normal 0.896789 -0.442459 0
    outer loop
      vertex 18.4294 6.65056 3
      vertex 18.5278 6.85 0
      vertex 18.5278 6.85 3
    endloop
  endfacet
  facet normal 0.896789 -0.442459 0
    outer loop
      vertex 18.5278 6.85 0
      vertex 18.4294 6.65056 3
      vertex 18.4294 6.65056 0
    endloop
  endfacet
  facet normal 0.896789 0.442459 0
    outer loop
      vertex 18.5278 5.15 3
      vertex 18.4294 5.34944 0
      vertex 18.4294 5.34944 3
    endloop
  endfacet
  facet normal 0.896789 0.442459 0
    outer loop
      vertex 18.4294 5.34944 0
      vertex 18.5278 5.15 3
      vertex 18.5278 5.15 0
    endloop
  endfacet
  facet normal 0.98077 -0.195165 0
    outer loop
      vertex 18.3145 6.22189 3
      vertex 18.3579 6.43999 0
      vertex 18.3579 6.43999 3
    endloop
  endfacet
  facet normal 0.98077 -0.195165 0
    outer loop
      vertex 18.3579 6.43999 0
      vertex 18.3145 6.22189 3
      vertex 18.3145 6.22189 0
    endloop
  endfacet
  facet normal 0.946901 -0.321525 0
    outer loop
      vertex 18.3579 6.43999 3
      vertex 18.4294 6.65056 0
      vertex 18.4294 6.65056 3
    endloop
  endfacet
  facet normal 0.946901 -0.321525 0
    outer loop
      vertex 18.4294 6.65056 0
      vertex 18.3579 6.43999 3
      vertex 18.3579 6.43999 0
    endloop
  endfacet
  facet normal -0.659319 0.751863 0
    outer loop
      vertex 21.2021 4.79792 0
      vertex 21.0349 4.6513 3
      vertex 21.2021 4.79792 3
    endloop
  endfacet
  facet normal -0.659319 0.751863 0
    outer loop
      vertex 21.0349 4.6513 3
      vertex 21.2021 4.79792 0
      vertex 21.0349 4.6513 0
    endloop
  endfacet
  facet normal 1 -0 0
    outer loop
      vertex 24 0 3
      vertex 24 12 0
      vertex 24 12 3
    endloop
  endfacet
  facet normal 1 0 0
    outer loop
      vertex 24 12 0
      vertex 24 0 3
      vertex 24 0 0
    endloop
  endfacet
  facet normal 0 0 1
    outer loop
      vertex 24 12 3
      vertex 21.7 6 3
      vertex 24 0 3
    endloop
  endfacet
  facet normal 0 0 1
    outer loop
      vertex 24 12 3
      vertex 21.6855 6.22189 3
      vertex 21.7 6 3
    endloop
  endfacet
  facet normal 0 0 1
    outer loop
      vertex 24 12 3
      vertex 21.6421 6.43999 3
      vertex 21.6855 6.22189 3
    endloop
  endfacet
  facet normal 0 0 1
    outer loop
      vertex 24 12 3
      vertex 21.5706 6.65056 3
      vertex 21.6421 6.43999 3
    endloop
  endfacet
  facet normal 0 0 1
    outer loop
      vertex 24 12 3
      vertex 21.4722 6.85 3
      vertex 21.5706 6.65056 3
    endloop
  endfacet
  facet normal 0 0 1
    outer loop
      vertex 24 12 3
      vertex 21.3487 7.03489 3
      vertex 21.4722 6.85 3
    endloop
  endfacet
  facet normal 0 0 1
    outer loop
      vertex 24 12 3
      vertex 21.2021 7.20208 3
      vertex 21.3487 7.03489 3
    endloop
  endfacet
  facet normal 0 0 1
    outer loop
      vertex 24 12 3
      vertex 21.0349 7.3487 3
      vertex 21.2021 7.20208 3
    endloop
  endfacet
  facet normal 0 0 1
    outer loop
      vertex 24 12 3
      vertex 20.85 7.47224 3
      vertex 21.0349 7.3487 3
    endloop
  endfacet
  facet normal 0 0 1
    outer loop
      vertex 24 12 3
      vertex 20.6506 7.57059 3
      vertex 20.85 7.47224 3
    endloop
  endfacet
  facet normal 0 0 1
    outer loop
      vertex 24 12 3
      vertex 20.44 7.64207 3
      vertex 20.6506 7.57059 3
    endloop
  endfacet
  facet normal 0 0 1
    outer loop
      vertex 24 12 3
      vertex 20.2219 7.68546 3
      vertex 20.44 7.64207 3
    endloop
  endfacet
  facet normal 0 0 1
    outer loop
      vertex 24 12 3
      vertex 20 7.7 3
      vertex 20.2219 7.68546 3
    endloop
  endfacet
  facet normal 0 0 1
    outer loop
      vertex 24 12 3
      vertex 19.7781 7.68546 3
      vertex 20 7.7 3
    endloop
  endfacet
  facet normal 0 0 1
    outer loop
      vertex 24 12 3
      vertex 19.56 7.64207 3
      vertex 19.7781 7.68546 3
    endloop
  endfacet
  facet normal 0 0 1
    outer loop
      vertex 24 12 3
      vertex 19.3494 7.57059 3
      vertex 19.56 7.64207 3
    endloop
  endfacet
  facet normal 0 0 1
    outer loop
      vertex 24 12 3
      vertex 19.15 7.47224 3
      vertex 19.3494 7.57059 3
    endloop
  endfacet
  facet normal 0 0 1
    outer loop
      vertex 4.85 7.47224 3
      vertex 19.15 7.47224 3
      vertex 24 12 3
    endloop
  endfacet
  facet normal 0 0 1
    outer loop
      vertex 19.15 7.47224 3
      vertex 4.85 7.47224 3
      vertex 18.9651 7.3487 3
    endloop
  endfacet
  facet normal 0 0 1
    outer loop
      vertex 18.3145 6.22189 3
      vertex 5.7 6 3
      vertex 18.3 6 3
    endloop
  endfacet
  facet normal 0 0 1
    outer loop
      vertex 5.68546 6.22189 3
      vertex 18.3145 6.22189 3
      vertex 18.3579 6.43999 3
    endloop
  endfacet
  facet normal 0 0 1
    outer loop
      vertex 5.64207 6.43999 3
      vertex 18.3579 6.43999 3
      vertex 18.4294 6.65056 3
    endloop
  endfacet
  facet normal 0 0 1
    outer loop
      vertex 5.57059 6.65056 3
      vertex 18.4294 6.65056 3
      vertex 18.5278 6.85 3
    endloop
  endfacet
  facet normal 0 0 1
    outer loop
      vertex 5.47224 6.85 3
      vertex 18.5278 6.85 3
      vertex 18.6513 7.03489 3
    endloop
  endfacet
  facet normal 0 0 1
    outer loop
      vertex 5.3487 7.03489 3
      vertex 18.6513 7.03489 3
      vertex 18.7979 7.20208 3
    endloop
  endfacet
  facet normal 0 -0 1
    outer loop
      vertex 5.03489 7.3487 3
      vertex 18.9651 7.3487 3
      vertex 4.85 7.47224 3
    endloop
  endfacet
  facet normal 0 0 1
    outer loop
      vertex 18.3145 6.22189 3
      vertex 5.68546 6.22189 3
      vertex 5.7 6 3
    endloop
  endfacet
  facet normal 0 0 1
    outer loop
      vertex 18.3579 6.43999 3
      vertex 5.64207 6.43999 3
      vertex 5.68546 6.22189 3
    endloop
  endfacet
  facet normal 0 0 1
    outer loop
      vertex 18.4294 6.65056 3
      vertex 5.57059 6.65056 3
      vertex 5.64207 6.43999 3
    endloop
  endfacet
  facet normal 0 0 1
    outer loop
      vertex 18.5278 6.85 3
      vertex 5.47224 6.85 3
      vertex 5.57059 6.65056 3
    endloop
  endfacet
  facet normal 0 0 1
    outer loop
      vertex 18.6513 7.03489 3
      vertex 5.3487 7.03489 3
      vertex 5.47224 6.85 3
    endloop
  endfacet
  facet normal 0 0 1
    outer loop
      vertex 18.7979 7.20208 3
      vertex 5.20208 7.20208 3
      vertex 5.3487 7.03489 3
    endloop
  endfacet
  facet normal 0 0 1
    outer loop
      vertex 18.7979 7.20208 3
      vertex 5.03489 7.3487 3
      vertex 5.20208 7.20208 3
    endloop
  endfacet
  facet normal 0 0 1
    outer loop
      vertex 18.9651 7.3487 3
      vertex 5.03489 7.3487 3
      vertex 18.7979 7.20208 3
    endloop
  endfacet
  facet normal -0 0 1
    outer loop
      vertex 0 12 3
      vertex 4.85 7.47224 3
      vertex 24 12 3
    endloop
  endfacet
  facet normal 0 0 1
    outer loop
      vertex 4.85 7.47224 3
      vertex 0 12 3
      vertex 4.65056 7.57059 3
    endloop
  endfacet
  facet normal 0 0 1
    outer loop
      vertex 4.65056 7.57059 3
      vertex 0 12 3
      vertex 4.43999 7.64207 3
    endloop
  endfacet
  facet normal 0 0 1
    outer loop
      vertex 4.43999 7.64207 3
      vertex 0 12 3
      vertex 4.22189 7.68546 3
    endloop
  endfacet
  facet normal 0 0 1
    outer loop
      vertex 4.22189 7.68546 3
      vertex 0 12 3
      vertex 4 7.7 3
    endloop
  endfacet
  facet normal 0 0 1
    outer loop
      vertex 4 7.7 3
      vertex 0 12 3
      vertex 3.7781 7.68546 3
    endloop
  endfacet
  facet normal 0 0 1
    outer loop
      vertex 2.31454 6.22189 3
      vertex 0 12 3
      vertex 2.3 6 3
    endloop
  endfacet
  facet normal 0 0 1
    outer loop
      vertex 2.35793 6.43999 3
      vertex 0 12 3
      vertex 2.31454 6.22189 3
    endloop
  endfacet
  facet normal 0 0 1
    outer loop
      vertex 2.4294 6.65056 3
      vertex 0 12 3
      vertex 2.35793 6.43999 3
    endloop
  endfacet
  facet normal 0 0 1
    outer loop
      vertex 2.52776 6.85 3
      vertex 0 12 3
      vertex 2.4294 6.65056 3
    endloop
  endfacet
  facet normal 0 0 1
    outer loop
      vertex 2.6513 7.03489 3
      vertex 0 12 3
      vertex 2.52776 6.85 3
    endloop
  endfacet
  facet normal 0 0 1
    outer loop
      vertex 2.79792 7.20208 3
      vertex 0 12 3
      vertex 2.6513 7.03489 3
    endloop
  endfacet
  facet normal 0 0 1
    outer loop
      vertex 2.96511 7.3487 3
      vertex 0 12 3
      vertex 2.79792 7.20208 3
    endloop
  endfacet
  facet normal 0 0 1
    outer loop
      vertex 3.15 7.47224 3
      vertex 0 12 3
      vertex 2.96511 7.3487 3
    endloop
  endfacet
  facet normal 0 0 1
    outer loop
      vertex 3.34944 7.57059 3
      vertex 0 12 3
      vertex 3.15 7.47224 3
    endloop
  endfacet
  facet normal 0 0 1
    outer loop
      vertex 3.56001 7.64207 3
      vertex 0 12 3
      vertex 3.34944 7.57059 3
    endloop
  endfacet
  facet normal 0 0 1
    outer loop
      vertex 3.7781 7.68546 3
      vertex 0 12 3
      vertex 3.56001 7.64207 3
    endloop
  endfacet
  facet normal -0 0 1
    outer loop
      vertex 21.6855 5.7781 3
      vertex 24 0 3
      vertex 21.7 6 3
    endloop
  endfacet
  facet normal -0 0 1
    outer loop
      vertex 21.6421 5.56001 3
      vertex 24 0 3
      vertex 21.6855 5.7781 3
    endloop
  endfacet
  facet normal -0 0 1
    outer loop
      vertex 21.5706 5.34944 3
      vertex 24 0 3
      vertex 21.6421 5.56001 3
    endloop
  endfacet
  facet normal -0 0 1
    outer loop
      vertex 21.4722 5.15 3
      vertex 24 0 3
      vertex 21.5706 5.34944 3
    endloop
  endfacet
  facet normal -0 0 1
    outer loop
      vertex 21.3487 4.96511 3
      vertex 24 0 3
      vertex 21.4722 5.15 3
    endloop
  endfacet
  facet normal -0 0 1
    outer loop
      vertex 21.2021 4.79792 3
      vertex 24 0 3
      vertex 21.3487 4.96511 3
    endloop
  endfacet
  facet normal -0 0 1
    outer loop
      vertex 21.0349 4.6513 3
      vertex 24 0 3
      vertex 21.2021 4.79792 3
    endloop
  endfacet
  facet normal -0 0 1
    outer loop
      vertex 20.85 4.52776 3
      vertex 24 0 3
      vertex 21.0349 4.6513 3
    endloop
  endfacet
  facet normal -0 0 1
    outer loop
      vertex 20.6506 4.4294 3
      vertex 24 0 3
      vertex 20.85 4.52776 3
    endloop
  endfacet
  facet normal -0 0 1
    outer loop
      vertex 20.44 4.35793 3
      vertex 24 0 3
      vertex 20.6506 4.4294 3
    endloop
  endfacet
  facet normal -0 0 1
    outer loop
      vertex 20.2219 4.31454 3
      vertex 24 0 3
      vertex 20.44 4.35793 3
    endloop
  endfacet
  facet normal -0 0 1
    outer loop
      vertex 20 4.3 3
      vertex 24 0 3
      vertex 20.2219 4.31454 3
    endloop
  endfacet
  facet normal 0 0 1
    outer loop
      vertex 19.7781 4.31454 3
      vertex 24 0 3
      vertex 20 4.3 3
    endloop
  endfacet
  facet normal 0 0 1
    outer loop
      vertex 19.56 4.35793 3
      vertex 24 0 3
      vertex 19.7781 4.31454 3
    endloop
  endfacet
  facet normal 0 0 1
    outer loop
      vertex 19.3494 4.4294 3
      vertex 24 0 3
      vertex 19.56 4.35793 3
    endloop
  endfacet
  facet normal 0 0 1
    outer loop
      vertex 19.15 4.52776 3
      vertex 24 0 3
      vertex 19.3494 4.4294 3
    endloop
  endfacet
  facet normal 0 0 1
    outer loop
      vertex 4.85 4.52776 3
      vertex 19.15 4.52776 3
      vertex 18.9651 4.6513 3
    endloop
  endfacet
  facet normal 0 0 1
    outer loop
      vertex 5.03489 4.6513 3
      vertex 18.9651 4.6513 3
      vertex 18.7979 4.79792 3
    endloop
  endfacet
  facet normal -0 0 1
    outer loop
      vertex 5.7 6 3
      vertex 18.3145 5.7781 3
      vertex 18.3 6 3
    endloop
  endfacet
  facet normal 0 0 1
    outer loop
      vertex 5.68546 5.7781 3
      vertex 18.3145 5.7781 3
      vertex 5.7 6 3
    endloop
  endfacet
  facet normal 0 0 1
    outer loop
      vertex 18.3145 5.7781 3
      vertex 5.68546 5.7781 3
      vertex 18.3579 5.56001 3
    endloop
  endfacet
  facet normal 0 0 1
    outer loop
      vertex 5.64207 5.56001 3
      vertex 18.3579 5.56001 3
      vertex 5.68546 5.7781 3
    endloop
  endfacet
  facet normal 0 0 1
    outer loop
      vertex 18.3579 5.56001 3
      vertex 5.64207 5.56001 3
      vertex 18.4294 5.34944 3
    endloop
  endfacet
  facet normal 0 0 1
    outer loop
      vertex 5.57059 5.34944 3
      vertex 18.4294 5.34944 3
      vertex 5.64207 5.56001 3
    endloop
  endfacet
  facet normal 0 0 1
    outer loop
      vertex 18.4294 5.34944 3
      vertex 5.57059 5.34944 3
      vertex 18.5278 5.15 3
    endloop
  endfacet
  facet normal 0 0 1
    outer loop
      vertex 5.47224 5.15 3
      vertex 18.5278 5.15 3
      vertex 5.57059 5.34944 3
    endloop
  endfacet
  facet normal 0 0 1
    outer loop
      vertex 18.5278 5.15 3
      vertex 5.47224 5.15 3
      vertex 18.6513 4.96511 3
    endloop
  endfacet
  facet normal 0 0 1
    outer loop
      vertex 5.3487 4.96511 3
      vertex 18.6513 4.96511 3
      vertex 5.47224 5.15 3
    endloop
  endfacet
  facet normal 0 0 1
    outer loop
      vertex 18.6513 4.96511 3
      vertex 5.3487 4.96511 3
      vertex 18.7979 4.79792 3
    endloop
  endfacet
  facet normal 0 0 1
    outer loop
      vertex 5.20208 4.79792 3
      vertex 18.7979 4.79792 3
      vertex 5.3487 4.96511 3
    endloop
  endfacet
  facet normal 0 0 1
    outer loop
      vertex 5.03489 4.6513 3
      vertex 18.7979 4.79792 3
      vertex 5.20208 4.79792 3
    endloop
  endfacet
  facet normal 0 0 1
    outer loop
      vertex 18.9651 4.6513 3
      vertex 5.03489 4.6513 3
      vertex 4.85 4.52776 3
    endloop
  endfacet
  facet normal 0 0 1
    outer loop
      vertex 19.15 4.52776 3
      vertex 4.85 4.52776 3
      vertex 24 0 3
    endloop
  endfacet
  facet normal 0 0 1
    outer loop
      vertex 0 0 3
      vertex 4.85 4.52776 3
      vertex 4.65056 4.4294 3
    endloop
  endfacet
  facet normal 0 0 1
    outer loop
      vertex 0 0 3
      vertex 4.65056 4.4294 3
      vertex 4.43999 4.35793 3
    endloop
  endfacet
  facet normal 0 0 1
    outer loop
      vertex 0 0 3
      vertex 4.43999 4.35793 3
      vertex 4.22189 4.31454 3
    endloop
  endfacet
  facet normal 0 0 1
    outer loop
      vertex 0 0 3
      vertex 4.22189 4.31454 3
      vertex 4 4.3 3
    endloop
  endfacet
  facet normal 0 0 1
    outer loop
      vertex 0 0 3
      vertex 4 4.3 3
      vertex 3.7781 4.31454 3
    endloop
  endfacet
  facet normal 0 0 1
    outer loop
      vertex 0 0 3
      vertex 3.7781 4.31454 3
      vertex 3.56001 4.35793 3
    endloop
  endfacet
  facet normal 0 0 1
    outer loop
      vertex 0 0 3
      vertex 2.3 6 3
      vertex 0 12 3
    endloop
  endfacet
  facet normal 0 0 1
    outer loop
      vertex 2.3 6 3
      vertex 0 0 3
      vertex 2.31454 5.7781 3
    endloop
  endfacet
  facet normal 0 0 1
    outer loop
      vertex 2.31454 5.7781 3
      vertex 0 0 3
      vertex 2.35793 5.56001 3
    endloop
  endfacet
  facet normal 0 0 1
    outer loop
      vertex 4.85 4.52776 3
      vertex 0 0 3
      vertex 24 0 3
    endloop
  endfacet
  facet normal 0 0 1
    outer loop
      vertex 3.34944 4.4294 3
      vertex 0 0 3
      vertex 3.56001 4.35793 3
    endloop
  endfacet
  facet normal 0 0 1
    outer loop
      vertex 3.15 4.52776 3
      vertex 0 0 3
      vertex 3.34944 4.4294 3
    endloop
  endfacet
  facet normal 0 0 1
    outer loop
      vertex 2.96511 4.6513 3
      vertex 0 0 3
      vertex 3.15 4.52776 3
    endloop
  endfacet
  facet normal 0 0 1
    outer loop
      vertex 2.79792 4.79792 3
      vertex 0 0 3
      vertex 2.96511 4.6513 3
    endloop
  endfacet
  facet normal 0 0 1
    outer loop
      vertex 2.6513 4.96511 3
      vertex 0 0 3
      vertex 2.79792 4.79792 3
    endloop
  endfacet
  facet normal 0 0 1
    outer loop
      vertex 2.52776 5.15 3
      vertex 0 0 3
      vertex 2.6513 4.96511 3
    endloop
  endfacet
  facet normal 0 0 1
    outer loop
      vertex 2.4294 5.34944 3
      vertex 0 0 3
      vertex 2.52776 5.15 3
    endloop
  endfacet
  facet normal 0 0 1
    outer loop
      vertex 2.35793 5.56001 3
      vertex 0 0 3
      vertex 2.4294 5.34944 3
    endloop
  endfacet
  facet normal 0 0 -1
    outer loop
      vertex 24 0 0
      vertex 21.7 6 0
      vertex 24 12 0
    endloop
  endfacet
  facet normal 0 0 -1
    outer loop
      vertex 24 0 0
      vertex 21.6855 5.7781 0
      vertex 21.7 6 0
    endloop
  endfacet
  facet normal 0 0 -1
    outer loop
      vertex 24 0 0
      vertex 21.6421 5.56001 0
      vertex 21.6855 5.7781 0
    endloop
  endfacet
  facet normal 0 0 -1
    outer loop
      vertex 24 0 0
      vertex 21.5706 5.34944 0
      vertex 21.6421 5.56001 0
    endloop
  endfacet
  facet normal 0 0 -1
    outer loop
      vertex 24 0 0
      vertex 21.4722 5.15 0
      vertex 21.5706 5.34944 0
    endloop
  endfacet
  facet normal 0 0 -1
    outer loop
      vertex 24 0 0
      vertex 21.3487 4.96511 0
      vertex 21.4722 5.15 0
    endloop
  endfacet
  facet normal 0 0 -1
    outer loop
      vertex 24 0 0
      vertex 21.2021 4.79792 0
      vertex 21.3487 4.96511 0
    endloop
  endfacet
  facet normal 0 0 -1
    outer loop
      vertex 24 0 0
      vertex 21.0349 4.6513 0
      vertex 21.2021 4.79792 0
    endloop
  endfacet
  facet normal 0 0 -1
    outer loop
      vertex 24 0 0
      vertex 20.85 4.52776 0
      vertex 21.0349 4.6513 0
    endloop
  endfacet
  facet normal 0 0 -1
    outer loop
      vertex 24 0 0
      vertex 20.6506 4.4294 0
      vertex 20.85 4.52776 0
    endloop
  endfacet
  facet normal 0 0 -1
    outer loop
      vertex 24 0 0
      vertex 20.44 4.35793 0
      vertex 20.6506 4.4294 0
    endloop
  endfacet
  facet normal 0 0 -1
    outer loop
      vertex 24 0 0
      vertex 20.2219 4.31454 0
      vertex 20.44 4.35793 0
    endloop
  endfacet
  facet normal 0 0 -1
    outer loop
      vertex 24 0 0
      vertex 20 4.3 0
      vertex 20.2219 4.31454 0
    endloop
  endfacet
  facet normal 0 0 -1
    outer loop
      vertex 24 0 0
      vertex 19.7781 4.31454 0
      vertex 20 4.3 0
    endloop
  endfacet
  facet normal 0 0 -1
    outer loop
      vertex 15.0406 2.95944 0
      vertex 19.7781 4.31454 0
      vertex 24 0 0
    endloop
  endfacet
  facet normal -0 0 -1
    outer loop
      vertex 19.7781 4.31454 0
      vertex 15.0406 2.95944 0
      vertex 19.56 4.35793 0
    endloop
  endfacet
  facet normal 0 -0 -1
    outer loop
      vertex 15.4114 3.38233 0
      vertex 19.56 4.35793 0
      vertex 15.0406 2.95944 0
    endloop
  endfacet
  facet normal -0 0 -1
    outer loop
      vertex 19.56 4.35793 0
      vertex 15.4114 3.38233 0
      vertex 19.3494 4.4294 0
    endloop
  endfacet
  facet normal -0 0 -1
    outer loop
      vertex 19.3494 4.4294 0
      vertex 15.4114 3.38233 0
      vertex 19.15 4.52776 0
    endloop
  endfacet
  facet normal 0 0 -1
    outer loop
      vertex 18.3145 5.7781 0
      vertex 16.3 6 0
      vertex 18.3 6 0
    endloop
  endfacet
  facet normal 0 0 -1
    outer loop
      vertex 16.2632 5.43874 0
      vertex 18.3145 5.7781 0
      vertex 18.3579 5.56001 0
    endloop
  endfacet
  facet normal 0 0 -1
    outer loop
      vertex 16.2632 5.43874 0
      vertex 18.3579 5.56001 0
      vertex 18.4294 5.34944 0
    endloop
  endfacet
  facet normal 0 0 -1
    outer loop
      vertex 16.1535 4.88708 0
      vertex 18.4294 5.34944 0
      vertex 18.5278 5.15 0
    endloop
  endfacet
  facet normal 0 0 -1
    outer loop
      vertex 16.1535 4.88708 0
      vertex 18.5278 5.15 0
      vertex 18.6513 4.96511 0
    endloop
  endfacet
  facet normal 0 0 -1
    outer loop
      vertex 15.9727 4.35446 0
      vertex 18.6513 4.96511 0
      vertex 18.7979 4.79792 0
    endloop
  endfacet
  facet normal 0 -0 -1
    outer loop
      vertex 15.7239 3.85 0
      vertex 19.15 4.52776 0
      vertex 15.4114 3.38233 0
    endloop
  endfacet
  facet normal -0 0 -1
    outer loop
      vertex 18.3145 5.7781 0
      vertex 16.2632 5.43874 0
      vertex 16.3 6 0
    endloop
  endfacet
  facet normal -0 0 -1
    outer loop
      vertex 18.4294 5.34944 0
      vertex 16.1535 4.88708 0
      vertex 16.2632 5.43874 0
    endloop
  endfacet
  facet normal 0 0 -1
    outer loop
      vertex 18.6513 4.96511 0
      vertex 15.9727 4.35446 0
      vertex 16.1535 4.88708 0
    endloop
  endfacet
  facet normal 0 0 -1
    outer loop
      vertex 18.7979 4.79792 0
      vertex 15.7239 3.85 0
      vertex 15.9727 4.35446 0
    endloop
  endfacet
  facet normal -0 0 -1
    outer loop
      vertex 18.9651 4.6513 0
      vertex 15.7239 3.85 0
      vertex 18.7979 4.79792 0
    endloop
  endfacet
  facet normal -0 0 -1
    outer loop
      vertex 19.15 4.52776 0
      vertex 15.7239 3.85 0
      vertex 18.9651 4.6513 0
    endloop
  endfacet
  facet normal 0 0 -1
    outer loop
      vertex 24 0 0
      vertex 14.6177 2.58858 0
      vertex 15.0406 2.95944 0
    endloop
  endfacet
  facet normal 0 0 -1
    outer loop
      vertex 24 0 0
      vertex 14.15 2.27609 0
      vertex 14.6177 2.58858 0
    endloop
  endfacet
  facet normal 0 0 -1
    outer loop
      vertex 24 0 0
      vertex 13.6455 2.02732 0
      vertex 14.15 2.27609 0
    endloop
  endfacet
  facet normal 0 0 -1
    outer loop
      vertex 24 0 0
      vertex 13.1129 1.84652 0
      vertex 13.6455 2.02732 0
    endloop
  endfacet
  facet normal 0 0 -1
    outer loop
      vertex 24 0 0
      vertex 12.5613 1.73679 0
      vertex 13.1129 1.84652 0
    endloop
  endfacet
  facet normal 0 0 -1
    outer loop
      vertex 24 0 0
      vertex 12 1.7 0
      vertex 12.5613 1.73679 0
    endloop
  endfacet
  facet normal 0 0 -1
    outer loop
      vertex 0 0 0
      vertex 12 1.7 0
      vertex 24 0 0
    endloop
  endfacet
  facet normal 0 0 -1
    outer loop
      vertex 5.68546 5.7781 0
      vertex 7.7 6 0
      vertex 7.73679 5.43874 0
    endloop
  endfacet
  facet normal 0 0 -1
    outer loop
      vertex 5.57059 5.34944 0
      vertex 7.73679 5.43874 0
      vertex 7.84652 4.88708 0
    endloop
  endfacet
  facet normal 0 0 -1
    outer loop
      vertex 5.3487 4.96511 0
      vertex 7.84652 4.88708 0
      vertex 8.02732 4.35446 0
    endloop
  endfacet
  facet normal 0 0 -1
    outer loop
      vertex 5.20208 4.79792 0
      vertex 8.02732 4.35446 0
      vertex 8.27609 3.85 0
    endloop
  endfacet
  facet normal 0 0 -1
    outer loop
      vertex 4.85 4.52776 0
      vertex 8.27609 3.85 0
      vertex 8.58858 3.38233 0
    endloop
  endfacet
  facet normal 0 0 -1
    outer loop
      vertex 4.43999 4.35793 0
      vertex 8.58858 3.38233 0
      vertex 8.95944 2.95944 0
    endloop
  endfacet
  facet normal -0 0 -1
    outer loop
      vertex 7.7 6 0
      vertex 5.68546 5.7781 0
      vertex 5.7 6 0
    endloop
  endfacet
  facet normal 0 0 -1
    outer loop
      vertex 0 0 0
      vertex 8.95944 2.95944 0
      vertex 9.38233 2.58858 0
    endloop
  endfacet
  facet normal 0 0 -1
    outer loop
      vertex 7.73679 5.43874 0
      vertex 5.64207 5.56001 0
      vertex 5.68546 5.7781 0
    endloop
  endfacet
  facet normal -0 0 -1
    outer loop
      vertex 7.73679 5.43874 0
      vertex 5.57059 5.34944 0
      vertex 5.64207 5.56001 0
    endloop
  endfacet
  facet normal 0 0 -1
    outer loop
      vertex 7.84652 4.88708 0
      vertex 5.47224 5.15 0
      vertex 5.57059 5.34944 0
    endloop
  endfacet
  facet normal 0 0 -1
    outer loop
      vertex 0 0 0
      vertex 9.38233 2.58858 0
      vertex 9.85 2.27609 0
    endloop
  endfacet
  facet normal 0 0 -1
    outer loop
      vertex 7.84652 4.88708 0
      vertex 5.3487 4.96511 0
      vertex 5.47224 5.15 0
    endloop
  endfacet
  facet normal 0 0 -1
    outer loop
      vertex 8.02732 4.35446 0
      vertex 5.20208 4.79792 0
      vertex 5.3487 4.96511 0
    endloop
  endfacet
  facet normal 0 0 -1
    outer loop
      vertex 8.27609 3.85 0
      vertex 5.03489 4.6513 0
      vertex 5.20208 4.79792 0
    endloop
  endfacet
  facet normal 0 0 -1
    outer loop
      vertex 8.27609 3.85 0
      vertex 4.85 4.52776 0
      vertex 5.03489 4.6513 0
    endloop
  endfacet
  facet normal 0 0 -1
    outer loop
      vertex 0 0 0
      vertex 9.85 2.27609 0
      vertex 10.3545 2.02732 0
    endloop
  endfacet
  facet normal 0 0 -1
    outer loop
      vertex 8.58858 3.38233 0
      vertex 4.65056 4.4294 0
      vertex 4.85 4.52776 0
    endloop
  endfacet
  facet normal 0 0 -1
    outer loop
      vertex 8.58858 3.38233 0
      vertex 4.43999 4.35793 0
      vertex 4.65056 4.4294 0
    endloop
  endfacet
  facet normal -0 0 -1
    outer loop
      vertex 8.95944 2.95944 0
      vertex 0 0 0
      vertex 4.22189 4.31454 0
    endloop
  endfacet
  facet normal 0 0 -1
    outer loop
      vertex 8.95944 2.95944 0
      vertex 4.22189 4.31454 0
      vertex 4.43999 4.35793 0
    endloop
  endfacet
  facet normal 0 0 -1
    outer loop
      vertex 4.22189 4.31454 0
      vertex 0 0 0
      vertex 4 4.3 0
    endloop
  endfacet
  facet normal -0 0 -1
    outer loop
      vertex 4 4.3 0
      vertex 0 0 0
      vertex 3.7781 4.31454 0
    endloop
  endfacet
  facet normal -0 0 -1
    outer loop
      vertex 3.7781 4.31454 0
      vertex 0 0 0
      vertex 3.56001 4.35793 0
    endloop
  endfacet
  facet normal -0 0 -1
    outer loop
      vertex 2.31454 5.7781 0
      vertex 0 0 0
      vertex 2.3 6 0
    endloop
  endfacet
  facet normal -0 0 -1
    outer loop
      vertex 2.35793 5.56001 0
      vertex 0 0 0
      vertex 2.31454 5.7781 0
    endloop
  endfacet
  facet normal -0 0 -1
    outer loop
      vertex 2.4294 5.34944 0
      vertex 0 0 0
      vertex 2.35793 5.56001 0
    endloop
  endfacet
  facet normal -0 0 -1
    outer loop
      vertex 2.52776 5.15 0
      vertex 0 0 0
      vertex 2.4294 5.34944 0
    endloop
  endfacet
  facet normal -0 0 -1
    outer loop
      vertex 2.6513 4.96511 0
      vertex 0 0 0
      vertex 2.52776 5.15 0
    endloop
  endfacet
  facet normal -0 0 -1
    outer loop
      vertex 2.79792 4.79792 0
      vertex 0 0 0
      vertex 2.6513 4.96511 0
    endloop
  endfacet
  facet normal -0 0 -1
    outer loop
      vertex 2.96511 4.6513 0
      vertex 0 0 0
      vertex 2.79792 4.79792 0
    endloop
  endfacet
  facet normal -0 0 -1
    outer loop
      vertex 3.15 4.52776 0
      vertex 0 0 0
      vertex 2.96511 4.6513 0
    endloop
  endfacet
  facet normal -0 0 -1
    outer loop
      vertex 3.34944 4.4294 0
      vertex 0 0 0
      vertex 3.15 4.52776 0
    endloop
  endfacet
  facet normal -0 0 -1
    outer loop
      vertex 3.56001 4.35793 0
      vertex 0 0 0
      vertex 3.34944 4.4294 0
    endloop
  endfacet
  facet normal -0 0 -1
    outer loop
      vertex 10.8871 1.84652 0
      vertex 0 0 0
      vertex 10.3545 2.02732 0
    endloop
  endfacet
  facet normal -0 0 -1
    outer loop
      vertex 11.4387 1.73679 0
      vertex 0 0 0
      vertex 10.8871 1.84652 0
    endloop
  endfacet
  facet normal -0 0 -1
    outer loop
      vertex 12 1.7 0
      vertex 0 0 0
      vertex 11.4387 1.73679 0
    endloop
  endfacet
  facet normal 0 0 -1
    outer loop
      vertex 21.6855 6.22189 0
      vertex 24 12 0
      vertex 21.7 6 0
    endloop
  endfacet
  facet normal 0 0 -1
    outer loop
      vertex 21.6421 6.43999 0
      vertex 24 12 0
      vertex 21.6855 6.22189 0
    endloop
  endfacet
  facet normal 0 0 -1
    outer loop
      vertex 21.5706 6.65056 0
      vertex 24 12 0
      vertex 21.6421 6.43999 0
    endloop
  endfacet
  facet normal 0 0 -1
    outer loop
      vertex 21.4722 6.85 0
      vertex 24 12 0
      vertex 21.5706 6.65056 0
    endloop
  endfacet
  facet normal 0 0 -1
    outer loop
      vertex 21.3487 7.03489 0
      vertex 24 12 0
      vertex 21.4722 6.85 0
    endloop
  endfacet
  facet normal 0 0 -1
    outer loop
      vertex 21.2021 7.20208 0
      vertex 24 12 0
      vertex 21.3487 7.03489 0
    endloop
  endfacet
  facet normal 0 0 -1
    outer loop
      vertex 21.0349 7.3487 0
      vertex 24 12 0
      vertex 21.2021 7.20208 0
    endloop
  endfacet
  facet normal 0 0 -1
    outer loop
      vertex 20.85 7.47224 0
      vertex 24 12 0
      vertex 21.0349 7.3487 0
    endloop
  endfacet
  facet normal 0 0 -1
    outer loop
      vertex 20.6506 7.57059 0
      vertex 24 12 0
      vertex 20.85 7.47224 0
    endloop
  endfacet
  facet normal 0 0 -1
    outer loop
      vertex 20.44 7.64207 0
      vertex 24 12 0
      vertex 20.6506 7.57059 0
    endloop
  endfacet
  facet normal 0 0 -1
    outer loop
      vertex 20.2219 7.68546 0
      vertex 24 12 0
      vertex 20.44 7.64207 0
    endloop
  endfacet
  facet normal 0 0 -1
    outer loop
      vertex 20 7.7 0
      vertex 24 12 0
      vertex 20.2219 7.68546 0
    endloop
  endfacet
  facet normal 0 0 -1
    outer loop
      vertex 19.7781 7.68546 0
      vertex 24 12 0
      vertex 20 7.7 0
    endloop
  endfacet
  facet normal 0 0 -1
    outer loop
      vertex 15.0406 9.04056 0
      vertex 19.7781 7.68546 0
      vertex 19.56 7.64207 0
    endloop
  endfacet
  facet normal 0 0 -1
    outer loop
      vertex 15.4114 8.61767 0
      vertex 19.56 7.64207 0
      vertex 19.3494 7.57059 0
    endloop
  endfacet
  facet normal 0 0 -1
    outer loop
      vertex 15.4114 8.61767 0
      vertex 19.3494 7.57059 0
      vertex 19.15 7.47224 0
    endloop
  endfacet
  facet normal 0 0 -1
    outer loop
      vertex 15.7239 8.15 0
      vertex 19.15 7.47224 0
      vertex 18.9651 7.3487 0
    endloop
  endfacet
  facet normal 0 0 -1
    outer loop
      vertex 15.7239 8.15 0
      vertex 18.9651 7.3487 0
      vertex 18.7979 7.20208 0
    endloop
  endfacet
  facet normal 0 0 -1
    outer loop
      vertex 16.3 6 0
      vertex 18.3145 6.22189 0
      vertex 18.3 6 0
    endloop
  endfacet
  facet normal 0 0 -1
    outer loop
      vertex 16.2632 6.56126 0
      vertex 18.3145 6.22189 0
      vertex 16.3 6 0
    endloop
  endfacet
  facet normal 0 0 -1
    outer loop
      vertex 18.3145 6.22189 0
      vertex 16.2632 6.56126 0
      vertex 18.3579 6.43999 0
    endloop
  endfacet
  facet normal 0 0 -1
    outer loop
      vertex 18.3579 6.43999 0
      vertex 16.2632 6.56126 0
      vertex 18.4294 6.65056 0
    endloop
  endfacet
  facet normal 0 0 -1
    outer loop
      vertex 16.1535 7.11292 0
      vertex 18.4294 6.65056 0
      vertex 16.2632 6.56126 0
    endloop
  endfacet
  facet normal 0 0 -1
    outer loop
      vertex 18.4294 6.65056 0
      vertex 16.1535 7.11292 0
      vertex 18.5278 6.85 0
    endloop
  endfacet
  facet normal 0 0 -1
    outer loop
      vertex 18.5278 6.85 0
      vertex 16.1535 7.11292 0
      vertex 18.6513 7.03489 0
    endloop
  endfacet
  facet normal 0 0 -1
    outer loop
      vertex 15.9727 7.64554 0
      vertex 18.6513 7.03489 0
      vertex 16.1535 7.11292 0
    endloop
  endfacet
  facet normal 0 0 -1
    outer loop
      vertex 18.6513 7.03489 0
      vertex 15.9727 7.64554 0
      vertex 18.7979 7.20208 0
    endloop
  endfacet
  facet normal 0 0 -1
    outer loop
      vertex 15.7239 8.15 0
      vertex 18.7979 7.20208 0
      vertex 15.9727 7.64554 0
    endloop
  endfacet
  facet normal 0 0 -1
    outer loop
      vertex 19.15 7.47224 0
      vertex 15.7239 8.15 0
      vertex 15.4114 8.61767 0
    endloop
  endfacet
  facet normal 0 0 -1
    outer loop
      vertex 19.56 7.64207 0
      vertex 15.4114 8.61767 0
      vertex 15.0406 9.04056 0
    endloop
  endfacet
  facet normal 0 0 -1
    outer loop
      vertex 19.7781 7.68546 0
      vertex 15.0406 9.04056 0
      vertex 24 12 0
    endloop
  endfacet
  facet normal 0 0 -1
    outer loop
      vertex 14.6177 9.41142 0
      vertex 24 12 0
      vertex 15.0406 9.04056 0
    endloop
  endfacet
  facet normal 0 0 -1
    outer loop
      vertex 14.15 9.72391 0
      vertex 24 12 0
      vertex 14.6177 9.41142 0
    endloop
  endfacet
  facet normal 0 0 -1
    outer loop
      vertex 13.6455 9.97268 0
      vertex 24 12 0
      vertex 14.15 9.72391 0
    endloop
  endfacet
  facet normal 0 0 -1
    outer loop
      vertex 13.1129 10.1535 0
      vertex 24 12 0
      vertex 13.6455 9.97268 0
    endloop
  endfacet
  facet normal 0 0 -1
    outer loop
      vertex 12.5613 10.2632 0
      vertex 24 12 0
      vertex 13.1129 10.1535 0
    endloop
  endfacet
  facet normal 0 0 -1
    outer loop
      vertex 12 10.3 0
      vertex 24 12 0
      vertex 12.5613 10.2632 0
    endloop
  endfacet
  facet normal 0 0 -1
    outer loop
      vertex 0 12 0
      vertex 12 10.3 0
      vertex 11.4387 10.2632 0
    endloop
  endfacet
  facet normal 0 0 -1
    outer loop
      vertex 5.68546 6.22189 0
      vertex 7.7 6 0
      vertex 5.7 6 0
    endloop
  endfacet
  facet normal 0 0 -1
    outer loop
      vertex 7.7 6 0
      vertex 5.68546 6.22189 0
      vertex 7.73679 6.56126 0
    endloop
  endfacet
  facet normal 0 0 -1
    outer loop
      vertex 5.64207 6.43999 0
      vertex 7.73679 6.56126 0
      vertex 5.68546 6.22189 0
    endloop
  endfacet
  facet normal 0 0 -1
    outer loop
      vertex 5.57059 6.65056 0
      vertex 7.73679 6.56126 0
      vertex 5.64207 6.43999 0
    endloop
  endfacet
  facet normal 0 0 -1
    outer loop
      vertex 7.73679 6.56126 0
      vertex 5.57059 6.65056 0
      vertex 7.84652 7.11292 0
    endloop
  endfacet
  facet normal 0 0 -1
    outer loop
      vertex 5.47224 6.85 0
      vertex 7.84652 7.11292 0
      vertex 5.57059 6.65056 0
    endloop
  endfacet
  facet normal 0 0 -1
    outer loop
      vertex 5.3487 7.03489 0
      vertex 7.84652 7.11292 0
      vertex 5.47224 6.85 0
    endloop
  endfacet
  facet normal -0 0 -1
    outer loop
      vertex 7.84652 7.11292 0
      vertex 5.3487 7.03489 0
      vertex 8.02732 7.64554 0
    endloop
  endfacet
  facet normal 0 0 -1
    outer loop
      vertex 5.20208 7.20208 0
      vertex 8.02732 7.64554 0
      vertex 5.3487 7.03489 0
    endloop
  endfacet
  facet normal -0 0 -1
    outer loop
      vertex 8.02732 7.64554 0
      vertex 5.20208 7.20208 0
      vertex 8.27609 8.15 0
    endloop
  endfacet
  facet normal 0 0 -1
    outer loop
      vertex 5.03489 7.3487 0
      vertex 8.27609 8.15 0
      vertex 5.20208 7.20208 0
    endloop
  endfacet
  facet normal 0 0 -1
    outer loop
      vertex 4.85 7.47224 0
      vertex 8.27609 8.15 0
      vertex 5.03489 7.3487 0
    endloop
  endfacet
  facet normal -0 0 -1
    outer loop
      vertex 8.27609 8.15 0
      vertex 4.85 7.47224 0
      vertex 8.58858 8.61767 0
    endloop
  endfacet
  facet normal 0 0 -1
    outer loop
      vertex 4.65056 7.57059 0
      vertex 8.58858 8.61767 0
      vertex 4.85 7.47224 0
    endloop
  endfacet
  facet normal 0 0 -1
    outer loop
      vertex 4.43999 7.64207 0
      vertex 8.58858 8.61767 0
      vertex 4.65056 7.57059 0
    endloop
  endfacet
  facet normal -0 0 -1
    outer loop
      vertex 8.58858 8.61767 0
      vertex 4.43999 7.64207 0
      vertex 8.95944 9.04056 0
    endloop
  endfacet
  facet normal 0 0 -1
    outer loop
      vertex 4.22189 7.68546 0
      vertex 8.95944 9.04056 0
      vertex 4.43999 7.64207 0
    endloop
  endfacet
  facet normal 0 0 -1
    outer loop
      vertex 0 12 0
      vertex 8.95944 9.04056 0
      vertex 4.22189 7.68546 0
    endloop
  endfacet
  facet normal 0 0 -1
    outer loop
      vertex 9.38233 9.41142 0
      vertex 0 12 0
      vertex 9.85 9.72391 0
    endloop
  endfacet
  facet normal 0 0 -1
    outer loop
      vertex 8.95944 9.04056 0
      vertex 0 12 0
      vertex 9.38233 9.41142 0
    endloop
  endfacet
  facet normal 0 0 -1
    outer loop
      vertex 0 12 0
      vertex 4.22189 7.68546 0
      vertex 4 7.7 0
    endloop
  endfacet
  facet normal 0 0 -1
    outer loop
      vertex 0 12 0
      vertex 4 7.7 0
      vertex 3.7781 7.68546 0
    endloop
  endfacet
  facet normal 0 0 -1
    outer loop
      vertex 0 12 0
      vertex 3.7781 7.68546 0
      vertex 3.56001 7.64207 0
    endloop
  endfacet
  facet normal 0 0 -1
    outer loop
      vertex 0 12 0
      vertex 3.56001 7.64207 0
      vertex 3.34944 7.57059 0
    endloop
  endfacet
  facet normal 0 0 -1
    outer loop
      vertex 0 12 0
      vertex 2.3 6 0
      vertex 0 0 0
    endloop
  endfacet
  facet normal 0 0 -1
    outer loop
      vertex 2.3 6 0
      vertex 0 12 0
      vertex 2.31454 6.22189 0
    endloop
  endfacet
  facet normal 0 0 -1
    outer loop
      vertex 2.31454 6.22189 0
      vertex 0 12 0
      vertex 2.35793 6.43999 0
    endloop
  endfacet
  facet normal 0 0 -1
    outer loop
      vertex 12 10.3 0
      vertex 0 12 0
      vertex 24 12 0
    endloop
  endfacet
  facet normal 0 0 -1
    outer loop
      vertex 10.8871 10.1535 0
      vertex 0 12 0
      vertex 11.4387 10.2632 0
    endloop
  endfacet
  facet normal 0 0 -1
    outer loop
      vertex 10.3545 9.97268 0
      vertex 0 12 0
      vertex 10.8871 10.1535 0
    endloop
  endfacet
  facet normal 0 0 -1
    outer loop
      vertex 9.85 9.72391 0
      vertex 0 12 0
      vertex 10.3545 9.97268 0
    endloop
  endfacet
  facet normal 0 0 -1
    outer loop
      vertex 3.15 7.47224 0
      vertex 0 12 0
      vertex 3.34944 7.57059 0
    endloop
  endfacet
  facet normal 0 0 -1
    outer loop
      vertex 2.96511 7.3487 0
      vertex 0 12 0
      vertex 3.15 7.47224 0
    endloop
  endfacet
  facet normal 0 0 -1
    outer loop
      vertex 2.79792 7.20208 0
      vertex 0 12 0
      vertex 2.96511 7.3487 0
    endloop
  endfacet
  facet normal 0 0 -1
    outer loop
      vertex 2.6513 7.03489 0
      vertex 0 12 0
      vertex 2.79792 7.20208 0
    endloop
  endfacet
  facet normal 0 0 -1
    outer loop
      vertex 2.52776 6.85 0
      vertex 0 12 0
      vertex 2.6513 7.03489 0
    endloop
  endfacet
  facet normal 0 0 -1
    outer loop
      vertex 2.4294 6.65056 0
      vertex 0 12 0
      vertex 2.52776 6.85 0
    endloop
  endfacet
  facet normal 0 0 -1
    outer loop
      vertex 2.35793 6.43999 0
      vertex 0 12 0
      vertex 2.4294 6.65056 0
    endloop
  endfacet
  facet normal -1 0 0
    outer loop
      vertex 0 0 0
      vertex 0 12 3
      vertex 0 12 0
    endloop
  endfacet
  facet normal -1 -0 0
    outer loop
      vertex 0 12 3
      vertex 0 0 0
      vertex 0 0 3
    endloop
  endfacet
  facet normal 0 1 -0
    outer loop
      vertex 24 12 0
      vertex 0 12 3
      vertex 24 12 3
    endloop
  endfacet
  facet normal 0 1 0
    outer loop
      vertex 0 12 3
      vertex 24 12 0
      vertex 0 12 0
    endloop
  endfacet
  facet normal 0 -1 0
    outer loop
      vertex 0 0 0
      vertex 24 0 3
      vertex 0 0 3
    endloop
  endfacet
  facet normal 0 -1 -0
    outer loop
      vertex 24 0 3
      vertex 0 0 0
      vertex 24 0 0
    endloop
  endfacet
  facet normal -0.980796 -0.195036 0
    outer loop
      vertex 16.2632 6.56126 0
      vertex 16.1535 7.11292 1.2
      vertex 16.1535 7.11292 0
    endloop
  endfacet
  facet normal -0.980796 -0.195036 0
    outer loop
      vertex 16.1535 7.11292 1.2
      vertex 16.2632 6.56126 0
      vertex 16.2632 6.56126 1.2
    endloop
  endfacet
  facet normal -0.997857 -0.0654263 0
    outer loop
      vertex 16.3 6 0
      vertex 16.2632 6.56126 1.2
      vertex 16.2632 6.56126 0
    endloop
  endfacet
  facet normal -0.997857 -0.0654263 0
    outer loop
      vertex 16.2632 6.56126 1.2
      vertex 16.3 6 0
      vertex 16.3 6 1.2
    endloop
  endfacet
  facet normal -0.751897 0.659281 0
    outer loop
      vertex 15.0406 2.95944 0
      vertex 15.4114 3.38233 1.2
      vertex 15.4114 3.38233 0
    endloop
  endfacet
  facet normal -0.751897 0.659281 0
    outer loop
      vertex 15.4114 3.38233 1.2
      vertex 15.0406 2.95944 0
      vertex 15.0406 2.95944 1.2
    endloop
  endfacet
  facet normal -0.997857 0.0654263 0
    outer loop
      vertex 16.2632 5.43874 0
      vertex 16.3 6 1.2
      vertex 16.3 6 0
    endloop
  endfacet
  facet normal -0.997857 0.0654263 0
    outer loop
      vertex 16.3 6 1.2
      vertex 16.2632 5.43874 0
      vertex 16.2632 5.43874 1.2
    endloop
  endfacet
  facet normal 0.659341 -0.751844 0
    outer loop
      vertex 8.95944 9.04056 0
      vertex 9.38233 9.41142 1.2
      vertex 8.95944 9.04056 1.2
    endloop
  endfacet
  facet normal 0.659341 -0.751844 0
    outer loop
      vertex 9.38233 9.41142 1.2
      vertex 8.95944 9.04056 0
      vertex 9.38233 9.41142 0
    endloop
  endfacet
  facet normal 0.751844 -0.659341 0
    outer loop
      vertex 8.58858 8.61767 1.2
      vertex 8.95944 9.04056 0
      vertex 8.95944 9.04056 1.2
    endloop
  endfacet
  facet normal 0.751844 -0.659341 0
    outer loop
      vertex 8.95944 9.04056 0
      vertex 8.58858 8.61767 1.2
      vertex 8.58858 8.61767 0
    endloop
  endfacet
  facet normal 0.555574 0.831467 -0
    outer loop
      vertex 9.85 2.27609 0
      vertex 9.38233 2.58858 1.2
      vertex 9.85 2.27609 1.2
    endloop
  endfacet
  facet normal 0.555574 0.831467 0
    outer loop
      vertex 9.38233 2.58858 1.2
      vertex 9.85 2.27609 0
      vertex 9.38233 2.58858 0
    endloop
  endfacet
  facet normal -0.442257 -0.896888 0
    outer loop
      vertex 13.6455 9.97268 0
      vertex 14.15 9.72391 1.2
      vertex 13.6455 9.97268 1.2
    endloop
  endfacet
  facet normal -0.442257 -0.896888 -0
    outer loop
      vertex 14.15 9.72391 1.2
      vertex 13.6455 9.97268 0
      vertex 14.15 9.72391 0
    endloop
  endfacet
  facet normal -0.0654216 -0.997858 0
    outer loop
      vertex 12 10.3 0
      vertex 12.5613 10.2632 1.2
      vertex 12 10.3 1.2
    endloop
  endfacet
  facet normal -0.0654216 -0.997858 -0
    outer loop
      vertex 12.5613 10.2632 1.2
      vertex 12 10.3 0
      vertex 12.5613 10.2632 0
    endloop
  endfacet
  facet normal -0.831459 0.555586 0
    outer loop
      vertex 15.4114 3.38233 0
      vertex 15.7239 3.85 1.2
      vertex 15.7239 3.85 0
    endloop
  endfacet
  facet normal -0.831459 0.555586 0
    outer loop
      vertex 15.7239 3.85 1.2
      vertex 15.4114 3.38233 0
      vertex 15.4114 3.38233 1.2
    endloop
  endfacet
  facet normal 0.195107 0.980782 -0
    outer loop
      vertex 11.4387 1.73679 0
      vertex 10.8871 1.84652 1.2
      vertex 11.4387 1.73679 1.2
    endloop
  endfacet
  facet normal 0.195107 0.980782 0
    outer loop
      vertex 10.8871 1.84652 1.2
      vertex 11.4387 1.73679 0
      vertex 10.8871 1.84652 0
    endloop
  endfacet
  facet normal 0.442257 -0.896888 0
    outer loop
      vertex 9.85 9.72391 0
      vertex 10.3545 9.97268 1.2
      vertex 9.85 9.72391 1.2
    endloop
  endfacet
  facet normal 0.442257 -0.896888 0
    outer loop
      vertex 10.3545 9.97268 1.2
      vertex 9.85 9.72391 0
      vertex 10.3545 9.97268 0
    endloop
  endfacet
  facet normal -0.32145 0.946927 0
    outer loop
      vertex 13.6455 2.02732 0
      vertex 13.1129 1.84652 1.2
      vertex 13.6455 2.02732 1.2
    endloop
  endfacet
  facet normal -0.32145 0.946927 0
    outer loop
      vertex 13.1129 1.84652 1.2
      vertex 13.6455 2.02732 0
      vertex 13.1129 1.84652 0
    endloop
  endfacet
  facet normal 0.555574 -0.831467 0
    outer loop
      vertex 9.38233 9.41142 0
      vertex 9.85 9.72391 1.2
      vertex 9.38233 9.41142 1.2
    endloop
  endfacet
  facet normal 0.555574 -0.831467 0
    outer loop
      vertex 9.85 9.72391 1.2
      vertex 9.38233 9.41142 0
      vertex 9.85 9.72391 0
    endloop
  endfacet
  facet normal -0.0654039 0.997859 0
    outer loop
      vertex 12.5613 1.73679 0
      vertex 12 1.7 1.2
      vertex 12.5613 1.73679 1.2
    endloop
  endfacet
  facet normal -0.0654039 0.997859 0
    outer loop
      vertex 12 1.7 1.2
      vertex 12.5613 1.73679 0
      vertex 12 1.7 0
    endloop
  endfacet
  facet normal 0.980786 0.195087 0
    outer loop
      vertex 7.84652 4.88708 1.2
      vertex 7.73679 5.43874 0
      vertex 7.73679 5.43874 1.2
    endloop
  endfacet
  facet normal 0.980786 0.195087 0
    outer loop
      vertex 7.73679 5.43874 0
      vertex 7.84652 4.88708 1.2
      vertex 7.84652 4.88708 0
    endloop
  endfacet
  facet normal 0.0654039 0.997859 -0
    outer loop
      vertex 12 1.7 0
      vertex 11.4387 1.73679 1.2
      vertex 12 1.7 1.2
    endloop
  endfacet
  facet normal 0.0654039 0.997859 0
    outer loop
      vertex 11.4387 1.73679 1.2
      vertex 12 1.7 0
      vertex 11.4387 1.73679 0
    endloop
  endfacet
  facet normal -0.195056 -0.980792 0
    outer loop
      vertex 12.5613 10.2632 0
      vertex 13.1129 10.1535 1.2
      vertex 12.5613 10.2632 1.2
    endloop
  endfacet
  facet normal -0.195056 -0.980792 -0
    outer loop
      vertex 13.1129 10.1535 1.2
      vertex 12.5613 10.2632 0
      vertex 13.1129 10.1535 0
    endloop
  endfacet
  facet normal 0.896874 0.442286 0
    outer loop
      vertex 8.27609 3.85 1.2
      vertex 8.02732 4.35446 0
      vertex 8.02732 4.35446 1.2
    endloop
  endfacet
  facet normal 0.896874 0.442286 0
    outer loop
      vertex 8.02732 4.35446 0
      vertex 8.27609 3.85 1.2
      vertex 8.27609 3.85 0
    endloop
  endfacet
  facet normal 0.997859 -0.0654086 0
    outer loop
      vertex 7.7 6 1.2
      vertex 7.73679 6.56126 0
      vertex 7.73679 6.56126 1.2
    endloop
  endfacet
  facet normal 0.997859 -0.0654086 0
    outer loop
      vertex 7.73679 6.56126 0
      vertex 7.7 6 1.2
      vertex 7.7 6 0
    endloop
  endfacet
  facet normal 0.321482 -0.946916 0
    outer loop
      vertex 10.3545 9.97268 0
      vertex 10.8871 10.1535 1.2
      vertex 10.3545 9.97268 1.2
    endloop
  endfacet
  facet normal 0.321482 -0.946916 0
    outer loop
      vertex 10.8871 10.1535 1.2
      vertex 10.3545 9.97268 0
      vertex 10.8871 10.1535 0
    endloop
  endfacet
  facet normal -0.751897 -0.659281 0
    outer loop
      vertex 15.4114 8.61767 0
      vertex 15.0406 9.04056 1.2
      vertex 15.0406 9.04056 0
    endloop
  endfacet
  facet normal -0.751897 -0.659281 0
    outer loop
      vertex 15.0406 9.04056 1.2
      vertex 15.4114 8.61767 0
      vertex 15.4114 8.61767 1.2
    endloop
  endfacet
  facet normal -0.831459 -0.555586 0
    outer loop
      vertex 15.7239 8.15 0
      vertex 15.4114 8.61767 1.2
      vertex 15.4114 8.61767 0
    endloop
  endfacet
  facet normal -0.831459 -0.555586 0
    outer loop
      vertex 15.4114 8.61767 1.2
      vertex 15.7239 8.15 0
      vertex 15.7239 8.15 1.2
    endloop
  endfacet
  facet normal -0.896853 0.442329 0
    outer loop
      vertex 15.7239 3.85 0
      vertex 15.9727 4.35446 1.2
      vertex 15.9727 4.35446 0
    endloop
  endfacet
  facet normal -0.896853 0.442329 0
    outer loop
      vertex 15.9727 4.35446 1.2
      vertex 15.7239 3.85 0
      vertex 15.7239 3.85 1.2
    endloop
  endfacet
  facet normal -0.195107 0.980782 0
    outer loop
      vertex 13.1129 1.84652 0
      vertex 12.5613 1.73679 1.2
      vertex 13.1129 1.84652 1.2
    endloop
  endfacet
  facet normal -0.195107 0.980782 0
    outer loop
      vertex 12.5613 1.73679 1.2
      vertex 13.1129 1.84652 0
      vertex 12.5613 1.73679 0
    endloop
  endfacet
  facet normal -0.94693 0.321439 0
    outer loop
      vertex 15.9727 4.35446 0
      vertex 16.1535 4.88708 1.2
      vertex 16.1535 4.88708 0
    endloop
  endfacet
  facet normal -0.94693 0.321439 0
    outer loop
      vertex 16.1535 4.88708 1.2
      vertex 15.9727 4.35446 0
      vertex 15.9727 4.35446 1.2
    endloop
  endfacet
  facet normal 0.94693 -0.321439 0
    outer loop
      vertex 7.84652 7.11292 1.2
      vertex 8.02732 7.64554 0
      vertex 8.02732 7.64554 1.2
    endloop
  endfacet
  facet normal 0.94693 -0.321439 0
    outer loop
      vertex 8.02732 7.64554 0
      vertex 7.84652 7.11292 1.2
      vertex 7.84652 7.11292 0
    endloop
  endfacet
  facet normal -0.555549 -0.831484 0
    outer loop
      vertex 14.15 9.72391 0
      vertex 14.6177 9.41142 1.2
      vertex 14.15 9.72391 1.2
    endloop
  endfacet
  facet normal -0.555549 -0.831484 -0
    outer loop
      vertex 14.6177 9.41142 1.2
      vertex 14.15 9.72391 0
      vertex 14.6177 9.41142 0
    endloop
  endfacet
  facet normal -0.321482 -0.946916 0
    outer loop
      vertex 13.1129 10.1535 0
      vertex 13.6455 9.97268 1.2
      vertex 13.1129 10.1535 1.2
    endloop
  endfacet
  facet normal -0.321482 -0.946916 -0
    outer loop
      vertex 13.6455 9.97268 1.2
      vertex 13.1129 10.1535 0
      vertex 13.6455 9.97268 0
    endloop
  endfacet
  facet normal 0.195056 -0.980792 0
    outer loop
      vertex 10.8871 10.1535 0
      vertex 11.4387 10.2632 1.2
      vertex 10.8871 10.1535 1.2
    endloop
  endfacet
  facet normal 0.195056 -0.980792 0
    outer loop
      vertex 11.4387 10.2632 1.2
      vertex 10.8871 10.1535 0
      vertex 11.4387 10.2632 0
    endloop
  endfacet
  facet normal -0.896853 -0.442329 0
    outer loop
      vertex 15.9727 7.64554 0
      vertex 15.7239 8.15 1.2
      vertex 15.7239 8.15 0
    endloop
  endfacet
  facet normal -0.896853 -0.442329 0
    outer loop
      vertex 15.7239 8.15 1.2
      vertex 15.9727 7.64554 0
      vertex 15.9727 7.64554 1.2
    endloop
  endfacet
  facet normal 0.831467 0.555574 0
    outer loop
      vertex 8.58858 3.38233 1.2
      vertex 8.27609 3.85 0
      vertex 8.27609 3.85 1.2
    endloop
  endfacet
  facet normal 0.831467 0.555574 0
    outer loop
      vertex 8.27609 3.85 0
      vertex 8.58858 3.38233 1.2
      vertex 8.58858 3.38233 0
    endloop
  endfacet
  facet normal -0.980796 0.195036 0
    outer loop
      vertex 16.1535 4.88708 0
      vertex 16.2632 5.43874 1.2
      vertex 16.2632 5.43874 0
    endloop
  endfacet
  facet normal -0.980796 0.195036 0
    outer loop
      vertex 16.2632 5.43874 1.2
      vertex 16.1535 4.88708 0
      vertex 16.1535 4.88708 1.2
    endloop
  endfacet
  facet normal -0.659332 -0.751852 0
    outer loop
      vertex 14.6177 9.41142 0
      vertex 15.0406 9.04056 1.2
      vertex 14.6177 9.41142 1.2
    endloop
  endfacet
  facet normal -0.659332 -0.751852 -0
    outer loop
      vertex 15.0406 9.04056 1.2
      vertex 14.6177 9.41142 0
      vertex 15.0406 9.04056 0
    endloop
  endfacet
  facet normal 0.980786 -0.195087 0
    outer loop
      vertex 7.73679 6.56126 1.2
      vertex 7.84652 7.11292 0
      vertex 7.84652 7.11292 1.2
    endloop
  endfacet
  facet normal 0.980786 -0.195087 0
    outer loop
      vertex 7.84652 7.11292 0
      vertex 7.73679 6.56126 1.2
      vertex 7.73679 6.56126 0
    endloop
  endfacet
  facet normal 0.32145 0.946927 -0
    outer loop
      vertex 10.8871 1.84652 0
      vertex 10.3545 2.02732 1.2
      vertex 10.8871 1.84652 1.2
    endloop
  endfacet
  facet normal 0.32145 0.946927 0
    outer loop
      vertex 10.3545 2.02732 1.2
      vertex 10.8871 1.84652 0
      vertex 10.3545 2.02732 0
    endloop
  endfacet
  facet normal -0.555549 0.831484 0
    outer loop
      vertex 14.6177 2.58858 0
      vertex 14.15 2.27609 1.2
      vertex 14.6177 2.58858 1.2
    endloop
  endfacet
  facet normal -0.555549 0.831484 0
    outer loop
      vertex 14.15 2.27609 1.2
      vertex 14.6177 2.58858 0
      vertex 14.15 2.27609 0
    endloop
  endfacet
  facet normal -0.659332 0.751852 0
    outer loop
      vertex 15.0406 2.95944 0
      vertex 14.6177 2.58858 1.2
      vertex 15.0406 2.95944 1.2
    endloop
  endfacet
  facet normal -0.659332 0.751852 0
    outer loop
      vertex 14.6177 2.58858 1.2
      vertex 15.0406 2.95944 0
      vertex 14.6177 2.58858 0
    endloop
  endfacet
  facet normal 0.0654216 -0.997858 0
    outer loop
      vertex 11.4387 10.2632 0
      vertex 12 10.3 1.2
      vertex 11.4387 10.2632 1.2
    endloop
  endfacet
  facet normal 0.0654216 -0.997858 0
    outer loop
      vertex 12 10.3 1.2
      vertex 11.4387 10.2632 0
      vertex 12 10.3 0
    endloop
  endfacet
  facet normal 0.94693 0.321439 0
    outer loop
      vertex 8.02732 4.35446 1.2
      vertex 7.84652 4.88708 0
      vertex 7.84652 4.88708 1.2
    endloop
  endfacet
  facet normal 0.94693 0.321439 0
    outer loop
      vertex 7.84652 4.88708 0
      vertex 8.02732 4.35446 1.2
      vertex 8.02732 4.35446 0
    endloop
  endfacet
  facet normal 0.831467 -0.555574 0
    outer loop
      vertex 8.27609 8.15 1.2
      vertex 8.58858 8.61767 0
      vertex 8.58858 8.61767 1.2
    endloop
  endfacet
  facet normal 0.831467 -0.555574 0
    outer loop
      vertex 8.58858 8.61767 0
      vertex 8.27609 8.15 1.2
      vertex 8.27609 8.15 0
    endloop
  endfacet
  facet normal 0 0 -1
    outer loop
      vertex 16.2632 5.43874 1.2
      vertex 16.2632 6.56126 1.2
      vertex 16.3 6 1.2
    endloop
  endfacet
  facet normal 0 0 -1
    outer loop
      vertex 16.1535 4.88708 1.2
      vertex 16.2632 6.56126 1.2
      vertex 16.2632 5.43874 1.2
    endloop
  endfacet
  facet normal 0 0 -1
    outer loop
      vertex 16.1535 4.88708 1.2
      vertex 16.1535 7.11292 1.2
      vertex 16.2632 6.56126 1.2
    endloop
  endfacet
  facet normal 0 0 -1
    outer loop
      vertex 15.9727 4.35446 1.2
      vertex 16.1535 7.11292 1.2
      vertex 16.1535 4.88708 1.2
    endloop
  endfacet
  facet normal 0 0 -1
    outer loop
      vertex 15.9727 4.35446 1.2
      vertex 15.9727 7.64554 1.2
      vertex 16.1535 7.11292 1.2
    endloop
  endfacet
  facet normal 0 0 -1
    outer loop
      vertex 15.7239 3.85 1.2
      vertex 15.9727 7.64554 1.2
      vertex 15.9727 4.35446 1.2
    endloop
  endfacet
  facet normal 0 0 -1
    outer loop
      vertex 15.7239 3.85 1.2
      vertex 15.7239 8.15 1.2
      vertex 15.9727 7.64554 1.2
    endloop
  endfacet
  facet normal 0 0 -1
    outer loop
      vertex 15.4114 3.38233 1.2
      vertex 15.7239 8.15 1.2
      vertex 15.7239 3.85 1.2
    endloop
  endfacet
  facet normal 0 0 -1
    outer loop
      vertex 15.4114 3.38233 1.2
      vertex 15.4114 8.61767 1.2
      vertex 15.7239 8.15 1.2
    endloop
  endfacet
  facet normal 0 0 -1
    outer loop
      vertex 15.0406 2.95944 1.2
      vertex 15.4114 8.61767 1.2
      vertex 15.4114 3.38233 1.2
    endloop
  endfacet
  facet normal 0 0 -1
    outer loop
      vertex 15.0406 2.95944 1.2
      vertex 15.0406 9.04056 1.2
      vertex 15.4114 8.61767 1.2
    endloop
  endfacet
  facet normal 0 0 -1
    outer loop
      vertex 14.6177 2.58858 1.2
      vertex 15.0406 9.04056 1.2
      vertex 15.0406 2.95944 1.2
    endloop
  endfacet
  facet normal 0 0 -1
    outer loop
      vertex 14.6177 2.58858 1.2
      vertex 14.6177 9.41142 1.2
      vertex 15.0406 9.04056 1.2
    endloop
  endfacet
  facet normal 0 0 -1
    outer loop
      vertex 14.15 2.27609 1.2
      vertex 14.6177 9.41142 1.2
      vertex 14.6177 2.58858 1.2
    endloop
  endfacet
  facet normal 0 0 -1
    outer loop
      vertex 14.15 2.27609 1.2
      vertex 14.15 9.72391 1.2
      vertex 14.6177 9.41142 1.2
    endloop
  endfacet
  facet normal 0 0 -1
    outer loop
      vertex 13.6455 2.02732 1.2
      vertex 14.15 9.72391 1.2
      vertex 14.15 2.27609 1.2
    endloop
  endfacet
  facet normal 0 0 -1
    outer loop
      vertex 13.6455 2.02732 1.2
      vertex 13.6455 9.97268 1.2
      vertex 14.15 9.72391 1.2
    endloop
  endfacet
  facet normal 0 0 -1
    outer loop
      vertex 13.1129 1.84652 1.2
      vertex 13.6455 9.97268 1.2
      vertex 13.6455 2.02732 1.2
    endloop
  endfacet
  facet normal 0 0 -1
    outer loop
      vertex 13.1129 1.84652 1.2
      vertex 13.1129 10.1535 1.2
      vertex 13.6455 9.97268 1.2
    endloop
  endfacet
  facet normal 0 0 -1
    outer loop
      vertex 12.5613 1.73679 1.2
      vertex 13.1129 10.1535 1.2
      vertex 13.1129 1.84652 1.2
    endloop
  endfacet
  facet normal 0 0 -1
    outer loop
      vertex 12.5613 1.73679 1.2
      vertex 12.5613 10.2632 1.2
      vertex 13.1129 10.1535 1.2
    endloop
  endfacet
  facet normal 0 0 -1
    outer loop
      vertex 12 1.7 1.2
      vertex 12.5613 10.2632 1.2
      vertex 12.5613 1.73679 1.2
    endloop
  endfacet
  facet normal 0 0 -1
    outer loop
      vertex 12 1.7 1.2
      vertex 12 10.3 1.2
      vertex 12.5613 10.2632 1.2
    endloop
  endfacet
  facet normal 0 0 -1
    outer loop
      vertex 11.4387 1.73679 1.2
      vertex 12 10.3 1.2
      vertex 12 1.7 1.2
    endloop
  endfacet
  facet normal 0 0 -1
    outer loop
      vertex 11.4387 1.73679 1.2
      vertex 11.4387 10.2632 1.2
      vertex 12 10.3 1.2
    endloop
  endfacet
  facet normal 0 0 -1
    outer loop
      vertex 10.8871 1.84652 1.2
      vertex 11.4387 10.2632 1.2
      vertex 11.4387 1.73679 1.2
    endloop
  endfacet
  facet normal 0 0 -1
    outer loop
      vertex 10.8871 1.84652 1.2
      vertex 10.8871 10.1535 1.2
      vertex 11.4387 10.2632 1.2
    endloop
  endfacet
  facet normal 0 0 -1
    outer loop
      vertex 10.3545 2.02732 1.2
      vertex 10.8871 10.1535 1.2
      vertex 10.8871 1.84652 1.2
    endloop
  endfacet
  facet normal 0 0 -1
    outer loop
      vertex 10.3545 2.02732 1.2
      vertex 10.3545 9.97268 1.2
      vertex 10.8871 10.1535 1.2
    endloop
  endfacet
  facet normal 0 0 -1
    outer loop
      vertex 9.85 2.27609 1.2
      vertex 10.3545 9.97268 1.2
      vertex 10.3545 2.02732 1.2
    endloop
  endfacet
  facet normal 0 0 -1
    outer loop
      vertex 9.85 2.27609 1.2
      vertex 9.85 9.72391 1.2
      vertex 10.3545 9.97268 1.2
    endloop
  endfacet
  facet normal 0 0 -1
    outer loop
      vertex 9.38233 2.58858 1.2
      vertex 9.85 9.72391 1.2
      vertex 9.85 2.27609 1.2
    endloop
  endfacet
  facet normal 0 0 -1
    outer loop
      vertex 9.38233 2.58858 1.2
      vertex 9.38233 9.41142 1.2
      vertex 9.85 9.72391 1.2
    endloop
  endfacet
  facet normal 0 0 -1
    outer loop
      vertex 8.95944 2.95944 1.2
      vertex 9.38233 9.41142 1.2
      vertex 9.38233 2.58858 1.2
    endloop
  endfacet
  facet normal 0 0 -1
    outer loop
      vertex 8.95944 2.95944 1.2
      vertex 8.95944 9.04056 1.2
      vertex 9.38233 9.41142 1.2
    endloop
  endfacet
  facet normal 0 0 -1
    outer loop
      vertex 8.58858 3.38233 1.2
      vertex 8.95944 9.04056 1.2
      vertex 8.95944 2.95944 1.2
    endloop
  endfacet
  facet normal 0 0 -1
    outer loop
      vertex 8.58858 3.38233 1.2
      vertex 8.58858 8.61767 1.2
      vertex 8.95944 9.04056 1.2
    endloop
  endfacet
  facet normal 0 0 -1
    outer loop
      vertex 8.27609 3.85 1.2
      vertex 8.58858 8.61767 1.2
      vertex 8.58858 3.38233 1.2
    endloop
  endfacet
  facet normal 0 0 -1
    outer loop
      vertex 8.27609 3.85 1.2
      vertex 8.27609 8.15 1.2
      vertex 8.58858 8.61767 1.2
    endloop
  endfacet
  facet normal 0 0 -1
    outer loop
      vertex 8.02732 4.35446 1.2
      vertex 8.27609 8.15 1.2
      vertex 8.27609 3.85 1.2
    endloop
  endfacet
  facet normal 0 0 -1
    outer loop
      vertex 8.02732 4.35446 1.2
      vertex 8.02732 7.64554 1.2
      vertex 8.27609 8.15 1.2
    endloop
  endfacet
  facet normal 0 0 -1
    outer loop
      vertex 7.84652 4.88708 1.2
      vertex 8.02732 7.64554 1.2
      vertex 8.02732 4.35446 1.2
    endloop
  endfacet
  facet normal 0 0 -1
    outer loop
      vertex 7.84652 4.88708 1.2
      vertex 7.84652 7.11292 1.2
      vertex 8.02732 7.64554 1.2
    endloop
  endfacet
  facet normal 0 0 -1
    outer loop
      vertex 7.73679 5.43874 1.2
      vertex 7.84652 7.11292 1.2
      vertex 7.84652 4.88708 1.2
    endloop
  endfacet
  facet normal 0 0 -1
    outer loop
      vertex 7.73679 5.43874 1.2
      vertex 7.73679 6.56126 1.2
      vertex 7.84652 7.11292 1.2
    endloop
  endfacet
  facet normal 0 -0 -1
    outer loop
      vertex 7.73679 6.56126 1.2
      vertex 7.73679 5.43874 1.2
      vertex 7.7 6 1.2
    endloop
  endfacet
  facet normal 0.751844 0.659341 0
    outer loop
      vertex 8.95944 2.95944 1.2
      vertex 8.58858 3.38233 0
      vertex 8.58858 3.38233 1.2
    endloop
  endfacet
  facet normal 0.751844 0.659341 0
    outer loop
      vertex 8.58858 3.38233 0
      vertex 8.95944 2.95944 1.2
      vertex 8.95944 2.95944 0
    endloop
  endfacet
  facet normal -0.94693 -0.321439 0
    outer loop
      vertex 16.1535 7.11292 0
      vertex 15.9727 7.64554 1.2
      vertex 15.9727 7.64554 0
    endloop
  endfacet
  facet normal -0.94693 -0.321439 0
    outer loop
      vertex 15.9727 7.64554 1.2
      vertex 16.1535 7.11292 0
      vertex 16.1535 7.11292 1.2
    endloop
  endfacet
  facet normal -0.442257 0.896888 0
    outer loop
      vertex 14.15 2.27609 0
      vertex 13.6455 2.02732 1.2
      vertex 14.15 2.27609 1.2
    endloop
  endfacet
  facet normal -0.442257 0.896888 0
    outer loop
      vertex 13.6455 2.02732 1.2
      vertex 14.15 2.27609 0
      vertex 13.6455 2.02732 0
    endloop
  endfacet
  facet normal 0.997859 0.0654086 0
    outer loop
      vertex 7.73679 5.43874 1.2
      vertex 7.7 6 0
      vertex 7.7 6 1.2
    endloop
  endfacet
  facet normal 0.997859 0.0654086 0
    outer loop
      vertex 7.7 6 0
      vertex 7.73679 5.43874 1.2
      vertex 7.73679 5.43874 0
    endloop
  endfacet
  facet normal 0.659341 0.751844 -0
    outer loop
      vertex 9.38233 2.58858 0
      vertex 8.95944 2.95944 1.2
      vertex 9.38233 2.58858 1.2
    endloop
  endfacet
  facet normal 0.659341 0.751844 0
    outer loop
      vertex 8.95944 2.95944 1.2
      vertex 9.38233 2.58858 0
      vertex 8.95944 2.95944 0
    endloop
  endfacet
  facet normal 0.896874 -0.442286 0
    outer loop
      vertex 8.02732 7.64554 1.2
      vertex 8.27609 8.15 0
      vertex 8.27609 8.15 1.2
    endloop
  endfacet
  facet normal 0.896874 -0.442286 0
    outer loop
      vertex 8.27609 8.15 0
      vertex 8.02732 7.64554 1.2
      vertex 8.02732 7.64554 0
    endloop
  endfacet
  facet normal 0.442257 0.896888 -0
    outer loop
      vertex 10.3545 2.02732 0
      vertex 9.85 2.27609 1.2
      vertex 10.3545 2.02732 1.2
    endloop
  endfacet
  facet normal 0.442257 0.896888 0
    outer loop
      vertex 9.85 2.27609 1.2
      vertex 10.3545 2.02732 0
      vertex 9.85 2.27609 0
    endloop
  endfacet
endsolid OpenSCAD_Model
