solid OpenSCAD_Model
  facet normal 1 -0 0
    outer loop
      vertex 34 0 4
      vertex 34 28 0
      vertex 34 28 4
    endloop
  endfacet
  facet normal 1 0 0
    outer loop
      vertex 34 28 0
      vertex 34 0 4
      vertex 34 0 0
    endloop
  endfacet
  facet normal 0 0 1
    outer loop
      vertex 34 28 4
      vertex 22.7 14 4
      vertex 34 0 4
    endloop
  endfacet
  facet normal 0 0 1
    outer loop
      vertex 34 28 4
      vertex 22.6855 14.2219 4
      vertex 22.7 14 4
    endloop
  endfacet
  facet normal 0 0 1
    outer loop
      vertex 34 28 4
      vertex 22.6421 14.44 4
      vertex 22.6855 14.2219 4
    endloop
  endfacet
  facet normal 0 0 1
    outer loop
      vertex 34 28 4
      vertex 22.5706 14.6506 4
      vertex 22.6421 14.44 4
    endloop
  endfacet
  facet normal 0 0 1
    outer loop
      vertex 34 28 4
      vertex 22.4722 14.85 4
      vertex 22.5706 14.6506 4
    endloop
  endfacet
  facet normal 0 0 1
    outer loop
      vertex 34 28 4
      vertex 22.3487 15.0349 4
      vertex 22.4722 14.85 4
    endloop
  endfacet
  facet normal 0 0 1
    outer loop
      vertex 34 28 4
      vertex 22.2021 15.2021 4
      vertex 22.3487 15.0349 4
    endloop
  endfacet
  facet normal 0 0 1
    outer loop
      vertex 34 28 4
      vertex 22.0349 15.3487 4
      vertex 22.2021 15.2021 4
    endloop
  endfacet
  facet normal 0 0 1
    outer loop
      vertex 34 28 4
      vertex 21.85 15.4722 4
      vertex 22.0349 15.3487 4
    endloop
  endfacet
  facet normal 0 0 1
    outer loop
      vertex 34 28 4
      vertex 21.6506 15.5706 4
      vertex 21.85 15.4722 4
    endloop
  endfacet
  facet normal 0 0 1
    outer loop
      vertex 34 28 4
      vertex 21.44 15.6421 4
      vertex 21.6506 15.5706 4
    endloop
  endfacet
  facet normal 0 0 1
    outer loop
      vertex 34 28 4
      vertex 21.2219 15.6855 4
      vertex 21.44 15.6421 4
    endloop
  endfacet
  facet normal 0 0 1
    outer loop
      vertex 34 28 4
      vertex 21 15.7 4
      vertex 21.2219 15.6855 4
    endloop
  endfacet
  facet normal 0 0 1
    outer loop
      vertex 34 28 4
      vertex 20.7781 15.6855 4
      vertex 21 15.7 4
    endloop
  endfacet
  facet normal 0 0 1
    outer loop
      vertex 34 28 4
      vertex 20.56 15.6421 4
      vertex 20.7781 15.6855 4
    endloop
  endfacet
  facet normal 0 0 1
    outer loop
      vertex 13.44 15.6421 4
      vertex 20.56 15.6421 4
      vertex 34 28 4
    endloop
  endfacet
  facet normal 0 0 1
    outer loop
      vertex 20.56 15.6421 4
      vertex 13.44 15.6421 4
      vertex 20.3494 15.5706 4
    endloop
  endfacet
  facet normal 0 -0 1
    outer loop
      vertex 13.6506 15.5706 4
      vertex 20.3494 15.5706 4
      vertex 13.44 15.6421 4
    endloop
  endfacet
  facet normal 0 0 1
    outer loop
      vertex 20.3494 15.5706 4
      vertex 13.6506 15.5706 4
      vertex 20.15 15.4722 4
    endloop
  endfacet
  facet normal 0 0 1
    outer loop
      vertex 19.3145 14.2219 4
      vertex 14.7 14 4
      vertex 19.3 14 4
    endloop
  endfacet
  facet normal 0 0 1
    outer loop
      vertex 14.6855 14.2219 4
      vertex 19.3145 14.2219 4
      vertex 19.3579 14.44 4
    endloop
  endfacet
  facet normal 0 0 1
    outer loop
      vertex 14.6421 14.44 4
      vertex 19.3579 14.44 4
      vertex 19.4294 14.6506 4
    endloop
  endfacet
  facet normal 0 0 1
    outer loop
      vertex 14.5706 14.6506 4
      vertex 19.4294 14.6506 4
      vertex 19.5278 14.85 4
    endloop
  endfacet
  facet normal 0 0 1
    outer loop
      vertex 14.4722 14.85 4
      vertex 19.5278 14.85 4
      vertex 19.6513 15.0349 4
    endloop
  endfacet
  facet normal 0 0 1
    outer loop
      vertex 14.3487 15.0349 4
      vertex 19.6513 15.0349 4
      vertex 19.7979 15.2021 4
    endloop
  endfacet
  facet normal 0 -0 1
    outer loop
      vertex 13.85 15.4722 4
      vertex 20.15 15.4722 4
      vertex 13.6506 15.5706 4
    endloop
  endfacet
  facet normal 0 0 1
    outer loop
      vertex 19.3145 14.2219 4
      vertex 14.6855 14.2219 4
      vertex 14.7 14 4
    endloop
  endfacet
  facet normal 0 0 1
    outer loop
      vertex 19.3579 14.44 4
      vertex 14.6421 14.44 4
      vertex 14.6855 14.2219 4
    endloop
  endfacet
  facet normal 0 0 1
    outer loop
      vertex 19.4294 14.6506 4
      vertex 14.5706 14.6506 4
      vertex 14.6421 14.44 4
    endloop
  endfacet
  facet normal 0 0 1
    outer loop
      vertex 19.5278 14.85 4
      vertex 14.4722 14.85 4
      vertex 14.5706 14.6506 4
    endloop
  endfacet
  facet normal 0 0 1
    outer loop
      vertex 19.6513 15.0349 4
      vertex 14.3487 15.0349 4
      vertex 14.4722 14.85 4
    endloop
  endfacet
  facet normal 0 0 1
    outer loop
      vertex 19.7979 15.2021 4
      vertex 14.2021 15.2021 4
      vertex 14.3487 15.0349 4
    endloop
  endfacet
  facet normal 0 0 1
    outer loop
      vertex 19.7979 15.2021 4
      vertex 14.0349 15.3487 4
      vertex 14.2021 15.2021 4
    endloop
  endfacet
  facet normal 0 0 1
    outer loop
      vertex 19.9651 15.3487 4
      vertex 14.0349 15.3487 4
      vertex 19.7979 15.2021 4
    endloop
  endfacet
  facet normal 0 -0 1
    outer loop
      vertex 14.0349 15.3487 4
      vertex 19.9651 15.3487 4
      vertex 13.85 15.4722 4
    endloop
  endfacet
  facet normal 0 0 1
    outer loop
      vertex 20.15 15.4722 4
      vertex 13.85 15.4722 4
      vertex 19.9651 15.3487 4
    endloop
  endfacet
  facet normal -0 0 1
    outer loop
      vertex 0 28 4
      vertex 13.44 15.6421 4
      vertex 34 28 4
    endloop
  endfacet
  facet normal 0 0 1
    outer loop
      vertex 13.44 15.6421 4
      vertex 0 28 4
      vertex 13.2219 15.6855 4
    endloop
  endfacet
  facet normal 0 0 1
    outer loop
      vertex 13.2219 15.6855 4
      vertex 0 28 4
      vertex 13 15.7 4
    endloop
  endfacet
  facet normal 0 0 1
    outer loop
      vertex 13 15.7 4
      vertex 0 28 4
      vertex 12.7781 15.6855 4
    endloop
  endfacet
  facet normal 0 0 1
    outer loop
      vertex 12.7781 15.6855 4
      vertex 0 28 4
      vertex 12.56 15.6421 4
    endloop
  endfacet
  facet normal 0 0 1
    outer loop
      vertex 12.56 15.6421 4
      vertex 0 28 4
      vertex 12.3494 15.5706 4
    endloop
  endfacet
  facet normal 0 0 1
    outer loop
      vertex 11.3145 14.2219 4
      vertex 0 28 4
      vertex 11.3 14 4
    endloop
  endfacet
  facet normal 0 0 1
    outer loop
      vertex 11.3579 14.44 4
      vertex 0 28 4
      vertex 11.3145 14.2219 4
    endloop
  endfacet
  facet normal 0 0 1
    outer loop
      vertex 11.4294 14.6506 4
      vertex 0 28 4
      vertex 11.3579 14.44 4
    endloop
  endfacet
  facet normal 0 0 1
    outer loop
      vertex 11.5278 14.85 4
      vertex 0 28 4
      vertex 11.4294 14.6506 4
    endloop
  endfacet
  facet normal 0 0 1
    outer loop
      vertex 11.6513 15.0349 4
      vertex 0 28 4
      vertex 11.5278 14.85 4
    endloop
  endfacet
  facet normal 0 0 1
    outer loop
      vertex 11.7979 15.2021 4
      vertex 0 28 4
      vertex 11.6513 15.0349 4
    endloop
  endfacet
  facet normal 0 0 1
    outer loop
      vertex 11.9651 15.3487 4
      vertex 0 28 4
      vertex 11.7979 15.2021 4
    endloop
  endfacet
  facet normal 0 0 1
    outer loop
      vertex 12.15 15.4722 4
      vertex 0 28 4
      vertex 11.9651 15.3487 4
    endloop
  endfacet
  facet normal 0 0 1
    outer loop
      vertex 12.3494 15.5706 4
      vertex 0 28 4
      vertex 12.15 15.4722 4
    endloop
  endfacet
  facet normal -0 0 1
    outer loop
      vertex 22.6855 13.7781 4
      vertex 34 0 4
      vertex 22.7 14 4
    endloop
  endfacet
  facet normal -0 0 1
    outer loop
      vertex 22.6421 13.56 4
      vertex 34 0 4
      vertex 22.6855 13.7781 4
    endloop
  endfacet
  facet normal -0 0 1
    outer loop
      vertex 22.5706 13.3494 4
      vertex 34 0 4
      vertex 22.6421 13.56 4
    endloop
  endfacet
  facet normal -0 0 1
    outer loop
      vertex 22.4722 13.15 4
      vertex 34 0 4
      vertex 22.5706 13.3494 4
    endloop
  endfacet
  facet normal -0 0 1
    outer loop
      vertex 22.3487 12.9651 4
      vertex 34 0 4
      vertex 22.4722 13.15 4
    endloop
  endfacet
  facet normal -0 0 1
    outer loop
      vertex 22.2021 12.7979 4
      vertex 34 0 4
      vertex 22.3487 12.9651 4
    endloop
  endfacet
  facet normal -0 0 1
    outer loop
      vertex 22.0349 12.6513 4
      vertex 34 0 4
      vertex 22.2021 12.7979 4
    endloop
  endfacet
  facet normal -0 0 1
    outer loop
      vertex 21.85 12.5278 4
      vertex 34 0 4
      vertex 22.0349 12.6513 4
    endloop
  endfacet
  facet normal -0 0 1
    outer loop
      vertex 21.6506 12.4294 4
      vertex 34 0 4
      vertex 21.85 12.5278 4
    endloop
  endfacet
  facet normal -0 0 1
    outer loop
      vertex 21.44 12.3579 4
      vertex 34 0 4
      vertex 21.6506 12.4294 4
    endloop
  endfacet
  facet normal -0 0 1
    outer loop
      vertex 21.2219 12.3145 4
      vertex 34 0 4
      vertex 21.44 12.3579 4
    endloop
  endfacet
  facet normal -0 0 1
    outer loop
      vertex 21 12.3 4
      vertex 34 0 4
      vertex 21.2219 12.3145 4
    endloop
  endfacet
  facet normal 0 0 1
    outer loop
      vertex 20.7781 12.3145 4
      vertex 34 0 4
      vertex 21 12.3 4
    endloop
  endfacet
  facet normal 0 0 1
    outer loop
      vertex 20.56 12.3579 4
      vertex 34 0 4
      vertex 20.7781 12.3145 4
    endloop
  endfacet
  facet normal 0 0 1
    outer loop
      vertex 13.44 12.3579 4
      vertex 20.56 12.3579 4
      vertex 20.3494 12.4294 4
    endloop
  endfacet
  facet normal 0 0 1
    outer loop
      vertex 13.6506 12.4294 4
      vertex 20.3494 12.4294 4
      vertex 20.15 12.5278 4
    endloop
  endfacet
  facet normal 0 0 1
    outer loop
      vertex 13.85 12.5278 4
      vertex 20.15 12.5278 4
      vertex 19.9651 12.6513 4
    endloop
  endfacet
  facet normal 0 0 1
    outer loop
      vertex 14.0349 12.6513 4
      vertex 19.9651 12.6513 4
      vertex 19.7979 12.7979 4
    endloop
  endfacet
  facet normal -0 0 1
    outer loop
      vertex 14.7 14 4
      vertex 19.3145 13.7781 4
      vertex 19.3 14 4
    endloop
  endfacet
  facet normal 0 0 1
    outer loop
      vertex 14.6855 13.7781 4
      vertex 19.3145 13.7781 4
      vertex 14.7 14 4
    endloop
  endfacet
  facet normal 0 0 1
    outer loop
      vertex 19.3145 13.7781 4
      vertex 14.6855 13.7781 4
      vertex 19.3579 13.56 4
    endloop
  endfacet
  facet normal 0 0 1
    outer loop
      vertex 14.6421 13.56 4
      vertex 19.3579 13.56 4
      vertex 14.6855 13.7781 4
    endloop
  endfacet
  facet normal 0 0 1
    outer loop
      vertex 19.3579 13.56 4
      vertex 14.6421 13.56 4
      vertex 19.4294 13.3494 4
    endloop
  endfacet
  facet normal 0 0 1
    outer loop
      vertex 14.5706 13.3494 4
      vertex 19.4294 13.3494 4
      vertex 14.6421 13.56 4
    endloop
  endfacet
  facet normal 0 0 1
    outer loop
      vertex 19.4294 13.3494 4
      vertex 14.5706 13.3494 4
      vertex 19.5278 13.15 4
    endloop
  endfacet
  facet normal 0 0 1
    outer loop
      vertex 14.4722 13.15 4
      vertex 19.5278 13.15 4
      vertex 14.5706 13.3494 4
    endloop
  endfacet
  facet normal 0 0 1
    outer loop
      vertex 19.5278 13.15 4
      vertex 14.4722 13.15 4
      vertex 19.6513 12.9651 4
    endloop
  endfacet
  facet normal 0 0 1
    outer loop
      vertex 14.3487 12.9651 4
      vertex 19.6513 12.9651 4
      vertex 14.4722 13.15 4
    endloop
  endfacet
  facet normal 0 0 1
    outer loop
      vertex 19.6513 12.9651 4
      vertex 14.3487 12.9651 4
      vertex 19.7979 12.7979 4
    endloop
  endfacet
  facet normal 0 0 1
    outer loop
      vertex 14.2021 12.7979 4
      vertex 19.7979 12.7979 4
      vertex 14.3487 12.9651 4
    endloop
  endfacet
  facet normal 0 0 1
    outer loop
      vertex 14.0349 12.6513 4
      vertex 19.7979 12.7979 4
      vertex 14.2021 12.7979 4
    endloop
  endfacet
  facet normal 0 0 1
    outer loop
      vertex 19.9651 12.6513 4
      vertex 14.0349 12.6513 4
      vertex 13.85 12.5278 4
    endloop
  endfacet
  facet normal 0 0 1
    outer loop
      vertex 20.15 12.5278 4
      vertex 13.85 12.5278 4
      vertex 13.6506 12.4294 4
    endloop
  endfacet
  facet normal 0 0 1
    outer loop
      vertex 20.3494 12.4294 4
      vertex 13.6506 12.4294 4
      vertex 13.44 12.3579 4
    endloop
  endfacet
  facet normal 0 0 1
    outer loop
      vertex 20.56 12.3579 4
      vertex 13.44 12.3579 4
      vertex 34 0 4
    endloop
  endfacet
  facet normal 0 0 1
    outer loop
      vertex 0 0 4
      vertex 13.44 12.3579 4
      vertex 13.2219 12.3145 4
    endloop
  endfacet
  facet normal 0 0 1
    outer loop
      vertex 0 0 4
      vertex 13.2219 12.3145 4
      vertex 13 12.3 4
    endloop
  endfacet
  facet normal 0 0 1
    outer loop
      vertex 0 0 4
      vertex 13 12.3 4
      vertex 12.7781 12.3145 4
    endloop
  endfacet
  facet normal 0 0 1
    outer loop
      vertex 0 0 4
      vertex 12.7781 12.3145 4
      vertex 12.56 12.3579 4
    endloop
  endfacet
  facet normal 0 0 1
    outer loop
      vertex 0 0 4
      vertex 12.56 12.3579 4
      vertex 12.3494 12.4294 4
    endloop
  endfacet
  facet normal 0 0 1
    outer loop
      vertex 0 0 4
      vertex 12.3494 12.4294 4
      vertex 12.15 12.5278 4
    endloop
  endfacet
  facet normal 0 0 1
    outer loop
      vertex 0 0 4
      vertex 11.3 14 4
      vertex 0 28 4
    endloop
  endfacet
  facet normal 0 0 1
    outer loop
      vertex 11.3 14 4
      vertex 0 0 4
      vertex 11.3145 13.7781 4
    endloop
  endfacet
  facet normal 0 0 1
    outer loop
      vertex 11.3145 13.7781 4
      vertex 0 0 4
      vertex 11.3579 13.56 4
    endloop
  endfacet
  facet normal 0 0 1
    outer loop
      vertex 11.3579 13.56 4
      vertex 0 0 4
      vertex 11.4294 13.3494 4
    endloop
  endfacet
  facet normal 0 0 1
    outer loop
      vertex 11.4294 13.3494 4
      vertex 0 0 4
      vertex 11.5278 13.15 4
    endloop
  endfacet
  facet normal 0 0 1
    outer loop
      vertex 13.44 12.3579 4
      vertex 0 0 4
      vertex 34 0 4
    endloop
  endfacet
  facet normal 0 0 1
    outer loop
      vertex 11.9651 12.6513 4
      vertex 0 0 4
      vertex 12.15 12.5278 4
    endloop
  endfacet
  facet normal 0 0 1
    outer loop
      vertex 11.7979 12.7979 4
      vertex 0 0 4
      vertex 11.9651 12.6513 4
    endloop
  endfacet
  facet normal 0 0 1
    outer loop
      vertex 11.6513 12.9651 4
      vertex 0 0 4
      vertex 11.7979 12.7979 4
    endloop
  endfacet
  facet normal 0 0 1
    outer loop
      vertex 11.5278 13.15 4
      vertex 0 0 4
      vertex 11.6513 12.9651 4
    endloop
  endfacet
  facet normal 0 0 -1
    outer loop
      vertex 34 0 0
      vertex 22.7 14 0
      vertex 34 28 0
    endloop
  endfacet
  facet normal 0 0 -1
    outer loop
      vertex 34 0 0
      vertex 22.6855 13.7781 0
      vertex 22.7 14 0
    endloop
  endfacet
  facet normal 0 0 -1
    outer loop
      vertex 34 0 0
      vertex 22.6421 13.56 0
      vertex 22.6855 13.7781 0
    endloop
  endfacet
  facet normal 0 0 -1
    outer loop
      vertex 34 0 0
      vertex 22.5706 13.3494 0
      vertex 22.6421 13.56 0
    endloop
  endfacet
  facet normal 0 0 -1
    outer loop
      vertex 34 0 0
      vertex 22.4722 13.15 0
      vertex 22.5706 13.3494 0
    endloop
  endfacet
  facet normal 0 0 -1
    outer loop
      vertex 34 0 0
      vertex 22.3487 12.9651 0
      vertex 22.4722 13.15 0
    endloop
  endfacet
  facet normal 0 0 -1
    outer loop
      vertex 34 0 0
      vertex 22.2021 12.7979 0
      vertex 22.3487 12.9651 0
    endloop
  endfacet
  facet normal 0 0 -1
    outer loop
      vertex 34 0 0
      vertex 22.0349 12.6513 0
      vertex 22.2021 12.7979 0
    endloop
  endfacet
  facet normal 0 0 -1
    outer loop
      vertex 34 0 0
      vertex 21.85 12.5278 0
      vertex 22.0349 12.6513 0
    endloop
  endfacet
  facet normal 0 0 -1
    outer loop
      vertex 17.6 8 0
      vertex 21.85 12.5278 0
      vertex 34 0 0
    endloop
  endfacet
  facet normal 0 0 -1
    outer loop
      vertex 21.85 12.5278 0
      vertex 17.6 8 0
      vertex 21.6506 12.4294 0
    endloop
  endfacet
  facet normal 0 0 -1
    outer loop
      vertex 21.6506 12.4294 0
      vertex 17.6 8 0
      vertex 21.44 12.3579 0
    endloop
  endfacet
  facet normal 0 0 -1
    outer loop
      vertex 21.44 12.3579 0
      vertex 17.6 8 0
      vertex 21.2219 12.3145 0
    endloop
  endfacet
  facet normal 0 0 -1
    outer loop
      vertex 21.2219 12.3145 0
      vertex 17.6 8 0
      vertex 21 12.3 0
    endloop
  endfacet
  facet normal -0 0 -1
    outer loop
      vertex 21 12.3 0
      vertex 17.6 8 0
      vertex 20.7781 12.3145 0
    endloop
  endfacet
  facet normal -0 0 -1
    outer loop
      vertex 20.7781 12.3145 0
      vertex 17.6 8 0
      vertex 20.56 12.3579 0
    endloop
  endfacet
  facet normal -0 0 -1
    outer loop
      vertex 20.56 12.3579 0
      vertex 17.6 8 0
      vertex 20.3494 12.4294 0
    endloop
  endfacet
  facet normal -0 0 -1
    outer loop
      vertex 20.3494 12.4294 0
      vertex 17.6 8 0
      vertex 20.15 12.5278 0
    endloop
  endfacet
  facet normal -0 0 -1
    outer loop
      vertex 20.15 12.5278 0
      vertex 17.6 8 0
      vertex 19.9651 12.6513 0
    endloop
  endfacet
  facet normal -0 0 -1
    outer loop
      vertex 19.3145 13.7781 0
      vertex 17.6 8 0
      vertex 19.3 14 0
    endloop
  endfacet
  facet normal -0 0 -1
    outer loop
      vertex 19.3579 13.56 0
      vertex 17.6 8 0
      vertex 19.3145 13.7781 0
    endloop
  endfacet
  facet normal -0 0 -1
    outer loop
      vertex 19.4294 13.3494 0
      vertex 17.6 8 0
      vertex 19.3579 13.56 0
    endloop
  endfacet
  facet normal -0 0 -1
    outer loop
      vertex 19.5278 13.15 0
      vertex 17.6 8 0
      vertex 19.4294 13.3494 0
    endloop
  endfacet
  facet normal -0 0 -1
    outer loop
      vertex 19.6513 12.9651 0
      vertex 17.6 8 0
      vertex 19.5278 13.15 0
    endloop
  endfacet
  facet normal -0 0 -1
    outer loop
      vertex 19.7979 12.7979 0
      vertex 17.6 8 0
      vertex 19.6513 12.9651 0
    endloop
  endfacet
  facet normal -0 0 -1
    outer loop
      vertex 19.9651 12.6513 0
      vertex 17.6 8 0
      vertex 19.7979 12.7979 0
    endloop
  endfacet
  facet normal 0 0 -1
    outer loop
      vertex 34 0 0
      vertex 16.4 8 0
      vertex 17.6 8 0
    endloop
  endfacet
  facet normal 0 0 -1
    outer loop
      vertex 16.4 8 0
      vertex 14.7 14 0
      vertex 16.4 20 0
    endloop
  endfacet
  facet normal 0 0 -1
    outer loop
      vertex 16.4 8 0
      vertex 14.6855 13.7781 0
      vertex 14.7 14 0
    endloop
  endfacet
  facet normal 0 0 -1
    outer loop
      vertex 16.4 8 0
      vertex 14.6421 13.56 0
      vertex 14.6855 13.7781 0
    endloop
  endfacet
  facet normal 0 0 -1
    outer loop
      vertex 16.4 8 0
      vertex 14.5706 13.3494 0
      vertex 14.6421 13.56 0
    endloop
  endfacet
  facet normal 0 0 -1
    outer loop
      vertex 16.4 8 0
      vertex 14.4722 13.15 0
      vertex 14.5706 13.3494 0
    endloop
  endfacet
  facet normal 0 0 -1
    outer loop
      vertex 16.4 8 0
      vertex 14.3487 12.9651 0
      vertex 14.4722 13.15 0
    endloop
  endfacet
  facet normal 0 0 -1
    outer loop
      vertex 16.4 8 0
      vertex 14.2021 12.7979 0
      vertex 14.3487 12.9651 0
    endloop
  endfacet
  facet normal 0 0 -1
    outer loop
      vertex 16.4 8 0
      vertex 14.0349 12.6513 0
      vertex 14.2021 12.7979 0
    endloop
  endfacet
  facet normal 0 0 -1
    outer loop
      vertex 16.4 8 0
      vertex 13.85 12.5278 0
      vertex 14.0349 12.6513 0
    endloop
  endfacet
  facet normal 0 0 -1
    outer loop
      vertex 16.4 8 0
      vertex 13.6506 12.4294 0
      vertex 13.85 12.5278 0
    endloop
  endfacet
  facet normal 0 0 -1
    outer loop
      vertex 16.4 8 0
      vertex 13.44 12.3579 0
      vertex 13.6506 12.4294 0
    endloop
  endfacet
  facet normal 0 0 -1
    outer loop
      vertex 16.4 8 0
      vertex 13.2219 12.3145 0
      vertex 13.44 12.3579 0
    endloop
  endfacet
  facet normal 0 0 -1
    outer loop
      vertex 16.4 8 0
      vertex 13 12.3 0
      vertex 13.2219 12.3145 0
    endloop
  endfacet
  facet normal 0 0 -1
    outer loop
      vertex 16.4 8 0
      vertex 12.7781 12.3145 0
      vertex 13 12.3 0
    endloop
  endfacet
  facet normal 0 0 -1
    outer loop
      vertex 16.4 8 0
      vertex 12.56 12.3579 0
      vertex 12.7781 12.3145 0
    endloop
  endfacet
  facet normal 0 0 -1
    outer loop
      vertex 16.4 8 0
      vertex 12.3494 12.4294 0
      vertex 12.56 12.3579 0
    endloop
  endfacet
  facet normal 0 0 -1
    outer loop
      vertex 16.4 8 0
      vertex 12.15 12.5278 0
      vertex 12.3494 12.4294 0
    endloop
  endfacet
  facet normal 0 0 -1
    outer loop
      vertex 0 0 0
      vertex 12.15 12.5278 0
      vertex 16.4 8 0
    endloop
  endfacet
  facet normal -0 0 -1
    outer loop
      vertex 12.15 12.5278 0
      vertex 0 0 0
      vertex 11.9651 12.6513 0
    endloop
  endfacet
  facet normal -0 0 -1
    outer loop
      vertex 11.3145 13.7781 0
      vertex 0 0 0
      vertex 11.3 14 0
    endloop
  endfacet
  facet normal -0 0 -1
    outer loop
      vertex 11.3579 13.56 0
      vertex 0 0 0
      vertex 11.3145 13.7781 0
    endloop
  endfacet
  facet normal -0 0 -1
    outer loop
      vertex 11.4294 13.3494 0
      vertex 0 0 0
      vertex 11.3579 13.56 0
    endloop
  endfacet
  facet normal -0 0 -1
    outer loop
      vertex 11.5278 13.15 0
      vertex 0 0 0
      vertex 11.4294 13.3494 0
    endloop
  endfacet
  facet normal -0 0 -1
    outer loop
      vertex 11.6513 12.9651 0
      vertex 0 0 0
      vertex 11.5278 13.15 0
    endloop
  endfacet
  facet normal -0 0 -1
    outer loop
      vertex 11.7979 12.7979 0
      vertex 0 0 0
      vertex 11.6513 12.9651 0
    endloop
  endfacet
  facet normal -0 0 -1
    outer loop
      vertex 11.9651 12.6513 0
      vertex 0 0 0
      vertex 11.7979 12.7979 0
    endloop
  endfacet
  facet normal 0 0 -1
    outer loop
      vertex 0 0 0
      vertex 16.4 8 0
      vertex 34 0 0
    endloop
  endfacet
  facet normal 0 0 -1
    outer loop
      vertex 22.6855 14.2219 0
      vertex 34 28 0
      vertex 22.7 14 0
    endloop
  endfacet
  facet normal 0 0 -1
    outer loop
      vertex 22.6421 14.44 0
      vertex 34 28 0
      vertex 22.6855 14.2219 0
    endloop
  endfacet
  facet normal 0 0 -1
    outer loop
      vertex 22.5706 14.6506 0
      vertex 34 28 0
      vertex 22.6421 14.44 0
    endloop
  endfacet
  facet normal 0 0 -1
    outer loop
      vertex 22.4722 14.85 0
      vertex 34 28 0
      vertex 22.5706 14.6506 0
    endloop
  endfacet
  facet normal 0 0 -1
    outer loop
      vertex 22.3487 15.0349 0
      vertex 34 28 0
      vertex 22.4722 14.85 0
    endloop
  endfacet
  facet normal 0 0 -1
    outer loop
      vertex 22.2021 15.2021 0
      vertex 34 28 0
      vertex 22.3487 15.0349 0
    endloop
  endfacet
  facet normal 0 0 -1
    outer loop
      vertex 22.0349 15.3487 0
      vertex 34 28 0
      vertex 22.2021 15.2021 0
    endloop
  endfacet
  facet normal 0 0 -1
    outer loop
      vertex 21.85 15.4722 0
      vertex 34 28 0
      vertex 22.0349 15.3487 0
    endloop
  endfacet
  facet normal 0 0 -1
    outer loop
      vertex 17.6 20 0
      vertex 21.85 15.4722 0
      vertex 21.6506 15.5706 0
    endloop
  endfacet
  facet normal 0 0 -1
    outer loop
      vertex 17.6 20 0
      vertex 21.6506 15.5706 0
      vertex 21.44 15.6421 0
    endloop
  endfacet
  facet normal 0 0 -1
    outer loop
      vertex 17.6 20 0
      vertex 21.44 15.6421 0
      vertex 21.2219 15.6855 0
    endloop
  endfacet
  facet normal 0 0 -1
    outer loop
      vertex 17.6 20 0
      vertex 21.2219 15.6855 0
      vertex 21 15.7 0
    endloop
  endfacet
  facet normal 0 0 -1
    outer loop
      vertex 17.6 20 0
      vertex 21 15.7 0
      vertex 20.7781 15.6855 0
    endloop
  endfacet
  facet normal 0 0 -1
    outer loop
      vertex 17.6 20 0
      vertex 20.7781 15.6855 0
      vertex 20.56 15.6421 0
    endloop
  endfacet
  facet normal 0 0 -1
    outer loop
      vertex 17.6 20 0
      vertex 20.56 15.6421 0
      vertex 20.3494 15.5706 0
    endloop
  endfacet
  facet normal 0 0 -1
    outer loop
      vertex 17.6 20 0
      vertex 20.3494 15.5706 0
      vertex 20.15 15.4722 0
    endloop
  endfacet
  facet normal 0 0 -1
    outer loop
      vertex 17.6 20 0
      vertex 20.15 15.4722 0
      vertex 19.9651 15.3487 0
    endloop
  endfacet
  facet normal 0 0 -1
    outer loop
      vertex 17.6 20 0
      vertex 19.9651 15.3487 0
      vertex 19.7979 15.2021 0
    endloop
  endfacet
  facet normal 0 0 -1
    outer loop
      vertex 17.6 20 0
      vertex 19.3 14 0
      vertex 17.6 8 0
    endloop
  endfacet
  facet normal 0 0 -1
    outer loop
      vertex 19.3 14 0
      vertex 17.6 20 0
      vertex 19.3145 14.2219 0
    endloop
  endfacet
  facet normal 0 0 -1
    outer loop
      vertex 19.3145 14.2219 0
      vertex 17.6 20 0
      vertex 19.3579 14.44 0
    endloop
  endfacet
  facet normal 0 0 -1
    outer loop
      vertex 17.6 20 0
      vertex 19.4294 14.6506 0
      vertex 19.3579 14.44 0
    endloop
  endfacet
  facet normal 0 0 -1
    outer loop
      vertex 17.6 20 0
      vertex 19.5278 14.85 0
      vertex 19.4294 14.6506 0
    endloop
  endfacet
  facet normal 0 0 -1
    outer loop
      vertex 17.6 20 0
      vertex 19.6513 15.0349 0
      vertex 19.5278 14.85 0
    endloop
  endfacet
  facet normal 0 0 -1
    outer loop
      vertex 17.6 20 0
      vertex 19.7979 15.2021 0
      vertex 19.6513 15.0349 0
    endloop
  endfacet
  facet normal 0 0 -1
    outer loop
      vertex 21.85 15.4722 0
      vertex 17.6 20 0
      vertex 34 28 0
    endloop
  endfacet
  facet normal 0 0 -1
    outer loop
      vertex 16.4 20 0
      vertex 34 28 0
      vertex 17.6 20 0
    endloop
  endfacet
  facet normal 0 0 -1
    outer loop
      vertex 14.6855 14.2219 0
      vertex 16.4 20 0
      vertex 14.7 14 0
    endloop
  endfacet
  facet normal 0 0 -1
    outer loop
      vertex 14.6421 14.44 0
      vertex 16.4 20 0
      vertex 14.6855 14.2219 0
    endloop
  endfacet
  facet normal 0 0 -1
    outer loop
      vertex 14.5706 14.6506 0
      vertex 16.4 20 0
      vertex 14.6421 14.44 0
    endloop
  endfacet
  facet normal 0 0 -1
    outer loop
      vertex 14.4722 14.85 0
      vertex 16.4 20 0
      vertex 14.5706 14.6506 0
    endloop
  endfacet
  facet normal 0 0 -1
    outer loop
      vertex 14.3487 15.0349 0
      vertex 16.4 20 0
      vertex 14.4722 14.85 0
    endloop
  endfacet
  facet normal 0 0 -1
    outer loop
      vertex 14.2021 15.2021 0
      vertex 16.4 20 0
      vertex 14.3487 15.0349 0
    endloop
  endfacet
  facet normal 0 0 -1
    outer loop
      vertex 14.0349 15.3487 0
      vertex 16.4 20 0
      vertex 14.2021 15.2021 0
    endloop
  endfacet
  facet normal 0 0 -1
    outer loop
      vertex 13.85 15.4722 0
      vertex 16.4 20 0
      vertex 14.0349 15.3487 0
    endloop
  endfacet
  facet normal 0 0 -1
    outer loop
      vertex 13.6506 15.5706 0
      vertex 16.4 20 0
      vertex 13.85 15.4722 0
    endloop
  endfacet
  facet normal 0 0 -1
    outer loop
      vertex 13.44 15.6421 0
      vertex 16.4 20 0
      vertex 13.6506 15.5706 0
    endloop
  endfacet
  facet normal 0 0 -1
    outer loop
      vertex 13.2219 15.6855 0
      vertex 16.4 20 0
      vertex 13.44 15.6421 0
    endloop
  endfacet
  facet normal 0 0 -1
    outer loop
      vertex 13 15.7 0
      vertex 16.4 20 0
      vertex 13.2219 15.6855 0
    endloop
  endfacet
  facet normal 0 0 -1
    outer loop
      vertex 12.7781 15.6855 0
      vertex 16.4 20 0
      vertex 13 15.7 0
    endloop
  endfacet
  facet normal 0 0 -1
    outer loop
      vertex 12.56 15.6421 0
      vertex 16.4 20 0
      vertex 12.7781 15.6855 0
    endloop
  endfacet
  facet normal 0 0 -1
    outer loop
      vertex 12.3494 15.5706 0
      vertex 16.4 20 0
      vertex 12.56 15.6421 0
    endloop
  endfacet
  facet normal 0 0 -1
    outer loop
      vertex 12.15 15.4722 0
      vertex 16.4 20 0
      vertex 12.3494 15.5706 0
    endloop
  endfacet
  facet normal 0 0 -1
    outer loop
      vertex 0 28 0
      vertex 12.15 15.4722 0
      vertex 11.9651 15.3487 0
    endloop
  endfacet
  facet normal 0 0 -1
    outer loop
      vertex 0 28 0
      vertex 11.9651 15.3487 0
      vertex 11.7979 15.2021 0
    endloop
  endfacet
  facet normal 0 0 -1
    outer loop
      vertex 0 28 0
      vertex 11.3 14 0
      vertex 0 0 0
    endloop
  endfacet
  facet normal 0 0 -1
    outer loop
      vertex 11.3 14 0
      vertex 0 28 0
      vertex 11.3145 14.2219 0
    endloop
  endfacet
  facet normal 0 0 -1
    outer loop
      vertex 11.3145 14.2219 0
      vertex 0 28 0
      vertex 11.3579 14.44 0
    endloop
  endfacet
  facet normal 0 0 -1
    outer loop
      vertex 11.3579 14.44 0
      vertex 0 28 0
      vertex 11.4294 14.6506 0
    endloop
  endfacet
  facet normal 0 0 -1
    outer loop
      vertex 11.4294 14.6506 0
      vertex 0 28 0
      vertex 11.5278 14.85 0
    endloop
  endfacet
  facet normal 0 0 -1
    outer loop
      vertex 16.4 20 0
      vertex 0 28 0
      vertex 34 28 0
    endloop
  endfacet
  facet normal 0 0 -1
    outer loop
      vertex 12.15 15.4722 0
      vertex 0 28 0
      vertex 16.4 20 0
    endloop
  endfacet
  facet normal 0 0 -1
    outer loop
      vertex 11.6513 15.0349 0
      vertex 0 28 0
      vertex 11.7979 15.2021 0
    endloop
  endfacet
  facet normal 0 0 -1
    outer loop
      vertex 11.5278 14.85 0
      vertex 0 28 0
      vertex 11.6513 15.0349 0
    endloop
  endfacet
  facet normal -1 0 0
    outer loop
      vertex 0 0 0
      vertex 0 28 4
      vertex 0 28 0
    endloop
  endfacet
  facet normal -1 -0 0
    outer loop
      vertex 0 28 4
      vertex 0 0 0
      vertex 0 0 4
    endloop
  endfacet
  facet normal 0 1 -0
    outer loop
      vertex 34 28 0
      vertex 0 28 4
      vertex 34 28 4
    endloop
  endfacet
  facet normal 0 1 0
    outer loop
      vertex 0 28 4
      vertex 34 28 0
      vertex 0 28 0
    endloop
  endfacet
  facet normal 0 -1 0
    outer loop
      vertex 0 0 0
      vertex 34 0 4
      vertex 0 0 4
    endloop
  endfacet
  facet normal 0 -1 -0
    outer loop
      vertex 34 0 4
      vertex 0 0 0
      vertex 34 0 0
    endloop
  endfacet
  facet normal 1 -0 0
    outer loop
      vertex 17.6 8 0
      vertex 17.6 20 -8
      vertex 17.6 20 0
    endloop
  endfacet
  facet normal 1 0 0
    outer loop
      vertex 17.6 20 -8
      vertex 17.6 8 0
      vertex 17.6 8 -8
    endloop
  endfacet
  facet normal 0 0 -1
    outer loop
      vertex 16.4 8 -8
      vertex 17.6 20 -8
      vertex 17.6 8 -8
    endloop
  endfacet
  facet normal -0 0 -1
    outer loop
      vertex 17.6 20 -8
      vertex 16.4 8 -8
      vertex 16.4 20 -8
    endloop
  endfacet
  facet normal -1 0 0
    outer loop
      vertex 16.4 8 -8
      vertex 16.4 20 0
      vertex 16.4 20 -8
    endloop
  endfacet
  facet normal -1 -0 0
    outer loop
      vertex 16.4 20 0
      vertex 16.4 8 -8
      vertex 16.4 8 0
    endloop
  endfacet
  facet normal 0 1 -0
    outer loop
      vertex 17.6 20 -8
      vertex 16.4 20 0
      vertex 17.6 20 0
    endloop
  endfacet
  facet normal 0 1 0
    outer loop
      vertex 16.4 20 0
      vertex 17.6 20 -8
      vertex 16.4 20 -8
    endloop
  endfacet
  facet normal 0 -1 0
    outer loop
      vertex 16.4 8 -8
      vertex 17.6 8 0
      vertex 16.4 8 0
    endloop
  endfacet
  facet normal 0 -1 -0
    outer loop
      vertex 17.6 8 0
      vertex 16.4 8 -8
      vertex 17.6 8 -8
    endloop
  endfacet
  facet normal -0.98077 -0.195165 0
    outer loop
      vertex 14.6855 14.2219 0
      vertex 14.6421 14.44 4
      vertex 14.6421 14.44 0
    endloop
  endfacet
  facet normal -0.98077 -0.195165 0
    outer loop
      vertex 14.6421 14.44 4
      vertex 14.6855 14.2219 0
      vertex 14.6855 14.2219 4
    endloop
  endfacet
  facet normal -0.997872 -0.0652057 0
    outer loop
      vertex 14.7 14 0
      vertex 14.6855 14.2219 4
      vertex 14.6855 14.2219 0
    endloop
  endfacet
  facet normal -0.997872 -0.0652057 0
    outer loop
      vertex 14.6855 14.2219 4
      vertex 14.7 14 0
      vertex 14.7 14 4
    endloop
  endfacet
  facet normal 0.44253 -0.896754 0
    outer loop
      vertex 12.15 15.4722 0
      vertex 12.3494 15.5706 4
      vertex 12.15 15.4722 4
    endloop
  endfacet
  facet normal 0.44253 -0.896754 0
    outer loop
      vertex 12.3494 15.5706 4
      vertex 12.15 15.4722 0
      vertex 12.3494 15.5706 0
    endloop
  endfacet
  facet normal -0.555426 -0.831566 0
    outer loop
      vertex 13.85 15.4722 0
      vertex 14.0349 15.3487 4
      vertex 13.85 15.4722 4
    endloop
  endfacet
  facet normal -0.555426 -0.831566 -0
    outer loop
      vertex 14.0349 15.3487 4
      vertex 13.85 15.4722 0
      vertex 14.0349 15.3487 0
    endloop
  endfacet
  facet normal 0.659268 -0.751908 0
    outer loop
      vertex 11.7979 15.2021 0
      vertex 11.9651 15.3487 4
      vertex 11.7979 15.2021 4
    endloop
  endfacet
  facet normal 0.659268 -0.751908 0
    outer loop
      vertex 11.9651 15.3487 4
      vertex 11.7979 15.2021 0
      vertex 11.9651 15.3487 0
    endloop
  endfacet
  facet normal -0.321484 0.946915 0
    outer loop
      vertex 13.6506 12.4294 0
      vertex 13.44 12.3579 4
      vertex 13.6506 12.4294 4
    endloop
  endfacet
  facet normal -0.321484 0.946915 0
    outer loop
      vertex 13.44 12.3579 4
      vertex 13.6506 12.4294 0
      vertex 13.44 12.3579 0
    endloop
  endfacet
  facet normal -0.831566 0.555426 0
    outer loop
      vertex 14.3487 12.9651 0
      vertex 14.4722 13.15 4
      vertex 14.4722 13.15 0
    endloop
  endfacet
  facet normal -0.831566 0.555426 0
    outer loop
      vertex 14.4722 13.15 4
      vertex 14.3487 12.9651 0
      vertex 14.3487 12.9651 4
    endloop
  endfacet
  facet normal -0.946915 0.321484 0
    outer loop
      vertex 14.5706 13.3494 0
      vertex 14.6421 13.56 4
      vertex 14.6421 13.56 0
    endloop
  endfacet
  facet normal -0.946915 0.321484 0
    outer loop
      vertex 14.6421 13.56 4
      vertex 14.5706 13.3494 0
      vertex 14.5706 13.3494 4
    endloop
  endfacet
  facet normal -0.321484 -0.946915 0
    outer loop
      vertex 13.44 15.6421 0
      vertex 13.6506 15.5706 4
      vertex 13.44 15.6421 4
    endloop
  endfacet
  facet normal -0.321484 -0.946915 -0
    outer loop
      vertex 13.6506 15.5706 4
      vertex 13.44 15.6421 0
      vertex 13.6506 15.5706 0
    endloop
  endfacet
  facet normal -0.195165 -0.98077 0
    outer loop
      vertex 13.2219 15.6855 0
      vertex 13.44 15.6421 4
      vertex 13.2219 15.6855 4
    endloop
  endfacet
  facet normal -0.195165 -0.98077 -0
    outer loop
      vertex 13.44 15.6421 4
      vertex 13.2219 15.6855 0
      vertex 13.44 15.6421 0
    endloop
  endfacet
  facet normal 0.555426 -0.831566 0
    outer loop
      vertex 11.9651 15.3487 0
      vertex 12.15 15.4722 4
      vertex 11.9651 15.3487 4
    endloop
  endfacet
  facet normal 0.555426 -0.831566 0
    outer loop
      vertex 12.15 15.4722 4
      vertex 11.9651 15.3487 0
      vertex 12.15 15.4722 0
    endloop
  endfacet
  facet normal -0.896754 0.44253 0
    outer loop
      vertex 14.4722 13.15 0
      vertex 14.5706 13.3494 4
      vertex 14.5706 13.3494 0
    endloop
  endfacet
  facet normal -0.896754 0.44253 0
    outer loop
      vertex 14.5706 13.3494 4
      vertex 14.4722 13.15 0
      vertex 14.4722 13.15 4
    endloop
  endfacet
  facet normal -0.659268 -0.751908 0
    outer loop
      vertex 14.0349 15.3487 0
      vertex 14.2021 15.2021 4
      vertex 14.0349 15.3487 4
    endloop
  endfacet
  facet normal -0.659268 -0.751908 -0
    outer loop
      vertex 14.2021 15.2021 4
      vertex 14.0349 15.3487 0
      vertex 14.2021 15.2021 0
    endloop
  endfacet
  facet normal -0.555426 0.831566 0
    outer loop
      vertex 14.0349 12.6513 0
      vertex 13.85 12.5278 4
      vertex 14.0349 12.6513 4
    endloop
  endfacet
  facet normal -0.555426 0.831566 0
    outer loop
      vertex 13.85 12.5278 4
      vertex 14.0349 12.6513 0
      vertex 13.85 12.5278 0
    endloop
  endfacet
  facet normal -0.44253 -0.896754 0
    outer loop
      vertex 13.6506 15.5706 0
      vertex 13.85 15.4722 4
      vertex 13.6506 15.5706 4
    endloop
  endfacet
  facet normal -0.44253 -0.896754 -0
    outer loop
      vertex 13.85 15.4722 4
      vertex 13.6506 15.5706 0
      vertex 13.85 15.4722 0
    endloop
  endfacet
  facet normal 0.659268 0.751908 -0
    outer loop
      vertex 11.9651 12.6513 0
      vertex 11.7979 12.7979 4
      vertex 11.9651 12.6513 4
    endloop
  endfacet
  facet normal 0.659268 0.751908 0
    outer loop
      vertex 11.7979 12.7979 4
      vertex 11.9651 12.6513 0
      vertex 11.7979 12.7979 0
    endloop
  endfacet
  facet normal 0.751908 0.659268 0
    outer loop
      vertex 11.7979 12.7979 4
      vertex 11.6513 12.9651 0
      vertex 11.6513 12.9651 4
    endloop
  endfacet
  facet normal 0.751908 0.659268 0
    outer loop
      vertex 11.6513 12.9651 0
      vertex 11.7979 12.7979 4
      vertex 11.7979 12.7979 0
    endloop
  endfacet
  facet normal 0.831566 0.555426 0
    outer loop
      vertex 11.6513 12.9651 4
      vertex 11.5278 13.15 0
      vertex 11.5278 13.15 4
    endloop
  endfacet
  facet normal 0.831566 0.555426 0
    outer loop
      vertex 11.5278 13.15 0
      vertex 11.6513 12.9651 4
      vertex 11.6513 12.9651 0
    endloop
  endfacet
  facet normal -0.831566 -0.555426 0
    outer loop
      vertex 14.4722 14.85 0
      vertex 14.3487 15.0349 4
      vertex 14.3487 15.0349 0
    endloop
  endfacet
  facet normal -0.831566 -0.555426 0
    outer loop
      vertex 14.3487 15.0349 4
      vertex 14.4722 14.85 0
      vertex 14.4722 14.85 4
    endloop
  endfacet
  facet normal -0.195165 0.98077 0
    outer loop
      vertex 13.44 12.3579 0
      vertex 13.2219 12.3145 4
      vertex 13.44 12.3579 4
    endloop
  endfacet
  facet normal -0.195165 0.98077 0
    outer loop
      vertex 13.2219 12.3145 4
      vertex 13.44 12.3579 0
      vertex 13.2219 12.3145 0
    endloop
  endfacet
  facet normal -0.98077 0.195165 0
    outer loop
      vertex 14.6421 13.56 0
      vertex 14.6855 13.7781 4
      vertex 14.6855 13.7781 0
    endloop
  endfacet
  facet normal -0.98077 0.195165 0
    outer loop
      vertex 14.6855 13.7781 4
      vertex 14.6421 13.56 0
      vertex 14.6421 13.56 4
    endloop
  endfacet
  facet normal 0.946915 0.321484 0
    outer loop
      vertex 11.4294 13.3494 4
      vertex 11.3579 13.56 0
      vertex 11.3579 13.56 4
    endloop
  endfacet
  facet normal 0.946915 0.321484 0
    outer loop
      vertex 11.3579 13.56 0
      vertex 11.4294 13.3494 4
      vertex 11.4294 13.3494 0
    endloop
  endfacet
  facet normal -0.44253 0.896754 0
    outer loop
      vertex 13.85 12.5278 0
      vertex 13.6506 12.4294 4
      vertex 13.85 12.5278 4
    endloop
  endfacet
  facet normal -0.44253 0.896754 0
    outer loop
      vertex 13.6506 12.4294 4
      vertex 13.85 12.5278 0
      vertex 13.6506 12.4294 0
    endloop
  endfacet
  facet normal -0.0652057 -0.997872 0
    outer loop
      vertex 13 15.7 0
      vertex 13.2219 15.6855 4
      vertex 13 15.7 4
    endloop
  endfacet
  facet normal -0.0652057 -0.997872 -0
    outer loop
      vertex 13.2219 15.6855 4
      vertex 13 15.7 0
      vertex 13.2219 15.6855 0
    endloop
  endfacet
  facet normal 0.321484 -0.946915 0
    outer loop
      vertex 12.3494 15.5706 0
      vertex 12.56 15.6421 4
      vertex 12.3494 15.5706 4
    endloop
  endfacet
  facet normal 0.321484 -0.946915 0
    outer loop
      vertex 12.56 15.6421 4
      vertex 12.3494 15.5706 0
      vertex 12.56 15.6421 0
    endloop
  endfacet
  facet normal 0.195165 -0.98077 0
    outer loop
      vertex 12.56 15.6421 0
      vertex 12.7781 15.6855 4
      vertex 12.56 15.6421 4
    endloop
  endfacet
  facet normal 0.195165 -0.98077 0
    outer loop
      vertex 12.7781 15.6855 4
      vertex 12.56 15.6421 0
      vertex 12.7781 15.6855 0
    endloop
  endfacet
  facet normal -0.896754 -0.44253 0
    outer loop
      vertex 14.5706 14.6506 0
      vertex 14.4722 14.85 4
      vertex 14.4722 14.85 0
    endloop
  endfacet
  facet normal -0.896754 -0.44253 0
    outer loop
      vertex 14.4722 14.85 4
      vertex 14.5706 14.6506 0
      vertex 14.5706 14.6506 4
    endloop
  endfacet
  facet normal -0.997872 0.0652057 0
    outer loop
      vertex 14.6855 13.7781 0
      vertex 14.7 14 4
      vertex 14.7 14 0
    endloop
  endfacet
  facet normal -0.997872 0.0652057 0
    outer loop
      vertex 14.7 14 4
      vertex 14.6855 13.7781 0
      vertex 14.6855 13.7781 4
    endloop
  endfacet
  facet normal -0.0652057 0.997872 0
    outer loop
      vertex 13.2219 12.3145 0
      vertex 13 12.3 4
      vertex 13.2219 12.3145 4
    endloop
  endfacet
  facet normal -0.0652057 0.997872 0
    outer loop
      vertex 13 12.3 4
      vertex 13.2219 12.3145 0
      vertex 13 12.3 0
    endloop
  endfacet
  facet normal -0.751908 -0.659268 0
    outer loop
      vertex 14.3487 15.0349 0
      vertex 14.2021 15.2021 4
      vertex 14.2021 15.2021 0
    endloop
  endfacet
  facet normal -0.751908 -0.659268 0
    outer loop
      vertex 14.2021 15.2021 4
      vertex 14.3487 15.0349 0
      vertex 14.3487 15.0349 4
    endloop
  endfacet
  facet normal 0.997872 0.0652057 0
    outer loop
      vertex 11.3145 13.7781 4
      vertex 11.3 14 0
      vertex 11.3 14 4
    endloop
  endfacet
  facet normal 0.997872 0.0652057 0
    outer loop
      vertex 11.3 14 0
      vertex 11.3145 13.7781 4
      vertex 11.3145 13.7781 0
    endloop
  endfacet
  facet normal -0.751908 0.659268 0
    outer loop
      vertex 14.2021 12.7979 0
      vertex 14.3487 12.9651 4
      vertex 14.3487 12.9651 0
    endloop
  endfacet
  facet normal -0.751908 0.659268 0
    outer loop
      vertex 14.3487 12.9651 4
      vertex 14.2021 12.7979 0
      vertex 14.2021 12.7979 4
    endloop
  endfacet
  facet normal 0.751908 -0.659268 0
    outer loop
      vertex 11.6513 15.0349 4
      vertex 11.7979 15.2021 0
      vertex 11.7979 15.2021 4
    endloop
  endfacet
  facet normal 0.751908 -0.659268 0
    outer loop
      vertex 11.7979 15.2021 0
      vertex 11.6513 15.0349 4
      vertex 11.6513 15.0349 0
    endloop
  endfacet
  facet normal 0.831566 -0.555426 0
    outer loop
      vertex 11.5278 14.85 4
      vertex 11.6513 15.0349 0
      vertex 11.6513 15.0349 4
    endloop
  endfacet
  facet normal 0.831566 -0.555426 0
    outer loop
      vertex 11.6513 15.0349 0
      vertex 11.5278 14.85 4
      vertex 11.5278 14.85 0
    endloop
  endfacet
  facet normal 0.0652057 -0.997872 0
    outer loop
      vertex 12.7781 15.6855 0
      vertex 13 15.7 4
      vertex 12.7781 15.6855 4
    endloop
  endfacet
  facet normal 0.0652057 -0.997872 0
    outer loop
      vertex 13 15.7 4
      vertex 12.7781 15.6855 0
      vertex 13 15.7 0
    endloop
  endfacet
  facet normal 0.98077 0.195165 0
    outer loop
      vertex 11.3579 13.56 4
      vertex 11.3145 13.7781 0
      vertex 11.3145 13.7781 4
    endloop
  endfacet
  facet normal 0.98077 0.195165 0
    outer loop
      vertex 11.3145 13.7781 0
      vertex 11.3579 13.56 4
      vertex 11.3579 13.56 0
    endloop
  endfacet
  facet normal 0.321484 0.946915 -0
    outer loop
      vertex 12.56 12.3579 0
      vertex 12.3494 12.4294 4
      vertex 12.56 12.3579 4
    endloop
  endfacet
  facet normal 0.321484 0.946915 0
    outer loop
      vertex 12.3494 12.4294 4
      vertex 12.56 12.3579 0
      vertex 12.3494 12.4294 0
    endloop
  endfacet
  facet normal -0.946915 -0.321484 0
    outer loop
      vertex 14.6421 14.44 0
      vertex 14.5706 14.6506 4
      vertex 14.5706 14.6506 0
    endloop
  endfacet
  facet normal -0.946915 -0.321484 0
    outer loop
      vertex 14.5706 14.6506 4
      vertex 14.6421 14.44 0
      vertex 14.6421 14.44 4
    endloop
  endfacet
  facet normal 0.44253 0.896754 -0
    outer loop
      vertex 12.3494 12.4294 0
      vertex 12.15 12.5278 4
      vertex 12.3494 12.4294 4
    endloop
  endfacet
  facet normal 0.44253 0.896754 0
    outer loop
      vertex 12.15 12.5278 4
      vertex 12.3494 12.4294 0
      vertex 12.15 12.5278 0
    endloop
  endfacet
  facet normal 0.555426 0.831566 -0
    outer loop
      vertex 12.15 12.5278 0
      vertex 11.9651 12.6513 4
      vertex 12.15 12.5278 4
    endloop
  endfacet
  facet normal 0.555426 0.831566 0
    outer loop
      vertex 11.9651 12.6513 4
      vertex 12.15 12.5278 0
      vertex 11.9651 12.6513 0
    endloop
  endfacet
  facet normal 0.0652057 0.997872 -0
    outer loop
      vertex 13 12.3 0
      vertex 12.7781 12.3145 4
      vertex 13 12.3 4
    endloop
  endfacet
  facet normal 0.0652057 0.997872 0
    outer loop
      vertex 12.7781 12.3145 4
      vertex 13 12.3 0
      vertex 12.7781 12.3145 0
    endloop
  endfacet
  facet normal 0.195165 0.98077 -0
    outer loop
      vertex 12.7781 12.3145 0
      vertex 12.56 12.3579 4
      vertex 12.7781 12.3145 4
    endloop
  endfacet
  facet normal 0.195165 0.98077 0
    outer loop
      vertex 12.56 12.3579 4
      vertex 12.7781 12.3145 0
      vertex 12.56 12.3579 0
    endloop
  endfacet
  facet normal 0.896754 -0.44253 0
    outer loop
      vertex 11.4294 14.6506 4
      vertex 11.5278 14.85 0
      vertex 11.5278 14.85 4
    endloop
  endfacet
  facet normal 0.896754 -0.44253 0
    outer loop
      vertex 11.5278 14.85 0
      vertex 11.4294 14.6506 4
      vertex 11.4294 14.6506 0
    endloop
  endfacet
  facet normal 0.896754 0.44253 0
    outer loop
      vertex 11.5278 13.15 4
      vertex 11.4294 13.3494 0
      vertex 11.4294 13.3494 4
    endloop
  endfacet
  facet normal 0.896754 0.44253 0
    outer loop
      vertex 11.4294 13.3494 0
      vertex 11.5278 13.15 4
      vertex 11.5278 13.15 0
    endloop
  endfacet
  facet normal 0.997872 -0.0652057 0
    outer loop
      vertex 11.3 14 4
      vertex 11.3145 14.2219 0
      vertex 11.3145 14.2219 4
    endloop
  endfacet
  facet normal 0.997872 -0.0652057 0
    outer loop
      vertex 11.3145 14.2219 0
      vertex 11.3 14 4
      vertex 11.3 14 0
    endloop
  endfacet
  facet normal 0.98077 -0.195165 0
    outer loop
      vertex 11.3145 14.2219 4
      vertex 11.3579 14.44 0
      vertex 11.3579 14.44 4
    endloop
  endfacet
  facet normal 0.98077 -0.195165 0
    outer loop
      vertex 11.3579 14.44 0
      vertex 11.3145 14.2219 4
      vertex 11.3145 14.2219 0
    endloop
  endfacet
  facet normal 0.946915 -0.321484 0
    outer loop
      vertex 11.3579 14.44 4
      vertex 11.4294 14.6506 0
      vertex 11.4294 14.6506 4
    endloop
  endfacet
  facet normal 0.946915 -0.321484 0
    outer loop
      vertex 11.4294 14.6506 0
      vertex 11.3579 14.44 4
      vertex 11.3579 14.44 0
    endloop
  endfacet
  facet normal -0.659268 0.751908 0
    outer loop
      vertex 14.2021 12.7979 0
      vertex 14.0349 12.6513 4
      vertex 14.2021 12.7979 4
    endloop
  endfacet
  facet normal -0.659268 0.751908 0
    outer loop
      vertex 14.0349 12.6513 4
      vertex 14.2021 12.7979 0
      vertex 14.0349 12.6513 0
    endloop
  endfacet
  facet normal -0.98077 -0.195165 0
    outer loop
      vertex 22.6855 14.2219 0
      vertex 22.6421 14.44 4
      vertex 22.6421 14.44 0
    endloop
  endfacet
  facet normal -0.98077 -0.195165 0
    outer loop
      vertex 22.6421 14.44 4
      vertex 22.6855 14.2219 0
      vertex 22.6855 14.2219 4
    endloop
  endfacet
  facet normal -0.997872 -0.0652057 0
    outer loop
      vertex 22.7 14 0
      vertex 22.6855 14.2219 4
      vertex 22.6855 14.2219 0
    endloop
  endfacet
  facet normal -0.997872 -0.0652057 0
    outer loop
      vertex 22.6855 14.2219 4
      vertex 22.7 14 0
      vertex 22.7 14 4
    endloop
  endfacet
  facet normal 0.44253 -0.896754 0
    outer loop
      vertex 20.15 15.4722 0
      vertex 20.3494 15.5706 4
      vertex 20.15 15.4722 4
    endloop
  endfacet
  facet normal 0.44253 -0.896754 0
    outer loop
      vertex 20.3494 15.5706 4
      vertex 20.15 15.4722 0
      vertex 20.3494 15.5706 0
    endloop
  endfacet
  facet normal -0.555426 -0.831566 0
    outer loop
      vertex 21.85 15.4722 0
      vertex 22.0349 15.3487 4
      vertex 21.85 15.4722 4
    endloop
  endfacet
  facet normal -0.555426 -0.831566 -0
    outer loop
      vertex 22.0349 15.3487 4
      vertex 21.85 15.4722 0
      vertex 22.0349 15.3487 0
    endloop
  endfacet
  facet normal 0.659268 -0.751908 0
    outer loop
      vertex 19.7979 15.2021 0
      vertex 19.9651 15.3487 4
      vertex 19.7979 15.2021 4
    endloop
  endfacet
  facet normal 0.659268 -0.751908 0
    outer loop
      vertex 19.9651 15.3487 4
      vertex 19.7979 15.2021 0
      vertex 19.9651 15.3487 0
    endloop
  endfacet
  facet normal -0.321484 0.946915 0
    outer loop
      vertex 21.6506 12.4294 0
      vertex 21.44 12.3579 4
      vertex 21.6506 12.4294 4
    endloop
  endfacet
  facet normal -0.321484 0.946915 0
    outer loop
      vertex 21.44 12.3579 4
      vertex 21.6506 12.4294 0
      vertex 21.44 12.3579 0
    endloop
  endfacet
  facet normal -0.946915 0.321484 0
    outer loop
      vertex 22.5706 13.3494 0
      vertex 22.6421 13.56 4
      vertex 22.6421 13.56 0
    endloop
  endfacet
  facet normal -0.946915 0.321484 0
    outer loop
      vertex 22.6421 13.56 4
      vertex 22.5706 13.3494 0
      vertex 22.5706 13.3494 4
    endloop
  endfacet
  facet normal -0.321484 -0.946915 0
    outer loop
      vertex 21.44 15.6421 0
      vertex 21.6506 15.5706 4
      vertex 21.44 15.6421 4
    endloop
  endfacet
  facet normal -0.321484 -0.946915 -0
    outer loop
      vertex 21.6506 15.5706 4
      vertex 21.44 15.6421 0
      vertex 21.6506 15.5706 0
    endloop
  endfacet
  facet normal -0.195165 -0.98077 0
    outer loop
      vertex 21.2219 15.6855 0
      vertex 21.44 15.6421 4
      vertex 21.2219 15.6855 4
    endloop
  endfacet
  facet normal -0.195165 -0.98077 -0
    outer loop
      vertex 21.44 15.6421 4
      vertex 21.2219 15.6855 0
      vertex 21.44 15.6421 0
    endloop
  endfacet
  facet normal 0.555426 -0.831566 0
    outer loop
      vertex 19.9651 15.3487 0
      vertex 20.15 15.4722 4
      vertex 19.9651 15.3487 4
    endloop
  endfacet
  facet normal 0.555426 -0.831566 0
    outer loop
      vertex 20.15 15.4722 4
      vertex 19.9651 15.3487 0
      vertex 20.15 15.4722 0
    endloop
  endfacet
  facet normal -0.896754 0.44253 0
    outer loop
      vertex 22.4722 13.15 0
      vertex 22.5706 13.3494 4
      vertex 22.5706 13.3494 0
    endloop
  endfacet
  facet normal -0.896754 0.44253 0
    outer loop
      vertex 22.5706 13.3494 4
      vertex 22.4722 13.15 0
      vertex 22.4722 13.15 4
    endloop
  endfacet
  facet normal -0.659268 -0.751908 0
    outer loop
      vertex 22.0349 15.3487 0
      vertex 22.2021 15.2021 4
      vertex 22.0349 15.3487 4
    endloop
  endfacet
  facet normal -0.659268 -0.751908 -0
    outer loop
      vertex 22.2021 15.2021 4
      vertex 22.0349 15.3487 0
      vertex 22.2021 15.2021 0
    endloop
  endfacet
  facet normal -0.555426 0.831566 0
    outer loop
      vertex 22.0349 12.6513 0
      vertex 21.85 12.5278 4
      vertex 22.0349 12.6513 4
    endloop
  endfacet
  facet normal -0.555426 0.831566 0
    outer loop
      vertex 21.85 12.5278 4
      vertex 22.0349 12.6513 0
      vertex 21.85 12.5278 0
    endloop
  endfacet
  facet normal -0.44253 -0.896754 0
    outer loop
      vertex 21.6506 15.5706 0
      vertex 21.85 15.4722 4
      vertex 21.6506 15.5706 4
    endloop
  endfacet
  facet normal -0.44253 -0.896754 -0
    outer loop
      vertex 21.85 15.4722 4
      vertex 21.6506 15.5706 0
      vertex 21.85 15.4722 0
    endloop
  endfacet
  facet normal 0.997872 -0.0652057 0
    outer loop
      vertex 19.3 14 4
      vertex 19.3145 14.2219 0
      vertex 19.3145 14.2219 4
    endloop
  endfacet
  facet normal 0.997872 -0.0652057 0
    outer loop
      vertex 19.3145 14.2219 0
      vertex 19.3 14 4
      vertex 19.3 14 0
    endloop
  endfacet
  facet normal 0.659268 0.751908 -0
    outer loop
      vertex 19.9651 12.6513 0
      vertex 19.7979 12.7979 4
      vertex 19.9651 12.6513 4
    endloop
  endfacet
  facet normal 0.659268 0.751908 0
    outer loop
      vertex 19.7979 12.7979 4
      vertex 19.9651 12.6513 0
      vertex 19.7979 12.7979 0
    endloop
  endfacet
  facet normal 0.751908 0.659268 0
    outer loop
      vertex 19.7979 12.7979 4
      vertex 19.6513 12.9651 0
      vertex 19.6513 12.9651 4
    endloop
  endfacet
  facet normal 0.751908 0.659268 0
    outer loop
      vertex 19.6513 12.9651 0
      vertex 19.7979 12.7979 4
      vertex 19.7979 12.7979 0
    endloop
  endfacet
  facet normal 0.831566 0.555426 0
    outer loop
      vertex 19.6513 12.9651 4
      vertex 19.5278 13.15 0
      vertex 19.5278 13.15 4
    endloop
  endfacet
  facet normal 0.831566 0.555426 0
    outer loop
      vertex 19.5278 13.15 0
      vertex 19.6513 12.9651 4
      vertex 19.6513 12.9651 0
    endloop
  endfacet
  facet normal -0.831566 -0.555426 0
    outer loop
      vertex 22.4722 14.85 0
      vertex 22.3487 15.0349 4
      vertex 22.3487 15.0349 0
    endloop
  endfacet
  facet normal -0.831566 -0.555426 0
    outer loop
      vertex 22.3487 15.0349 4
      vertex 22.4722 14.85 0
      vertex 22.4722 14.85 4
    endloop
  endfacet
  facet normal -0.195165 0.98077 0
    outer loop
      vertex 21.44 12.3579 0
      vertex 21.2219 12.3145 4
      vertex 21.44 12.3579 4
    endloop
  endfacet
  facet normal -0.195165 0.98077 0
    outer loop
      vertex 21.2219 12.3145 4
      vertex 21.44 12.3579 0
      vertex 21.2219 12.3145 0
    endloop
  endfacet
  facet normal -0.98077 0.195165 0
    outer loop
      vertex 22.6421 13.56 0
      vertex 22.6855 13.7781 4
      vertex 22.6855 13.7781 0
    endloop
  endfacet
  facet normal -0.98077 0.195165 0
    outer loop
      vertex 22.6855 13.7781 4
      vertex 22.6421 13.56 0
      vertex 22.6421 13.56 4
    endloop
  endfacet
  facet normal 0.946915 0.321484 0
    outer loop
      vertex 19.4294 13.3494 4
      vertex 19.3579 13.56 0
      vertex 19.3579 13.56 4
    endloop
  endfacet
  facet normal 0.946915 0.321484 0
    outer loop
      vertex 19.3579 13.56 0
      vertex 19.4294 13.3494 4
      vertex 19.4294 13.3494 0
    endloop
  endfacet
  facet normal -0.44253 0.896754 0
    outer loop
      vertex 21.85 12.5278 0
      vertex 21.6506 12.4294 4
      vertex 21.85 12.5278 4
    endloop
  endfacet
  facet normal -0.44253 0.896754 0
    outer loop
      vertex 21.6506 12.4294 4
      vertex 21.85 12.5278 0
      vertex 21.6506 12.4294 0
    endloop
  endfacet
  facet normal -0.0652057 -0.997872 0
    outer loop
      vertex 21 15.7 0
      vertex 21.2219 15.6855 4
      vertex 21 15.7 4
    endloop
  endfacet
  facet normal -0.0652057 -0.997872 -0
    outer loop
      vertex 21.2219 15.6855 4
      vertex 21 15.7 0
      vertex 21.2219 15.6855 0
    endloop
  endfacet
  facet normal 0.321484 -0.946915 0
    outer loop
      vertex 20.3494 15.5706 0
      vertex 20.56 15.6421 4
      vertex 20.3494 15.5706 4
    endloop
  endfacet
  facet normal 0.321484 -0.946915 0
    outer loop
      vertex 20.56 15.6421 4
      vertex 20.3494 15.5706 0
      vertex 20.56 15.6421 0
    endloop
  endfacet
  facet normal 0.195165 -0.98077 0
    outer loop
      vertex 20.56 15.6421 0
      vertex 20.7781 15.6855 4
      vertex 20.56 15.6421 4
    endloop
  endfacet
  facet normal 0.195165 -0.98077 0
    outer loop
      vertex 20.7781 15.6855 4
      vertex 20.56 15.6421 0
      vertex 20.7781 15.6855 0
    endloop
  endfacet
  facet normal -0.896754 -0.44253 0
    outer loop
      vertex 22.5706 14.6506 0
      vertex 22.4722 14.85 4
      vertex 22.4722 14.85 0
    endloop
  endfacet
  facet normal -0.896754 -0.44253 0
    outer loop
      vertex 22.4722 14.85 4
      vertex 22.5706 14.6506 0
      vertex 22.5706 14.6506 4
    endloop
  endfacet
  facet normal -0.997872 0.0652057 0
    outer loop
      vertex 22.6855 13.7781 0
      vertex 22.7 14 4
      vertex 22.7 14 0
    endloop
  endfacet
  facet normal -0.997872 0.0652057 0
    outer loop
      vertex 22.7 14 4
      vertex 22.6855 13.7781 0
      vertex 22.6855 13.7781 4
    endloop
  endfacet
  facet normal -0.0652057 0.997872 0
    outer loop
      vertex 21.2219 12.3145 0
      vertex 21 12.3 4
      vertex 21.2219 12.3145 4
    endloop
  endfacet
  facet normal -0.0652057 0.997872 0
    outer loop
      vertex 21 12.3 4
      vertex 21.2219 12.3145 0
      vertex 21 12.3 0
    endloop
  endfacet
  facet normal -0.751908 -0.659268 0
    outer loop
      vertex 22.3487 15.0349 0
      vertex 22.2021 15.2021 4
      vertex 22.2021 15.2021 0
    endloop
  endfacet
  facet normal -0.751908 -0.659268 0
    outer loop
      vertex 22.2021 15.2021 4
      vertex 22.3487 15.0349 0
      vertex 22.3487 15.0349 4
    endloop
  endfacet
  facet normal 0.997872 0.0652057 0
    outer loop
      vertex 19.3145 13.7781 4
      vertex 19.3 14 0
      vertex 19.3 14 4
    endloop
  endfacet
  facet normal 0.997872 0.0652057 0
    outer loop
      vertex 19.3 14 0
      vertex 19.3145 13.7781 4
      vertex 19.3145 13.7781 0
    endloop
  endfacet
  facet normal -0.751908 0.659268 0
    outer loop
      vertex 22.2021 12.7979 0
      vertex 22.3487 12.9651 4
      vertex 22.3487 12.9651 0
    endloop
  endfacet
  facet normal -0.751908 0.659268 0
    outer loop
      vertex 22.3487 12.9651 4
      vertex 22.2021 12.7979 0
      vertex 22.2021 12.7979 4
    endloop
  endfacet
  facet normal 0.751908 -0.659268 0
    outer loop
      vertex 19.6513 15.0349 4
      vertex 19.7979 15.2021 0
      vertex 19.7979 15.2021 4
    endloop
  endfacet
  facet normal 0.751908 -0.659268 0
    outer loop
      vertex 19.7979 15.2021 0
      vertex 19.6513 15.0349 4
      vertex 19.6513 15.0349 0
    endloop
  endfacet
  facet normal 0.831566 -0.555426 0
    outer loop
      vertex 19.5278 14.85 4
      vertex 19.6513 15.0349 0
      vertex 19.6513 15.0349 4
    endloop
  endfacet
  facet normal 0.831566 -0.555426 0
    outer loop
      vertex 19.6513 15.0349 0
      vertex 19.5278 14.85 4
      vertex 19.5278 14.85 0
    endloop
  endfacet
  facet normal 0.0652057 -0.997872 0
    outer loop
      vertex 20.7781 15.6855 0
      vertex 21 15.7 4
      vertex 20.7781 15.6855 4
    endloop
  endfacet
  facet normal 0.0652057 -0.997872 0
    outer loop
      vertex 21 15.7 4
      vertex 20.7781 15.6855 0
      vertex 21 15.7 0
    endloop
  endfacet
  facet normal 0.98077 0.195165 0
    outer loop
      vertex 19.3579 13.56 4
      vertex 19.3145 13.7781 0
      vertex 19.3145 13.7781 4
    endloop
  endfacet
  facet normal 0.98077 0.195165 0
    outer loop
      vertex 19.3145 13.7781 0
      vertex 19.3579 13.56 4
      vertex 19.3579 13.56 0
    endloop
  endfacet
  facet normal 0.321484 0.946915 -0
    outer loop
      vertex 20.56 12.3579 0
      vertex 20.3494 12.4294 4
      vertex 20.56 12.3579 4
    endloop
  endfacet
  facet normal 0.321484 0.946915 0
    outer loop
      vertex 20.3494 12.4294 4
      vertex 20.56 12.3579 0
      vertex 20.3494 12.4294 0
    endloop
  endfacet
  facet normal -0.946915 -0.321484 0
    outer loop
      vertex 22.6421 14.44 0
      vertex 22.5706 14.6506 4
      vertex 22.5706 14.6506 0
    endloop
  endfacet
  facet normal -0.946915 -0.321484 0
    outer loop
      vertex 22.5706 14.6506 4
      vertex 22.6421 14.44 0
      vertex 22.6421 14.44 4
    endloop
  endfacet
  facet normal 0.44253 0.896754 -0
    outer loop
      vertex 20.3494 12.4294 0
      vertex 20.15 12.5278 4
      vertex 20.3494 12.4294 4
    endloop
  endfacet
  facet normal 0.44253 0.896754 0
    outer loop
      vertex 20.15 12.5278 4
      vertex 20.3494 12.4294 0
      vertex 20.15 12.5278 0
    endloop
  endfacet
  facet normal -0.831566 0.555426 0
    outer loop
      vertex 22.3487 12.9651 0
      vertex 22.4722 13.15 4
      vertex 22.4722 13.15 0
    endloop
  endfacet
  facet normal -0.831566 0.555426 0
    outer loop
      vertex 22.4722 13.15 4
      vertex 22.3487 12.9651 0
      vertex 22.3487 12.9651 4
    endloop
  endfacet
  facet normal 0.555426 0.831566 -0
    outer loop
      vertex 20.15 12.5278 0
      vertex 19.9651 12.6513 4
      vertex 20.15 12.5278 4
    endloop
  endfacet
  facet normal 0.555426 0.831566 0
    outer loop
      vertex 19.9651 12.6513 4
      vertex 20.15 12.5278 0
      vertex 19.9651 12.6513 0
    endloop
  endfacet
  facet normal 0.0652057 0.997872 -0
    outer loop
      vertex 21 12.3 0
      vertex 20.7781 12.3145 4
      vertex 21 12.3 4
    endloop
  endfacet
  facet normal 0.0652057 0.997872 0
    outer loop
      vertex 20.7781 12.3145 4
      vertex 21 12.3 0
      vertex 20.7781 12.3145 0
    endloop
  endfacet
  facet normal 0.195165 0.98077 -0
    outer loop
      vertex 20.7781 12.3145 0
      vertex 20.56 12.3579 4
      vertex 20.7781 12.3145 4
    endloop
  endfacet
  facet normal 0.195165 0.98077 0
    outer loop
      vertex 20.56 12.3579 4
      vertex 20.7781 12.3145 0
      vertex 20.56 12.3579 0
    endloop
  endfacet
  facet normal 0.896754 -0.44253 0
    outer loop
      vertex 19.4294 14.6506 4
      vertex 19.5278 14.85 0
      vertex 19.5278 14.85 4
    endloop
  endfacet
  facet normal 0.896754 -0.44253 0
    outer loop
      vertex 19.5278 14.85 0
      vertex 19.4294 14.6506 4
      vertex 19.4294 14.6506 0
    endloop
  endfacet
  facet normal 0.896754 0.44253 0
    outer loop
      vertex 19.5278 13.15 4
      vertex 19.4294 13.3494 0
      vertex 19.4294 13.3494 4
    endloop
  endfacet
  facet normal 0.896754 0.44253 0
    outer loop
      vertex 19.4294 13.3494 0
      vertex 19.5278 13.15 4
      vertex 19.5278 13.15 0
    endloop
  endfacet
  facet normal 0.98077 -0.195165 0
    outer loop
      vertex 19.3145 14.2219 4
      vertex 19.3579 14.44 0
      vertex 19.3579 14.44 4
    endloop
  endfacet
  facet normal 0.98077 -0.195165 0
    outer loop
      vertex 19.3579 14.44 0
      vertex 19.3145 14.2219 4
      vertex 19.3145 14.2219 0
    endloop
  endfacet
  facet normal 0.946915 -0.321484 0
    outer loop
      vertex 19.3579 14.44 4
      vertex 19.4294 14.6506 0
      vertex 19.4294 14.6506 4
    endloop
  endfacet
  facet normal 0.946915 -0.321484 0
    outer loop
      vertex 19.4294 14.6506 0
      vertex 19.3579 14.44 4
      vertex 19.3579 14.44 0
    endloop
  endfacet
  facet normal -0.659268 0.751908 0
    outer loop
      vertex 22.2021 12.7979 0
      vertex 22.0349 12.6513 4
      vertex 22.2021 12.7979 4
    endloop
  endfacet
  facet normal -0.659268 0.751908 0
    outer loop
      vertex 22.0349 12.6513 4
      vertex 22.2021 12.7979 0
      vertex 22.0349 12.6513 0
    endloop
  endfacet
endsolid OpenSCAD_Model
