solid OpenSCAD_Model
  facet normal 1 -0 0
    outer loop
      vertex 16 0 5
      vertex 16 10 0
      vertex 16 10 5
    endloop
  endfacet
  facet normal 1 0 0
    outer loop
      vertex 16 10 0
      vertex 16 0 5
      vertex 16 0 0
    endloop
  endfacet
  facet normal 0 0 1
    outer loop
      vertex 5.4 10 5
      vertex 4.7 5 5
      vertex 5.4 0 5
    endloop
  endfacet
  facet normal 0 0 1
    outer loop
      vertex 5.4 10 5
      vertex 4.68546 5.22189 5
      vertex 4.7 5 5
    endloop
  endfacet
  facet normal 0 0 1
    outer loop
      vertex 5.4 10 5
      vertex 4.64207 5.43999 5
      vertex 4.68546 5.22189 5
    endloop
  endfacet
  facet normal 0 0 1
    outer loop
      vertex 5.4 10 5
      vertex 4.57059 5.65056 5
      vertex 4.64207 5.43999 5
    endloop
  endfacet
  facet normal 0 0 1
    outer loop
      vertex 5.4 10 5
      vertex 4.47224 5.85 5
      vertex 4.57059 5.65056 5
    endloop
  endfacet
  facet normal 0 0 1
    outer loop
      vertex 5.4 10 5
      vertex 4.3487 6.03489 5
      vertex 4.47224 5.85 5
    endloop
  endfacet
  facet normal 0 0 1
    outer loop
      vertex 5.4 10 5
      vertex 4.20208 6.20208 5
      vertex 4.3487 6.03489 5
    endloop
  endfacet
  facet normal 0 0 1
    outer loop
      vertex 5.4 10 5
      vertex 4.03489 6.3487 5
      vertex 4.20208 6.20208 5
    endloop
  endfacet
  facet normal 0 0 1
    outer loop
      vertex 5.4 10 5
      vertex 3.85 6.47224 5
      vertex 4.03489 6.3487 5
    endloop
  endfacet
  facet normal 0 0 1
    outer loop
      vertex 5.4 10 5
      vertex 3.65056 6.57059 5
      vertex 3.85 6.47224 5
    endloop
  endfacet
  facet normal 0 0 1
    outer loop
      vertex 5.4 10 5
      vertex 3.43999 6.64207 5
      vertex 3.65056 6.57059 5
    endloop
  endfacet
  facet normal 0 0 1
    outer loop
      vertex 5.4 10 5
      vertex 3.22189 6.68546 5
      vertex 3.43999 6.64207 5
    endloop
  endfacet
  facet normal 0 0 1
    outer loop
      vertex 5.4 10 5
      vertex 3 6.7 5
      vertex 3.22189 6.68546 5
    endloop
  endfacet
  facet normal 0 0 1
    outer loop
      vertex 5.4 10 5
      vertex 2.7781 6.68546 5
      vertex 3 6.7 5
    endloop
  endfacet
  facet normal -0 0 1
    outer loop
      vertex 0 10 5
      vertex 2.7781 6.68546 5
      vertex 5.4 10 5
    endloop
  endfacet
  facet normal 0 0 1
    outer loop
      vertex 2.7781 6.68546 5
      vertex 0 10 5
      vertex 2.56001 6.64207 5
    endloop
  endfacet
  facet normal 0 0 1
    outer loop
      vertex 2.56001 6.64207 5
      vertex 0 10 5
      vertex 2.34944 6.57059 5
    endloop
  endfacet
  facet normal 0 0 1
    outer loop
      vertex 2.34944 6.57059 5
      vertex 0 10 5
      vertex 2.15 6.47224 5
    endloop
  endfacet
  facet normal 0 0 1
    outer loop
      vertex 2.15 6.47224 5
      vertex 0 10 5
      vertex 1.96511 6.3487 5
    endloop
  endfacet
  facet normal 0 0 1
    outer loop
      vertex 1.31454 5.22189 5
      vertex 0 10 5
      vertex 1.3 5 5
    endloop
  endfacet
  facet normal 0 0 1
    outer loop
      vertex 1.35793 5.43999 5
      vertex 0 10 5
      vertex 1.31454 5.22189 5
    endloop
  endfacet
  facet normal 0 0 1
    outer loop
      vertex 1.4294 5.65056 5
      vertex 0 10 5
      vertex 1.35793 5.43999 5
    endloop
  endfacet
  facet normal 0 0 1
    outer loop
      vertex 1.52776 5.85 5
      vertex 0 10 5
      vertex 1.4294 5.65056 5
    endloop
  endfacet
  facet normal 0 0 1
    outer loop
      vertex 1.6513 6.03489 5
      vertex 0 10 5
      vertex 1.52776 5.85 5
    endloop
  endfacet
  facet normal 0 0 1
    outer loop
      vertex 1.79792 6.20208 5
      vertex 0 10 5
      vertex 1.6513 6.03489 5
    endloop
  endfacet
  facet normal 0 0 1
    outer loop
      vertex 1.96511 6.3487 5
      vertex 0 10 5
      vertex 1.79792 6.20208 5
    endloop
  endfacet
  facet normal -0 0 1
    outer loop
      vertex 4.68546 4.7781 5
      vertex 5.4 0 5
      vertex 4.7 5 5
    endloop
  endfacet
  facet normal -0 0 1
    outer loop
      vertex 4.64207 4.56001 5
      vertex 5.4 0 5
      vertex 4.68546 4.7781 5
    endloop
  endfacet
  facet normal -0 0 1
    outer loop
      vertex 4.57059 4.34944 5
      vertex 5.4 0 5
      vertex 4.64207 4.56001 5
    endloop
  endfacet
  facet normal -0 0 1
    outer loop
      vertex 4.47224 4.15 5
      vertex 5.4 0 5
      vertex 4.57059 4.34944 5
    endloop
  endfacet
  facet normal -0 0 1
    outer loop
      vertex 4.3487 3.96511 5
      vertex 5.4 0 5
      vertex 4.47224 4.15 5
    endloop
  endfacet
  facet normal -0 0 1
    outer loop
      vertex 4.20208 3.79792 5
      vertex 5.4 0 5
      vertex 4.3487 3.96511 5
    endloop
  endfacet
  facet normal -0 0 1
    outer loop
      vertex 4.03489 3.6513 5
      vertex 5.4 0 5
      vertex 4.20208 3.79792 5
    endloop
  endfacet
  facet normal -0 0 1
    outer loop
      vertex 3.85 3.52776 5
      vertex 5.4 0 5
      vertex 4.03489 3.6513 5
    endloop
  endfacet
  facet normal -0 0 1
    outer loop
      vertex 3.65056 3.4294 5
      vertex 5.4 0 5
      vertex 3.85 3.52776 5
    endloop
  endfacet
  facet normal -0 0 1
    outer loop
      vertex 3.43999 3.35793 5
      vertex 5.4 0 5
      vertex 3.65056 3.4294 5
    endloop
  endfacet
  facet normal -0 0 1
    outer loop
      vertex 3.22189 3.31454 5
      vertex 5.4 0 5
      vertex 3.43999 3.35793 5
    endloop
  endfacet
  facet normal -0 0 1
    outer loop
      vertex 3 3.3 5
      vertex 5.4 0 5
      vertex 3.22189 3.31454 5
    endloop
  endfacet
  facet normal 0 0 1
    outer loop
      vertex 2.7781 3.31454 5
      vertex 5.4 0 5
      vertex 3 3.3 5
    endloop
  endfacet
  facet normal 0 0 1
    outer loop
      vertex 0 0 5
      vertex 2.7781 3.31454 5
      vertex 2.56001 3.35793 5
    endloop
  endfacet
  facet normal 0 0 1
    outer loop
      vertex 0 0 5
      vertex 2.56001 3.35793 5
      vertex 2.34944 3.4294 5
    endloop
  endfacet
  facet normal 0 0 1
    outer loop
      vertex 0 0 5
      vertex 2.34944 3.4294 5
      vertex 2.15 3.52776 5
    endloop
  endfacet
  facet normal 0 0 1
    outer loop
      vertex 0 0 5
      vertex 2.15 3.52776 5
      vertex 1.96511 3.6513 5
    endloop
  endfacet
  facet normal 0 0 1
    outer loop
      vertex 0 0 5
      vertex 1.96511 3.6513 5
      vertex 1.79792 3.79792 5
    endloop
  endfacet
  facet normal 0 0 1
    outer loop
      vertex 0 0 5
      vertex 1.3 5 5
      vertex 0 10 5
    endloop
  endfacet
  facet normal 0 0 1
    outer loop
      vertex 1.3 5 5
      vertex 0 0 5
      vertex 1.31454 4.7781 5
    endloop
  endfacet
  facet normal 0 0 1
    outer loop
      vertex 2.7781 3.31454 5
      vertex 0 0 5
      vertex 5.4 0 5
    endloop
  endfacet
  facet normal 0 0 1
    outer loop
      vertex 1.6513 3.96511 5
      vertex 0 0 5
      vertex 1.79792 3.79792 5
    endloop
  endfacet
  facet normal 0 0 1
    outer loop
      vertex 1.52776 4.15 5
      vertex 0 0 5
      vertex 1.6513 3.96511 5
    endloop
  endfacet
  facet normal 0 0 1
    outer loop
      vertex 1.4294 4.34944 5
      vertex 0 0 5
      vertex 1.52776 4.15 5
    endloop
  endfacet
  facet normal 0 0 1
    outer loop
      vertex 1.35793 4.56001 5
      vertex 0 0 5
      vertex 1.4294 4.34944 5
    endloop
  endfacet
  facet normal 0 0 1
    outer loop
      vertex 1.31454 4.7781 5
      vertex 0 0 5
      vertex 1.35793 4.56001 5
    endloop
  endfacet
  facet normal -0 0 1
    outer loop
      vertex 10.6 10 5
      vertex 16 0 5
      vertex 16 10 5
    endloop
  endfacet
  facet normal 0 0 1
    outer loop
      vertex 16 0 5
      vertex 10.6 10 5
      vertex 10.6 0 5
    endloop
  endfacet
  facet normal 0 0 -1
    outer loop
      vertex 16 0 0
      vertex 4.7 5 0
      vertex 16 10 0
    endloop
  endfacet
  facet normal 0 0 -1
    outer loop
      vertex 16 0 0
      vertex 4.68546 4.7781 0
      vertex 4.7 5 0
    endloop
  endfacet
  facet normal 0 0 -1
    outer loop
      vertex 16 0 0
      vertex 4.64207 4.56001 0
      vertex 4.68546 4.7781 0
    endloop
  endfacet
  facet normal 0 0 -1
    outer loop
      vertex 16 0 0
      vertex 4.57059 4.34944 0
      vertex 4.64207 4.56001 0
    endloop
  endfacet
  facet normal 0 0 -1
    outer loop
      vertex 16 0 0
      vertex 4.47224 4.15 0
      vertex 4.57059 4.34944 0
    endloop
  endfacet
  facet normal 0 0 -1
    outer loop
      vertex 16 0 0
      vertex 4.3487 3.96511 0
      vertex 4.47224 4.15 0
    endloop
  endfacet
  facet normal 0 0 -1
    outer loop
      vertex 16 0 0
      vertex 4.20208 3.79792 0
      vertex 4.3487 3.96511 0
    endloop
  endfacet
  facet normal 0 0 -1
    outer loop
      vertex 16 0 0
      vertex 4.03489 3.6513 0
      vertex 4.20208 3.79792 0
    endloop
  endfacet
  facet normal 0 0 -1
    outer loop
      vertex 16 0 0
      vertex 3.85 3.52776 0
      vertex 4.03489 3.6513 0
    endloop
  endfacet
  facet normal 0 0 -1
    outer loop
      vertex 0 0 0
      vertex 3.85 3.52776 0
      vertex 16 0 0
    endloop
  endfacet
  facet normal 0 0 -1
    outer loop
      vertex 3.85 3.52776 0
      vertex 0 0 0
      vertex 3.65056 3.4294 0
    endloop
  endfacet
  facet normal 0 0 -1
    outer loop
      vertex 3.65056 3.4294 0
      vertex 0 0 0
      vertex 3.43999 3.35793 0
    endloop
  endfacet
  facet normal 0 0 -1
    outer loop
      vertex 3.43999 3.35793 0
      vertex 0 0 0
      vertex 3.22189 3.31454 0
    endloop
  endfacet
  facet normal 0 0 -1
    outer loop
      vertex 3.22189 3.31454 0
      vertex 0 0 0
      vertex 3 3.3 0
    endloop
  endfacet
  facet normal -0 0 -1
    outer loop
      vertex 3 3.3 0
      vertex 0 0 0
      vertex 2.7781 3.31454 0
    endloop
  endfacet
  facet normal -0 0 -1
    outer loop
      vertex 1.31454 4.7781 0
      vertex 0 0 0
      vertex 1.3 5 0
    endloop
  endfacet
  facet normal -0 0 -1
    outer loop
      vertex 1.35793 4.56001 0
      vertex 0 0 0
      vertex 1.31454 4.7781 0
    endloop
  endfacet
  facet normal -0 0 -1
    outer loop
      vertex 1.4294 4.34944 0
      vertex 0 0 0
      vertex 1.35793 4.56001 0
    endloop
  endfacet
  facet normal -0 0 -1
    outer loop
      vertex 1.52776 4.15 0
      vertex 0 0 0
      vertex 1.4294 4.34944 0
    endloop
  endfacet
  facet normal -0 0 -1
    outer loop
      vertex 1.6513 3.96511 0
      vertex 0 0 0
      vertex 1.52776 4.15 0
    endloop
  endfacet
  facet normal -0 0 -1
    outer loop
      vertex 1.79792 3.79792 0
      vertex 0 0 0
      vertex 1.6513 3.96511 0
    endloop
  endfacet
  facet normal -0 0 -1
    outer loop
      vertex 1.96511 3.6513 0
      vertex 0 0 0
      vertex 1.79792 3.79792 0
    endloop
  endfacet
  facet normal -0 0 -1
    outer loop
      vertex 2.15 3.52776 0
      vertex 0 0 0
      vertex 1.96511 3.6513 0
    endloop
  endfacet
  facet normal -0 0 -1
    outer loop
      vertex 2.34944 3.4294 0
      vertex 0 0 0
      vertex 2.15 3.52776 0
    endloop
  endfacet
  facet normal -0 0 -1
    outer loop
      vertex 2.56001 3.35793 0
      vertex 0 0 0
      vertex 2.34944 3.4294 0
    endloop
  endfacet
  facet normal -0 0 -1
    outer loop
      vertex 2.7781 3.31454 0
      vertex 0 0 0
      vertex 2.56001 3.35793 0
    endloop
  endfacet
  facet normal 0 0 -1
    outer loop
      vertex 4.68546 5.22189 0
      vertex 16 10 0
      vertex 4.7 5 0
    endloop
  endfacet
  facet normal 0 0 -1
    outer loop
      vertex 4.64207 5.43999 0
      vertex 16 10 0
      vertex 4.68546 5.22189 0
    endloop
  endfacet
  facet normal 0 0 -1
    outer loop
      vertex 4.57059 5.65056 0
      vertex 16 10 0
      vertex 4.64207 5.43999 0
    endloop
  endfacet
  facet normal 0 0 -1
    outer loop
      vertex 4.47224 5.85 0
      vertex 16 10 0
      vertex 4.57059 5.65056 0
    endloop
  endfacet
  facet normal 0 0 -1
    outer loop
      vertex 4.3487 6.03489 0
      vertex 16 10 0
      vertex 4.47224 5.85 0
    endloop
  endfacet
  facet normal 0 0 -1
    outer loop
      vertex 4.20208 6.20208 0
      vertex 16 10 0
      vertex 4.3487 6.03489 0
    endloop
  endfacet
  facet normal 0 0 -1
    outer loop
      vertex 4.03489 6.3487 0
      vertex 16 10 0
      vertex 4.20208 6.20208 0
    endloop
  endfacet
  facet normal 0 0 -1
    outer loop
      vertex 3.85 6.47224 0
      vertex 16 10 0
      vertex 4.03489 6.3487 0
    endloop
  endfacet
  facet normal 0 0 -1
    outer loop
      vertex 0 10 0
      vertex 3.85 6.47224 0
      vertex 3.65056 6.57059 0
    endloop
  endfacet
  facet normal 0 0 -1
    outer loop
      vertex 0 10 0
      vertex 3.65056 6.57059 0
      vertex 3.43999 6.64207 0
    endloop
  endfacet
  facet normal 0 0 -1
    outer loop
      vertex 0 10 0
      vertex 3.43999 6.64207 0
      vertex 3.22189 6.68546 0
    endloop
  endfacet
  facet normal 0 0 -1
    outer loop
      vertex 0 10 0
      vertex 3.22189 6.68546 0
      vertex 3 6.7 0
    endloop
  endfacet
  facet normal 0 0 -1
    outer loop
      vertex 0 10 0
      vertex 3 6.7 0
      vertex 2.7781 6.68546 0
    endloop
  endfacet
  facet normal 0 0 -1
    outer loop
      vertex 0 10 0
      vertex 2.7781 6.68546 0
      vertex 2.56001 6.64207 0
    endloop
  endfacet
  facet normal 0 0 -1
    outer loop
      vertex 0 10 0
      vertex 1.3 5 0
      vertex 0 0 0
    endloop
  endfacet
  facet normal 0 0 -1
    outer loop
      vertex 1.3 5 0
      vertex 0 10 0
      vertex 1.31454 5.22189 0
    endloop
  endfacet
  facet normal 0 0 -1
    outer loop
      vertex 3.85 6.47224 0
      vertex 0 10 0
      vertex 16 10 0
    endloop
  endfacet
  facet normal 0 0 -1
    outer loop
      vertex 2.34944 6.57059 0
      vertex 0 10 0
      vertex 2.56001 6.64207 0
    endloop
  endfacet
  facet normal 0 0 -1
    outer loop
      vertex 2.15 6.47224 0
      vertex 0 10 0
      vertex 2.34944 6.57059 0
    endloop
  endfacet
  facet normal 0 0 -1
    outer loop
      vertex 1.96511 6.3487 0
      vertex 0 10 0
      vertex 2.15 6.47224 0
    endloop
  endfacet
  facet normal 0 0 -1
    outer loop
      vertex 1.79792 6.20208 0
      vertex 0 10 0
      vertex 1.96511 6.3487 0
    endloop
  endfacet
  facet normal 0 0 -1
    outer loop
      vertex 1.6513 6.03489 0
      vertex 0 10 0
      vertex 1.79792 6.20208 0
    endloop
  endfacet
  facet normal 0 0 -1
    outer loop
      vertex 1.52776 5.85 0
      vertex 0 10 0
      vertex 1.6513 6.03489 0
    endloop
  endfacet
  facet normal 0 0 -1
    outer loop
      vertex 1.4294 5.65056 0
      vertex 0 10 0
      vertex 1.52776 5.85 0
    endloop
  endfacet
  facet normal 0 0 -1
    outer loop
      vertex 1.35793 5.43999 0
      vertex 0 10 0
      vertex 1.4294 5.65056 0
    endloop
  endfacet
  facet normal 0 0 -1
    outer loop
      vertex 1.31454 5.22189 0
      vertex 0 10 0
      vertex 1.35793 5.43999 0
    endloop
  endfacet
  facet normal -1 0 0
    outer loop
      vertex 0 0 0
      vertex 0 10 5
      vertex 0 10 0
    endloop
  endfacet
  facet normal -1 -0 0
    outer loop
      vertex 0 10 5
      vertex 0 0 0
      vertex 0 0 5
    endloop
  endfacet
  facet normal 0 1 0
    outer loop
      vertex 16 10 5
      vertex 10.5778 10 4.66063
      vertex 10.6 10 5
    endloop
  endfacet
  facet normal 0 1 0
    outer loop
      vertex 16 10 5
      vertex 10.5114 10 4.32707
      vertex 10.5778 10 4.66063
    endloop
  endfacet
  facet normal 0 1 0
    outer loop
      vertex 16 10 5
      vertex 10.4021 10 4.00502
      vertex 10.5114 10 4.32707
    endloop
  endfacet
  facet normal 0 1 -0
    outer loop
      vertex 16 10 0
      vertex 10.4021 10 4.00502
      vertex 16 10 5
    endloop
  endfacet
  facet normal 0 1 0
    outer loop
      vertex 10.4021 10 4.00502
      vertex 16 10 0
      vertex 10.2517 10 3.7
    endloop
  endfacet
  facet normal 0 1 0
    outer loop
      vertex 10.2517 10 3.7
      vertex 16 10 0
      vertex 10.0627 10 3.41722
    endloop
  endfacet
  facet normal 0 1 0
    outer loop
      vertex 10.0627 10 3.41722
      vertex 16 10 0
      vertex 9.83848 10 3.16152
    endloop
  endfacet
  facet normal 0 1 0
    outer loop
      vertex 9.83848 10 3.16152
      vertex 16 10 0
      vertex 9.58278 10 2.93728
    endloop
  endfacet
  facet normal 0 1 0
    outer loop
      vertex 9.58278 10 2.93728
      vertex 16 10 0
      vertex 9.3 10 2.74833
    endloop
  endfacet
  facet normal 0 1 0
    outer loop
      vertex 8.33937 10 2.42224
      vertex 16 10 0
      vertex 8 10 2.4
    endloop
  endfacet
  facet normal 0 1 0
    outer loop
      vertex 8.67293 10 2.48859
      vertex 16 10 0
      vertex 8.33937 10 2.42224
    endloop
  endfacet
  facet normal 0 1 0
    outer loop
      vertex 8.99498 10 2.59791
      vertex 16 10 0
      vertex 8.67293 10 2.48859
    endloop
  endfacet
  facet normal 0 1 0
    outer loop
      vertex 9.3 10 2.74833
      vertex 16 10 0
      vertex 8.99498 10 2.59791
    endloop
  endfacet
  facet normal 0 1 0
    outer loop
      vertex 5.42224 10 4.66063
      vertex 0 10 5
      vertex 5.4 10 5
    endloop
  endfacet
  facet normal 0 1 0
    outer loop
      vertex 5.48859 10 4.32707
      vertex 0 10 5
      vertex 5.42224 10 4.66063
    endloop
  endfacet
  facet normal 0 1 0
    outer loop
      vertex 5.59791 10 4.00502
      vertex 0 10 5
      vertex 5.48859 10 4.32707
    endloop
  endfacet
  facet normal 0 1 0
    outer loop
      vertex 0 10 0
      vertex 5.59791 10 4.00502
      vertex 5.74833 10 3.7
    endloop
  endfacet
  facet normal 0 1 0
    outer loop
      vertex 0 10 0
      vertex 5.74833 10 3.7
      vertex 5.93728 10 3.41722
    endloop
  endfacet
  facet normal 0 1 0
    outer loop
      vertex 0 10 0
      vertex 5.93728 10 3.41722
      vertex 6.16152 10 3.16152
    endloop
  endfacet
  facet normal 0 1 0
    outer loop
      vertex 0 10 0
      vertex 6.16152 10 3.16152
      vertex 6.41722 10 2.93728
    endloop
  endfacet
  facet normal 0 1 0
    outer loop
      vertex 0 10 0
      vertex 6.41722 10 2.93728
      vertex 6.7 10 2.74833
    endloop
  endfacet
  facet normal 0 1 0
    outer loop
      vertex 0 10 0
      vertex 6.7 10 2.74833
      vertex 7.00502 10 2.59791
    endloop
  endfacet
  facet normal 0 1 0
    outer loop
      vertex 0 10 0
      vertex 8 10 2.4
      vertex 16 10 0
    endloop
  endfacet
  facet normal 0 1 0
    outer loop
      vertex 8 10 2.4
      vertex 0 10 0
      vertex 7.66063 10 2.42224
    endloop
  endfacet
  facet normal 0 1 0
    outer loop
      vertex 5.59791 10 4.00502
      vertex 0 10 0
      vertex 0 10 5
    endloop
  endfacet
  facet normal 0 1 0
    outer loop
      vertex 7.32707 10 2.48859
      vertex 0 10 0
      vertex 7.00502 10 2.59791
    endloop
  endfacet
  facet normal 0 1 0
    outer loop
      vertex 7.66063 10 2.42224
      vertex 0 10 0
      vertex 7.32707 10 2.48859
    endloop
  endfacet
  facet normal 0 -1 0
    outer loop
      vertex 0 0 5
      vertex 5.42224 0 4.66063
      vertex 5.4 0 5
    endloop
  endfacet
  facet normal 0 -1 0
    outer loop
      vertex 0 0 5
      vertex 5.48859 0 4.32707
      vertex 5.42224 0 4.66063
    endloop
  endfacet
  facet normal 0 -1 0
    outer loop
      vertex 0 0 5
      vertex 5.59791 0 4.00502
      vertex 5.48859 0 4.32707
    endloop
  endfacet
  facet normal 0 -1 0
    outer loop
      vertex 0 0 0
      vertex 5.59791 0 4.00502
      vertex 0 0 5
    endloop
  endfacet
  facet normal 0 -1 -0
    outer loop
      vertex 5.59791 0 4.00502
      vertex 0 0 0
      vertex 5.74833 0 3.7
    endloop
  endfacet
  facet normal 0 -1 -0
    outer loop
      vertex 5.74833 0 3.7
      vertex 0 0 0
      vertex 5.93728 0 3.41722
    endloop
  endfacet
  facet normal 0 -1 -0
    outer loop
      vertex 5.93728 0 3.41722
      vertex 0 0 0
      vertex 6.16152 0 3.16152
    endloop
  endfacet
  facet normal 0 -1 -0
    outer loop
      vertex 6.16152 0 3.16152
      vertex 0 0 0
      vertex 6.41722 0 2.93728
    endloop
  endfacet
  facet normal 0 -1 -0
    outer loop
      vertex 6.41722 0 2.93728
      vertex 0 0 0
      vertex 6.7 0 2.74833
    endloop
  endfacet
  facet normal 0 -1 -0
    outer loop
      vertex 7.66063 0 2.42224
      vertex 0 0 0
      vertex 8 0 2.4
    endloop
  endfacet
  facet normal 0 -1 -0
    outer loop
      vertex 7.32707 0 2.48859
      vertex 0 0 0
      vertex 7.66063 0 2.42224
    endloop
  endfacet
  facet normal 0 -1 -0
    outer loop
      vertex 7.00502 0 2.59791
      vertex 0 0 0
      vertex 7.32707 0 2.48859
    endloop
  endfacet
  facet normal 0 -1 -0
    outer loop
      vertex 6.7 0 2.74833
      vertex 0 0 0
      vertex 7.00502 0 2.59791
    endloop
  endfacet
  facet normal 0 -1 0
    outer loop
      vertex 10.5778 0 4.66063
      vertex 16 0 5
      vertex 10.6 0 5
    endloop
  endfacet
  facet normal 0 -1 0
    outer loop
      vertex 10.5114 0 4.32707
      vertex 16 0 5
      vertex 10.5778 0 4.66063
    endloop
  endfacet
  facet normal 0 -1 0
    outer loop
      vertex 10.4021 0 4.00502
      vertex 16 0 5
      vertex 10.5114 0 4.32707
    endloop
  endfacet
  facet normal 0 -1 0
    outer loop
      vertex 16 0 0
      vertex 10.4021 0 4.00502
      vertex 10.2517 0 3.7
    endloop
  endfacet
  facet normal 0 -1 0
    outer loop
      vertex 16 0 0
      vertex 10.2517 0 3.7
      vertex 10.0627 0 3.41722
    endloop
  endfacet
  facet normal 0 -1 0
    outer loop
      vertex 16 0 0
      vertex 10.0627 0 3.41722
      vertex 9.83848 0 3.16152
    endloop
  endfacet
  facet normal 0 -1 0
    outer loop
      vertex 16 0 0
      vertex 9.83848 0 3.16152
      vertex 9.58278 0 2.93728
    endloop
  endfacet
  facet normal 0 -1 0
    outer loop
      vertex 16 0 0
      vertex 9.58278 0 2.93728
      vertex 9.3 0 2.74833
    endloop
  endfacet
  facet normal 0 -1 0
    outer loop
      vertex 16 0 0
      vertex 9.3 0 2.74833
      vertex 8.99498 0 2.59791
    endloop
  endfacet
  facet normal 0 -1 0
    outer loop
      vertex 16 0 0
      vertex 8 0 2.4
      vertex 0 0 0
    endloop
  endfacet
  facet normal 0 -1 0
    outer loop
      vertex 8 0 2.4
      vertex 16 0 0
      vertex 8.33937 0 2.42224
    endloop
  endfacet
  facet normal 0 -1 0
    outer loop
      vertex 10.4021 0 4.00502
      vertex 16 0 0
      vertex 16 0 5
    endloop
  endfacet
  facet normal 0 -1 0
    outer loop
      vertex 8.67293 0 2.48859
      vertex 16 0 0
      vertex 8.99498 0 2.59791
    endloop
  endfacet
  facet normal 0 -1 0
    outer loop
      vertex 8.33937 0 2.42224
      vertex 16 0 0
      vertex 8.67293 0 2.48859
    endloop
  endfacet
  facet normal -0.659341 0 0.751844
    outer loop
      vertex 9.58278 10 2.93728
      vertex 9.83848 0 3.16152
      vertex 9.83848 10 3.16152
    endloop
  endfacet
  facet normal -0.659341 0 0.751844
    outer loop
      vertex 9.83848 0 3.16152
      vertex 9.58278 10 2.93728
      vertex 9.58278 0 2.93728
    endloop
  endfacet
  facet normal -0.321436 0 0.946931
    outer loop
      vertex 8.67293 10 2.48859
      vertex 8.99498 0 2.59791
      vertex 8.99498 10 2.59791
    endloop
  endfacet
  facet normal -0.321436 0 0.946931
    outer loop
      vertex 8.99498 0 2.59791
      vertex 8.67293 10 2.48859
      vertex 8.67293 0 2.48859
    endloop
  endfacet
  facet normal -0.0653929 0 0.99786
    outer loop
      vertex 8 10 2.4
      vertex 8.33937 0 2.42224
      vertex 8.33937 10 2.42224
    endloop
  endfacet
  facet normal -0.0653929 0 0.99786
    outer loop
      vertex 8.33937 0 2.42224
      vertex 8 10 2.4
      vertex 8 0 2.4
    endloop
  endfacet
  facet normal 0.831466 -0 0.555575
    outer loop
      vertex 5.74833 0 3.7
      vertex 5.93728 10 3.41722
      vertex 5.74833 10 3.7
    endloop
  endfacet
  facet normal 0.831466 0 0.555575
    outer loop
      vertex 5.93728 10 3.41722
      vertex 5.74833 0 3.7
      vertex 5.93728 0 3.41722
    endloop
  endfacet
  facet normal -0.946949 0 0.321383
    outer loop
      vertex 10.4021 0 4.00502
      vertex 10.5114 10 4.32707
      vertex 10.4021 10 4.00502
    endloop
  endfacet
  facet normal -0.946949 0 0.321383
    outer loop
      vertex 10.5114 10 4.32707
      vertex 10.4021 0 4.00502
      vertex 10.5114 0 4.32707
    endloop
  endfacet
  facet normal -0.195093 0 0.980785
    outer loop
      vertex 8.33937 10 2.42224
      vertex 8.67293 0 2.48859
      vertex 8.67293 10 2.48859
    endloop
  endfacet
  facet normal -0.195093 0 0.980785
    outer loop
      vertex 8.67293 0 2.48859
      vertex 8.33937 10 2.42224
      vertex 8.33937 0 2.42224
    endloop
  endfacet
  facet normal 0.0653929 0 0.99786
    outer loop
      vertex 7.66063 10 2.42224
      vertex 8 0 2.4
      vertex 8 10 2.4
    endloop
  endfacet
  facet normal 0.0653929 0 0.99786
    outer loop
      vertex 8 0 2.4
      vertex 7.66063 10 2.42224
      vertex 7.66063 0 2.42224
    endloop
  endfacet
  facet normal 0.980785 -0 0.195093
    outer loop
      vertex 5.42224 0 4.66063
      vertex 5.48859 10 4.32707
      vertex 5.42224 10 4.66063
    endloop
  endfacet
  facet normal 0.980785 0 0.195093
    outer loop
      vertex 5.48859 10 4.32707
      vertex 5.42224 0 4.66063
      vertex 5.48859 0 4.32707
    endloop
  endfacet
  facet normal -0.555575 0 0.831466
    outer loop
      vertex 9.3 10 2.74833
      vertex 9.58278 0 2.93728
      vertex 9.58278 10 2.93728
    endloop
  endfacet
  facet normal -0.555575 0 0.831466
    outer loop
      vertex 9.58278 0 2.93728
      vertex 9.3 10 2.74833
      vertex 9.3 0 2.74833
    endloop
  endfacet
  facet normal 0.442291 0 0.896872
    outer loop
      vertex 6.7 10 2.74833
      vertex 7.00502 0 2.59791
      vertex 7.00502 10 2.59791
    endloop
  endfacet
  facet normal 0.442291 0 0.896872
    outer loop
      vertex 7.00502 0 2.59791
      vertex 6.7 10 2.74833
      vertex 6.7 0 2.74833
    endloop
  endfacet
  facet normal -0.751873 0 0.659308
    outer loop
      vertex 9.83848 0 3.16152
      vertex 10.0627 10 3.41722
      vertex 9.83848 10 3.16152
    endloop
  endfacet
  facet normal -0.751873 0 0.659308
    outer loop
      vertex 10.0627 10 3.41722
      vertex 9.83848 0 3.16152
      vertex 10.0627 0 3.41722
    endloop
  endfacet
  facet normal 0.896872 -0 0.442291
    outer loop
      vertex 5.59791 0 4.00502
      vertex 5.74833 10 3.7
      vertex 5.59791 10 4.00502
    endloop
  endfacet
  facet normal 0.896872 0 0.442291
    outer loop
      vertex 5.74833 10 3.7
      vertex 5.59791 0 4.00502
      vertex 5.74833 0 3.7
    endloop
  endfacet
  facet normal -0.980757 0 0.195234
    outer loop
      vertex 10.5114 0 4.32707
      vertex 10.5778 10 4.66063
      vertex 10.5114 10 4.32707
    endloop
  endfacet
  facet normal -0.980757 0 0.195234
    outer loop
      vertex 10.5778 10 4.66063
      vertex 10.5114 0 4.32707
      vertex 10.5778 0 4.66063
    endloop
  endfacet
  facet normal -0.896895 0 0.442243
    outer loop
      vertex 10.2517 0 3.7
      vertex 10.4021 10 4.00502
      vertex 10.2517 10 3.7
    endloop
  endfacet
  facet normal -0.896895 0 0.442243
    outer loop
      vertex 10.4021 10 4.00502
      vertex 10.2517 0 3.7
      vertex 10.4021 0 4.00502
    endloop
  endfacet
  facet normal -0.442291 0 0.896872
    outer loop
      vertex 8.99498 10 2.59791
      vertex 9.3 0 2.74833
      vertex 9.3 10 2.74833
    endloop
  endfacet
  facet normal -0.442291 0 0.896872
    outer loop
      vertex 9.3 0 2.74833
      vertex 8.99498 10 2.59791
      vertex 8.99498 0 2.59791
    endloop
  endfacet
  facet normal 0.99786 -0 0.0653929
    outer loop
      vertex 5.4 0 5
      vertex 5.42224 10 4.66063
      vertex 5.4 10 5
    endloop
  endfacet
  facet normal 0.99786 0 0.0653929
    outer loop
      vertex 5.42224 10 4.66063
      vertex 5.4 0 5
      vertex 5.42224 0 4.66063
    endloop
  endfacet
  facet normal 0.321436 0 0.946931
    outer loop
      vertex 7.00502 10 2.59791
      vertex 7.32707 0 2.48859
      vertex 7.32707 10 2.48859
    endloop
  endfacet
  facet normal 0.321436 0 0.946931
    outer loop
      vertex 7.32707 0 2.48859
      vertex 7.00502 10 2.59791
      vertex 7.00502 0 2.59791
    endloop
  endfacet
  facet normal -0.997867 0 0.0652758
    outer loop
      vertex 10.5778 0 4.66063
      vertex 10.6 10 5
      vertex 10.5778 10 4.66063
    endloop
  endfacet
  facet normal -0.997867 0 0.0652758
    outer loop
      vertex 10.6 10 5
      vertex 10.5778 0 4.66063
      vertex 10.6 0 5
    endloop
  endfacet
  facet normal -0.831398 0 0.555677
    outer loop
      vertex 10.0627 0 3.41722
      vertex 10.2517 10 3.7
      vertex 10.0627 10 3.41722
    endloop
  endfacet
  facet normal -0.831398 0 0.555677
    outer loop
      vertex 10.2517 10 3.7
      vertex 10.0627 0 3.41722
      vertex 10.2517 0 3.7
    endloop
  endfacet
  facet normal 0.659341 0 0.751844
    outer loop
      vertex 6.16152 10 3.16152
      vertex 6.41722 0 2.93728
      vertex 6.41722 10 2.93728
    endloop
  endfacet
  facet normal 0.659341 0 0.751844
    outer loop
      vertex 6.41722 0 2.93728
      vertex 6.16152 10 3.16152
      vertex 6.16152 0 3.16152
    endloop
  endfacet
  facet normal 0.195093 0 0.980785
    outer loop
      vertex 7.32707 10 2.48859
      vertex 7.66063 0 2.42224
      vertex 7.66063 10 2.42224
    endloop
  endfacet
  facet normal 0.195093 0 0.980785
    outer loop
      vertex 7.66063 0 2.42224
      vertex 7.32707 10 2.48859
      vertex 7.32707 0 2.48859
    endloop
  endfacet
  facet normal 0.751844 -0 0.659341
    outer loop
      vertex 5.93728 0 3.41722
      vertex 6.16152 10 3.16152
      vertex 5.93728 10 3.41722
    endloop
  endfacet
  facet normal 0.751844 0 0.659341
    outer loop
      vertex 6.16152 10 3.16152
      vertex 5.93728 0 3.41722
      vertex 6.16152 0 3.16152
    endloop
  endfacet
  facet normal 0.555575 0 0.831466
    outer loop
      vertex 6.41722 10 2.93728
      vertex 6.7 0 2.74833
      vertex 6.7 10 2.74833
    endloop
  endfacet
  facet normal 0.555575 0 0.831466
    outer loop
      vertex 6.7 0 2.74833
      vertex 6.41722 10 2.93728
      vertex 6.41722 0 2.93728
    endloop
  endfacet
  facet normal 0.946931 -0 0.321436
    outer loop
      vertex 5.48859 0 4.32707
      vertex 5.59791 10 4.00502
      vertex 5.48859 10 4.32707
    endloop
  endfacet
  facet normal 0.946931 0 0.321436
    outer loop
      vertex 5.59791 10 4.00502
      vertex 5.48859 0 4.32707
      vertex 5.59791 0 4.00502
    endloop
  endfacet
  facet normal -0.980779 -0.195122 0
    outer loop
      vertex 4.68546 5.22189 0
      vertex 4.64207 5.43999 5
      vertex 4.64207 5.43999 0
    endloop
  endfacet
  facet normal -0.980779 -0.195122 0
    outer loop
      vertex 4.64207 5.43999 5
      vertex 4.68546 5.22189 0
      vertex 4.68546 5.22189 5
    endloop
  endfacet
  facet normal -0.99786 -0.0653877 0
    outer loop
      vertex 4.7 5 0
      vertex 4.68546 5.22189 5
      vertex 4.68546 5.22189 0
    endloop
  endfacet
  facet normal -0.99786 -0.0653877 0
    outer loop
      vertex 4.68546 5.22189 5
      vertex 4.7 5 0
      vertex 4.7 5 5
    endloop
  endfacet
  facet normal 0.442278 -0.896878 0
    outer loop
      vertex 2.15 6.47224 0
      vertex 2.34944 6.57059 5
      vertex 2.15 6.47224 5
    endloop
  endfacet
  facet normal 0.442278 -0.896878 0
    outer loop
      vertex 2.34944 6.57059 5
      vertex 2.15 6.47224 0
      vertex 2.34944 6.57059 0
    endloop
  endfacet
  facet normal 0.0653848 0.99786 -0
    outer loop
      vertex 3 3.3 0
      vertex 2.7781 3.31454 5
      vertex 3 3.3 5
    endloop
  endfacet
  facet normal 0.0653848 0.99786 0
    outer loop
      vertex 2.7781 3.31454 5
      vertex 3 3.3 0
      vertex 2.7781 3.31454 0
    endloop
  endfacet
  facet normal -0.555572 -0.831469 0
    outer loop
      vertex 3.85 6.47224 0
      vertex 4.03489 6.3487 5
      vertex 3.85 6.47224 5
    endloop
  endfacet
  facet normal -0.555572 -0.831469 -0
    outer loop
      vertex 4.03489 6.3487 5
      vertex 3.85 6.47224 0
      vertex 4.03489 6.3487 0
    endloop
  endfacet
  facet normal 0.659342 -0.751844 0
    outer loop
      vertex 1.79792 6.20208 0
      vertex 1.96511 6.3487 5
      vertex 1.79792 6.20208 5
    endloop
  endfacet
  facet normal 0.659342 -0.751844 0
    outer loop
      vertex 1.96511 6.3487 5
      vertex 1.79792 6.20208 0
      vertex 1.96511 6.3487 0
    endloop
  endfacet
  facet normal -0.321404 0.946942 0
    outer loop
      vertex 3.65056 3.4294 0
      vertex 3.43999 3.35793 5
      vertex 3.65056 3.4294 5
    endloop
  endfacet
  facet normal -0.321404 0.946942 0
    outer loop
      vertex 3.43999 3.35793 5
      vertex 3.65056 3.4294 0
      vertex 3.43999 3.35793 0
    endloop
  endfacet
  facet normal -0.831469 0.555572 0
    outer loop
      vertex 4.3487 3.96511 0
      vertex 4.47224 4.15 5
      vertex 4.47224 4.15 0
    endloop
  endfacet
  facet normal -0.831469 0.555572 0
    outer loop
      vertex 4.47224 4.15 5
      vertex 4.3487 3.96511 0
      vertex 4.3487 3.96511 5
    endloop
  endfacet
  facet normal -0.946929 0.321444 0
    outer loop
      vertex 4.57059 4.34944 0
      vertex 4.64207 4.56001 5
      vertex 4.64207 4.56001 0
    endloop
  endfacet
  facet normal -0.946929 0.321444 0
    outer loop
      vertex 4.64207 4.56001 5
      vertex 4.57059 4.34944 0
      vertex 4.57059 4.34944 5
    endloop
  endfacet
  facet normal -0.321444 -0.946929 0
    outer loop
      vertex 3.43999 6.64207 0
      vertex 3.65056 6.57059 5
      vertex 3.43999 6.64207 5
    endloop
  endfacet
  facet normal -0.321444 -0.946929 -0
    outer loop
      vertex 3.65056 6.57059 5
      vertex 3.43999 6.64207 0
      vertex 3.65056 6.57059 0
    endloop
  endfacet
  facet normal 0.555572 -0.831469 0
    outer loop
      vertex 1.96511 6.3487 0
      vertex 2.15 6.47224 5
      vertex 1.96511 6.3487 5
    endloop
  endfacet
  facet normal 0.555572 -0.831469 0
    outer loop
      vertex 2.15 6.47224 5
      vertex 1.96511 6.3487 0
      vertex 2.15 6.47224 0
    endloop
  endfacet
  facet normal -0.896878 0.442278 0
    outer loop
      vertex 4.47224 4.15 0
      vertex 4.57059 4.34944 5
      vertex 4.57059 4.34944 0
    endloop
  endfacet
  facet normal -0.896878 0.442278 0
    outer loop
      vertex 4.57059 4.34944 5
      vertex 4.47224 4.15 0
      vertex 4.47224 4.15 5
    endloop
  endfacet
  facet normal -0.659342 -0.751844 0
    outer loop
      vertex 4.03489 6.3487 0
      vertex 4.20208 6.20208 5
      vertex 4.03489 6.3487 5
    endloop
  endfacet
  facet normal -0.659342 -0.751844 -0
    outer loop
      vertex 4.20208 6.20208 5
      vertex 4.03489 6.3487 0
      vertex 4.20208 6.20208 0
    endloop
  endfacet
  facet normal -0.555572 0.831469 0
    outer loop
      vertex 4.03489 3.6513 0
      vertex 3.85 3.52776 5
      vertex 4.03489 3.6513 5
    endloop
  endfacet
  facet normal -0.555572 0.831469 0
    outer loop
      vertex 3.85 3.52776 5
      vertex 4.03489 3.6513 0
      vertex 3.85 3.52776 0
    endloop
  endfacet
  facet normal -0.442278 -0.896878 0
    outer loop
      vertex 3.65056 6.57059 0
      vertex 3.85 6.47224 5
      vertex 3.65056 6.57059 5
    endloop
  endfacet
  facet normal -0.442278 -0.896878 -0
    outer loop
      vertex 3.85 6.47224 5
      vertex 3.65056 6.57059 0
      vertex 3.85 6.47224 0
    endloop
  endfacet
  facet normal 0.659342 0.751844 -0
    outer loop
      vertex 1.96511 3.6513 0
      vertex 1.79792 3.79792 5
      vertex 1.96511 3.6513 5
    endloop
  endfacet
  facet normal 0.659342 0.751844 0
    outer loop
      vertex 1.79792 3.79792 5
      vertex 1.96511 3.6513 0
      vertex 1.79792 3.79792 0
    endloop
  endfacet
  facet normal 0.751844 0.659342 0
    outer loop
      vertex 1.79792 3.79792 5
      vertex 1.6513 3.96511 0
      vertex 1.6513 3.96511 5
    endloop
  endfacet
  facet normal 0.751844 0.659342 0
    outer loop
      vertex 1.6513 3.96511 0
      vertex 1.79792 3.79792 5
      vertex 1.79792 3.79792 0
    endloop
  endfacet
  facet normal 0.831469 0.555572 0
    outer loop
      vertex 1.6513 3.96511 5
      vertex 1.52776 4.15 0
      vertex 1.52776 4.15 5
    endloop
  endfacet
  facet normal 0.831469 0.555572 0
    outer loop
      vertex 1.52776 4.15 0
      vertex 1.6513 3.96511 5
      vertex 1.6513 3.96511 0
    endloop
  endfacet
  facet normal -0.831469 -0.555572 0
    outer loop
      vertex 4.47224 5.85 0
      vertex 4.3487 6.03489 5
      vertex 4.3487 6.03489 0
    endloop
  endfacet
  facet normal -0.831469 -0.555572 0
    outer loop
      vertex 4.3487 6.03489 5
      vertex 4.47224 5.85 0
      vertex 4.47224 5.85 5
    endloop
  endfacet
  facet normal -0.195122 0.980779 0
    outer loop
      vertex 3.43999 3.35793 0
      vertex 3.22189 3.31454 5
      vertex 3.43999 3.35793 5
    endloop
  endfacet
  facet normal -0.195122 0.980779 0
    outer loop
      vertex 3.22189 3.31454 5
      vertex 3.43999 3.35793 0
      vertex 3.22189 3.31454 0
    endloop
  endfacet
  facet normal -0.980777 0.19513 0
    outer loop
      vertex 4.64207 4.56001 0
      vertex 4.68546 4.7781 5
      vertex 4.68546 4.7781 0
    endloop
  endfacet
  facet normal -0.980777 0.19513 0
    outer loop
      vertex 4.68546 4.7781 5
      vertex 4.64207 4.56001 0
      vertex 4.64207 4.56001 5
    endloop
  endfacet
  facet normal 0.946942 0.321404 0
    outer loop
      vertex 1.4294 4.34944 5
      vertex 1.35793 4.56001 0
      vertex 1.35793 4.56001 5
    endloop
  endfacet
  facet normal 0.946942 0.321404 0
    outer loop
      vertex 1.35793 4.56001 0
      vertex 1.4294 4.34944 5
      vertex 1.4294 4.34944 0
    endloop
  endfacet
  facet normal -0.442314 0.89686 0
    outer loop
      vertex 3.85 3.52776 0
      vertex 3.65056 3.4294 5
      vertex 3.85 3.52776 5
    endloop
  endfacet
  facet normal -0.442314 0.89686 0
    outer loop
      vertex 3.65056 3.4294 5
      vertex 3.85 3.52776 0
      vertex 3.65056 3.4294 0
    endloop
  endfacet
  facet normal 0.555572 0.831469 -0
    outer loop
      vertex 2.15 3.52776 0
      vertex 1.96511 3.6513 5
      vertex 2.15 3.52776 5
    endloop
  endfacet
  facet normal 0.555572 0.831469 0
    outer loop
      vertex 1.96511 3.6513 5
      vertex 2.15 3.52776 0
      vertex 1.96511 3.6513 0
    endloop
  endfacet
  facet normal 0.831469 -0.555572 0
    outer loop
      vertex 1.52776 5.85 5
      vertex 1.6513 6.03489 0
      vertex 1.6513 6.03489 5
    endloop
  endfacet
  facet normal 0.831469 -0.555572 0
    outer loop
      vertex 1.6513 6.03489 0
      vertex 1.52776 5.85 5
      vertex 1.52776 5.85 0
    endloop
  endfacet
  facet normal 0.321444 -0.946929 0
    outer loop
      vertex 2.34944 6.57059 0
      vertex 2.56001 6.64207 5
      vertex 2.34944 6.57059 5
    endloop
  endfacet
  facet normal 0.321444 -0.946929 0
    outer loop
      vertex 2.56001 6.64207 5
      vertex 2.34944 6.57059 0
      vertex 2.56001 6.64207 0
    endloop
  endfacet
  facet normal 0.19513 -0.980777 0
    outer loop
      vertex 2.56001 6.64207 0
      vertex 2.7781 6.68546 5
      vertex 2.56001 6.64207 5
    endloop
  endfacet
  facet normal 0.19513 -0.980777 0
    outer loop
      vertex 2.7781 6.68546 5
      vertex 2.56001 6.64207 0
      vertex 2.7781 6.68546 0
    endloop
  endfacet
  facet normal -0.896878 -0.442278 0
    outer loop
      vertex 4.57059 5.65056 0
      vertex 4.47224 5.85 5
      vertex 4.47224 5.85 0
    endloop
  endfacet
  facet normal -0.896878 -0.442278 0
    outer loop
      vertex 4.47224 5.85 5
      vertex 4.57059 5.65056 0
      vertex 4.57059 5.65056 5
    endloop
  endfacet
  facet normal -0.99786 0.0653848 0
    outer loop
      vertex 4.68546 4.7781 0
      vertex 4.7 5 5
      vertex 4.7 5 0
    endloop
  endfacet
  facet normal -0.99786 0.0653848 0
    outer loop
      vertex 4.7 5 5
      vertex 4.68546 4.7781 0
      vertex 4.68546 4.7781 5
    endloop
  endfacet
  facet normal 0.442314 0.89686 -0
    outer loop
      vertex 2.34944 3.4294 0
      vertex 2.15 3.52776 5
      vertex 2.34944 3.4294 5
    endloop
  endfacet
  facet normal 0.442314 0.89686 0
    outer loop
      vertex 2.15 3.52776 5
      vertex 2.34944 3.4294 0
      vertex 2.15 3.52776 0
    endloop
  endfacet
  facet normal -0.0653877 0.99786 0
    outer loop
      vertex 3.22189 3.31454 0
      vertex 3 3.3 5
      vertex 3.22189 3.31454 5
    endloop
  endfacet
  facet normal -0.0653877 0.99786 0
    outer loop
      vertex 3 3.3 5
      vertex 3.22189 3.31454 0
      vertex 3 3.3 0
    endloop
  endfacet
  facet normal -0.0653877 -0.99786 0
    outer loop
      vertex 3 6.7 0
      vertex 3.22189 6.68546 5
      vertex 3 6.7 5
    endloop
  endfacet
  facet normal -0.0653877 -0.99786 -0
    outer loop
      vertex 3.22189 6.68546 5
      vertex 3 6.7 0
      vertex 3.22189 6.68546 0
    endloop
  endfacet
  facet normal -0.751844 -0.659342 0
    outer loop
      vertex 4.3487 6.03489 0
      vertex 4.20208 6.20208 5
      vertex 4.20208 6.20208 0
    endloop
  endfacet
  facet normal -0.751844 -0.659342 0
    outer loop
      vertex 4.20208 6.20208 5
      vertex 4.3487 6.03489 0
      vertex 4.3487 6.03489 5
    endloop
  endfacet
  facet normal 0.99786 0.0653848 0
    outer loop
      vertex 1.31454 4.7781 5
      vertex 1.3 5 0
      vertex 1.3 5 5
    endloop
  endfacet
  facet normal 0.99786 0.0653848 0
    outer loop
      vertex 1.3 5 0
      vertex 1.31454 4.7781 5
      vertex 1.31454 4.7781 0
    endloop
  endfacet
  facet normal -0.751844 0.659342 0
    outer loop
      vertex 4.20208 3.79792 0
      vertex 4.3487 3.96511 5
      vertex 4.3487 3.96511 0
    endloop
  endfacet
  facet normal -0.751844 0.659342 0
    outer loop
      vertex 4.3487 3.96511 5
      vertex 4.20208 3.79792 0
      vertex 4.20208 3.79792 5
    endloop
  endfacet
  facet normal 0.751844 -0.659342 0
    outer loop
      vertex 1.6513 6.03489 5
      vertex 1.79792 6.20208 0
      vertex 1.79792 6.20208 5
    endloop
  endfacet
  facet normal 0.751844 -0.659342 0
    outer loop
      vertex 1.79792 6.20208 0
      vertex 1.6513 6.03489 5
      vertex 1.6513 6.03489 0
    endloop
  endfacet
  facet normal 0.0653848 -0.99786 0
    outer loop
      vertex 2.7781 6.68546 0
      vertex 3 6.7 5
      vertex 2.7781 6.68546 5
    endloop
  endfacet
  facet normal 0.0653848 -0.99786 0
    outer loop
      vertex 3 6.7 5
      vertex 2.7781 6.68546 0
      vertex 3 6.7 0
    endloop
  endfacet
  facet normal 0.980777 0.19513 0
    outer loop
      vertex 1.35793 4.56001 5
      vertex 1.31454 4.7781 0
      vertex 1.31454 4.7781 5
    endloop
  endfacet
  facet normal 0.980777 0.19513 0
    outer loop
      vertex 1.31454 4.7781 0
      vertex 1.35793 4.56001 5
      vertex 1.35793 4.56001 0
    endloop
  endfacet
  facet normal 0.321404 0.946942 -0
    outer loop
      vertex 2.56001 3.35793 0
      vertex 2.34944 3.4294 5
      vertex 2.56001 3.35793 5
    endloop
  endfacet
  facet normal 0.321404 0.946942 0
    outer loop
      vertex 2.34944 3.4294 5
      vertex 2.56001 3.35793 0
      vertex 2.34944 3.4294 0
    endloop
  endfacet
  facet normal -0.946929 -0.321444 0
    outer loop
      vertex 4.64207 5.43999 0
      vertex 4.57059 5.65056 5
      vertex 4.57059 5.65056 0
    endloop
  endfacet
  facet normal -0.946929 -0.321444 0
    outer loop
      vertex 4.57059 5.65056 5
      vertex 4.64207 5.43999 0
      vertex 4.64207 5.43999 5
    endloop
  endfacet
  facet normal -0.195122 -0.980779 0
    outer loop
      vertex 3.22189 6.68546 0
      vertex 3.43999 6.64207 5
      vertex 3.22189 6.68546 5
    endloop
  endfacet
  facet normal -0.195122 -0.980779 -0
    outer loop
      vertex 3.43999 6.64207 5
      vertex 3.22189 6.68546 0
      vertex 3.43999 6.64207 0
    endloop
  endfacet
  facet normal 0.89686 0.442314 0
    outer loop
      vertex 1.52776 4.15 5
      vertex 1.4294 4.34944 0
      vertex 1.4294 4.34944 5
    endloop
  endfacet
  facet normal 0.89686 0.442314 0
    outer loop
      vertex 1.4294 4.34944 0
      vertex 1.52776 4.15 5
      vertex 1.52776 4.15 0
    endloop
  endfacet
  facet normal 0.99786 -0.0653877 0
    outer loop
      vertex 1.3 5 5
      vertex 1.31454 5.22189 0
      vertex 1.31454 5.22189 5
    endloop
  endfacet
  facet normal 0.99786 -0.0653877 0
    outer loop
      vertex 1.31454 5.22189 0
      vertex 1.3 5 5
      vertex 1.3 5 0
    endloop
  endfacet
  facet normal 0.980779 -0.195122 0
    outer loop
      vertex 1.31454 5.22189 5
      vertex 1.35793 5.43999 0
      vertex 1.35793 5.43999 5
    endloop
  endfacet
  facet normal 0.980779 -0.195122 0
    outer loop
      vertex 1.35793 5.43999 0
      vertex 1.31454 5.22189 5
      vertex 1.31454 5.22189 0
    endloop
  endfacet
  facet normal 0.946942 -0.321404 0
    outer loop
      vertex 1.35793 5.43999 5
      vertex 1.4294 5.65056 0
      vertex 1.4294 5.65056 5
    endloop
  endfacet
  facet normal 0.946942 -0.321404 0
    outer loop
      vertex 1.4294 5.65056 0
      vertex 1.35793 5.43999 5
      vertex 1.35793 5.43999 0
    endloop
  endfacet
  facet normal -0.659342 0.751844 0
    outer loop
      vertex 4.20208 3.79792 0
      vertex 4.03489 3.6513 5
      vertex 4.20208 3.79792 5
    endloop
  endfacet
  facet normal -0.659342 0.751844 0
    outer loop
      vertex 4.03489 3.6513 5
      vertex 4.20208 3.79792 0
      vertex 4.03489 3.6513 0
    endloop
  endfacet
  facet normal 0.89686 -0.442314 0
    outer loop
      vertex 1.4294 5.65056 5
      vertex 1.52776 5.85 0
      vertex 1.52776 5.85 5
    endloop
  endfacet
  facet normal 0.89686 -0.442314 0
    outer loop
      vertex 1.52776 5.85 0
      vertex 1.4294 5.65056 5
      vertex 1.4294 5.65056 0
    endloop
  endfacet
  facet normal 0.19513 0.980777 -0
    outer loop
      vertex 2.7781 3.31454 0
      vertex 2.56001 3.35793 5
      vertex 2.7781 3.31454 5
    endloop
  endfacet
  facet normal 0.19513 0.980777 0
    outer loop
      vertex 2.56001 3.35793 5
      vertex 2.7781 3.31454 0
      vertex 2.56001 3.35793 0
    endloop
  endfacet
endsolid OpenSCAD_Model
