solid OpenSCAD_Model
  facet normal 1 0 0
    outer loop
      vertex 35 4 10
      vertex 35 0 10
      vertex 35 4 3
    endloop
  endfacet
  facet normal 1 0 0
    outer loop
      vertex 35 20 3
      vertex 35 24 10
      vertex 35 20 10
    endloop
  endfacet
  facet normal 1 0 0
    outer loop
      vertex 35 24 10
      vertex 35 20 3
      vertex 35 24 0
    endloop
  endfacet
  facet normal 1 -0 0
    outer loop
      vertex 35 4 3
      vertex 35 24 0
      vertex 35 20 3
    endloop
  endfacet
  facet normal 1 0 0
    outer loop
      vertex 35 4 3
      vertex 35 0 0
      vertex 35 24 0
    endloop
  endfacet
  facet normal 1 0 0
    outer loop
      vertex 35 0 0
      vertex 35 4 3
      vertex 35 0 10
    endloop
  endfacet
  facet normal -0 0 1
    outer loop
      vertex 5.25 20.175 10
      vertex 35 20 10
      vertex 35 24 10
    endloop
  endfacet
  facet normal 0 0 1
    outer loop
      vertex 35 20 10
      vertex 5.25 20.175 10
      vertex 35 4 10
    endloop
  endfacet
  facet normal 0 0 1
    outer loop
      vertex 5.25 3.825 10
      vertex 35 4 10
      vertex 5.25 20.175 10
    endloop
  endfacet
  facet normal -0 0 1
    outer loop
      vertex 0 24 10
      vertex 5.25 20.175 10
      vertex 35 24 10
    endloop
  endfacet
  facet normal 0 0 1
    outer loop
      vertex 5.25 20.175 10
      vertex 0 24 10
      vertex 0 20.175 10
    endloop
  endfacet
  facet normal -0 0 1
    outer loop
      vertex 35 20 10
      vertex 40 4 10
      vertex 40 20 10
    endloop
  endfacet
  facet normal 0 0 1
    outer loop
      vertex 40 4 10
      vertex 35 20 10
      vertex 35 4 10
    endloop
  endfacet
  facet normal 0 0 1
    outer loop
      vertex 35 4 10
      vertex 5.25 3.825 10
      vertex 35 0 10
    endloop
  endfacet
  facet normal 0 0 1
    outer loop
      vertex 0 0 10
      vertex 5.25 3.825 10
      vertex 0 3.825 10
    endloop
  endfacet
  facet normal 0 0 1
    outer loop
      vertex 5.25 3.825 10
      vertex 0 0 10
      vertex 35 0 10
    endloop
  endfacet
  facet normal 0 0 -1
    outer loop
      vertex 0 0 0
      vertex 35 24 0
      vertex 35 0 0
    endloop
  endfacet
  facet normal -0 0 -1
    outer loop
      vertex 35 24 0
      vertex 0 0 0
      vertex 0 24 0
    endloop
  endfacet
  facet normal -1 0 0
    outer loop
      vertex 0 24 0
      vertex 0 20.175 2.825
      vertex 0 24 10
    endloop
  endfacet
  facet normal -1 0 0
    outer loop
      vertex 0 24 0
      vertex 0 3.825 2.825
      vertex 0 20.175 2.825
    endloop
  endfacet
  facet normal -1 0 0
    outer loop
      vertex 0 0 0
      vertex 0 3.825 2.825
      vertex 0 24 0
    endloop
  endfacet
  facet normal -1 0 0
    outer loop
      vertex 0 0 10
      vertex 0 3.825 2.825
      vertex 0 0 0
    endloop
  endfacet
  facet normal -1 0 0
    outer loop
      vertex 0 3.825 2.825
      vertex 0 0 10
      vertex 0 3.825 10
    endloop
  endfacet
  facet normal -1 -0 0
    outer loop
      vertex 0 24 10
      vertex 0 20.175 2.825
      vertex 0 20.175 10
    endloop
  endfacet
  facet normal 0 1 -0
    outer loop
      vertex 35 24 0
      vertex 0 24 10
      vertex 35 24 10
    endloop
  endfacet
  facet normal 0 1 0
    outer loop
      vertex 0 24 10
      vertex 35 24 0
      vertex 0 24 0
    endloop
  endfacet
  facet normal 0 -1 0
    outer loop
      vertex 0 0 0
      vertex 35 0 10
      vertex 0 0 10
    endloop
  endfacet
  facet normal 0 -1 -0
    outer loop
      vertex 35 0 10
      vertex 0 0 0
      vertex 35 0 0
    endloop
  endfacet
  facet normal 1 -0 0
    outer loop
      vertex 40 4 10
      vertex 40 20 3
      vertex 40 20 10
    endloop
  endfacet
  facet normal 1 0 0
    outer loop
      vertex 40 20 3
      vertex 40 4 10
      vertex 40 4 3
    endloop
  endfacet
  facet normal 0 0 -1
    outer loop
      vertex 35 4 3
      vertex 40 20 3
      vertex 40 4 3
    endloop
  endfacet
  facet normal -0 0 -1
    outer loop
      vertex 40 20 3
      vertex 35 4 3
      vertex 35 20 3
    endloop
  endfacet
  facet normal 0 1 -0
    outer loop
      vertex 40 20 3
      vertex 35 20 10
      vertex 40 20 10
    endloop
  endfacet
  facet normal 0 1 0
    outer loop
      vertex 35 20 10
      vertex 40 20 3
      vertex 35 20 3
    endloop
  endfacet
  facet normal 0 -1 0
    outer loop
      vertex 35 4 3
      vertex 40 4 10
      vertex 35 4 10
    endloop
  endfacet
  facet normal 0 -1 -0
    outer loop
      vertex 40 4 10
      vertex 35 4 3
      vertex 40 4 3
    endloop
  endfacet
  facet normal -1 0 0
    outer loop
      vertex 5.25 3.825 2.825
      vertex 5.25 20.175 10
      vertex 5.25 20.175 2.825
    endloop
  endfacet
  facet normal -1 -0 0
    outer loop
      vertex 5.25 20.175 10
      vertex 5.25 3.825 2.825
      vertex 5.25 3.825 10
    endloop
  endfacet
  facet normal -0 0 1
    outer loop
      vertex 0 20.175 2.825
      vertex 5.25 3.825 2.825
      vertex 5.25 20.175 2.825
    endloop
  endfacet
  facet normal 0 0 1
    outer loop
      vertex 5.25 3.825 2.825
      vertex 0 20.175 2.825
      vertex 0 3.825 2.825
    endloop
  endfacet
  facet normal 0 -1 0
    outer loop
      vertex 0 20.175 2.825
      vertex 5.25 20.175 10
      vertex 0 20.175 10
    endloop
  endfacet
  facet normal 0 -1 -0
    outer loop
      vertex 5.25 20.175 10
      vertex 0 20.175 2.825
      vertex 5.25 20.175 2.825
    endloop
  endfacet
  facet normal 0 1 -0
    outer loop
      vertex 5.25 3.825 2.825
      vertex 0 3.825 10
      vertex 5.25 3.825 10
    endloop
  endfacet
  facet normal 0 1 0
    outer loop
      vertex 0 3.825 10
      vertex 5.25 3.825 2.825
      vertex 0 3.825 2.825
    endloop
  endfacet
endsolid OpenSCAD_Model
