solid OpenSCAD_Model
  facet normal -0.751839807478978 -0.6593458151000683 0
    outer loop
      vertex -5.156796711893029 -3.956949288556684 0
      vertex -4.59619407771256 -4.59619407771256 0
      vertex -5.156796711893029 -3.956949288556684 2.5
    endloop
  endfacet
  facet normal -0.8314696123025457 -0.5555702330196016 0
    outer loop
      vertex -5.156796711893029 -3.956949288556684 0
      vertex -5.629165124598851 -3.25 2.5
      vertex -5.629165124598851 -3.25 0
    endloop
  endfacet
  facet normal -0.8314696123025457 -0.5555702330196016 0
    outer loop
      vertex -5.156796711893029 -3.956949288556684 0
      vertex -5.156796711893029 -3.956949288556684 2.5
      vertex -5.629165124598851 -3.25 2.5
    endloop
  endfacet
  facet normal -0.6593458151000683 -0.751839807478978 0
    outer loop
      vertex -3.956949288556684 -5.156796711893029 0
      vertex -3.956949288556684 -5.156796711893029 2.5
      vertex -4.59619407771256 -4.59619407771256 0
    endloop
  endfacet
  facet normal -0.5555702330196016 -0.8314696123025457 0
    outer loop
      vertex -3.956949288556684 -5.156796711893029 0
      vertex -3.25 -5.629165124598851 0
      vertex -3.25 -5.629165124598851 2.5
    endloop
  endfacet
  facet normal -0.5555702330196016 -0.8314696123025457 0
    outer loop
      vertex -3.956949288556684 -5.156796711893029 0
      vertex -3.25 -5.629165124598851 2.5
      vertex -3.956949288556684 -5.156796711893029 2.5
    endloop
  endfacet
  facet normal -0.751839807478978 -0.6593458151000683 0
    outer loop
      vertex -4.59619407771256 -4.59619407771256 0
      vertex -4.59619407771256 -4.59619407771256 2.5
      vertex -5.156796711893029 -3.956949288556684 2.5
    endloop
  endfacet
  facet normal -0.6593458151000683 -0.751839807478978 0
    outer loop
      vertex -4.59619407771256 -4.59619407771256 0
      vertex -3.956949288556684 -5.156796711893029 2.5
      vertex -4.59619407771256 -4.59619407771256 2.5
    endloop
  endfacet
  facet normal 0 0 1
    outer loop
      vertex -3.956949288556684 -5.156796711893029 2.5
      vertex -3.25 -5.629165124598851 2.5
      vertex -3.658957330989253 -2.1125 2.5
    endloop
  endfacet
  facet normal 0 0 1
    outer loop
      vertex -3.25 -5.629165124598851 2.5
      vertex -3.351917862730468 -2.5720170375618445 2.5
      vertex -3.658957330989253 -2.1125 2.5
    endloop
  endfacet
  facet normal -0.8968727415326881 -0.44228869021900163 0
    outer loop
      vertex -6.005216961323364 -2.4874423103730834 0
      vertex -5.629165124598851 -3.25 0
      vertex -6.005216961323364 -2.4874423103730834 2.5
    endloop
  endfacet
  facet normal -0.9469301294951057 -0.3214394653031617 0
    outer loop
      vertex -6.005216961323364 -2.4874423103730834 0
      vertex -6.278517870878944 -1.6823237931663848 2.5
      vertex -6.278517870878944 -1.6823237931663848 0
    endloop
  endfacet
  facet normal -0.8968727415326881 -0.44228869021900163 0
    outer loop
      vertex -5.629165124598851 -3.25 0
      vertex -5.629165124598851 -3.25 2.5
      vertex -6.005216961323364 -2.4874423103730834 2.5
    endloop
  endfacet
  facet normal -0.9469301294951057 -0.3214394653031617 0
    outer loop
      vertex -6.005216961323364 -2.4874423103730834 0
      vertex -6.005216961323364 -2.4874423103730834 2.5
      vertex -6.278517870878944 -1.6823237931663848 2.5
    endloop
  endfacet
  facet normal 0 0 -1
    outer loop
      vertex -6.005216961323364 -2.4874423103730834 0
      vertex -5.629165124598851 3.25 0
      vertex -5.629165124598851 -3.25 0
    endloop
  endfacet
  facet normal -0.9807852804032304 -0.195090322016128 0
    outer loop
      vertex -6.278517870878944 -1.6823237931663848 0
      vertex -6.4443915989297675 -0.8484202494303352 2.5
      vertex -6.4443915989297675 -0.8484202494303352 0
    endloop
  endfacet
  facet normal 0 0 -1
    outer loop
      vertex -6.005216961323364 -2.4874423103730834 0
      vertex -6.278517870878944 -1.6823237931663848 0
      vertex -6.005216961323364 2.4874423103730834 0
    endloop
  endfacet
  facet normal 0 0 -1
    outer loop
      vertex -6.278517870878944 -1.6823237931663848 0
      vertex -6.4443915989297675 -0.8484202494303352 0
      vertex -6.278517870878944 1.6823237931663848 0
    endloop
  endfacet
  facet normal -0.9978589232386036 -0.06540312923014324 0
    outer loop
      vertex -6.4443915989297675 -0.8484202494303352 0
      vertex -6.5 0 2.5
      vertex -6.5 0 0
    endloop
  endfacet
  facet normal 0 0 -1
    outer loop
      vertex -5.156796711893029 -3.956949288556684 0
      vertex -5.629165124598851 -3.25 0
      vertex -5.156796711893029 3.956949288556684 0
    endloop
  endfacet
  facet normal -0.9807852804032304 -0.195090322016128 0
    outer loop
      vertex -6.278517870878944 -1.6823237931663848 0
      vertex -6.278517870878944 -1.6823237931663848 2.5
      vertex -6.4443915989297675 -0.8484202494303352 2.5
    endloop
  endfacet
  facet normal 0 0 1
    outer loop
      vertex -6.005216961323364 -2.4874423103730834 2.5
      vertex -6.278517870878944 1.6823237931663848 2.5
      vertex -6.278517870878944 -1.6823237931663848 2.5
    endloop
  endfacet
  facet normal 0 0 1
    outer loop
      vertex -6.005216961323364 -2.4874423103730834 2.5
      vertex -5.629165124598851 -3.25 2.5
      vertex -6.005216961323364 2.4874423103730834 2.5
    endloop
  endfacet
  facet normal -0.9978589232386036 -0.06540312923014324 0
    outer loop
      vertex -6.4443915989297675 -0.8484202494303352 0
      vertex -6.4443915989297675 -0.8484202494303352 2.5
      vertex -6.5 0 2.5
    endloop
  endfacet
  facet normal 0 0 1
    outer loop
      vertex -6.278517870878944 -1.6823237931663848 2.5
      vertex -6.4443915989297675 0.8484202494303352 2.5
      vertex -6.4443915989297675 -0.8484202494303352 2.5
    endloop
  endfacet
  facet normal 0 0 1
    outer loop
      vertex -5.156796711893029 -3.956949288556684 2.5
      vertex -5.629165124598851 3.25 2.5
      vertex -5.629165124598851 -3.25 2.5
    endloop
  endfacet
  facet normal 0 0 1
    outer loop
      vertex -5.156796711893029 -3.956949288556684 2.5
      vertex -4.59619407771256 -4.59619407771256 2.5
      vertex -5.156796711893029 3.956949288556684 2.5
    endloop
  endfacet
  facet normal 0 0 -1
    outer loop
      vertex -3.956949288556684 -5.156796711893029 0
      vertex -3.25 5.629165124598851 0
      vertex -3.25 -5.629165124598851 0
    endloop
  endfacet
  facet normal 0 0 1
    outer loop
      vertex -3.956949288556684 -5.156796711893029 2.5
      vertex -4.081036616071313 -1.09351046555815 2.5
      vertex -4.188854539304349 -0.5514731621297179 2.5
    endloop
  endfacet
  facet normal 0 0 1
    outer loop
      vertex -3.956949288556684 -5.156796711893029 2.5
      vertex -4.59619407771256 4.59619407771256 2.5
      vertex -4.59619407771256 -4.59619407771256 2.5
    endloop
  endfacet
  facet normal 0 0 1
    outer loop
      vertex -3.956949288556684 -5.156796711893029 2.5
      vertex -3.658957330989253 -2.1125 2.5
      vertex -3.903391024860186 -1.6168375017425043 2.5
    endloop
  endfacet
  facet normal 0 0 1
    outer loop
      vertex -3.956949288556684 -5.156796711893029 2.5
      vertex -3.903391024860186 -1.6168375017425043 2.5
      vertex -4.081036616071313 -1.09351046555815 2.5
    endloop
  endfacet
  facet normal 0 0 -1
    outer loop
      vertex -5.156796711893029 -3.956949288556684 0
      vertex -4.59619407771256 4.59619407771256 0
      vertex -4.59619407771256 -4.59619407771256 0
    endloop
  endfacet
  facet normal 0 0 -1
    outer loop
      vertex -3.956949288556684 -5.156796711893029 0
      vertex -4.59619407771256 -4.59619407771256 0
      vertex -3.956949288556684 5.156796711893029 0
    endloop
  endfacet
  facet normal 0 0 1
    outer loop
      vertex -3.956949288556684 -5.156796711893029 2.5
      vertex -4.188854539304349 -0.5514731621297179 2.5
      vertex -4.59619407771256 4.59619407771256 2.5
    endloop
  endfacet
  facet normal -0.44228869021900163 -0.8968727415326881 0
    outer loop
      vertex -2.4874423103730834 -6.005216961323364 0
      vertex -2.4874423103730834 -6.005216961323364 2.5
      vertex -3.25 -5.629165124598851 0
    endloop
  endfacet
  facet normal -0.3214394653031617 -0.9469301294951057 0
    outer loop
      vertex -2.4874423103730834 -6.005216961323364 0
      vertex -1.6823237931663848 -6.278517870878944 0
      vertex -1.6823237931663848 -6.278517870878944 2.5
    endloop
  endfacet
  facet normal -0.44228869021900163 -0.8968727415326881 0
    outer loop
      vertex -3.25 -5.629165124598851 0
      vertex -2.4874423103730834 -6.005216961323364 2.5
      vertex -3.25 -5.629165124598851 2.5
    endloop
  endfacet
  facet normal -0.3214394653031617 -0.9469301294951057 0
    outer loop
      vertex -2.4874423103730834 -6.005216961323364 0
      vertex -1.6823237931663848 -6.278517870878944 2.5
      vertex -2.4874423103730834 -6.005216961323364 2.5
    endloop
  endfacet
  facet normal 0 0 1
    outer loop
      vertex -2.4874423103730834 -6.005216961323364 2.5
      vertex -1.6823237931663848 -6.278517870878944 2.5
      vertex -2.1125 -3.658957330989253 2.5
    endloop
  endfacet
  facet normal 0 0 1
    outer loop
      vertex -2.4874423103730834 -6.005216961323364 2.5
      vertex -2.987526150513163 -2.987526150513163 2.5
      vertex -3.25 -5.629165124598851 2.5
    endloop
  endfacet
  facet normal 0 0 1
    outer loop
      vertex -2.4874423103730834 -6.005216961323364 2.5
      vertex -2.5720170375618445 -3.351917862730468 2.5
      vertex -2.987526150513163 -2.987526150513163 2.5
    endloop
  endfacet
  facet normal 0 0 1
    outer loop
      vertex -3.25 -5.629165124598851 2.5
      vertex -2.987526150513163 -2.987526150513163 2.5
      vertex -3.351917862730468 -2.5720170375618445 2.5
    endloop
  endfacet
  facet normal 0 0 1
    outer loop
      vertex -2.4874423103730834 -6.005216961323364 2.5
      vertex -2.1125 -3.658957330989253 2.5
      vertex -2.5720170375618445 -3.351917862730468 2.5
    endloop
  endfacet
  facet normal 0 0 1
    outer loop
      vertex -1.6823237931663848 -6.278517870878944 2.5
      vertex -1.6168375017425043 -3.903391024860186 2.5
      vertex -2.1125 -3.658957330989253 2.5
    endloop
  endfacet
  facet normal -0.195090322016128 -0.9807852804032304 0
    outer loop
      vertex -1.6823237931663848 -6.278517870878944 0
      vertex -0.8484202494303352 -6.4443915989297675 0
      vertex -0.8484202494303352 -6.4443915989297675 2.5
    endloop
  endfacet
  facet normal -0.06540312923014324 -0.9978589232386036 0
    outer loop
      vertex -0.8484202494303352 -6.4443915989297675 0
      vertex 0 -6.5 0
      vertex 0 -6.5 2.5
    endloop
  endfacet
  facet normal -0.195090322016128 -0.9807852804032304 0
    outer loop
      vertex -1.6823237931663848 -6.278517870878944 0
      vertex -0.8484202494303352 -6.4443915989297675 2.5
      vertex -1.6823237931663848 -6.278517870878944 2.5
    endloop
  endfacet
  facet normal 0 0 1
    outer loop
      vertex -1.6823237931663848 -6.278517870878944 2.5
      vertex -0.8484202494303352 -6.4443915989297675 2.5
      vertex -1.09351046555815 -4.081036616071313 2.5
    endloop
  endfacet
  facet normal 0 0 1
    outer loop
      vertex -0.8484202494303352 -6.4443915989297675 2.5
      vertex -0.5514731621297179 -4.188854539304349 2.5
      vertex -1.09351046555815 -4.081036616071313 2.5
    endloop
  endfacet
  facet normal -0.06540312923014324 -0.9978589232386036 0
    outer loop
      vertex -0.8484202494303352 -6.4443915989297675 0
      vertex 0 -6.5 2.5
      vertex -0.8484202494303352 -6.4443915989297675 2.5
    endloop
  endfacet
  facet normal 0 0 1
    outer loop
      vertex -0.8484202494303352 -6.4443915989297675 2.5
      vertex 0 -6.5 2.5
      vertex -0.5514731621297179 -4.188854539304349 2.5
    endloop
  endfacet
  facet normal 0 0 1
    outer loop
      vertex 0 -6.5 2.5
      vertex 0 -4.225 2.5
      vertex -0.5514731621297179 -4.188854539304349 2.5
    endloop
  endfacet
  facet normal 0 0 1
    outer loop
      vertex -1.6823237931663848 -6.278517870878944 2.5
      vertex -1.09351046555815 -4.081036616071313 2.5
      vertex -1.6168375017425043 -3.903391024860186 2.5
    endloop
  endfacet
  facet normal 0 0 -1
    outer loop
      vertex -2.4874423103730834 -6.005216961323364 0
      vertex -3.25 -5.629165124598851 0
      vertex -2.4874423103730834 6.005216961323364 0
    endloop
  endfacet
  facet normal 0 0 -1
    outer loop
      vertex -2.4874423103730834 -6.005216961323364 0
      vertex -1.6823237931663848 6.278517870878944 0
      vertex -1.6823237931663848 -6.278517870878944 0
    endloop
  endfacet
  facet normal 0 0 -1
    outer loop
      vertex -1.6823237931663848 -6.278517870878944 0
      vertex -0.8484202494303352 6.4443915989297675 0
      vertex -0.8484202494303352 -6.4443915989297675 0
    endloop
  endfacet
  facet normal 0 0 -1
    outer loop
      vertex -0.8484202494303352 -6.4443915989297675 0
      vertex 0 6.5 0
      vertex 0 -6.5 0
    endloop
  endfacet
  facet normal 0 0 -1
    outer loop
      vertex -6.4443915989297675 -0.8484202494303352 0
      vertex -6.5 0 0
      vertex -6.4443915989297675 0.8484202494303352 0
    endloop
  endfacet
  facet normal 0 0 -1
    outer loop
      vertex -6.4443915989297675 -0.8484202494303352 0
      vertex -6.4443915989297675 0.8484202494303352 0
      vertex -6.278517870878944 1.6823237931663848 0
    endloop
  endfacet
  facet normal -0.9978589232386036 0.06540312923014324 0
    outer loop
      vertex -6.5 0 0
      vertex -6.4443915989297675 0.8484202494303352 2.5
      vertex -6.4443915989297675 0.8484202494303352 0
    endloop
  endfacet
  facet normal 0 0 -1
    outer loop
      vertex -6.278517870878944 -1.6823237931663848 0
      vertex -6.278517870878944 1.6823237931663848 0
      vertex -6.005216961323364 2.4874423103730834 0
    endloop
  endfacet
  facet normal 0 0 -1
    outer loop
      vertex -6.005216961323364 -2.4874423103730834 0
      vertex -6.005216961323364 2.4874423103730834 0
      vertex -5.629165124598851 3.25 0
    endloop
  endfacet
  facet normal -0.9807852804032304 0.195090322016128 0
    outer loop
      vertex -6.4443915989297675 0.8484202494303352 0
      vertex -6.278517870878944 1.6823237931663848 2.5
      vertex -6.278517870878944 1.6823237931663848 0
    endloop
  endfacet
  facet normal 0 0 -1
    outer loop
      vertex -5.629165124598851 -3.25 0
      vertex -5.629165124598851 3.25 0
      vertex -5.156796711893029 3.956949288556684 0
    endloop
  endfacet
  facet normal 0 0 -1
    outer loop
      vertex -5.156796711893029 -3.956949288556684 0
      vertex -5.156796711893029 3.956949288556684 0
      vertex -4.59619407771256 4.59619407771256 0
    endloop
  endfacet
  facet normal -0.9978589232386036 0.06540312923014324 0
    outer loop
      vertex -6.5 0 0
      vertex -6.5 0 2.5
      vertex -6.4443915989297675 0.8484202494303352 2.5
    endloop
  endfacet
  facet normal 0 0 1
    outer loop
      vertex -6.4443915989297675 -0.8484202494303352 2.5
      vertex -6.4443915989297675 0.8484202494303352 2.5
      vertex -6.5 0 2.5
    endloop
  endfacet
  facet normal 0 0 1
    outer loop
      vertex -6.278517870878944 -1.6823237931663848 2.5
      vertex -6.278517870878944 1.6823237931663848 2.5
      vertex -6.4443915989297675 0.8484202494303352 2.5
    endloop
  endfacet
  facet normal 0 0 1
    outer loop
      vertex -6.005216961323364 -2.4874423103730834 2.5
      vertex -6.005216961323364 2.4874423103730834 2.5
      vertex -6.278517870878944 1.6823237931663848 2.5
    endloop
  endfacet
  facet normal -0.9807852804032304 0.195090322016128 0
    outer loop
      vertex -6.4443915989297675 0.8484202494303352 0
      vertex -6.4443915989297675 0.8484202494303352 2.5
      vertex -6.278517870878944 1.6823237931663848 2.5
    endloop
  endfacet
  facet normal 0 0 1
    outer loop
      vertex -5.629165124598851 -3.25 2.5
      vertex -5.629165124598851 3.25 2.5
      vertex -6.005216961323364 2.4874423103730834 2.5
    endloop
  endfacet
  facet normal 0 0 1
    outer loop
      vertex -5.156796711893029 -3.956949288556684 2.5
      vertex -5.156796711893029 3.956949288556684 2.5
      vertex -5.629165124598851 3.25 2.5
    endloop
  endfacet
  facet normal -0.9469301294951057 0.3214394653031617 0
    outer loop
      vertex -6.278517870878944 1.6823237931663848 0
      vertex -6.005216961323364 2.4874423103730834 2.5
      vertex -6.005216961323364 2.4874423103730834 0
    endloop
  endfacet
  facet normal -0.8968727415326881 0.44228869021900163 0
    outer loop
      vertex -6.005216961323364 2.4874423103730834 0
      vertex -5.629165124598851 3.25 2.5
      vertex -5.629165124598851 3.25 0
    endloop
  endfacet
  facet normal -0.9469301294951057 0.3214394653031617 0
    outer loop
      vertex -6.278517870878944 1.6823237931663848 0
      vertex -6.278517870878944 1.6823237931663848 2.5
      vertex -6.005216961323364 2.4874423103730834 2.5
    endloop
  endfacet
  facet normal -0.8968727415326881 0.44228869021900163 0
    outer loop
      vertex -6.005216961323364 2.4874423103730834 0
      vertex -6.005216961323364 2.4874423103730834 2.5
      vertex -5.629165124598851 3.25 2.5
    endloop
  endfacet
  facet normal 0 0 1
    outer loop
      vertex -4.59619407771256 -4.59619407771256 2.5
      vertex -4.59619407771256 4.59619407771256 2.5
      vertex -5.156796711893029 3.956949288556684 2.5
    endloop
  endfacet
  facet normal 0 0 1
    outer loop
      vertex -4.59619407771256 4.59619407771256 2.5
      vertex -4.188854539304349 -0.5514731621297179 2.5
      vertex -4.225 0 2.5
    endloop
  endfacet
  facet normal 0 0 -1
    outer loop
      vertex -4.59619407771256 -4.59619407771256 0
      vertex -4.59619407771256 4.59619407771256 0
      vertex -3.956949288556684 5.156796711893029 0
    endloop
  endfacet
  facet normal 0 0 -1
    outer loop
      vertex -3.956949288556684 -5.156796711893029 0
      vertex -3.956949288556684 5.156796711893029 0
      vertex -3.25 5.629165124598851 0
    endloop
  endfacet
  facet normal 0 0 1
    outer loop
      vertex -4.59619407771256 4.59619407771256 2.5
      vertex -4.225 0 2.5
      vertex -4.188854539304349 0.5514731621297179 2.5
    endloop
  endfacet
  facet normal 0 0 1
    outer loop
      vertex -4.59619407771256 4.59619407771256 2.5
      vertex -4.188854539304349 0.5514731621297179 2.5
      vertex -4.081036616071313 1.09351046555815 2.5
    endloop
  endfacet
  facet normal 0 0 1
    outer loop
      vertex -4.59619407771256 4.59619407771256 2.5
      vertex -4.081036616071313 1.09351046555815 2.5
      vertex -3.903391024860186 1.6168375017425043 2.5
    endloop
  endfacet
  facet normal 0 0 1
    outer loop
      vertex -3.956949288556684 5.156796711893029 2.5
      vertex -3.903391024860186 1.6168375017425043 2.5
      vertex -3.658957330989253 2.1125 2.5
    endloop
  endfacet
  facet normal -0.8314696123025457 0.5555702330196016 0
    outer loop
      vertex -5.629165124598851 3.25 0
      vertex -5.156796711893029 3.956949288556684 2.5
      vertex -5.156796711893029 3.956949288556684 0
    endloop
  endfacet
  facet normal -0.8314696123025457 0.5555702330196016 0
    outer loop
      vertex -5.629165124598851 3.25 0
      vertex -5.629165124598851 3.25 2.5
      vertex -5.156796711893029 3.956949288556684 2.5
    endloop
  endfacet
  facet normal -0.751839807478978 0.6593458151000683 0
    outer loop
      vertex -5.156796711893029 3.956949288556684 0
      vertex -5.156796711893029 3.956949288556684 2.5
      vertex -4.59619407771256 4.59619407771256 2.5
    endloop
  endfacet
  facet normal -0.751839807478978 0.6593458151000683 0
    outer loop
      vertex -5.156796711893029 3.956949288556684 0
      vertex -4.59619407771256 4.59619407771256 2.5
      vertex -4.59619407771256 4.59619407771256 0
    endloop
  endfacet
  facet normal -0.6593458151000683 0.751839807478978 0
    outer loop
      vertex -4.59619407771256 4.59619407771256 0
      vertex -4.59619407771256 4.59619407771256 2.5
      vertex -3.956949288556684 5.156796711893029 0
    endloop
  endfacet
  facet normal 0 0 1
    outer loop
      vertex -4.59619407771256 4.59619407771256 2.5
      vertex -3.903391024860186 1.6168375017425043 2.5
      vertex -3.956949288556684 5.156796711893029 2.5
    endloop
  endfacet
  facet normal 0 0 1
    outer loop
      vertex -3.956949288556684 5.156796711893029 2.5
      vertex -3.658957330989253 2.1125 2.5
      vertex -3.351917862730468 2.5720170375618445 2.5
    endloop
  endfacet
  facet normal 0 0 1
    outer loop
      vertex -3.956949288556684 5.156796711893029 2.5
      vertex -3.351917862730468 2.5720170375618445 2.5
      vertex -2.987526150513163 2.987526150513163 2.5
    endloop
  endfacet
  facet normal 0 0 1
    outer loop
      vertex -3.956949288556684 5.156796711893029 2.5
      vertex -2.987526150513163 2.987526150513163 2.5
      vertex -3.25 5.629165124598851 2.5
    endloop
  endfacet
  facet normal -0.5555702330196016 0.8314696123025457 0
    outer loop
      vertex -3.956949288556684 5.156796711893029 0
      vertex -3.956949288556684 5.156796711893029 2.5
      vertex -3.25 5.629165124598851 0
    endloop
  endfacet
  facet normal -0.6593458151000683 0.751839807478978 0
    outer loop
      vertex -3.956949288556684 5.156796711893029 0
      vertex -4.59619407771256 4.59619407771256 2.5
      vertex -3.956949288556684 5.156796711893029 2.5
    endloop
  endfacet
  facet normal -0.5555702330196016 0.8314696123025457 0
    outer loop
      vertex -3.25 5.629165124598851 0
      vertex -3.956949288556684 5.156796711893029 2.5
      vertex -3.25 5.629165124598851 2.5
    endloop
  endfacet
  facet normal 0 0 -1
    outer loop
      vertex -3.25 -5.629165124598851 0
      vertex -3.25 5.629165124598851 0
      vertex -2.4874423103730834 6.005216961323364 0
    endloop
  endfacet
  facet normal 0 0 -1
    outer loop
      vertex -2.4874423103730834 -6.005216961323364 0
      vertex -2.4874423103730834 6.005216961323364 0
      vertex -1.6823237931663848 6.278517870878944 0
    endloop
  endfacet
  facet normal 0 0 -1
    outer loop
      vertex -1.6823237931663848 -6.278517870878944 0
      vertex -1.6823237931663848 6.278517870878944 0
      vertex -0.8484202494303352 6.4443915989297675 0
    endloop
  endfacet
  facet normal 0 0 -1
    outer loop
      vertex -0.8484202494303352 -6.4443915989297675 0
      vertex -0.8484202494303352 6.4443915989297675 0
      vertex 0 6.5 0
    endloop
  endfacet
  facet normal 0 0 1
    outer loop
      vertex -3.25 5.629165124598851 2.5
      vertex -2.987526150513163 2.987526150513163 2.5
      vertex -2.5720170375618445 3.351917862730468 2.5
    endloop
  endfacet
  facet normal 0 0 1
    outer loop
      vertex -3.25 5.629165124598851 2.5
      vertex -2.5720170375618445 3.351917862730468 2.5
      vertex -2.1125 3.658957330989253 2.5
    endloop
  endfacet
  facet normal 0 0 1
    outer loop
      vertex -2.4874423103730834 6.005216961323364 2.5
      vertex -2.1125 3.658957330989253 2.5
      vertex -1.6168375017425043 3.903391024860186 2.5
    endloop
  endfacet
  facet normal -0.44228869021900163 0.8968727415326881 0
    outer loop
      vertex -3.25 5.629165124598851 0
      vertex -3.25 5.629165124598851 2.5
      vertex -2.4874423103730834 6.005216961323364 0
    endloop
  endfacet
  facet normal -0.3214394653031617 0.9469301294951057 0
    outer loop
      vertex -2.4874423103730834 6.005216961323364 0
      vertex -2.4874423103730834 6.005216961323364 2.5
      vertex -1.6823237931663848 6.278517870878944 0
    endloop
  endfacet
  facet normal 0 0 1
    outer loop
      vertex -3.25 5.629165124598851 2.5
      vertex -2.1125 3.658957330989253 2.5
      vertex -2.4874423103730834 6.005216961323364 2.5
    endloop
  endfacet
  facet normal -0.44228869021900163 0.8968727415326881 0
    outer loop
      vertex -2.4874423103730834 6.005216961323364 0
      vertex -3.25 5.629165124598851 2.5
      vertex -2.4874423103730834 6.005216961323364 2.5
    endloop
  endfacet
  facet normal 0 0 1
    outer loop
      vertex -2.4874423103730834 6.005216961323364 2.5
      vertex -1.6168375017425043 3.903391024860186 2.5
      vertex -1.6823237931663848 6.278517870878944 2.5
    endloop
  endfacet
  facet normal -0.3214394653031617 0.9469301294951057 0
    outer loop
      vertex -1.6823237931663848 6.278517870878944 0
      vertex -2.4874423103730834 6.005216961323364 2.5
      vertex -1.6823237931663848 6.278517870878944 2.5
    endloop
  endfacet
  facet normal 0 0 1
    outer loop
      vertex -1.6823237931663848 6.278517870878944 2.5
      vertex -1.6168375017425043 3.903391024860186 2.5
      vertex -1.09351046555815 4.081036616071313 2.5
    endloop
  endfacet
  facet normal 0 0 1
    outer loop
      vertex -1.6823237931663848 6.278517870878944 2.5
      vertex -1.09351046555815 4.081036616071313 2.5
      vertex -0.5514731621297179 4.188854539304349 2.5
    endloop
  endfacet
  facet normal -0.195090322016128 0.9807852804032304 0
    outer loop
      vertex -1.6823237931663848 6.278517870878944 0
      vertex -1.6823237931663848 6.278517870878944 2.5
      vertex -0.8484202494303352 6.4443915989297675 0
    endloop
  endfacet
  facet normal -0.06540312923014324 0.9978589232386036 0
    outer loop
      vertex -0.8484202494303352 6.4443915989297675 0
      vertex -0.8484202494303352 6.4443915989297675 2.5
      vertex 0 6.5 0
    endloop
  endfacet
  facet normal 0 0 1
    outer loop
      vertex -1.6823237931663848 6.278517870878944 2.5
      vertex -0.5514731621297179 4.188854539304349 2.5
      vertex -0.8484202494303352 6.4443915989297675 2.5
    endloop
  endfacet
  facet normal -0.195090322016128 0.9807852804032304 0
    outer loop
      vertex -0.8484202494303352 6.4443915989297675 0
      vertex -1.6823237931663848 6.278517870878944 2.5
      vertex -0.8484202494303352 6.4443915989297675 2.5
    endloop
  endfacet
  facet normal 0 0 1
    outer loop
      vertex -0.8484202494303352 6.4443915989297675 2.5
      vertex -0.5514731621297179 4.188854539304349 2.5
      vertex 0 4.225 2.5
    endloop
  endfacet
  facet normal -0.06540312923014324 0.9978589232386036 0
    outer loop
      vertex -0.8484202494303352 6.4443915989297675 2.5
      vertex 0 6.5 2.5
      vertex 0 6.5 0
    endloop
  endfacet
  facet normal 0 0 1
    outer loop
      vertex -0.8484202494303352 6.4443915989297675 2.5
      vertex 0 4.225 2.5
      vertex 0 6.5 2.5
    endloop
  endfacet
  facet normal 0.06540312923014324 -0.9978589232386036 0
    outer loop
      vertex 0 -6.5 0
      vertex 0.8484202494303352 -6.4443915989297675 0
      vertex 0.8484202494303352 -6.4443915989297675 2.5
    endloop
  endfacet
  facet normal 0.195090322016128 -0.9807852804032304 0
    outer loop
      vertex 0.8484202494303352 -6.4443915989297675 0
      vertex 1.6823237931663848 -6.278517870878944 0
      vertex 1.6823237931663848 -6.278517870878944 2.5
    endloop
  endfacet
  facet normal 0.06540312923014324 -0.9978589232386036 0
    outer loop
      vertex 0 -6.5 0
      vertex 0.8484202494303352 -6.4443915989297675 2.5
      vertex 0 -6.5 2.5
    endloop
  endfacet
  facet normal 0 0 1
    outer loop
      vertex 0 -6.5 2.5
      vertex 0.8484202494303352 -6.4443915989297675 2.5
      vertex 0 -4.225 2.5
    endloop
  endfacet
  facet normal 0 0 1
    outer loop
      vertex 0.8484202494303352 -6.4443915989297675 2.5
      vertex 0.5514731621297179 -4.188854539304349 2.5
      vertex 0 -4.225 2.5
    endloop
  endfacet
  facet normal 0.195090322016128 -0.9807852804032304 0
    outer loop
      vertex 0.8484202494303352 -6.4443915989297675 0
      vertex 1.6823237931663848 -6.278517870878944 2.5
      vertex 0.8484202494303352 -6.4443915989297675 2.5
    endloop
  endfacet
  facet normal 0 0 1
    outer loop
      vertex 0.8484202494303352 -6.4443915989297675 2.5
      vertex 1.6823237931663848 -6.278517870878944 2.5
      vertex 0.5514731621297179 -4.188854539304349 2.5
    endloop
  endfacet
  facet normal 0 0 1
    outer loop
      vertex 1.6823237931663848 -6.278517870878944 2.5
      vertex 1.09351046555815 -4.081036616071313 2.5
      vertex 0.5514731621297179 -4.188854539304349 2.5
    endloop
  endfacet
  facet normal 0 0 1
    outer loop
      vertex 1.6823237931663848 -6.278517870878944 2.5
      vertex 1.6168375017425043 -3.903391024860186 2.5
      vertex 1.09351046555815 -4.081036616071313 2.5
    endloop
  endfacet
  facet normal 0.3214394653031617 -0.9469301294951057 0
    outer loop
      vertex 1.6823237931663848 -6.278517870878944 0
      vertex 2.4874423103730834 -6.005216961323364 0
      vertex 2.4874423103730834 -6.005216961323364 2.5
    endloop
  endfacet
  facet normal 0.44228869021900163 -0.8968727415326881 0
    outer loop
      vertex 2.4874423103730834 -6.005216961323364 0
      vertex 3.25 -5.629165124598851 0
      vertex 3.25 -5.629165124598851 2.5
    endloop
  endfacet
  facet normal 0.3214394653031617 -0.9469301294951057 0
    outer loop
      vertex 1.6823237931663848 -6.278517870878944 0
      vertex 2.4874423103730834 -6.005216961323364 2.5
      vertex 1.6823237931663848 -6.278517870878944 2.5
    endloop
  endfacet
  facet normal 0 0 1
    outer loop
      vertex 1.6823237931663848 -6.278517870878944 2.5
      vertex 2.4874423103730834 -6.005216961323364 2.5
      vertex 1.6168375017425043 -3.903391024860186 2.5
    endloop
  endfacet
  facet normal 0.44228869021900163 -0.8968727415326881 0
    outer loop
      vertex 2.4874423103730834 -6.005216961323364 0
      vertex 3.25 -5.629165124598851 2.5
      vertex 2.4874423103730834 -6.005216961323364 2.5
    endloop
  endfacet
  facet normal 0 0 1
    outer loop
      vertex 2.4874423103730834 -6.005216961323364 2.5
      vertex 3.25 -5.629165124598851 2.5
      vertex 2.1125 -3.658957330989253 2.5
    endloop
  endfacet
  facet normal 0 0 1
    outer loop
      vertex 2.4874423103730834 -6.005216961323364 2.5
      vertex 2.1125 -3.658957330989253 2.5
      vertex 1.6168375017425043 -3.903391024860186 2.5
    endloop
  endfacet
  facet normal 0 0 1
    outer loop
      vertex 3.25 -5.629165124598851 2.5
      vertex 2.5720170375618445 -3.351917862730468 2.5
      vertex 2.1125 -3.658957330989253 2.5
    endloop
  endfacet
  facet normal 0 0 1
    outer loop
      vertex 3.25 -5.629165124598851 2.5
      vertex 2.987526150513163 -2.987526150513163 2.5
      vertex 2.5720170375618445 -3.351917862730468 2.5
    endloop
  endfacet
  facet normal 0 0 -1
    outer loop
      vertex 0 -6.5 0
      vertex 0.8484202494303352 6.4443915989297675 0
      vertex 0.8484202494303352 -6.4443915989297675 0
    endloop
  endfacet
  facet normal 0 0 -1
    outer loop
      vertex 0.8484202494303352 -6.4443915989297675 0
      vertex 1.6823237931663848 6.278517870878944 0
      vertex 1.6823237931663848 -6.278517870878944 0
    endloop
  endfacet
  facet normal 0 0 -1
    outer loop
      vertex 1.6823237931663848 -6.278517870878944 0
      vertex 2.4874423103730834 6.005216961323364 0
      vertex 2.4874423103730834 -6.005216961323364 0
    endloop
  endfacet
  facet normal 0 0 -1
    outer loop
      vertex 2.4874423103730834 -6.005216961323364 0
      vertex 3.25 5.629165124598851 0
      vertex 3.25 -5.629165124598851 0
    endloop
  endfacet
  facet normal 0.5555702330196016 -0.8314696123025457 0
    outer loop
      vertex 3.25 -5.629165124598851 0
      vertex 3.956949288556684 -5.156796711893029 0
      vertex 3.956949288556684 -5.156796711893029 2.5
    endloop
  endfacet
  facet normal 0.5555702330196016 -0.8314696123025457 0
    outer loop
      vertex 3.25 -5.629165124598851 0
      vertex 3.956949288556684 -5.156796711893029 2.5
      vertex 3.25 -5.629165124598851 2.5
    endloop
  endfacet
  facet normal 0.6593458151000683 -0.751839807478978 0
    outer loop
      vertex 3.956949288556684 -5.156796711893029 0
      vertex 4.59619407771256 -4.59619407771256 2.5
      vertex 3.956949288556684 -5.156796711893029 2.5
    endloop
  endfacet
  facet normal 0.6593458151000683 -0.751839807478978 0
    outer loop
      vertex 3.956949288556684 -5.156796711893029 0
      vertex 4.59619407771256 -4.59619407771256 0
      vertex 4.59619407771256 -4.59619407771256 2.5
    endloop
  endfacet
  facet normal 0.751839807478978 -0.6593458151000683 0
    outer loop
      vertex 4.59619407771256 -4.59619407771256 0
      vertex 5.156796711893029 -3.956949288556684 0
      vertex 4.59619407771256 -4.59619407771256 2.5
    endloop
  endfacet
  facet normal 0 0 1
    outer loop
      vertex 3.25 -5.629165124598851 2.5
      vertex 3.956949288556684 -5.156796711893029 2.5
      vertex 2.987526150513163 -2.987526150513163 2.5
    endloop
  endfacet
  facet normal 0 0 1
    outer loop
      vertex 3.956949288556684 -5.156796711893029 2.5
      vertex 3.351917862730468 -2.5720170375618445 2.5
      vertex 2.987526150513163 -2.987526150513163 2.5
    endloop
  endfacet
  facet normal 0 0 1
    outer loop
      vertex 3.956949288556684 -5.156796711893029 2.5
      vertex 3.658957330989253 -2.1125 2.5
      vertex 3.351917862730468 -2.5720170375618445 2.5
    endloop
  endfacet
  facet normal 0 0 1
    outer loop
      vertex 3.956949288556684 -5.156796711893029 2.5
      vertex 4.59619407771256 -4.59619407771256 2.5
      vertex 3.903391024860186 -1.6168375017425043 2.5
    endloop
  endfacet
  facet normal 0.8314696123025457 -0.5555702330196016 0
    outer loop
      vertex 5.156796711893029 -3.956949288556684 0
      vertex 5.629165124598851 -3.25 0
      vertex 5.156796711893029 -3.956949288556684 2.5
    endloop
  endfacet
  facet normal 0.751839807478978 -0.6593458151000683 0
    outer loop
      vertex 5.156796711893029 -3.956949288556684 0
      vertex 5.156796711893029 -3.956949288556684 2.5
      vertex 4.59619407771256 -4.59619407771256 2.5
    endloop
  endfacet
  facet normal 0.8314696123025457 -0.5555702330196016 0
    outer loop
      vertex 5.629165124598851 -3.25 0
      vertex 5.629165124598851 -3.25 2.5
      vertex 5.156796711893029 -3.956949288556684 2.5
    endloop
  endfacet
  facet normal 0 0 -1
    outer loop
      vertex 3.25 -5.629165124598851 0
      vertex 3.956949288556684 5.156796711893029 0
      vertex 3.956949288556684 -5.156796711893029 0
    endloop
  endfacet
  facet normal 0 0 -1
    outer loop
      vertex 3.956949288556684 -5.156796711893029 0
      vertex 4.59619407771256 4.59619407771256 0
      vertex 4.59619407771256 -4.59619407771256 0
    endloop
  endfacet
  facet normal 0 0 1
    outer loop
      vertex 3.956949288556684 -5.156796711893029 2.5
      vertex 3.903391024860186 -1.6168375017425043 2.5
      vertex 3.658957330989253 -2.1125 2.5
    endloop
  endfacet
  facet normal 0 0 1
    outer loop
      vertex 4.59619407771256 -4.59619407771256 2.5
      vertex 4.081036616071313 -1.09351046555815 2.5
      vertex 3.903391024860186 -1.6168375017425043 2.5
    endloop
  endfacet
  facet normal 0 0 1
    outer loop
      vertex 4.59619407771256 -4.59619407771256 2.5
      vertex 4.188854539304349 -0.5514731621297179 2.5
      vertex 4.081036616071313 -1.09351046555815 2.5
    endloop
  endfacet
  facet normal 0 0 1
    outer loop
      vertex 4.59619407771256 -4.59619407771256 2.5
      vertex 4.225 0 2.5
      vertex 4.188854539304349 -0.5514731621297179 2.5
    endloop
  endfacet
  facet normal 0 0 1
    outer loop
      vertex 4.59619407771256 -4.59619407771256 2.5
      vertex 4.188854539304349 0.5514731621297179 2.5
      vertex 4.225 0 2.5
    endloop
  endfacet
  facet normal 0 0 1
    outer loop
      vertex 4.59619407771256 -4.59619407771256 2.5
      vertex 5.156796711893029 -3.956949288556684 2.5
      vertex 4.59619407771256 4.59619407771256 2.5
    endloop
  endfacet
  facet normal 0.8968727415326881 -0.44228869021900163 0
    outer loop
      vertex 5.629165124598851 -3.25 0
      vertex 6.005216961323364 -2.4874423103730834 0
      vertex 5.629165124598851 -3.25 2.5
    endloop
  endfacet
  facet normal 0.9469301294951057 -0.3214394653031617 0
    outer loop
      vertex 6.005216961323364 -2.4874423103730834 0
      vertex 6.278517870878944 -1.6823237931663848 0
      vertex 6.005216961323364 -2.4874423103730834 2.5
    endloop
  endfacet
  facet normal 0.8968727415326881 -0.44228869021900163 0
    outer loop
      vertex 6.005216961323364 -2.4874423103730834 0
      vertex 6.005216961323364 -2.4874423103730834 2.5
      vertex 5.629165124598851 -3.25 2.5
    endloop
  endfacet
  facet normal 0.9469301294951057 -0.3214394653031617 0
    outer loop
      vertex 6.278517870878944 -1.6823237931663848 0
      vertex 6.278517870878944 -1.6823237931663848 2.5
      vertex 6.005216961323364 -2.4874423103730834 2.5
    endloop
  endfacet
  facet normal 0 0 -1
    outer loop
      vertex 4.59619407771256 -4.59619407771256 0
      vertex 5.156796711893029 3.956949288556684 0
      vertex 5.156796711893029 -3.956949288556684 0
    endloop
  endfacet
  facet normal 0 0 -1
    outer loop
      vertex 5.156796711893029 -3.956949288556684 0
      vertex 5.629165124598851 3.25 0
      vertex 5.629165124598851 -3.25 0
    endloop
  endfacet
  facet normal 0 0 -1
    outer loop
      vertex 5.629165124598851 -3.25 0
      vertex 6.005216961323364 2.4874423103730834 0
      vertex 6.005216961323364 -2.4874423103730834 0
    endloop
  endfacet
  facet normal 0 0 -1
    outer loop
      vertex 6.005216961323364 -2.4874423103730834 0
      vertex 6.278517870878944 1.6823237931663848 0
      vertex 6.278517870878944 -1.6823237931663848 0
    endloop
  endfacet
  facet normal 0.9807852804032304 -0.195090322016128 0
    outer loop
      vertex 6.278517870878944 -1.6823237931663848 0
      vertex 6.4443915989297675 -0.8484202494303352 0
      vertex 6.278517870878944 -1.6823237931663848 2.5
    endloop
  endfacet
  facet normal 0 0 -1
    outer loop
      vertex 6.278517870878944 -1.6823237931663848 0
      vertex 6.4443915989297675 0.8484202494303352 0
      vertex 6.4443915989297675 -0.8484202494303352 0
    endloop
  endfacet
  facet normal 0.9978589232386036 -0.06540312923014324 0
    outer loop
      vertex 6.4443915989297675 -0.8484202494303352 0
      vertex 6.5 0 0
      vertex 6.4443915989297675 -0.8484202494303352 2.5
    endloop
  endfacet
  facet normal 0 0 1
    outer loop
      vertex 5.156796711893029 -3.956949288556684 2.5
      vertex 5.629165124598851 -3.25 2.5
      vertex 5.156796711893029 3.956949288556684 2.5
    endloop
  endfacet
  facet normal 0.9807852804032304 -0.195090322016128 0
    outer loop
      vertex 6.4443915989297675 -0.8484202494303352 0
      vertex 6.4443915989297675 -0.8484202494303352 2.5
      vertex 6.278517870878944 -1.6823237931663848 2.5
    endloop
  endfacet
  facet normal 0 0 1
    outer loop
      vertex 5.629165124598851 -3.25 2.5
      vertex 6.005216961323364 -2.4874423103730834 2.5
      vertex 5.629165124598851 3.25 2.5
    endloop
  endfacet
  facet normal 0.9978589232386036 -0.06540312923014324 0
    outer loop
      vertex 6.4443915989297675 -0.8484202494303352 2.5
      vertex 6.5 0 0
      vertex 6.5 0 2.5
    endloop
  endfacet
  facet normal 0 0 1
    outer loop
      vertex 6.005216961323364 -2.4874423103730834 2.5
      vertex 6.278517870878944 -1.6823237931663848 2.5
      vertex 6.005216961323364 2.4874423103730834 2.5
    endloop
  endfacet
  facet normal 0 0 1
    outer loop
      vertex 6.278517870878944 -1.6823237931663848 2.5
      vertex 6.4443915989297675 -0.8484202494303352 2.5
      vertex 6.278517870878944 1.6823237931663848 2.5
    endloop
  endfacet
  facet normal 0 0 -1
    outer loop
      vertex 0 -6.5 0
      vertex 0 6.5 0
      vertex 0.8484202494303352 6.4443915989297675 0
    endloop
  endfacet
  facet normal 0 0 -1
    outer loop
      vertex 0.8484202494303352 -6.4443915989297675 0
      vertex 0.8484202494303352 6.4443915989297675 0
      vertex 1.6823237931663848 6.278517870878944 0
    endloop
  endfacet
  facet normal 0 0 -1
    outer loop
      vertex 1.6823237931663848 -6.278517870878944 0
      vertex 1.6823237931663848 6.278517870878944 0
      vertex 2.4874423103730834 6.005216961323364 0
    endloop
  endfacet
  facet normal 0 0 -1
    outer loop
      vertex 2.4874423103730834 -6.005216961323364 0
      vertex 2.4874423103730834 6.005216961323364 0
      vertex 3.25 5.629165124598851 0
    endloop
  endfacet
  facet normal 0 0 1
    outer loop
      vertex 1.6823237931663848 6.278517870878944 2.5
      vertex 1.09351046555815 4.081036616071313 2.5
      vertex 1.6168375017425043 3.903391024860186 2.5
    endloop
  endfacet
  facet normal 0.06540312923014324 0.9978589232386036 0
    outer loop
      vertex 0 6.5 0
      vertex 0 6.5 2.5
      vertex 0.8484202494303352 6.4443915989297675 0
    endloop
  endfacet
  facet normal 0.195090322016128 0.9807852804032304 0
    outer loop
      vertex 0.8484202494303352 6.4443915989297675 0
      vertex 0.8484202494303352 6.4443915989297675 2.5
      vertex 1.6823237931663848 6.278517870878944 0
    endloop
  endfacet
  facet normal 0 0 1
    outer loop
      vertex 0 6.5 2.5
      vertex 0 4.225 2.5
      vertex 0.5514731621297179 4.188854539304349 2.5
    endloop
  endfacet
  facet normal 0.06540312923014324 0.9978589232386036 0
    outer loop
      vertex 0.8484202494303352 6.4443915989297675 0
      vertex 0 6.5 2.5
      vertex 0.8484202494303352 6.4443915989297675 2.5
    endloop
  endfacet
  facet normal 0 0 1
    outer loop
      vertex 0 6.5 2.5
      vertex 0.5514731621297179 4.188854539304349 2.5
      vertex 0.8484202494303352 6.4443915989297675 2.5
    endloop
  endfacet
  facet normal 0 0 1
    outer loop
      vertex 0.8484202494303352 6.4443915989297675 2.5
      vertex 0.5514731621297179 4.188854539304349 2.5
      vertex 1.09351046555815 4.081036616071313 2.5
    endloop
  endfacet
  facet normal 0 0 1
    outer loop
      vertex 0.8484202494303352 6.4443915989297675 2.5
      vertex 1.09351046555815 4.081036616071313 2.5
      vertex 1.6823237931663848 6.278517870878944 2.5
    endloop
  endfacet
  facet normal 0.195090322016128 0.9807852804032304 0
    outer loop
      vertex 1.6823237931663848 6.278517870878944 0
      vertex 0.8484202494303352 6.4443915989297675 2.5
      vertex 1.6823237931663848 6.278517870878944 2.5
    endloop
  endfacet
  facet normal 0 0 1
    outer loop
      vertex 1.6823237931663848 6.278517870878944 2.5
      vertex 1.6168375017425043 3.903391024860186 2.5
      vertex 2.1125 3.658957330989253 2.5
    endloop
  endfacet
  facet normal 0 0 1
    outer loop
      vertex 2.4874423103730834 6.005216961323364 2.5
      vertex 2.1125 3.658957330989253 2.5
      vertex 2.5720170375618445 3.351917862730468 2.5
    endloop
  endfacet
  facet normal 0 0 1
    outer loop
      vertex 3.25 5.629165124598851 2.5
      vertex 2.987526150513163 2.987526150513163 2.5
      vertex 3.351917862730468 2.5720170375618445 2.5
    endloop
  endfacet
  facet normal 0 0 1
    outer loop
      vertex 2.4874423103730834 6.005216961323364 2.5
      vertex 2.5720170375618445 3.351917862730468 2.5
      vertex 2.987526150513163 2.987526150513163 2.5
    endloop
  endfacet
  facet normal 0 0 1
    outer loop
      vertex 2.4874423103730834 6.005216961323364 2.5
      vertex 2.987526150513163 2.987526150513163 2.5
      vertex 3.25 5.629165124598851 2.5
    endloop
  endfacet
  facet normal 0.3214394653031617 0.9469301294951057 0
    outer loop
      vertex 1.6823237931663848 6.278517870878944 0
      vertex 1.6823237931663848 6.278517870878944 2.5
      vertex 2.4874423103730834 6.005216961323364 0
    endloop
  endfacet
  facet normal 0.44228869021900163 0.8968727415326881 0
    outer loop
      vertex 2.4874423103730834 6.005216961323364 0
      vertex 2.4874423103730834 6.005216961323364 2.5
      vertex 3.25 5.629165124598851 0
    endloop
  endfacet
  facet normal 0 0 1
    outer loop
      vertex 1.6823237931663848 6.278517870878944 2.5
      vertex 2.1125 3.658957330989253 2.5
      vertex 2.4874423103730834 6.005216961323364 2.5
    endloop
  endfacet
  facet normal 0.3214394653031617 0.9469301294951057 0
    outer loop
      vertex 2.4874423103730834 6.005216961323364 0
      vertex 1.6823237931663848 6.278517870878944 2.5
      vertex 2.4874423103730834 6.005216961323364 2.5
    endloop
  endfacet
  facet normal 0.44228869021900163 0.8968727415326881 0
    outer loop
      vertex 3.25 5.629165124598851 0
      vertex 2.4874423103730834 6.005216961323364 2.5
      vertex 3.25 5.629165124598851 2.5
    endloop
  endfacet
  facet normal 0 0 -1
    outer loop
      vertex 3.956949288556684 -5.156796711893029 0
      vertex 3.956949288556684 5.156796711893029 0
      vertex 4.59619407771256 4.59619407771256 0
    endloop
  endfacet
  facet normal 0 0 -1
    outer loop
      vertex 4.59619407771256 -4.59619407771256 0
      vertex 4.59619407771256 4.59619407771256 0
      vertex 5.156796711893029 3.956949288556684 0
    endloop
  endfacet
  facet normal 0 0 1
    outer loop
      vertex 4.59619407771256 -4.59619407771256 2.5
      vertex 3.956949288556684 5.156796711893029 2.5
      vertex 4.188854539304349 0.5514731621297179 2.5
    endloop
  endfacet
  facet normal 0 0 -1
    outer loop
      vertex 3.25 -5.629165124598851 0
      vertex 3.25 5.629165124598851 0
      vertex 3.956949288556684 5.156796711893029 0
    endloop
  endfacet
  facet normal 0 0 1
    outer loop
      vertex 3.956949288556684 5.156796711893029 2.5
      vertex 3.903391024860186 1.6168375017425043 2.5
      vertex 4.081036616071313 1.09351046555815 2.5
    endloop
  endfacet
  facet normal 0 0 1
    outer loop
      vertex 3.956949288556684 5.156796711893029 2.5
      vertex 3.658957330989253 2.1125 2.5
      vertex 3.903391024860186 1.6168375017425043 2.5
    endloop
  endfacet
  facet normal 0 0 1
    outer loop
      vertex 4.59619407771256 -4.59619407771256 2.5
      vertex 4.59619407771256 4.59619407771256 2.5
      vertex 3.956949288556684 5.156796711893029 2.5
    endloop
  endfacet
  facet normal 0 0 1
    outer loop
      vertex 3.956949288556684 5.156796711893029 2.5
      vertex 4.081036616071313 1.09351046555815 2.5
      vertex 4.188854539304349 0.5514731621297179 2.5
    endloop
  endfacet
  facet normal 0 0 -1
    outer loop
      vertex 5.156796711893029 -3.956949288556684 0
      vertex 5.156796711893029 3.956949288556684 0
      vertex 5.629165124598851 3.25 0
    endloop
  endfacet
  facet normal 0 0 -1
    outer loop
      vertex 6.4443915989297675 -0.8484202494303352 0
      vertex 6.4443915989297675 0.8484202494303352 0
      vertex 6.5 0 0
    endloop
  endfacet
  facet normal 0 0 -1
    outer loop
      vertex 6.278517870878944 -1.6823237931663848 0
      vertex 6.278517870878944 1.6823237931663848 0
      vertex 6.4443915989297675 0.8484202494303352 0
    endloop
  endfacet
  facet normal 0 0 -1
    outer loop
      vertex 6.005216961323364 -2.4874423103730834 0
      vertex 6.005216961323364 2.4874423103730834 0
      vertex 6.278517870878944 1.6823237931663848 0
    endloop
  endfacet
  facet normal 0.9978589232386036 0.06540312923014324 0
    outer loop
      vertex 6.5 0 0
      vertex 6.4443915989297675 0.8484202494303352 0
      vertex 6.5 0 2.5
    endloop
  endfacet
  facet normal 0 0 -1
    outer loop
      vertex 5.629165124598851 -3.25 0
      vertex 5.629165124598851 3.25 0
      vertex 6.005216961323364 2.4874423103730834 0
    endloop
  endfacet
  facet normal 0.9807852804032304 0.195090322016128 0
    outer loop
      vertex 6.4443915989297675 0.8484202494303352 0
      vertex 6.278517870878944 1.6823237931663848 0
      vertex 6.4443915989297675 0.8484202494303352 2.5
    endloop
  endfacet
  facet normal 0 0 1
    outer loop
      vertex 5.156796711893029 -3.956949288556684 2.5
      vertex 5.156796711893029 3.956949288556684 2.5
      vertex 4.59619407771256 4.59619407771256 2.5
    endloop
  endfacet
  facet normal 0 0 1
    outer loop
      vertex 5.629165124598851 -3.25 2.5
      vertex 5.629165124598851 3.25 2.5
      vertex 5.156796711893029 3.956949288556684 2.5
    endloop
  endfacet
  facet normal 0.9978589232386036 0.06540312923014324 0
    outer loop
      vertex 6.4443915989297675 0.8484202494303352 0
      vertex 6.4443915989297675 0.8484202494303352 2.5
      vertex 6.5 0 2.5
    endloop
  endfacet
  facet normal 0 0 1
    outer loop
      vertex 6.4443915989297675 -0.8484202494303352 2.5
      vertex 6.5 0 2.5
      vertex 6.4443915989297675 0.8484202494303352 2.5
    endloop
  endfacet
  facet normal 0 0 1
    outer loop
      vertex 6.4443915989297675 -0.8484202494303352 2.5
      vertex 6.4443915989297675 0.8484202494303352 2.5
      vertex 6.278517870878944 1.6823237931663848 2.5
    endloop
  endfacet
  facet normal 0.9807852804032304 0.195090322016128 0
    outer loop
      vertex 6.278517870878944 1.6823237931663848 0
      vertex 6.278517870878944 1.6823237931663848 2.5
      vertex 6.4443915989297675 0.8484202494303352 2.5
    endloop
  endfacet
  facet normal 0 0 1
    outer loop
      vertex 6.005216961323364 -2.4874423103730834 2.5
      vertex 6.005216961323364 2.4874423103730834 2.5
      vertex 5.629165124598851 3.25 2.5
    endloop
  endfacet
  facet normal 0 0 1
    outer loop
      vertex 6.278517870878944 -1.6823237931663848 2.5
      vertex 6.278517870878944 1.6823237931663848 2.5
      vertex 6.005216961323364 2.4874423103730834 2.5
    endloop
  endfacet
  facet normal 0.9469301294951057 0.3214394653031617 0
    outer loop
      vertex 6.278517870878944 1.6823237931663848 0
      vertex 6.005216961323364 2.4874423103730834 0
      vertex 6.278517870878944 1.6823237931663848 2.5
    endloop
  endfacet
  facet normal 0.8968727415326881 0.44228869021900163 0
    outer loop
      vertex 6.005216961323364 2.4874423103730834 0
      vertex 5.629165124598851 3.25 0
      vertex 6.005216961323364 2.4874423103730834 2.5
    endloop
  endfacet
  facet normal 0.9469301294951057 0.3214394653031617 0
    outer loop
      vertex 6.005216961323364 2.4874423103730834 0
      vertex 6.005216961323364 2.4874423103730834 2.5
      vertex 6.278517870878944 1.6823237931663848 2.5
    endloop
  endfacet
  facet normal 0.8968727415326881 0.44228869021900163 0
    outer loop
      vertex 5.629165124598851 3.25 0
      vertex 5.629165124598851 3.25 2.5
      vertex 6.005216961323364 2.4874423103730834 2.5
    endloop
  endfacet
  facet normal 0 0 1
    outer loop
      vertex 3.25 5.629165124598851 2.5
      vertex 3.351917862730468 2.5720170375618445 2.5
      vertex 3.658957330989253 2.1125 2.5
    endloop
  endfacet
  facet normal 0 0 1
    outer loop
      vertex 3.25 5.629165124598851 2.5
      vertex 3.658957330989253 2.1125 2.5
      vertex 3.956949288556684 5.156796711893029 2.5
    endloop
  endfacet
  facet normal 0.6593458151000683 0.751839807478978 0
    outer loop
      vertex 4.59619407771256 4.59619407771256 0
      vertex 3.956949288556684 5.156796711893029 2.5
      vertex 4.59619407771256 4.59619407771256 2.5
    endloop
  endfacet
  facet normal 0.751839807478978 0.6593458151000683 0
    outer loop
      vertex 4.59619407771256 4.59619407771256 0
      vertex 4.59619407771256 4.59619407771256 2.5
      vertex 5.156796711893029 3.956949288556684 2.5
    endloop
  endfacet
  facet normal 0.5555702330196016 0.8314696123025457 0
    outer loop
      vertex 3.25 5.629165124598851 0
      vertex 3.25 5.629165124598851 2.5
      vertex 3.956949288556684 5.156796711893029 0
    endloop
  endfacet
  facet normal 0.6593458151000683 0.751839807478978 0
    outer loop
      vertex 4.59619407771256 4.59619407771256 0
      vertex 3.956949288556684 5.156796711893029 0
      vertex 3.956949288556684 5.156796711893029 2.5
    endloop
  endfacet
  facet normal 0.5555702330196016 0.8314696123025457 0
    outer loop
      vertex 3.956949288556684 5.156796711893029 0
      vertex 3.25 5.629165124598851 2.5
      vertex 3.956949288556684 5.156796711893029 2.5
    endloop
  endfacet
  facet normal 0.8314696123025457 0.5555702330196016 0
    outer loop
      vertex 5.156796711893029 3.956949288556684 0
      vertex 5.629165124598851 3.25 2.5
      vertex 5.629165124598851 3.25 0
    endloop
  endfacet
  facet normal 0.751839807478978 0.6593458151000683 0
    outer loop
      vertex 4.59619407771256 4.59619407771256 0
      vertex 5.156796711893029 3.956949288556684 2.5
      vertex 5.156796711893029 3.956949288556684 0
    endloop
  endfacet
  facet normal 0.8314696123025457 0.5555702330196016 0
    outer loop
      vertex 5.156796711893029 3.956949288556684 0
      vertex 5.156796711893029 3.956949288556684 2.5
      vertex 5.629165124598851 3.25 2.5
    endloop
  endfacet
  facet normal -0.8968094661783592 -0.44225748626743316 0.011878434799982608
    outer loop
      vertex -3.550704155516198 -2.05 13
      vertex -3.903391024860186 -1.6168375017425043 2.5
      vertex -3.658957330989253 -2.1125 2.5
    endloop
  endfacet
  facet normal -0.8314109512106245 -0.5555310369311036 0.011878434799982556
    outer loop
      vertex -3.252748695194064 -2.4959218589357546 13
      vertex -3.658957330989253 -2.1125 2.5
      vertex -3.351917862730468 -2.5720170375618445 2.5
    endloop
  endfacet
  facet normal -0.9807160849273682 -0.19507655818021286 0.01187843479998256
    outer loop
      vertex -3.96029588778518 -1.061158084920335 13
      vertex -4.188854539304349 -0.5514731621297179 2.5
      vertex -4.081036616071313 -1.09351046555815 2.5
    endloop
  endfacet
  facet normal -0.9977885231985371 -0.06539851496773448 0.011878434799982636
    outer loop
      vertex -4.064923931632622 -0.5351573881022114 13
      vertex -4.225 0 2.5
      vertex -4.188854539304349 -0.5514731621297179 2.5
    endloop
  endfacet
  facet normal -0.9468633225372239 -0.3214167873967872 0.011878434799982582
    outer loop
      vertex -3.787906083296275 -1.5690020726968679 13
      vertex -4.081036616071313 -1.09351046555815 2.5
      vertex -3.903391024860186 -1.6168375017425043 2.5
    endloop
  endfacet
  facet normal -0.5555310369311036 -0.8314109512106245 0.011878434799982556
    outer loop
      vertex -2.4959218589357546 -3.252748695194064 13
      vertex -2.5720170375618445 -3.351917862730468 2.5
      vertex -2.1125 -3.658957330989253 2.5
    endloop
  endfacet
  facet normal -0.44225748626743316 -0.8968094661783592 0.011878434799982608
    outer loop
      vertex -2.05 -3.550704155516198 13
      vertex -2.1125 -3.658957330989253 2.5
      vertex -1.6168375017425043 -3.903391024860186 2.5
    endloop
  endfacet
  facet normal -0.3214167873967872 -0.9468633225372239 0.011878434799982553
    outer loop
      vertex -1.061158084920335 -3.96029588778518 13
      vertex -1.6168375017425043 -3.903391024860186 2.5
      vertex -1.09351046555815 -4.081036616071313 2.5
    endloop
  endfacet
  facet normal -0.19507655818021286 -0.9807160849273682 0.011878434799982636
    outer loop
      vertex -0.5351573881022114 -4.064923931632622 13
      vertex -1.09351046555815 -4.081036616071313 2.5
      vertex -0.5514731621297179 -4.188854539304349 2.5
    endloop
  endfacet
  facet normal -0.06539851496773448 -0.9977885231985373 0.011878434799982586
    outer loop
      vertex 0 -4.1 13
      vertex -0.5514731621297179 -4.188854539304349 2.5
      vertex 0 -4.225 2.5
    endloop
  endfacet
  facet normal -0.7517867643570119 -0.6592992975305809 0.01187843479998256
    outer loop
      vertex -2.899137802864845 -2.899137802864845 13
      vertex -3.351917862730468 -2.5720170375618445 2.5
      vertex -2.987526150513163 -2.987526150513163 2.5
    endloop
  endfacet
  facet normal -0.6592992975305809 -0.7517867643570119 0.01187843479998256
    outer loop
      vertex -2.899137802864845 -2.899137802864845 13
      vertex -2.987526150513163 -2.987526150513163 2.5
      vertex -2.5720170375618445 -3.351917862730468 2.5
    endloop
  endfacet
  facet normal -0.8968094661783591 -0.44225748626743366 0.011878434799982586
    outer loop
      vertex -3.787906083296275 -1.5690020726968679 13
      vertex -3.903391024860186 -1.6168375017425043 2.5
      vertex -3.550704155516198 -2.05 13
    endloop
  endfacet
  facet normal -0.8314109512106249 -0.5555310369311028 0.01187843479998261
    outer loop
      vertex -3.252748695194064 -2.4959218589357546 13
      vertex -3.550704155516198 -2.05 13
      vertex -3.658957330989253 -2.1125 2.5
    endloop
  endfacet
  facet normal -0.9807160849273683 -0.19507655818021133 0.011878434799982636
    outer loop
      vertex -3.96029588778518 -1.061158084920335 13
      vertex -4.064923931632622 -0.5351573881022114 13
      vertex -4.188854539304349 -0.5514731621297179 2.5
    endloop
  endfacet
  facet normal -0.9977885231985371 -0.06539851496773542 0.011878434799982584
    outer loop
      vertex -4.064923931632622 -0.5351573881022114 13
      vertex -4.1 0 13
      vertex -4.225 0 2.5
    endloop
  endfacet
  facet normal -0.9468633225372238 -0.3214167873967878 0.011878434799982556
    outer loop
      vertex -3.787906083296275 -1.5690020726968679 13
      vertex -3.96029588778518 -1.061158084920335 13
      vertex -4.081036616071313 -1.09351046555815 2.5
    endloop
  endfacet
  facet normal 0 0 1
    outer loop
      vertex -3.252748695194064 -2.4959218589357546 13
      vertex -3.550704155516198 2.05 13
      vertex -3.550704155516198 -2.05 13
    endloop
  endfacet
  facet normal 0 0 1
    outer loop
      vertex -3.787906083296275 -1.5690020726968679 13
      vertex -3.96029588778518 1.061158084920335 13
      vertex -3.96029588778518 -1.061158084920335 13
    endloop
  endfacet
  facet normal 0 0 1
    outer loop
      vertex -3.787906083296275 -1.5690020726968679 13
      vertex -3.550704155516198 -2.05 13
      vertex -3.787906083296275 1.5690020726968679 13
    endloop
  endfacet
  facet normal 0 0 1
    outer loop
      vertex -3.96029588778518 -1.061158084920335 13
      vertex -4.064923931632622 0.5351573881022114 13
      vertex -4.064923931632622 -0.5351573881022114 13
    endloop
  endfacet
  facet normal -0.5555310369311028 -0.8314109512106249 0.01187843479998261
    outer loop
      vertex -2.4959218589357546 -3.252748695194064 13
      vertex -2.1125 -3.658957330989253 2.5
      vertex -2.05 -3.550704155516198 13
    endloop
  endfacet
  facet normal -0.44225748626743366 -0.8968094661783591 0.011878434799982584
    outer loop
      vertex -2.05 -3.550704155516198 13
      vertex -1.6168375017425043 -3.903391024860186 2.5
      vertex -1.5690020726968679 -3.787906083296275 13
    endloop
  endfacet
  facet normal -0.3214167873967878 -0.9468633225372238 0.011878434799982586
    outer loop
      vertex -1.5690020726968679 -3.787906083296275 13
      vertex -1.6168375017425043 -3.903391024860186 2.5
      vertex -1.061158084920335 -3.96029588778518 13
    endloop
  endfacet
  facet normal -0.19507655818021133 -0.9807160849273683 0.011878434799982551
    outer loop
      vertex -1.061158084920335 -3.96029588778518 13
      vertex -1.09351046555815 -4.081036616071313 2.5
      vertex -0.5351573881022114 -4.064923931632622 13
    endloop
  endfacet
  facet normal -0.06539851496773542 -0.9977885231985371 0.011878434799982636
    outer loop
      vertex -0.5351573881022114 -4.064923931632622 13
      vertex -0.5514731621297179 -4.188854539304349 2.5
      vertex 0 -4.1 13
    endloop
  endfacet
  facet normal -0.7517867643570117 -0.6592992975305809 0.011878434799982556
    outer loop
      vertex -3.252748695194064 -2.4959218589357546 13
      vertex -3.351917862730468 -2.5720170375618445 2.5
      vertex -2.899137802864845 -2.899137802864845 13
    endloop
  endfacet
  facet normal -0.6592992975305809 -0.7517867643570117 0.011878434799982556
    outer loop
      vertex -2.4959218589357546 -3.252748695194064 13
      vertex -2.899137802864845 -2.899137802864845 13
      vertex -2.5720170375618445 -3.351917862730468 2.5
    endloop
  endfacet
  facet normal 0 0 1
    outer loop
      vertex -3.252748695194064 -2.4959218589357546 13
      vertex -2.899137802864845 -2.899137802864845 13
      vertex -3.252748695194064 2.4959218589357546 13
    endloop
  endfacet
  facet normal 0 0 1
    outer loop
      vertex -2.4959218589357546 -3.252748695194064 13
      vertex -2.899137802864845 2.899137802864845 13
      vertex -2.899137802864845 -2.899137802864845 13
    endloop
  endfacet
  facet normal 0 0 1
    outer loop
      vertex -2.4959218589357546 -3.252748695194064 13
      vertex -2.05 -3.550704155516198 13
      vertex -2.4959218589357546 3.252748695194064 13
    endloop
  endfacet
  facet normal 0 0 1
    outer loop
      vertex -2.05 -3.550704155516198 13
      vertex -1.5690020726968679 -3.787906083296275 13
      vertex -2.05 3.550704155516198 13
    endloop
  endfacet
  facet normal 0 0 1
    outer loop
      vertex -1.5690020726968679 -3.787906083296275 13
      vertex -1.061158084920335 -3.96029588778518 13
      vertex -1.5690020726968679 3.787906083296275 13
    endloop
  endfacet
  facet normal 0 0 1
    outer loop
      vertex -1.061158084920335 -3.96029588778518 13
      vertex -0.5351573881022114 -4.064923931632622 13
      vertex -1.061158084920335 3.96029588778518 13
    endloop
  endfacet
  facet normal 0 0 1
    outer loop
      vertex -0.5351573881022114 -4.064923931632622 13
      vertex 0 -4.1 13
      vertex -0.5351573881022114 4.064923931632622 13
    endloop
  endfacet
  facet normal -0.9977885231985371 0.06539851496773448 0.011878434799982636
    outer loop
      vertex -4.064923931632622 0.5351573881022114 13
      vertex -4.188854539304349 0.5514731621297179 2.5
      vertex -4.225 0 2.5
    endloop
  endfacet
  facet normal -0.9807160849273682 0.19507655818021286 0.01187843479998256
    outer loop
      vertex -3.96029588778518 1.061158084920335 13
      vertex -4.081036616071313 1.09351046555815 2.5
      vertex -4.188854539304349 0.5514731621297179 2.5
    endloop
  endfacet
  facet normal -0.9468633225372239 0.3214167873967872 0.011878434799982582
    outer loop
      vertex -3.787906083296275 1.5690020726968679 13
      vertex -3.903391024860186 1.6168375017425043 2.5
      vertex -4.081036616071313 1.09351046555815 2.5
    endloop
  endfacet
  facet normal -0.8968094661783592 0.44225748626743316 0.011878434799982608
    outer loop
      vertex -3.550704155516198 2.05 13
      vertex -3.658957330989253 2.1125 2.5
      vertex -3.903391024860186 1.6168375017425043 2.5
    endloop
  endfacet
  facet normal -0.8314109512106245 0.5555310369311036 0.011878434799982556
    outer loop
      vertex -3.252748695194064 2.4959218589357546 13
      vertex -3.351917862730468 2.5720170375618445 2.5
      vertex -3.658957330989253 2.1125 2.5
    endloop
  endfacet
  facet normal -0.7517867643570119 0.6592992975305809 0.01187843479998256
    outer loop
      vertex -2.899137802864845 2.899137802864845 13
      vertex -2.987526150513163 2.987526150513163 2.5
      vertex -3.351917862730468 2.5720170375618445 2.5
    endloop
  endfacet
  facet normal -0.6592992975305809 0.7517867643570119 0.01187843479998256
    outer loop
      vertex -2.899137802864845 2.899137802864845 13
      vertex -2.5720170375618445 3.351917862730468 2.5
      vertex -2.987526150513163 2.987526150513163 2.5
    endloop
  endfacet
  facet normal -0.5555310369311036 0.8314109512106245 0.011878434799982556
    outer loop
      vertex -2.4959218589357546 3.252748695194064 13
      vertex -2.1125 3.658957330989253 2.5
      vertex -2.5720170375618445 3.351917862730468 2.5
    endloop
  endfacet
  facet normal -0.44225748626743316 0.8968094661783592 0.011878434799982608
    outer loop
      vertex -2.05 3.550704155516198 13
      vertex -1.6168375017425043 3.903391024860186 2.5
      vertex -2.1125 3.658957330989253 2.5
    endloop
  endfacet
  facet normal -0.3214167873967872 0.9468633225372239 0.011878434799982582
    outer loop
      vertex -1.5690020726968679 3.787906083296275 13
      vertex -1.09351046555815 4.081036616071313 2.5
      vertex -1.6168375017425043 3.903391024860186 2.5
    endloop
  endfacet
  facet normal -0.19507655818021286 0.9807160849273682 0.01187843479998256
    outer loop
      vertex -1.061158084920335 3.96029588778518 13
      vertex -0.5514731621297179 4.188854539304349 2.5
      vertex -1.09351046555815 4.081036616071313 2.5
    endloop
  endfacet
  facet normal -0.06539851496773448 0.9977885231985371 0.011878434799982636
    outer loop
      vertex -0.5351573881022114 4.064923931632622 13
      vertex 0 4.225 2.5
      vertex -0.5514731621297179 4.188854539304349 2.5
    endloop
  endfacet
  facet normal -0.9977885231985371 0.06539851496773542 0.011878434799982584
    outer loop
      vertex -4.1 0 13
      vertex -4.064923931632622 0.5351573881022114 13
      vertex -4.225 0 2.5
    endloop
  endfacet
  facet normal -0.9807160849273683 0.19507655818021133 0.011878434799982632
    outer loop
      vertex -4.064923931632622 0.5351573881022114 13
      vertex -3.96029588778518 1.061158084920335 13
      vertex -4.188854539304349 0.5514731621297179 2.5
    endloop
  endfacet
  facet normal -0.9468633225372238 0.3214167873967878 0.011878434799982556
    outer loop
      vertex -3.96029588778518 1.061158084920335 13
      vertex -3.787906083296275 1.5690020726968679 13
      vertex -4.081036616071313 1.09351046555815 2.5
    endloop
  endfacet
  facet normal -0.8968094661783591 0.44225748626743366 0.011878434799982586
    outer loop
      vertex -3.787906083296275 1.5690020726968679 13
      vertex -3.550704155516198 2.05 13
      vertex -3.903391024860186 1.6168375017425043 2.5
    endloop
  endfacet
  facet normal -0.8314109512106249 0.5555310369311028 0.01187843479998261
    outer loop
      vertex -3.550704155516198 2.05 13
      vertex -3.252748695194064 2.4959218589357546 13
      vertex -3.658957330989253 2.1125 2.5
    endloop
  endfacet
  facet normal 0 0 1
    outer loop
      vertex -4.064923931632622 -0.5351573881022114 13
      vertex -4.064923931632622 0.5351573881022114 13
      vertex -4.1 0 13
    endloop
  endfacet
  facet normal 0 0 1
    outer loop
      vertex -3.96029588778518 -1.061158084920335 13
      vertex -3.96029588778518 1.061158084920335 13
      vertex -4.064923931632622 0.5351573881022114 13
    endloop
  endfacet
  facet normal 0 0 1
    outer loop
      vertex -3.787906083296275 -1.5690020726968679 13
      vertex -3.787906083296275 1.5690020726968679 13
      vertex -3.96029588778518 1.061158084920335 13
    endloop
  endfacet
  facet normal 0 0 1
    outer loop
      vertex -3.550704155516198 -2.05 13
      vertex -3.550704155516198 2.05 13
      vertex -3.787906083296275 1.5690020726968679 13
    endloop
  endfacet
  facet normal 0 0 1
    outer loop
      vertex -3.252748695194064 -2.4959218589357546 13
      vertex -3.252748695194064 2.4959218589357546 13
      vertex -3.550704155516198 2.05 13
    endloop
  endfacet
  facet normal -0.7517867643570117 0.6592992975305809 0.011878434799982556
    outer loop
      vertex -3.252748695194064 2.4959218589357546 13
      vertex -2.899137802864845 2.899137802864845 13
      vertex -3.351917862730468 2.5720170375618445 2.5
    endloop
  endfacet
  facet normal -0.6592992975305809 0.7517867643570117 0.011878434799982558
    outer loop
      vertex -2.899137802864845 2.899137802864845 13
      vertex -2.4959218589357546 3.252748695194064 13
      vertex -2.5720170375618445 3.351917862730468 2.5
    endloop
  endfacet
  facet normal 0 0 1
    outer loop
      vertex -2.899137802864845 -2.899137802864845 13
      vertex -2.899137802864845 2.899137802864845 13
      vertex -3.252748695194064 2.4959218589357546 13
    endloop
  endfacet
  facet normal 0 0 1
    outer loop
      vertex -2.4959218589357546 -3.252748695194064 13
      vertex -2.4959218589357546 3.252748695194064 13
      vertex -2.899137802864845 2.899137802864845 13
    endloop
  endfacet
  facet normal 0 0 1
    outer loop
      vertex -2.05 -3.550704155516198 13
      vertex -2.05 3.550704155516198 13
      vertex -2.4959218589357546 3.252748695194064 13
    endloop
  endfacet
  facet normal 0 0 1
    outer loop
      vertex -1.5690020726968679 -3.787906083296275 13
      vertex -1.5690020726968679 3.787906083296275 13
      vertex -2.05 3.550704155516198 13
    endloop
  endfacet
  facet normal 0 0 1
    outer loop
      vertex -1.061158084920335 -3.96029588778518 13
      vertex -1.061158084920335 3.96029588778518 13
      vertex -1.5690020726968679 3.787906083296275 13
    endloop
  endfacet
  facet normal 0 0 1
    outer loop
      vertex -0.5351573881022114 -4.064923931632622 13
      vertex -0.5351573881022114 4.064923931632622 13
      vertex -1.061158084920335 3.96029588778518 13
    endloop
  endfacet
  facet normal 0 0 1
    outer loop
      vertex -0.5351573881022114 4.064923931632622 13
      vertex 0 -4.1 13
      vertex 0 4.1 13
    endloop
  endfacet
  facet normal -0.5555310369311028 0.8314109512106249 0.01187843479998261
    outer loop
      vertex -2.4959218589357546 3.252748695194064 13
      vertex -2.05 3.550704155516198 13
      vertex -2.1125 3.658957330989253 2.5
    endloop
  endfacet
  facet normal -0.44225748626743366 0.8968094661783591 0.011878434799982584
    outer loop
      vertex -2.05 3.550704155516198 13
      vertex -1.5690020726968679 3.787906083296275 13
      vertex -1.6168375017425043 3.903391024860186 2.5
    endloop
  endfacet
  facet normal -0.3214167873967878 0.9468633225372238 0.011878434799982556
    outer loop
      vertex -1.5690020726968679 3.787906083296275 13
      vertex -1.061158084920335 3.96029588778518 13
      vertex -1.09351046555815 4.081036616071313 2.5
    endloop
  endfacet
  facet normal -0.19507655818021133 0.9807160849273683 0.011878434799982636
    outer loop
      vertex -1.061158084920335 3.96029588778518 13
      vertex -0.5351573881022114 4.064923931632622 13
      vertex -0.5514731621297179 4.188854539304349 2.5
    endloop
  endfacet
  facet normal -0.06539851496773542 0.9977885231985371 0.011878434799982584
    outer loop
      vertex -0.5351573881022114 4.064923931632622 13
      vertex 0 4.1 13
      vertex 0 4.225 2.5
    endloop
  endfacet
  facet normal 0.06539851496773448 -0.9977885231985371 0.011878434799982636
    outer loop
      vertex 0.5351573881022114 -4.064923931632622 13
      vertex 0 -4.225 2.5
      vertex 0.5514731621297179 -4.188854539304349 2.5
    endloop
  endfacet
  facet normal 0.19507655818021286 -0.9807160849273682 0.01187843479998256
    outer loop
      vertex 1.061158084920335 -3.96029588778518 13
      vertex 0.5514731621297179 -4.188854539304349 2.5
      vertex 1.09351046555815 -4.081036616071313 2.5
    endloop
  endfacet
  facet normal 0.3214167873967872 -0.9468633225372239 0.011878434799982582
    outer loop
      vertex 1.5690020726968679 -3.787906083296275 13
      vertex 1.09351046555815 -4.081036616071313 2.5
      vertex 1.6168375017425043 -3.903391024860186 2.5
    endloop
  endfacet
  facet normal 0.44225748626743316 -0.8968094661783592 0.011878434799982608
    outer loop
      vertex 2.05 -3.550704155516198 13
      vertex 1.6168375017425043 -3.903391024860186 2.5
      vertex 2.1125 -3.658957330989253 2.5
    endloop
  endfacet
  facet normal 0.5555310369311036 -0.8314109512106245 0.011878434799982556
    outer loop
      vertex 2.4959218589357546 -3.252748695194064 13
      vertex 2.1125 -3.658957330989253 2.5
      vertex 2.5720170375618445 -3.351917862730468 2.5
    endloop
  endfacet
  facet normal 0.6592992975305809 -0.7517867643570119 0.01187843479998256
    outer loop
      vertex 2.899137802864845 -2.899137802864845 13
      vertex 2.5720170375618445 -3.351917862730468 2.5
      vertex 2.987526150513163 -2.987526150513163 2.5
    endloop
  endfacet
  facet normal 0.7517867643570119 -0.6592992975305809 0.01187843479998256
    outer loop
      vertex 2.899137802864845 -2.899137802864845 13
      vertex 2.987526150513163 -2.987526150513163 2.5
      vertex 3.351917862730468 -2.5720170375618445 2.5
    endloop
  endfacet
  facet normal 0.8314109512106245 -0.5555310369311036 0.011878434799982556
    outer loop
      vertex 3.252748695194064 -2.4959218589357546 13
      vertex 3.351917862730468 -2.5720170375618445 2.5
      vertex 3.658957330989253 -2.1125 2.5
    endloop
  endfacet
  facet normal 0.8968094661783592 -0.44225748626743316 0.011878434799982608
    outer loop
      vertex 3.550704155516198 -2.05 13
      vertex 3.658957330989253 -2.1125 2.5
      vertex 3.903391024860186 -1.6168375017425043 2.5
    endloop
  endfacet
  facet normal 0.9468633225372239 -0.3214167873967872 0.011878434799982582
    outer loop
      vertex 3.787906083296275 -1.5690020726968679 13
      vertex 3.903391024860186 -1.6168375017425043 2.5
      vertex 4.081036616071313 -1.09351046555815 2.5
    endloop
  endfacet
  facet normal 0.9807160849273682 -0.19507655818021286 0.01187843479998256
    outer loop
      vertex 3.96029588778518 -1.061158084920335 13
      vertex 4.081036616071313 -1.09351046555815 2.5
      vertex 4.188854539304349 -0.5514731621297179 2.5
    endloop
  endfacet
  facet normal 0.9977885231985371 -0.06539851496773448 0.011878434799982636
    outer loop
      vertex 4.064923931632622 -0.5351573881022114 13
      vertex 4.188854539304349 -0.5514731621297179 2.5
      vertex 4.225 0 2.5
    endloop
  endfacet
  facet normal 0.06539851496773542 -0.9977885231985371 0.011878434799982584
    outer loop
      vertex 0 -4.1 13
      vertex 0 -4.225 2.5
      vertex 0.5351573881022114 -4.064923931632622 13
    endloop
  endfacet
  facet normal 0.19507655818021133 -0.9807160849273683 0.011878434799982632
    outer loop
      vertex 0.5351573881022114 -4.064923931632622 13
      vertex 0.5514731621297179 -4.188854539304349 2.5
      vertex 1.061158084920335 -3.96029588778518 13
    endloop
  endfacet
  facet normal 0.3214167873967878 -0.9468633225372238 0.011878434799982556
    outer loop
      vertex 1.061158084920335 -3.96029588778518 13
      vertex 1.09351046555815 -4.081036616071313 2.5
      vertex 1.5690020726968679 -3.787906083296275 13
    endloop
  endfacet
  facet normal 0.44225748626743366 -0.8968094661783591 0.011878434799982586
    outer loop
      vertex 1.5690020726968679 -3.787906083296275 13
      vertex 1.6168375017425043 -3.903391024860186 2.5
      vertex 2.05 -3.550704155516198 13
    endloop
  endfacet
  facet normal 0.5555310369311028 -0.8314109512106249 0.01187843479998261
    outer loop
      vertex 2.05 -3.550704155516198 13
      vertex 2.1125 -3.658957330989253 2.5
      vertex 2.4959218589357546 -3.252748695194064 13
    endloop
  endfacet
  facet normal 0.6592992975305809 -0.7517867643570117 0.011878434799982556
    outer loop
      vertex 2.4959218589357546 -3.252748695194064 13
      vertex 2.5720170375618445 -3.351917862730468 2.5
      vertex 2.899137802864845 -2.899137802864845 13
    endloop
  endfacet
  facet normal 0.7517867643570117 -0.6592992975305809 0.011878434799982558
    outer loop
      vertex 2.899137802864845 -2.899137802864845 13
      vertex 3.351917862730468 -2.5720170375618445 2.5
      vertex 3.252748695194064 -2.4959218589357546 13
    endloop
  endfacet
  facet normal 0 0 1
    outer loop
      vertex 0 -4.1 13
      vertex 0.5351573881022114 -4.064923931632622 13
      vertex 0 4.1 13
    endloop
  endfacet
  facet normal 0 0 1
    outer loop
      vertex 0.5351573881022114 -4.064923931632622 13
      vertex 1.061158084920335 -3.96029588778518 13
      vertex 0.5351573881022114 4.064923931632622 13
    endloop
  endfacet
  facet normal 0 0 1
    outer loop
      vertex 1.061158084920335 -3.96029588778518 13
      vertex 1.5690020726968679 -3.787906083296275 13
      vertex 1.061158084920335 3.96029588778518 13
    endloop
  endfacet
  facet normal 0 0 1
    outer loop
      vertex 1.5690020726968679 -3.787906083296275 13
      vertex 2.05 -3.550704155516198 13
      vertex 1.5690020726968679 3.787906083296275 13
    endloop
  endfacet
  facet normal 0 0 1
    outer loop
      vertex 2.05 -3.550704155516198 13
      vertex 2.4959218589357546 -3.252748695194064 13
      vertex 2.05 3.550704155516198 13
    endloop
  endfacet
  facet normal 0 0 1
    outer loop
      vertex 2.4959218589357546 -3.252748695194064 13
      vertex 2.899137802864845 -2.899137802864845 13
      vertex 2.4959218589357546 3.252748695194064 13
    endloop
  endfacet
  facet normal 0 0 1
    outer loop
      vertex 2.899137802864845 -2.899137802864845 13
      vertex 3.252748695194064 -2.4959218589357546 13
      vertex 2.899137802864845 2.899137802864845 13
    endloop
  endfacet
  facet normal 0.8314109512106249 -0.5555310369311028 0.01187843479998261
    outer loop
      vertex 3.252748695194064 -2.4959218589357546 13
      vertex 3.658957330989253 -2.1125 2.5
      vertex 3.550704155516198 -2.05 13
    endloop
  endfacet
  facet normal 0.8968094661783591 -0.44225748626743366 0.011878434799982584
    outer loop
      vertex 3.550704155516198 -2.05 13
      vertex 3.903391024860186 -1.6168375017425043 2.5
      vertex 3.787906083296275 -1.5690020726968679 13
    endloop
  endfacet
  facet normal 0.9468633225372238 -0.3214167873967878 0.011878434799982556
    outer loop
      vertex 3.787906083296275 -1.5690020726968679 13
      vertex 4.081036616071313 -1.09351046555815 2.5
      vertex 3.96029588778518 -1.061158084920335 13
    endloop
  endfacet
  facet normal 0.9807160849273683 -0.19507655818021133 0.011878434799982636
    outer loop
      vertex 3.96029588778518 -1.061158084920335 13
      vertex 4.188854539304349 -0.5514731621297179 2.5
      vertex 4.064923931632622 -0.5351573881022114 13
    endloop
  endfacet
  facet normal 0.9977885231985371 -0.06539851496773542 0.011878434799982584
    outer loop
      vertex 4.064923931632622 -0.5351573881022114 13
      vertex 4.225 0 2.5
      vertex 4.1 0 13
    endloop
  endfacet
  facet normal 0 0 1
    outer loop
      vertex 3.252748695194064 -2.4959218589357546 13
      vertex 3.550704155516198 -2.05 13
      vertex 3.252748695194064 2.4959218589357546 13
    endloop
  endfacet
  facet normal 0 0 1
    outer loop
      vertex 3.550704155516198 -2.05 13
      vertex 3.787906083296275 -1.5690020726968679 13
      vertex 3.550704155516198 2.05 13
    endloop
  endfacet
  facet normal 0 0 1
    outer loop
      vertex 3.787906083296275 -1.5690020726968679 13
      vertex 3.96029588778518 -1.061158084920335 13
      vertex 3.787906083296275 1.5690020726968679 13
    endloop
  endfacet
  facet normal 0 0 1
    outer loop
      vertex 3.96029588778518 -1.061158084920335 13
      vertex 4.064923931632622 -0.5351573881022114 13
      vertex 3.96029588778518 1.061158084920335 13
    endloop
  endfacet
  facet normal 0.6592992975305809 0.7517867643570119 0.01187843479998256
    outer loop
      vertex 2.899137802864845 2.899137802864845 13
      vertex 2.987526150513163 2.987526150513163 2.5
      vertex 2.5720170375618445 3.351917862730468 2.5
    endloop
  endfacet
  facet normal 0.7517867643570119 0.6592992975305809 0.01187843479998256
    outer loop
      vertex 2.899137802864845 2.899137802864845 13
      vertex 3.351917862730468 2.5720170375618445 2.5
      vertex 2.987526150513163 2.987526150513163 2.5
    endloop
  endfacet
  facet normal 0.06539851496773448 0.9977885231985373 0.011878434799982586
    outer loop
      vertex 0 4.1 13
      vertex 0.5514731621297179 4.188854539304349 2.5
      vertex 0 4.225 2.5
    endloop
  endfacet
  facet normal 0.19507655818021286 0.9807160849273682 0.011878434799982636
    outer loop
      vertex 0.5351573881022114 4.064923931632622 13
      vertex 1.09351046555815 4.081036616071313 2.5
      vertex 0.5514731621297179 4.188854539304349 2.5
    endloop
  endfacet
  facet normal 0.3214167873967872 0.9468633225372239 0.011878434799982553
    outer loop
      vertex 1.061158084920335 3.96029588778518 13
      vertex 1.6168375017425043 3.903391024860186 2.5
      vertex 1.09351046555815 4.081036616071313 2.5
    endloop
  endfacet
  facet normal 0.44225748626743316 0.8968094661783592 0.011878434799982608
    outer loop
      vertex 2.05 3.550704155516198 13
      vertex 2.1125 3.658957330989253 2.5
      vertex 1.6168375017425043 3.903391024860186 2.5
    endloop
  endfacet
  facet normal 0.5555310369311036 0.8314109512106245 0.011878434799982556
    outer loop
      vertex 2.4959218589357546 3.252748695194064 13
      vertex 2.5720170375618445 3.351917862730468 2.5
      vertex 2.1125 3.658957330989253 2.5
    endloop
  endfacet
  facet normal 0.9468633225372239 0.3214167873967872 0.011878434799982582
    outer loop
      vertex 3.787906083296275 1.5690020726968679 13
      vertex 4.081036616071313 1.09351046555815 2.5
      vertex 3.903391024860186 1.6168375017425043 2.5
    endloop
  endfacet
  facet normal 0.9977885231985373 0.06539851496773448 0.011878434799982586
    outer loop
      vertex 4.1 0 13
      vertex 4.225 0 2.5
      vertex 4.188854539304349 0.5514731621297179 2.5
    endloop
  endfacet
  facet normal 0.9807160849273682 0.19507655818021286 0.01187843479998256
    outer loop
      vertex 3.96029588778518 1.061158084920335 13
      vertex 4.188854539304349 0.5514731621297179 2.5
      vertex 4.081036616071313 1.09351046555815 2.5
    endloop
  endfacet
  facet normal 0.8314109512106245 0.5555310369311036 0.011878434799982556
    outer loop
      vertex 3.252748695194064 2.4959218589357546 13
      vertex 3.658957330989253 2.1125 2.5
      vertex 3.351917862730468 2.5720170375618445 2.5
    endloop
  endfacet
  facet normal 0.8968094661783592 0.44225748626743316 0.011878434799982608
    outer loop
      vertex 3.550704155516198 2.05 13
      vertex 3.903391024860186 1.6168375017425043 2.5
      vertex 3.658957330989253 2.1125 2.5
    endloop
  endfacet
  facet normal 0.6592992975305809 0.7517867643570117 0.011878434799982558
    outer loop
      vertex 2.899137802864845 2.899137802864845 13
      vertex 2.5720170375618445 3.351917862730468 2.5
      vertex 2.4959218589357546 3.252748695194064 13
    endloop
  endfacet
  facet normal 0.7517867643570117 0.6592992975305809 0.011878434799982558
    outer loop
      vertex 2.899137802864845 2.899137802864845 13
      vertex 3.252748695194064 2.4959218589357546 13
      vertex 3.351917862730468 2.5720170375618445 2.5
    endloop
  endfacet
  facet normal 0 0 1
    outer loop
      vertex 0.5351573881022114 -4.064923931632622 13
      vertex 0.5351573881022114 4.064923931632622 13
      vertex 0 4.1 13
    endloop
  endfacet
  facet normal 0 0 1
    outer loop
      vertex 1.061158084920335 -3.96029588778518 13
      vertex 1.061158084920335 3.96029588778518 13
      vertex 0.5351573881022114 4.064923931632622 13
    endloop
  endfacet
  facet normal 0 0 1
    outer loop
      vertex 1.5690020726968679 -3.787906083296275 13
      vertex 1.5690020726968679 3.787906083296275 13
      vertex 1.061158084920335 3.96029588778518 13
    endloop
  endfacet
  facet normal 0 0 1
    outer loop
      vertex 2.05 -3.550704155516198 13
      vertex 2.05 3.550704155516198 13
      vertex 1.5690020726968679 3.787906083296275 13
    endloop
  endfacet
  facet normal 0 0 1
    outer loop
      vertex 2.4959218589357546 -3.252748695194064 13
      vertex 2.4959218589357546 3.252748695194064 13
      vertex 2.05 3.550704155516198 13
    endloop
  endfacet
  facet normal 0 0 1
    outer loop
      vertex 2.899137802864845 -2.899137802864845 13
      vertex 2.899137802864845 2.899137802864845 13
      vertex 2.4959218589357546 3.252748695194064 13
    endloop
  endfacet
  facet normal 0 0 1
    outer loop
      vertex 3.252748695194064 -2.4959218589357546 13
      vertex 3.252748695194064 2.4959218589357546 13
      vertex 2.899137802864845 2.899137802864845 13
    endloop
  endfacet
  facet normal 0.06539851496773542 0.9977885231985371 0.011878434799982634
    outer loop
      vertex 0 4.1 13
      vertex 0.5351573881022114 4.064923931632622 13
      vertex 0.5514731621297179 4.188854539304349 2.5
    endloop
  endfacet
  facet normal 0.19507655818021133 0.9807160849273683 0.011878434799982554
    outer loop
      vertex 0.5351573881022114 4.064923931632622 13
      vertex 1.061158084920335 3.96029588778518 13
      vertex 1.09351046555815 4.081036616071313 2.5
    endloop
  endfacet
  facet normal 0.3214167873967878 0.9468633225372238 0.011878434799982586
    outer loop
      vertex 1.061158084920335 3.96029588778518 13
      vertex 1.5690020726968679 3.787906083296275 13
      vertex 1.6168375017425043 3.903391024860186 2.5
    endloop
  endfacet
  facet normal 0.44225748626743366 0.8968094661783591 0.011878434799982586
    outer loop
      vertex 1.5690020726968679 3.787906083296275 13
      vertex 2.05 3.550704155516198 13
      vertex 1.6168375017425043 3.903391024860186 2.5
    endloop
  endfacet
  facet normal 0.5555310369311028 0.8314109512106249 0.01187843479998261
    outer loop
      vertex 2.05 3.550704155516198 13
      vertex 2.4959218589357546 3.252748695194064 13
      vertex 2.1125 3.658957330989253 2.5
    endloop
  endfacet
  facet normal 0.9468633225372238 0.3214167873967878 0.011878434799982556
    outer loop
      vertex 3.96029588778518 1.061158084920335 13
      vertex 4.081036616071313 1.09351046555815 2.5
      vertex 3.787906083296275 1.5690020726968679 13
    endloop
  endfacet
  facet normal 0.9977885231985371 0.06539851496773542 0.011878434799982634
    outer loop
      vertex 4.1 0 13
      vertex 4.188854539304349 0.5514731621297179 2.5
      vertex 4.064923931632622 0.5351573881022114 13
    endloop
  endfacet
  facet normal 0.9807160849273683 0.19507655818021133 0.011878434799982632
    outer loop
      vertex 4.064923931632622 0.5351573881022114 13
      vertex 4.188854539304349 0.5514731621297179 2.5
      vertex 3.96029588778518 1.061158084920335 13
    endloop
  endfacet
  facet normal 0.8314109512106249 0.5555310369311028 0.01187843479998261
    outer loop
      vertex 3.550704155516198 2.05 13
      vertex 3.658957330989253 2.1125 2.5
      vertex 3.252748695194064 2.4959218589357546 13
    endloop
  endfacet
  facet normal 0.8968094661783591 0.44225748626743366 0.011878434799982584
    outer loop
      vertex 3.550704155516198 2.05 13
      vertex 3.787906083296275 1.5690020726968679 13
      vertex 3.903391024860186 1.6168375017425043 2.5
    endloop
  endfacet
  facet normal 0 0 1
    outer loop
      vertex 4.064923931632622 -0.5351573881022114 13
      vertex 4.064923931632622 0.5351573881022114 13
      vertex 3.96029588778518 1.061158084920335 13
    endloop
  endfacet
  facet normal 0 0 1
    outer loop
      vertex 3.787906083296275 -1.5690020726968679 13
      vertex 3.787906083296275 1.5690020726968679 13
      vertex 3.550704155516198 2.05 13
    endloop
  endfacet
  facet normal 0 0 1
    outer loop
      vertex 3.96029588778518 -1.061158084920335 13
      vertex 3.96029588778518 1.061158084920335 13
      vertex 3.787906083296275 1.5690020726968679 13
    endloop
  endfacet
  facet normal 0 0 1
    outer loop
      vertex 3.550704155516198 -2.05 13
      vertex 3.550704155516198 2.05 13
      vertex 3.252748695194064 2.4959218589357546 13
    endloop
  endfacet
  facet normal 0 0 1
    outer loop
      vertex 4.064923931632622 -0.5351573881022114 13
      vertex 4.1 0 13
      vertex 4.064923931632622 0.5351573881022114 13
    endloop
  endfacet
endsolid OpenSCAD_Model
