solid OpenSCAD_Model
  facet normal -0.442294 0.89687 0
    outer loop
      vertex -2.2961 5.54328 0
      vertex -3 5.19615 5
      vertex -2.2961 5.54328 5
    endloop
  endfacet
  facet normal -0.442294 0.89687 0
    outer loop
      vertex -3 5.19615 5
      vertex -2.2961 5.54328 0
      vertex -3 5.19615 0
    endloop
  endfacet
  facet normal 0.980784 0.195098 0
    outer loop
      vertex 5.94867 0.783156 5
      vertex 5.79555 1.55291 0
      vertex 5.79555 1.55291 5
    endloop
  endfacet
  facet normal 0.980784 0.195098 0
    outer loop
      vertex 5.79555 1.55291 0
      vertex 5.94867 0.783156 5
      vertex 5.94867 0.783156 0
    endloop
  endfacet
  facet normal -0.980784 0.195098 0
    outer loop
      vertex -5.94867 0.783156 0
      vertex -5.79555 1.55291 5
      vertex -5.79555 1.55291 0
    endloop
  endfacet
  facet normal -0.980784 0.195098 0
    outer loop
      vertex -5.79555 1.55291 5
      vertex -5.94867 0.783156 0
      vertex -5.94867 0.783156 5
    endloop
  endfacet
  facet normal 0.946934 0.321429 0
    outer loop
      vertex 5.79555 1.55291 5
      vertex 5.54328 2.2961 0
      vertex 5.54328 2.2961 5
    endloop
  endfacet
  facet normal 0.946934 0.321429 0
    outer loop
      vertex 5.54328 2.2961 0
      vertex 5.79555 1.55291 5
      vertex 5.79555 1.55291 0
    endloop
  endfacet
  facet normal -0.993057 -0.117638 0
    outer loop
      vertex -4.95722 -9.15263 0
      vertex -5.94867 -0.783156 3
      vertex -5.94867 -0.783156 0
    endloop
  endfacet
  facet normal -0.993057 -0.117638 0
    outer loop
      vertex -5.94867 -0.783156 3
      vertex -4.95722 -9.15263 0
      vertex -4.95722 -9.15263 3
    endloop
  endfacet
  facet normal -0.997859 -0.0654022 -0
    outer loop
      vertex -5.94867 -0.783156 3
      vertex -6 0 0
      vertex -5.94867 -0.783156 0
    endloop
  endfacet
  facet normal -0.997859 -0.0654022 0
    outer loop
      vertex -6 0 0
      vertex -5.94867 -0.783156 3
      vertex -6 0 5
    endloop
  endfacet
  facet normal -0.997859 -0.0654022 0
    outer loop
      vertex -6 0 5
      vertex -5.94867 -0.783156 3
      vertex -5.94867 -0.783156 5
    endloop
  endfacet
  facet normal -0.555504 -0.831514 0
    outer loop
      vertex -3.04381 -12.4668 0
      vertex -2.5 -12.8301 3
      vertex -3.04381 -12.4668 3
    endloop
  endfacet
  facet normal -0.555504 -0.831514 -0
    outer loop
      vertex -2.5 -12.8301 3
      vertex -3.04381 -12.4668 0
      vertex -2.5 -12.8301 0
    endloop
  endfacet
  facet normal -0.0654022 0.997859 0
    outer loop
      vertex 0 6 0
      vertex -0.783156 5.94867 5
      vertex 0 6 5
    endloop
  endfacet
  facet normal -0.0654022 0.997859 0
    outer loop
      vertex -0.783156 5.94867 5
      vertex 0 6 0
      vertex -0.783156 5.94867 0
    endloop
  endfacet
  facet normal 0.980787 -0.195081 0
    outer loop
      vertex 4.82963 -9.7941 3
      vertex 4.95722 -9.15263 0
      vertex 4.95722 -9.15263 3
    endloop
  endfacet
  facet normal 0.980787 -0.195081 0
    outer loop
      vertex 4.95722 -9.15263 0
      vertex 4.82963 -9.7941 3
      vertex 4.82963 -9.7941 0
    endloop
  endfacet
  facet normal 0.997859 -0.0654022 0
    outer loop
      vertex 5.94867 -0.783156 3
      vertex 6 0 5
      vertex 5.94867 -0.783156 5
    endloop
  endfacet
  facet normal 0.997859 -0.0654022 0
    outer loop
      vertex 6 0 5
      vertex 5.94867 -0.783156 3
      vertex 6 0 0
    endloop
  endfacet
  facet normal 0.997859 -0.0654022 0
    outer loop
      vertex 6 0 0
      vertex 5.94867 -0.783156 3
      vertex 5.94867 -0.783156 0
    endloop
  endfacet
  facet normal 0.946927 -0.321448 0
    outer loop
      vertex 4.6194 -10.4134 3
      vertex 4.82963 -9.7941 0
      vertex 4.82963 -9.7941 3
    endloop
  endfacet
  facet normal 0.946927 -0.321448 0
    outer loop
      vertex 4.82963 -9.7941 0
      vertex 4.6194 -10.4134 3
      vertex 4.6194 -10.4134 0
    endloop
  endfacet
  facet normal -0.997859 0.0654022 0
    outer loop
      vertex -6 0 0
      vertex -5.94867 0.783156 5
      vertex -5.94867 0.783156 0
    endloop
  endfacet
  facet normal -0.997859 0.0654022 0
    outer loop
      vertex -5.94867 0.783156 5
      vertex -6 0 0
      vertex -6 0 5
    endloop
  endfacet
  facet normal -0.321397 -0.946944 0
    outer loop
      vertex -1.91342 -13.1194 0
      vertex -1.2941 -13.3296 3
      vertex -1.91342 -13.1194 3
    endloop
  endfacet
  facet normal -0.321397 -0.946944 -0
    outer loop
      vertex -1.2941 -13.3296 3
      vertex -1.91342 -13.1194 0
      vertex -1.2941 -13.3296 0
    endloop
  endfacet
  facet normal -0.831472 0.555567 0
    outer loop
      vertex -5.19615 3 0
      vertex -4.76012 3.65257 5
      vertex -4.76012 3.65257 0
    endloop
  endfacet
  facet normal -0.831472 0.555567 0
    outer loop
      vertex -4.76012 3.65257 5
      vertex -5.19615 3 0
      vertex -5.19615 3 5
    endloop
  endfacet
  facet normal 0.442327 -0.896854 0
    outer loop
      vertex 1.91342 -13.1194 0
      vertex 2.5 -12.8301 3
      vertex 1.91342 -13.1194 3
    endloop
  endfacet
  facet normal 0.442327 -0.896854 0
    outer loop
      vertex 2.5 -12.8301 3
      vertex 1.91342 -13.1194 0
      vertex 2.5 -12.8301 0
    endloop
  endfacet
  facet normal -0.0654401 -0.997856 0
    outer loop
      vertex -0.652631 -13.4572 0
      vertex 0 -13.5 3
      vertex -0.652631 -13.4572 3
    endloop
  endfacet
  facet normal -0.0654401 -0.997856 -0
    outer loop
      vertex 0 -13.5 3
      vertex -0.652631 -13.4572 0
      vertex 0 -13.5 0
    endloop
  endfacet
  facet normal 0.89687 0.442294 0
    outer loop
      vertex 5.54328 2.2961 5
      vertex 5.19615 3 0
      vertex 5.19615 3 5
    endloop
  endfacet
  facet normal 0.89687 0.442294 0
    outer loop
      vertex 5.19615 3 0
      vertex 5.54328 2.2961 5
      vertex 5.54328 2.2961 0
    endloop
  endfacet
  facet normal 0.993057 -0.117638 0
    outer loop
      vertex 4.95722 -9.15263 3
      vertex 5.94867 -0.783156 0
      vertex 5.94867 -0.783156 3
    endloop
  endfacet
  facet normal 0.993057 -0.117638 0
    outer loop
      vertex 5.94867 -0.783156 0
      vertex 4.95722 -9.15263 3
      vertex 4.95722 -9.15263 0
    endloop
  endfacet
  facet normal 0.997859 0.0654022 0
    outer loop
      vertex 6 0 5
      vertex 5.94867 0.783156 0
      vertex 5.94867 0.783156 5
    endloop
  endfacet
  facet normal 0.997859 0.0654022 0
    outer loop
      vertex 5.94867 0.783156 0
      vertex 6 0 5
      vertex 6 0 0
    endloop
  endfacet
  facet normal 0.751817 -0.659372 0
    outer loop
      vertex 3.53553 -12.0355 3
      vertex 3.96677 -11.5438 0
      vertex 3.96677 -11.5438 3
    endloop
  endfacet
  facet normal 0.751817 -0.659372 0
    outer loop
      vertex 3.96677 -11.5438 0
      vertex 3.53553 -12.0355 3
      vertex 3.53553 -12.0355 0
    endloop
  endfacet
  facet normal -0.195098 0.980784 0
    outer loop
      vertex -0.783156 5.94867 0
      vertex -1.55291 5.79555 5
      vertex -0.783156 5.94867 5
    endloop
  endfacet
  facet normal -0.195098 0.980784 0
    outer loop
      vertex -1.55291 5.79555 5
      vertex -0.783156 5.94867 0
      vertex -1.55291 5.79555 0
    endloop
  endfacet
  facet normal 0.659409 -0.751784 0
    outer loop
      vertex 3.04381 -12.4668 0
      vertex 3.53553 -12.0355 3
      vertex 3.04381 -12.4668 3
    endloop
  endfacet
  facet normal 0.659409 -0.751784 0
    outer loop
      vertex 3.53553 -12.0355 3
      vertex 3.04381 -12.4668 0
      vertex 3.53553 -12.0355 0
    endloop
  endfacet
  facet normal -0.831466 -0.555575 0
    outer loop
      vertex -3.96677 -11.5438 0
      vertex -4.33013 -11 3
      vertex -4.33013 -11 0
    endloop
  endfacet
  facet normal -0.831466 -0.555575 0
    outer loop
      vertex -4.33013 -11 3
      vertex -3.96677 -11.5438 0
      vertex -3.96677 -11.5438 3
    endloop
  endfacet
  facet normal 0.831472 0.555567 0
    outer loop
      vertex 5.19615 3 5
      vertex 4.76012 3.65257 0
      vertex 4.76012 3.65257 5
    endloop
  endfacet
  facet normal 0.831472 0.555567 0
    outer loop
      vertex 4.76012 3.65257 0
      vertex 5.19615 3 5
      vertex 5.19615 3 0
    endloop
  endfacet
  facet normal 0.195098 0.980784 -0
    outer loop
      vertex 1.55291 5.79555 0
      vertex 0.783156 5.94867 5
      vertex 1.55291 5.79555 5
    endloop
  endfacet
  facet normal 0.195098 0.980784 0
    outer loop
      vertex 0.783156 5.94867 5
      vertex 1.55291 5.79555 0
      vertex 0.783156 5.94867 0
    endloop
  endfacet
  facet normal 0.321397 -0.946944 0
    outer loop
      vertex 1.2941 -13.3296 0
      vertex 1.91342 -13.1194 3
      vertex 1.2941 -13.3296 3
    endloop
  endfacet
  facet normal 0.321397 -0.946944 0
    outer loop
      vertex 1.91342 -13.1194 3
      vertex 1.2941 -13.3296 0
      vertex 1.91342 -13.1194 0
    endloop
  endfacet
  facet normal 0.751838 0.659348 0
    outer loop
      vertex 4.76012 3.65257 5
      vertex 4.24264 4.24264 0
      vertex 4.24264 4.24264 5
    endloop
  endfacet
  facet normal 0.751838 0.659348 0
    outer loop
      vertex 4.24264 4.24264 0
      vertex 4.76012 3.65257 5
      vertex 4.76012 3.65257 0
    endloop
  endfacet
  facet normal 0.321429 0.946934 -0
    outer loop
      vertex 2.2961 5.54328 0
      vertex 1.55291 5.79555 5
      vertex 2.2961 5.54328 5
    endloop
  endfacet
  facet normal 0.321429 0.946934 0
    outer loop
      vertex 1.55291 5.79555 5
      vertex 2.2961 5.54328 0
      vertex 1.55291 5.79555 0
    endloop
  endfacet
  facet normal -0.659348 0.751838 0
    outer loop
      vertex -3.65257 4.76012 0
      vertex -4.24264 4.24264 5
      vertex -3.65257 4.76012 5
    endloop
  endfacet
  facet normal -0.659348 0.751838 0
    outer loop
      vertex -4.24264 4.24264 5
      vertex -3.65257 4.76012 0
      vertex -4.24264 4.24264 0
    endloop
  endfacet
  facet normal 0.555504 -0.831514 0
    outer loop
      vertex 2.5 -12.8301 0
      vertex 3.04381 -12.4668 3
      vertex 2.5 -12.8301 3
    endloop
  endfacet
  facet normal 0.555504 -0.831514 0
    outer loop
      vertex 3.04381 -12.4668 3
      vertex 2.5 -12.8301 0
      vertex 3.04381 -12.4668 0
    endloop
  endfacet
  facet normal 0.0654401 -0.997856 0
    outer loop
      vertex 0 -13.5 0
      vertex 0.652631 -13.4572 3
      vertex 0 -13.5 3
    endloop
  endfacet
  facet normal 0.0654401 -0.997856 0
    outer loop
      vertex 0.652631 -13.4572 3
      vertex 0 -13.5 0
      vertex 0.652631 -13.4572 0
    endloop
  endfacet
  facet normal 0.896878 -0.442277 0
    outer loop
      vertex 4.33013 -11 3
      vertex 4.6194 -10.4134 0
      vertex 4.6194 -10.4134 3
    endloop
  endfacet
  facet normal 0.896878 -0.442277 0
    outer loop
      vertex 4.6194 -10.4134 0
      vertex 4.33013 -11 3
      vertex 4.33013 -11 0
    endloop
  endfacet
  facet normal 0.659348 0.751838 -0
    outer loop
      vertex 4.24264 4.24264 0
      vertex 3.65257 4.76012 5
      vertex 4.24264 4.24264 5
    endloop
  endfacet
  facet normal 0.659348 0.751838 0
    outer loop
      vertex 3.65257 4.76012 5
      vertex 4.24264 4.24264 0
      vertex 3.65257 4.76012 0
    endloop
  endfacet
  facet normal 0.831466 -0.555575 0
    outer loop
      vertex 3.96677 -11.5438 3
      vertex 4.33013 -11 0
      vertex 4.33013 -11 3
    endloop
  endfacet
  facet normal 0.831466 -0.555575 0
    outer loop
      vertex 4.33013 -11 0
      vertex 3.96677 -11.5438 3
      vertex 3.96677 -11.5438 0
    endloop
  endfacet
  facet normal -0.321429 0.946934 0
    outer loop
      vertex -1.55291 5.79555 0
      vertex -2.2961 5.54328 5
      vertex -1.55291 5.79555 5
    endloop
  endfacet
  facet normal -0.321429 0.946934 0
    outer loop
      vertex -2.2961 5.54328 5
      vertex -1.55291 5.79555 0
      vertex -2.2961 5.54328 0
    endloop
  endfacet
  facet normal -0.195096 -0.980784 0
    outer loop
      vertex -1.2941 -13.3296 0
      vertex -0.652631 -13.4572 3
      vertex -1.2941 -13.3296 3
    endloop
  endfacet
  facet normal -0.195096 -0.980784 -0
    outer loop
      vertex -0.652631 -13.4572 3
      vertex -1.2941 -13.3296 0
      vertex -0.652631 -13.4572 0
    endloop
  endfacet
  facet normal -0.946934 0.321429 0
    outer loop
      vertex -5.79555 1.55291 0
      vertex -5.54328 2.2961 5
      vertex -5.54328 2.2961 0
    endloop
  endfacet
  facet normal -0.946934 0.321429 0
    outer loop
      vertex -5.54328 2.2961 5
      vertex -5.79555 1.55291 0
      vertex -5.79555 1.55291 5
    endloop
  endfacet
  facet normal -0.89687 0.442294 0
    outer loop
      vertex -5.54328 2.2961 0
      vertex -5.19615 3 5
      vertex -5.19615 3 0
    endloop
  endfacet
  facet normal -0.89687 0.442294 0
    outer loop
      vertex -5.19615 3 5
      vertex -5.54328 2.2961 0
      vertex -5.54328 2.2961 5
    endloop
  endfacet
  facet normal 0.442294 0.89687 -0
    outer loop
      vertex 3 5.19615 0
      vertex 2.2961 5.54328 5
      vertex 3 5.19615 5
    endloop
  endfacet
  facet normal 0.442294 0.89687 0
    outer loop
      vertex 2.2961 5.54328 5
      vertex 3 5.19615 0
      vertex 2.2961 5.54328 0
    endloop
  endfacet
  facet normal 0.195096 -0.980784 0
    outer loop
      vertex 0.652631 -13.4572 0
      vertex 1.2941 -13.3296 3
      vertex 0.652631 -13.4572 3
    endloop
  endfacet
  facet normal 0.195096 -0.980784 0
    outer loop
      vertex 1.2941 -13.3296 3
      vertex 0.652631 -13.4572 0
      vertex 1.2941 -13.3296 0
    endloop
  endfacet
  facet normal -0.980787 -0.195081 0
    outer loop
      vertex -4.82963 -9.7941 0
      vertex -4.95722 -9.15263 3
      vertex -4.95722 -9.15263 0
    endloop
  endfacet
  facet normal -0.980787 -0.195081 0
    outer loop
      vertex -4.95722 -9.15263 3
      vertex -4.82963 -9.7941 0
      vertex -4.82963 -9.7941 3
    endloop
  endfacet
  facet normal -0.946927 -0.321448 0
    outer loop
      vertex -4.6194 -10.4134 0
      vertex -4.82963 -9.7941 3
      vertex -4.82963 -9.7941 0
    endloop
  endfacet
  facet normal -0.946927 -0.321448 0
    outer loop
      vertex -4.82963 -9.7941 3
      vertex -4.6194 -10.4134 0
      vertex -4.6194 -10.4134 3
    endloop
  endfacet
  facet normal -0.442327 -0.896854 0
    outer loop
      vertex -2.5 -12.8301 0
      vertex -1.91342 -13.1194 3
      vertex -2.5 -12.8301 3
    endloop
  endfacet
  facet normal -0.442327 -0.896854 -0
    outer loop
      vertex -1.91342 -13.1194 3
      vertex -2.5 -12.8301 0
      vertex -1.91342 -13.1194 0
    endloop
  endfacet
  facet normal -0.751817 -0.659372 0
    outer loop
      vertex -3.53553 -12.0355 0
      vertex -3.96677 -11.5438 3
      vertex -3.96677 -11.5438 0
    endloop
  endfacet
  facet normal -0.751817 -0.659372 0
    outer loop
      vertex -3.96677 -11.5438 3
      vertex -3.53553 -12.0355 0
      vertex -3.53553 -12.0355 3
    endloop
  endfacet
  facet normal -0.659409 -0.751784 0
    outer loop
      vertex -3.53553 -12.0355 0
      vertex -3.04381 -12.4668 3
      vertex -3.53553 -12.0355 3
    endloop
  endfacet
  facet normal -0.659409 -0.751784 -0
    outer loop
      vertex -3.04381 -12.4668 3
      vertex -3.53553 -12.0355 0
      vertex -3.04381 -12.4668 0
    endloop
  endfacet
  facet normal -0.751838 0.659348 0
    outer loop
      vertex -4.76012 3.65257 0
      vertex -4.24264 4.24264 5
      vertex -4.24264 4.24264 0
    endloop
  endfacet
  facet normal -0.751838 0.659348 0
    outer loop
      vertex -4.24264 4.24264 5
      vertex -4.76012 3.65257 0
      vertex -4.76012 3.65257 5
    endloop
  endfacet
  facet normal -0.555567 0.831472 0
    outer loop
      vertex -3 5.19615 0
      vertex -3.65257 4.76012 5
      vertex -3 5.19615 5
    endloop
  endfacet
  facet normal -0.555567 0.831472 0
    outer loop
      vertex -3.65257 4.76012 5
      vertex -3 5.19615 0
      vertex -3.65257 4.76012 0
    endloop
  endfacet
  facet normal -0.896878 -0.442277 0
    outer loop
      vertex -4.33013 -11 0
      vertex -4.6194 -10.4134 3
      vertex -4.6194 -10.4134 0
    endloop
  endfacet
  facet normal -0.896878 -0.442277 0
    outer loop
      vertex -4.6194 -10.4134 3
      vertex -4.33013 -11 0
      vertex -4.33013 -11 3
    endloop
  endfacet
  facet normal 0.555567 0.831472 -0
    outer loop
      vertex 3.65257 4.76012 0
      vertex 3 5.19615 5
      vertex 3.65257 4.76012 5
    endloop
  endfacet
  facet normal 0.555567 0.831472 0
    outer loop
      vertex 3 5.19615 5
      vertex 3.65257 4.76012 0
      vertex 3 5.19615 0
    endloop
  endfacet
  facet normal -0 0 1
    outer loop
      vertex 5.79555 -1.55291 3
      vertex 4.95722 -9.15263 3
      vertex 5.94867 -0.783156 3
    endloop
  endfacet
  facet normal -0 0 1
    outer loop
      vertex 5.54328 -2.2961 3
      vertex 4.95722 -9.15263 3
      vertex 5.79555 -1.55291 3
    endloop
  endfacet
  facet normal -0 0 1
    outer loop
      vertex 5.19615 -3 3
      vertex 4.95722 -9.15263 3
      vertex 5.54328 -2.2961 3
    endloop
  endfacet
  facet normal -0 0 1
    outer loop
      vertex 4.76012 -3.65257 3
      vertex 4.95722 -9.15263 3
      vertex 5.19615 -3 3
    endloop
  endfacet
  facet normal -0 0 1
    outer loop
      vertex 4.24264 -4.24264 3
      vertex 4.95722 -9.15263 3
      vertex 4.76012 -3.65257 3
    endloop
  endfacet
  facet normal -0 0 1
    outer loop
      vertex 3.65257 -4.76012 3
      vertex 4.95722 -9.15263 3
      vertex 4.24264 -4.24264 3
    endloop
  endfacet
  facet normal -0 0 1
    outer loop
      vertex 3 -5.19615 3
      vertex 4.95722 -9.15263 3
      vertex 3.65257 -4.76012 3
    endloop
  endfacet
  facet normal -0 0 1
    outer loop
      vertex 2.2961 -5.54328 3
      vertex 4.95722 -9.15263 3
      vertex 3 -5.19615 3
    endloop
  endfacet
  facet normal -0 0 1
    outer loop
      vertex 1.55291 -5.79555 3
      vertex 4.95722 -9.15263 3
      vertex 2.2961 -5.54328 3
    endloop
  endfacet
  facet normal 0 0 1
    outer loop
      vertex 4.95722 -9.15263 3
      vertex 1.55291 -5.79555 3
      vertex 4.82963 -9.7941 3
    endloop
  endfacet
  facet normal -0 0 1
    outer loop
      vertex 0.783156 -5.94867 3
      vertex 4.82963 -9.7941 3
      vertex 1.55291 -5.79555 3
    endloop
  endfacet
  facet normal 0 0 1
    outer loop
      vertex 4.82963 -9.7941 3
      vertex 0.783156 -5.94867 3
      vertex 4.6194 -10.4134 3
    endloop
  endfacet
  facet normal 0 0 1
    outer loop
      vertex 4.6194 -10.4134 3
      vertex 0.783156 -5.94867 3
      vertex 4.33013 -11 3
    endloop
  endfacet
  facet normal 0 0 1
    outer loop
      vertex 4.33013 -11 3
      vertex 0.783156 -5.94867 3
      vertex 3.96677 -11.5438 3
    endloop
  endfacet
  facet normal 0 0 1
    outer loop
      vertex 3.96677 -11.5438 3
      vertex 0.783156 -5.94867 3
      vertex 3.53553 -12.0355 3
    endloop
  endfacet
  facet normal 0 0 1
    outer loop
      vertex 3.53553 -12.0355 3
      vertex 0.783156 -5.94867 3
      vertex 3.04381 -12.4668 3
    endloop
  endfacet
  facet normal 0 0 1
    outer loop
      vertex 3.04381 -12.4668 3
      vertex 0.783156 -5.94867 3
      vertex 2.5 -12.8301 3
    endloop
  endfacet
  facet normal -0 0 1
    outer loop
      vertex 0 -6 3
      vertex 2.5 -12.8301 3
      vertex 0.783156 -5.94867 3
    endloop
  endfacet
  facet normal 0 0 1
    outer loop
      vertex 2.5 -12.8301 3
      vertex 0 -6 3
      vertex 1.91342 -13.1194 3
    endloop
  endfacet
  facet normal 0 0 1
    outer loop
      vertex 1.91342 -13.1194 3
      vertex 0 -6 3
      vertex 1.2941 -13.3296 3
    endloop
  endfacet
  facet normal 0 0 1
    outer loop
      vertex 1.2941 -13.3296 3
      vertex 0 -6 3
      vertex 0.652631 -13.4572 3
    endloop
  endfacet
  facet normal 0 0 1
    outer loop
      vertex 0 -6 3
      vertex 0 -13.5 3
      vertex 0.652631 -13.4572 3
    endloop
  endfacet
  facet normal 0 0 1
    outer loop
      vertex 0 -6 3
      vertex -0.652631 -13.4572 3
      vertex 0 -13.5 3
    endloop
  endfacet
  facet normal 0 0 1
    outer loop
      vertex -2.5 -12.8301 3
      vertex 0 -6 3
      vertex -0.783156 -5.94867 3
    endloop
  endfacet
  facet normal 0 0 1
    outer loop
      vertex 0 -6 3
      vertex -1.2941 -13.3296 3
      vertex -0.652631 -13.4572 3
    endloop
  endfacet
  facet normal 0 0 1
    outer loop
      vertex -4.82963 -9.7941 3
      vertex -0.783156 -5.94867 3
      vertex -1.55291 -5.79555 3
    endloop
  endfacet
  facet normal 0 0 1
    outer loop
      vertex 0 -6 3
      vertex -1.91342 -13.1194 3
      vertex -1.2941 -13.3296 3
    endloop
  endfacet
  facet normal 0 0 1
    outer loop
      vertex -4.95722 -9.15263 3
      vertex -1.55291 -5.79555 3
      vertex -2.2961 -5.54328 3
    endloop
  endfacet
  facet normal 0 0 1
    outer loop
      vertex 0 -6 3
      vertex -2.5 -12.8301 3
      vertex -1.91342 -13.1194 3
    endloop
  endfacet
  facet normal 0 0 1
    outer loop
      vertex -4.95722 -9.15263 3
      vertex -2.2961 -5.54328 3
      vertex -3 -5.19615 3
    endloop
  endfacet
  facet normal 0 0 1
    outer loop
      vertex -0.783156 -5.94867 3
      vertex -3.04381 -12.4668 3
      vertex -2.5 -12.8301 3
    endloop
  endfacet
  facet normal 0 0 1
    outer loop
      vertex -0.783156 -5.94867 3
      vertex -3.53553 -12.0355 3
      vertex -3.04381 -12.4668 3
    endloop
  endfacet
  facet normal 0 0 1
    outer loop
      vertex -4.95722 -9.15263 3
      vertex -3 -5.19615 3
      vertex -3.65257 -4.76012 3
    endloop
  endfacet
  facet normal 0 0 1
    outer loop
      vertex -1.55291 -5.79555 3
      vertex -4.95722 -9.15263 3
      vertex -4.82963 -9.7941 3
    endloop
  endfacet
  facet normal 0 0 1
    outer loop
      vertex -4.95722 -9.15263 3
      vertex -3.65257 -4.76012 3
      vertex -4.24264 -4.24264 3
    endloop
  endfacet
  facet normal 0 0 1
    outer loop
      vertex -0.783156 -5.94867 3
      vertex -3.96677 -11.5438 3
      vertex -3.53553 -12.0355 3
    endloop
  endfacet
  facet normal 0 0 1
    outer loop
      vertex -0.783156 -5.94867 3
      vertex -4.33013 -11 3
      vertex -3.96677 -11.5438 3
    endloop
  endfacet
  facet normal 0 0 1
    outer loop
      vertex -4.95722 -9.15263 3
      vertex -4.24264 -4.24264 3
      vertex -4.76012 -3.65257 3
    endloop
  endfacet
  facet normal 0 0 1
    outer loop
      vertex -0.783156 -5.94867 3
      vertex -4.6194 -10.4134 3
      vertex -4.33013 -11 3
    endloop
  endfacet
  facet normal 0 0 1
    outer loop
      vertex -0.783156 -5.94867 3
      vertex -4.82963 -9.7941 3
      vertex -4.6194 -10.4134 3
    endloop
  endfacet
  facet normal 0 0 1
    outer loop
      vertex -5.19615 -3 3
      vertex -4.95722 -9.15263 3
      vertex -4.76012 -3.65257 3
    endloop
  endfacet
  facet normal 0 0 1
    outer loop
      vertex -5.54328 -2.2961 3
      vertex -4.95722 -9.15263 3
      vertex -5.19615 -3 3
    endloop
  endfacet
  facet normal 0 0 1
    outer loop
      vertex -5.79555 -1.55291 3
      vertex -4.95722 -9.15263 3
      vertex -5.54328 -2.2961 3
    endloop
  endfacet
  facet normal 0 0 1
    outer loop
      vertex -4.95722 -9.15263 3
      vertex -5.79555 -1.55291 3
      vertex -5.94867 -0.783156 3
    endloop
  endfacet
  facet normal 0.0654022 0.997859 -0
    outer loop
      vertex 0.783156 5.94867 0
      vertex 0 6 5
      vertex 0.783156 5.94867 5
    endloop
  endfacet
  facet normal 0.0654022 0.997859 0
    outer loop
      vertex 0 6 5
      vertex 0.783156 5.94867 0
      vertex 0 6 0
    endloop
  endfacet
  facet normal 0 0 -1
    outer loop
      vertex 5.94867 -0.783156 0
      vertex 2.3299 -0.306736 0
      vertex 2.35 0 0
    endloop
  endfacet
  facet normal 0 0 -1
    outer loop
      vertex 4.95722 -9.15263 0
      vertex 2.26993 -0.608224 0
      vertex 2.3299 -0.306736 0
    endloop
  endfacet
  facet normal 0 0 -1
    outer loop
      vertex 4.95722 -9.15263 0
      vertex 2.17112 -0.899305 0
      vertex 2.26993 -0.608224 0
    endloop
  endfacet
  facet normal 0 0 -1
    outer loop
      vertex 4.95722 -9.15263 0
      vertex 2.03516 -1.175 0
      vertex 2.17112 -0.899305 0
    endloop
  endfacet
  facet normal 0 0 -1
    outer loop
      vertex -4.95722 -9.15263 0
      vertex 2.5 -12.8301 0
      vertex 1.91342 -13.1194 0
    endloop
  endfacet
  facet normal 0 0 -1
    outer loop
      vertex 4.95722 -9.15263 0
      vertex 1.86438 -1.43059 0
      vertex 2.03516 -1.175 0
    endloop
  endfacet
  facet normal 0 0 -1
    outer loop
      vertex 4.95722 -9.15263 0
      vertex 1.6617 -1.6617 0
      vertex 1.86438 -1.43059 0
    endloop
  endfacet
  facet normal 0 0 -1
    outer loop
      vertex 4.95722 -9.15263 0
      vertex 1.43059 -1.86438 0
      vertex 1.6617 -1.6617 0
    endloop
  endfacet
  facet normal 0 0 -1
    outer loop
      vertex -4.95722 -9.15263 0
      vertex 1.91342 -13.1194 0
      vertex 1.2941 -13.3296 0
    endloop
  endfacet
  facet normal 0 0 -1
    outer loop
      vertex 4.95722 -9.15263 0
      vertex 1.175 -2.03516 0
      vertex 1.43059 -1.86438 0
    endloop
  endfacet
  facet normal 0 0 -1
    outer loop
      vertex 4.95722 -9.15263 0
      vertex 0.899305 -2.17112 0
      vertex 1.175 -2.03516 0
    endloop
  endfacet
  facet normal 0 0 -1
    outer loop
      vertex -4.95722 -9.15263 0
      vertex 1.2941 -13.3296 0
      vertex 0.652631 -13.4572 0
    endloop
  endfacet
  facet normal 0 0 -1
    outer loop
      vertex 4.95722 -9.15263 0
      vertex 0.608224 -2.26993 0
      vertex 0.899305 -2.17112 0
    endloop
  endfacet
  facet normal 0 0 -1
    outer loop
      vertex 4.95722 -9.15263 0
      vertex 0.306736 -2.3299 0
      vertex 0.608224 -2.26993 0
    endloop
  endfacet
  facet normal 0 0 -1
    outer loop
      vertex -4.95722 -9.15263 0
      vertex 0.652631 -13.4572 0
      vertex 0 -13.5 0
    endloop
  endfacet
  facet normal 0 0 -1
    outer loop
      vertex 4.95722 -9.15263 0
      vertex 0 -2.35 0
      vertex 0.306736 -2.3299 0
    endloop
  endfacet
  facet normal 0 0 -1
    outer loop
      vertex 4.95722 -9.15263 0
      vertex -4.95722 -9.15263 0
      vertex 0 -2.35 0
    endloop
  endfacet
  facet normal -0 0 -1
    outer loop
      vertex 0 -2.35 0
      vertex -4.95722 -9.15263 0
      vertex -0.306736 -2.3299 0
    endloop
  endfacet
  facet normal 0 0 -1
    outer loop
      vertex -4.95722 -9.15263 0
      vertex 0 -13.5 0
      vertex -0.652631 -13.4572 0
    endloop
  endfacet
  facet normal -0 0 -1
    outer loop
      vertex -0.306736 -2.3299 0
      vertex -4.95722 -9.15263 0
      vertex -0.608224 -2.26993 0
    endloop
  endfacet
  facet normal -0 0 -1
    outer loop
      vertex -0.608224 -2.26993 0
      vertex -4.95722 -9.15263 0
      vertex -0.899305 -2.17112 0
    endloop
  endfacet
  facet normal 0 0 -1
    outer loop
      vertex -4.95722 -9.15263 0
      vertex -0.652631 -13.4572 0
      vertex -1.2941 -13.3296 0
    endloop
  endfacet
  facet normal -0 0 -1
    outer loop
      vertex -0.899305 -2.17112 0
      vertex -4.95722 -9.15263 0
      vertex -1.175 -2.03516 0
    endloop
  endfacet
  facet normal -0 0 -1
    outer loop
      vertex -1.175 -2.03516 0
      vertex -4.95722 -9.15263 0
      vertex -1.43059 -1.86438 0
    endloop
  endfacet
  facet normal -0 0 -1
    outer loop
      vertex -1.43059 -1.86438 0
      vertex -4.95722 -9.15263 0
      vertex -1.6617 -1.6617 0
    endloop
  endfacet
  facet normal 0 0 -1
    outer loop
      vertex -4.95722 -9.15263 0
      vertex -1.2941 -13.3296 0
      vertex -1.91342 -13.1194 0
    endloop
  endfacet
  facet normal 0 0 -1
    outer loop
      vertex -5.94867 -0.783156 0
      vertex -1.6617 -1.6617 0
      vertex -4.95722 -9.15263 0
    endloop
  endfacet
  facet normal 0 0 -1
    outer loop
      vertex -1.6617 -1.6617 0
      vertex -5.94867 -0.783156 0
      vertex -1.86438 -1.43059 0
    endloop
  endfacet
  facet normal 0 0 -1
    outer loop
      vertex -1.86438 -1.43059 0
      vertex -5.94867 -0.783156 0
      vertex -2.03516 -1.175 0
    endloop
  endfacet
  facet normal 0 0 -1
    outer loop
      vertex -2.03516 -1.175 0
      vertex -5.94867 -0.783156 0
      vertex -2.17112 -0.899305 0
    endloop
  endfacet
  facet normal 0 0 -1
    outer loop
      vertex -2.17112 -0.899305 0
      vertex -5.94867 -0.783156 0
      vertex -2.26993 -0.608224 0
    endloop
  endfacet
  facet normal 0 0 -1
    outer loop
      vertex -4.95722 -9.15263 0
      vertex -1.91342 -13.1194 0
      vertex -2.5 -12.8301 0
    endloop
  endfacet
  facet normal 0 0 -1
    outer loop
      vertex 2.35 0 0
      vertex 6 0 0
      vertex 5.94867 -0.783156 0
    endloop
  endfacet
  facet normal 0 0 -1
    outer loop
      vertex 6 0 0
      vertex 2.35 0 0
      vertex 5.94867 0.783156 0
    endloop
  endfacet
  facet normal -0 0 -1
    outer loop
      vertex 5.94867 0.783156 0
      vertex 2.3299 0.306736 0
      vertex 5.79555 1.55291 0
    endloop
  endfacet
  facet normal 0 0 -1
    outer loop
      vertex 2.26993 0.608224 0
      vertex 5.79555 1.55291 0
      vertex 2.3299 0.306736 0
    endloop
  endfacet
  facet normal 0 0 -1
    outer loop
      vertex 2.3299 -0.306736 0
      vertex 5.94867 -0.783156 0
      vertex 4.95722 -9.15263 0
    endloop
  endfacet
  facet normal 0 0 -1
    outer loop
      vertex 2.5 -12.8301 0
      vertex 4.95722 -9.15263 0
      vertex 4.82963 -9.7941 0
    endloop
  endfacet
  facet normal 0 0 -1
    outer loop
      vertex 5.94867 0.783156 0
      vertex 2.35 0 0
      vertex 2.3299 0.306736 0
    endloop
  endfacet
  facet normal 0 0 -1
    outer loop
      vertex 2.5 -12.8301 0
      vertex 4.82963 -9.7941 0
      vertex 4.6194 -10.4134 0
    endloop
  endfacet
  facet normal 0 0 -1
    outer loop
      vertex 2.5 -12.8301 0
      vertex 4.6194 -10.4134 0
      vertex 4.33013 -11 0
    endloop
  endfacet
  facet normal -0 0 -1
    outer loop
      vertex 5.79555 1.55291 0
      vertex 2.26993 0.608224 0
      vertex 5.54328 2.2961 0
    endloop
  endfacet
  facet normal 0 0 -1
    outer loop
      vertex 2.5 -12.8301 0
      vertex 4.33013 -11 0
      vertex 3.96677 -11.5438 0
    endloop
  endfacet
  facet normal 0 0 -1
    outer loop
      vertex 2.17112 0.899305 0
      vertex 5.54328 2.2961 0
      vertex 2.26993 0.608224 0
    endloop
  endfacet
  facet normal 0 0 -1
    outer loop
      vertex 2.5 -12.8301 0
      vertex 3.96677 -11.5438 0
      vertex 3.53553 -12.0355 0
    endloop
  endfacet
  facet normal 0 0 -1
    outer loop
      vertex 2.5 -12.8301 0
      vertex 3.53553 -12.0355 0
      vertex 3.04381 -12.4668 0
    endloop
  endfacet
  facet normal -0 0 -1
    outer loop
      vertex 5.54328 2.2961 0
      vertex 2.17112 0.899305 0
      vertex 5.19615 3 0
    endloop
  endfacet
  facet normal 0 0 -1
    outer loop
      vertex -4.95722 -9.15263 0
      vertex 4.95722 -9.15263 0
      vertex 2.5 -12.8301 0
    endloop
  endfacet
  facet normal 0 0 -1
    outer loop
      vertex 2.03516 1.175 0
      vertex 5.19615 3 0
      vertex 2.17112 0.899305 0
    endloop
  endfacet
  facet normal -0 0 -1
    outer loop
      vertex 5.19615 3 0
      vertex 2.03516 1.175 0
      vertex 4.76012 3.65257 0
    endloop
  endfacet
  facet normal 0 0 -1
    outer loop
      vertex 1.86438 1.43059 0
      vertex 4.76012 3.65257 0
      vertex 2.03516 1.175 0
    endloop
  endfacet
  facet normal -0 0 -1
    outer loop
      vertex 4.76012 3.65257 0
      vertex 1.86438 1.43059 0
      vertex 4.24264 4.24264 0
    endloop
  endfacet
  facet normal 0 0 -1
    outer loop
      vertex 1.6617 1.6617 0
      vertex 4.24264 4.24264 0
      vertex 1.86438 1.43059 0
    endloop
  endfacet
  facet normal -0 0 -1
    outer loop
      vertex 4.24264 4.24264 0
      vertex 1.6617 1.6617 0
      vertex 3.65257 4.76012 0
    endloop
  endfacet
  facet normal 0 0 -1
    outer loop
      vertex 1.43059 1.86438 0
      vertex 3.65257 4.76012 0
      vertex 1.6617 1.6617 0
    endloop
  endfacet
  facet normal -0 0 -1
    outer loop
      vertex 3.65257 4.76012 0
      vertex 1.43059 1.86438 0
      vertex 3 5.19615 0
    endloop
  endfacet
  facet normal 0 0 -1
    outer loop
      vertex 1.175 2.03516 0
      vertex 3 5.19615 0
      vertex 1.43059 1.86438 0
    endloop
  endfacet
  facet normal -0 0 -1
    outer loop
      vertex 3 5.19615 0
      vertex 1.175 2.03516 0
      vertex 2.2961 5.54328 0
    endloop
  endfacet
  facet normal 0 0 -1
    outer loop
      vertex 0.899305 2.17112 0
      vertex 2.2961 5.54328 0
      vertex 1.175 2.03516 0
    endloop
  endfacet
  facet normal -0 0 -1
    outer loop
      vertex 2.2961 5.54328 0
      vertex 0.899305 2.17112 0
      vertex 1.55291 5.79555 0
    endloop
  endfacet
  facet normal 0 0 -1
    outer loop
      vertex 0.608224 2.26993 0
      vertex 1.55291 5.79555 0
      vertex 0.899305 2.17112 0
    endloop
  endfacet
  facet normal -0 0 -1
    outer loop
      vertex 1.55291 5.79555 0
      vertex 0.608224 2.26993 0
      vertex 0.783156 5.94867 0
    endloop
  endfacet
  facet normal 0 0 -1
    outer loop
      vertex 0.306736 2.3299 0
      vertex 0.783156 5.94867 0
      vertex 0.608224 2.26993 0
    endloop
  endfacet
  facet normal 0 0 -1
    outer loop
      vertex 0 2.35 0
      vertex 0.783156 5.94867 0
      vertex 0.306736 2.3299 0
    endloop
  endfacet
  facet normal 0 0 -1
    outer loop
      vertex 0 2.35 0
      vertex 0 6 0
      vertex 0.783156 5.94867 0
    endloop
  endfacet
  facet normal 0 0 -1
    outer loop
      vertex -0.306736 2.3299 0
      vertex 0 6 0
      vertex 0 2.35 0
    endloop
  endfacet
  facet normal 0 0 -1
    outer loop
      vertex -0.783156 5.94867 0
      vertex -0.306736 2.3299 0
      vertex -0.608224 2.26993 0
    endloop
  endfacet
  facet normal 0 0 -1
    outer loop
      vertex -0.306736 2.3299 0
      vertex -0.783156 5.94867 0
      vertex 0 6 0
    endloop
  endfacet
  facet normal 0 0 -1
    outer loop
      vertex -1.55291 5.79555 0
      vertex -0.608224 2.26993 0
      vertex -0.899305 2.17112 0
    endloop
  endfacet
  facet normal 0 0 -1
    outer loop
      vertex -2.2961 5.54328 0
      vertex -0.899305 2.17112 0
      vertex -1.175 2.03516 0
    endloop
  endfacet
  facet normal 0 0 -1
    outer loop
      vertex -3 5.19615 0
      vertex -1.175 2.03516 0
      vertex -1.43059 1.86438 0
    endloop
  endfacet
  facet normal 0 0 -1
    outer loop
      vertex -0.608224 2.26993 0
      vertex -1.55291 5.79555 0
      vertex -0.783156 5.94867 0
    endloop
  endfacet
  facet normal 0 0 -1
    outer loop
      vertex -3.65257 4.76012 0
      vertex -1.43059 1.86438 0
      vertex -1.6617 1.6617 0
    endloop
  endfacet
  facet normal 0 0 -1
    outer loop
      vertex -4.24264 4.24264 0
      vertex -1.6617 1.6617 0
      vertex -1.86438 1.43059 0
    endloop
  endfacet
  facet normal 0 0 -1
    outer loop
      vertex -4.76012 3.65257 0
      vertex -1.86438 1.43059 0
      vertex -2.03516 1.175 0
    endloop
  endfacet
  facet normal 0 0 -1
    outer loop
      vertex -5.19615 3 0
      vertex -2.03516 1.175 0
      vertex -2.17112 0.899305 0
    endloop
  endfacet
  facet normal 0 0 -1
    outer loop
      vertex -5.54328 2.2961 0
      vertex -2.17112 0.899305 0
      vertex -2.26993 0.608224 0
    endloop
  endfacet
  facet normal 0 0 -1
    outer loop
      vertex -0.899305 2.17112 0
      vertex -2.2961 5.54328 0
      vertex -1.55291 5.79555 0
    endloop
  endfacet
  facet normal 0 0 -1
    outer loop
      vertex -5.79555 1.55291 0
      vertex -2.26993 0.608224 0
      vertex -2.3299 0.306736 0
    endloop
  endfacet
  facet normal 0 0 -1
    outer loop
      vertex -5.94867 0.783156 0
      vertex -2.3299 0.306736 0
      vertex -2.35 0 0
    endloop
  endfacet
  facet normal -0 0 -1
    outer loop
      vertex -2.26993 -0.608224 0
      vertex -5.94867 -0.783156 0
      vertex -2.3299 -0.306736 0
    endloop
  endfacet
  facet normal -0 0 -1
    outer loop
      vertex -2.3299 -0.306736 0
      vertex -5.94867 -0.783156 0
      vertex -2.35 0 0
    endloop
  endfacet
  facet normal 0 0 -1
    outer loop
      vertex -4.95722 -9.15263 0
      vertex -2.5 -12.8301 0
      vertex -3.04381 -12.4668 0
    endloop
  endfacet
  facet normal 0 0 -1
    outer loop
      vertex -4.95722 -9.15263 0
      vertex -3.04381 -12.4668 0
      vertex -3.53553 -12.0355 0
    endloop
  endfacet
  facet normal 0 0 -1
    outer loop
      vertex -6 0 0
      vertex -2.35 0 0
      vertex -5.94867 -0.783156 0
    endloop
  endfacet
  facet normal 0 0 -1
    outer loop
      vertex -4.95722 -9.15263 0
      vertex -3.53553 -12.0355 0
      vertex -3.96677 -11.5438 0
    endloop
  endfacet
  facet normal 0 0 -1
    outer loop
      vertex -1.175 2.03516 0
      vertex -3 5.19615 0
      vertex -2.2961 5.54328 0
    endloop
  endfacet
  facet normal 0 0 -1
    outer loop
      vertex -4.95722 -9.15263 0
      vertex -3.96677 -11.5438 0
      vertex -4.33013 -11 0
    endloop
  endfacet
  facet normal 0 0 -1
    outer loop
      vertex -4.95722 -9.15263 0
      vertex -4.33013 -11 0
      vertex -4.6194 -10.4134 0
    endloop
  endfacet
  facet normal 0 0 -1
    outer loop
      vertex -1.43059 1.86438 0
      vertex -3.65257 4.76012 0
      vertex -3 5.19615 0
    endloop
  endfacet
  facet normal 0 0 -1
    outer loop
      vertex -4.95722 -9.15263 0
      vertex -4.6194 -10.4134 0
      vertex -4.82963 -9.7941 0
    endloop
  endfacet
  facet normal 0 0 -1
    outer loop
      vertex -1.6617 1.6617 0
      vertex -4.24264 4.24264 0
      vertex -3.65257 4.76012 0
    endloop
  endfacet
  facet normal 0 0 -1
    outer loop
      vertex -1.86438 1.43059 0
      vertex -4.76012 3.65257 0
      vertex -4.24264 4.24264 0
    endloop
  endfacet
  facet normal 0 0 -1
    outer loop
      vertex -2.03516 1.175 0
      vertex -5.19615 3 0
      vertex -4.76012 3.65257 0
    endloop
  endfacet
  facet normal 0 0 -1
    outer loop
      vertex -2.17112 0.899305 0
      vertex -5.54328 2.2961 0
      vertex -5.19615 3 0
    endloop
  endfacet
  facet normal 0 0 -1
    outer loop
      vertex -2.26993 0.608224 0
      vertex -5.79555 1.55291 0
      vertex -5.54328 2.2961 0
    endloop
  endfacet
  facet normal 0 0 -1
    outer loop
      vertex -2.3299 0.306736 0
      vertex -5.94867 0.783156 0
      vertex -5.79555 1.55291 0
    endloop
  endfacet
  facet normal 0 0 -1
    outer loop
      vertex -2.35 0 0
      vertex -6 0 0
      vertex -5.94867 0.783156 0
    endloop
  endfacet
  facet normal -0.659348 -0.751838 0
    outer loop
      vertex -4.24264 -4.24264 3
      vertex -3.65257 -4.76012 5
      vertex -4.24264 -4.24264 5
    endloop
  endfacet
  facet normal -0.659348 -0.751838 -0
    outer loop
      vertex -3.65257 -4.76012 5
      vertex -4.24264 -4.24264 3
      vertex -3.65257 -4.76012 3
    endloop
  endfacet
  facet normal 0.751838 -0.659348 0
    outer loop
      vertex 4.24264 -4.24264 5
      vertex 4.76012 -3.65257 3
      vertex 4.76012 -3.65257 5
    endloop
  endfacet
  facet normal 0.751838 -0.659348 0
    outer loop
      vertex 4.76012 -3.65257 3
      vertex 4.24264 -4.24264 5
      vertex 4.24264 -4.24264 3
    endloop
  endfacet
  facet normal 0 0 1
    outer loop
      vertex 2.35 0 5
      vertex 6 0 5
      vertex 5.94867 0.783156 5
    endloop
  endfacet
  facet normal 0 0 1
    outer loop
      vertex 2.3299 0.306736 5
      vertex 5.94867 0.783156 5
      vertex 5.79555 1.55291 5
    endloop
  endfacet
  facet normal 0 0 1
    outer loop
      vertex 6 0 5
      vertex 2.35 0 5
      vertex 5.94867 -0.783156 5
    endloop
  endfacet
  facet normal 0 0 1
    outer loop
      vertex 2.26993 0.608224 5
      vertex 5.79555 1.55291 5
      vertex 5.54328 2.2961 5
    endloop
  endfacet
  facet normal -0 0 1
    outer loop
      vertex 2.3299 -0.306736 5
      vertex 5.94867 -0.783156 5
      vertex 2.35 0 5
    endloop
  endfacet
  facet normal 0 0 1
    outer loop
      vertex 2.17112 0.899305 5
      vertex 5.54328 2.2961 5
      vertex 5.19615 3 5
    endloop
  endfacet
  facet normal 0 0 1
    outer loop
      vertex 5.94867 -0.783156 5
      vertex 2.3299 -0.306736 5
      vertex 5.79555 -1.55291 5
    endloop
  endfacet
  facet normal 0 0 1
    outer loop
      vertex 2.03516 1.175 5
      vertex 5.19615 3 5
      vertex 4.76012 3.65257 5
    endloop
  endfacet
  facet normal -0 0 1
    outer loop
      vertex 2.26993 -0.608224 5
      vertex 5.79555 -1.55291 5
      vertex 2.3299 -0.306736 5
    endloop
  endfacet
  facet normal 0 0 1
    outer loop
      vertex 1.86438 1.43059 5
      vertex 4.76012 3.65257 5
      vertex 4.24264 4.24264 5
    endloop
  endfacet
  facet normal 0 0 1
    outer loop
      vertex 5.79555 -1.55291 5
      vertex 2.26993 -0.608224 5
      vertex 5.54328 -2.2961 5
    endloop
  endfacet
  facet normal 0 0 1
    outer loop
      vertex 1.6617 1.6617 5
      vertex 4.24264 4.24264 5
      vertex 3.65257 4.76012 5
    endloop
  endfacet
  facet normal -0 0 1
    outer loop
      vertex 2.17112 -0.899305 5
      vertex 5.54328 -2.2961 5
      vertex 2.26993 -0.608224 5
    endloop
  endfacet
  facet normal 0 0 1
    outer loop
      vertex 1.43059 1.86438 5
      vertex 3.65257 4.76012 5
      vertex 3 5.19615 5
    endloop
  endfacet
  facet normal 0 0 1
    outer loop
      vertex 5.54328 -2.2961 5
      vertex 2.17112 -0.899305 5
      vertex 5.19615 -3 5
    endloop
  endfacet
  facet normal -0 0 1
    outer loop
      vertex 2.03516 -1.175 5
      vertex 5.19615 -3 5
      vertex 2.17112 -0.899305 5
    endloop
  endfacet
  facet normal 0 0 1
    outer loop
      vertex 5.94867 0.783156 5
      vertex 2.3299 0.306736 5
      vertex 2.35 0 5
    endloop
  endfacet
  facet normal 0 0 1
    outer loop
      vertex 1.175 2.03516 5
      vertex 3 5.19615 5
      vertex 2.2961 5.54328 5
    endloop
  endfacet
  facet normal 0 0 1
    outer loop
      vertex 5.79555 1.55291 5
      vertex 2.26993 0.608224 5
      vertex 2.3299 0.306736 5
    endloop
  endfacet
  facet normal 0 0 1
    outer loop
      vertex 5.54328 2.2961 5
      vertex 2.17112 0.899305 5
      vertex 2.26993 0.608224 5
    endloop
  endfacet
  facet normal 0 0 1
    outer loop
      vertex 5.19615 3 5
      vertex 2.03516 1.175 5
      vertex 2.17112 0.899305 5
    endloop
  endfacet
  facet normal 0 0 1
    outer loop
      vertex 4.76012 3.65257 5
      vertex 1.86438 1.43059 5
      vertex 2.03516 1.175 5
    endloop
  endfacet
  facet normal 0 0 1
    outer loop
      vertex 4.24264 4.24264 5
      vertex 1.6617 1.6617 5
      vertex 1.86438 1.43059 5
    endloop
  endfacet
  facet normal 0 0 1
    outer loop
      vertex 0.899305 2.17112 5
      vertex 2.2961 5.54328 5
      vertex 1.55291 5.79555 5
    endloop
  endfacet
  facet normal 0 0 1
    outer loop
      vertex 3.65257 4.76012 5
      vertex 1.43059 1.86438 5
      vertex 1.6617 1.6617 5
    endloop
  endfacet
  facet normal 0 0 1
    outer loop
      vertex 3 5.19615 5
      vertex 1.175 2.03516 5
      vertex 1.43059 1.86438 5
    endloop
  endfacet
  facet normal 0 0 1
    outer loop
      vertex 2.2961 5.54328 5
      vertex 0.899305 2.17112 5
      vertex 1.175 2.03516 5
    endloop
  endfacet
  facet normal 0 0 1
    outer loop
      vertex 0.608224 2.26993 5
      vertex 1.55291 5.79555 5
      vertex 0.783156 5.94867 5
    endloop
  endfacet
  facet normal 0 0 1
    outer loop
      vertex 1.55291 5.79555 5
      vertex 0.608224 2.26993 5
      vertex 0.899305 2.17112 5
    endloop
  endfacet
  facet normal 0 0 1
    outer loop
      vertex 0.783156 5.94867 5
      vertex 0.306736 2.3299 5
      vertex 0.608224 2.26993 5
    endloop
  endfacet
  facet normal 0 0 1
    outer loop
      vertex 0 6 5
      vertex 0.306736 2.3299 5
      vertex 0.783156 5.94867 5
    endloop
  endfacet
  facet normal 0 0 1
    outer loop
      vertex 0 6 5
      vertex 0 2.35 5
      vertex 0.306736 2.3299 5
    endloop
  endfacet
  facet normal 0 0 1
    outer loop
      vertex 0 6 5
      vertex -0.306736 2.3299 5
      vertex 0 2.35 5
    endloop
  endfacet
  facet normal -0 0 1
    outer loop
      vertex -0.783156 5.94867 5
      vertex -0.306736 2.3299 5
      vertex 0 6 5
    endloop
  endfacet
  facet normal 0 0 1
    outer loop
      vertex -0.306736 2.3299 5
      vertex -0.783156 5.94867 5
      vertex -0.608224 2.26993 5
    endloop
  endfacet
  facet normal -0 0 1
    outer loop
      vertex -1.55291 5.79555 5
      vertex -0.608224 2.26993 5
      vertex -0.783156 5.94867 5
    endloop
  endfacet
  facet normal 0 0 1
    outer loop
      vertex -0.608224 2.26993 5
      vertex -1.55291 5.79555 5
      vertex -0.899305 2.17112 5
    endloop
  endfacet
  facet normal -0 0 1
    outer loop
      vertex -2.2961 5.54328 5
      vertex -0.899305 2.17112 5
      vertex -1.55291 5.79555 5
    endloop
  endfacet
  facet normal 0 0 1
    outer loop
      vertex -0.899305 2.17112 5
      vertex -2.2961 5.54328 5
      vertex -1.175 2.03516 5
    endloop
  endfacet
  facet normal -0 0 1
    outer loop
      vertex -3 5.19615 5
      vertex -1.175 2.03516 5
      vertex -2.2961 5.54328 5
    endloop
  endfacet
  facet normal 0 0 1
    outer loop
      vertex -1.175 2.03516 5
      vertex -3 5.19615 5
      vertex -1.43059 1.86438 5
    endloop
  endfacet
  facet normal -0 0 1
    outer loop
      vertex -3.65257 4.76012 5
      vertex -1.43059 1.86438 5
      vertex -3 5.19615 5
    endloop
  endfacet
  facet normal 0 0 1
    outer loop
      vertex -1.43059 1.86438 5
      vertex -3.65257 4.76012 5
      vertex -1.6617 1.6617 5
    endloop
  endfacet
  facet normal -0 0 1
    outer loop
      vertex -4.24264 4.24264 5
      vertex -1.6617 1.6617 5
      vertex -3.65257 4.76012 5
    endloop
  endfacet
  facet normal 0 0 1
    outer loop
      vertex -1.6617 1.6617 5
      vertex -4.24264 4.24264 5
      vertex -1.86438 1.43059 5
    endloop
  endfacet
  facet normal -0 0 1
    outer loop
      vertex -4.76012 3.65257 5
      vertex -1.86438 1.43059 5
      vertex -4.24264 4.24264 5
    endloop
  endfacet
  facet normal 0 0 1
    outer loop
      vertex -1.86438 1.43059 5
      vertex -4.76012 3.65257 5
      vertex -2.03516 1.175 5
    endloop
  endfacet
  facet normal -0 0 1
    outer loop
      vertex -5.19615 3 5
      vertex -2.03516 1.175 5
      vertex -4.76012 3.65257 5
    endloop
  endfacet
  facet normal 0 0 1
    outer loop
      vertex 5.19615 -3 5
      vertex 2.03516 -1.175 5
      vertex 4.76012 -3.65257 5
    endloop
  endfacet
  facet normal -0 0 1
    outer loop
      vertex 1.86438 -1.43059 5
      vertex 4.76012 -3.65257 5
      vertex 2.03516 -1.175 5
    endloop
  endfacet
  facet normal 0 0 1
    outer loop
      vertex 4.76012 -3.65257 5
      vertex 1.86438 -1.43059 5
      vertex 4.24264 -4.24264 5
    endloop
  endfacet
  facet normal -0 0 1
    outer loop
      vertex 1.6617 -1.6617 5
      vertex 4.24264 -4.24264 5
      vertex 1.86438 -1.43059 5
    endloop
  endfacet
  facet normal 0 0 1
    outer loop
      vertex 4.24264 -4.24264 5
      vertex 1.6617 -1.6617 5
      vertex 3.65257 -4.76012 5
    endloop
  endfacet
  facet normal -0 0 1
    outer loop
      vertex 1.43059 -1.86438 5
      vertex 3.65257 -4.76012 5
      vertex 1.6617 -1.6617 5
    endloop
  endfacet
  facet normal 0 0 1
    outer loop
      vertex 3.65257 -4.76012 5
      vertex 1.43059 -1.86438 5
      vertex 3 -5.19615 5
    endloop
  endfacet
  facet normal -0 0 1
    outer loop
      vertex 1.175 -2.03516 5
      vertex 3 -5.19615 5
      vertex 1.43059 -1.86438 5
    endloop
  endfacet
  facet normal 0 0 1
    outer loop
      vertex 3 -5.19615 5
      vertex 1.175 -2.03516 5
      vertex 2.2961 -5.54328 5
    endloop
  endfacet
  facet normal -0 0 1
    outer loop
      vertex 0.899305 -2.17112 5
      vertex 2.2961 -5.54328 5
      vertex 1.175 -2.03516 5
    endloop
  endfacet
  facet normal 0 0 1
    outer loop
      vertex 2.2961 -5.54328 5
      vertex 0.899305 -2.17112 5
      vertex 1.55291 -5.79555 5
    endloop
  endfacet
  facet normal -0 0 1
    outer loop
      vertex 0.608224 -2.26993 5
      vertex 1.55291 -5.79555 5
      vertex 0.899305 -2.17112 5
    endloop
  endfacet
  facet normal 0 0 1
    outer loop
      vertex 1.55291 -5.79555 5
      vertex 0.608224 -2.26993 5
      vertex 0.783156 -5.94867 5
    endloop
  endfacet
  facet normal -0 0 1
    outer loop
      vertex 0.306736 -2.3299 5
      vertex 0.783156 -5.94867 5
      vertex 0.608224 -2.26993 5
    endloop
  endfacet
  facet normal -0 0 1
    outer loop
      vertex 0 -2.35 5
      vertex 0.783156 -5.94867 5
      vertex 0.306736 -2.3299 5
    endloop
  endfacet
  facet normal 0 0 1
    outer loop
      vertex 0 -2.35 5
      vertex 0 -6 5
      vertex 0.783156 -5.94867 5
    endloop
  endfacet
  facet normal 0 0 1
    outer loop
      vertex -0.306736 -2.3299 5
      vertex 0 -6 5
      vertex 0 -2.35 5
    endloop
  endfacet
  facet normal 0 0 1
    outer loop
      vertex -0.783156 -5.94867 5
      vertex -0.306736 -2.3299 5
      vertex -0.608224 -2.26993 5
    endloop
  endfacet
  facet normal 0 0 1
    outer loop
      vertex -0.306736 -2.3299 5
      vertex -0.783156 -5.94867 5
      vertex 0 -6 5
    endloop
  endfacet
  facet normal 0 0 1
    outer loop
      vertex -1.55291 -5.79555 5
      vertex -0.608224 -2.26993 5
      vertex -0.899305 -2.17112 5
    endloop
  endfacet
  facet normal 0 0 1
    outer loop
      vertex -2.2961 -5.54328 5
      vertex -0.899305 -2.17112 5
      vertex -1.175 -2.03516 5
    endloop
  endfacet
  facet normal 0 0 1
    outer loop
      vertex -3 -5.19615 5
      vertex -1.175 -2.03516 5
      vertex -1.43059 -1.86438 5
    endloop
  endfacet
  facet normal 0 0 1
    outer loop
      vertex -0.608224 -2.26993 5
      vertex -1.55291 -5.79555 5
      vertex -0.783156 -5.94867 5
    endloop
  endfacet
  facet normal 0 0 1
    outer loop
      vertex -3.65257 -4.76012 5
      vertex -1.43059 -1.86438 5
      vertex -1.6617 -1.6617 5
    endloop
  endfacet
  facet normal 0 0 1
    outer loop
      vertex -4.24264 -4.24264 5
      vertex -1.6617 -1.6617 5
      vertex -1.86438 -1.43059 5
    endloop
  endfacet
  facet normal 0 0 1
    outer loop
      vertex -4.76012 -3.65257 5
      vertex -1.86438 -1.43059 5
      vertex -2.03516 -1.175 5
    endloop
  endfacet
  facet normal 0 0 1
    outer loop
      vertex -5.19615 -3 5
      vertex -2.03516 -1.175 5
      vertex -2.17112 -0.899305 5
    endloop
  endfacet
  facet normal 0 0 1
    outer loop
      vertex -5.54328 -2.2961 5
      vertex -2.17112 -0.899305 5
      vertex -2.26993 -0.608224 5
    endloop
  endfacet
  facet normal 0 0 1
    outer loop
      vertex -0.899305 -2.17112 5
      vertex -2.2961 -5.54328 5
      vertex -1.55291 -5.79555 5
    endloop
  endfacet
  facet normal 0 0 1
    outer loop
      vertex -5.79555 -1.55291 5
      vertex -2.26993 -0.608224 5
      vertex -2.3299 -0.306736 5
    endloop
  endfacet
  facet normal 0 0 1
    outer loop
      vertex -5.94867 -0.783156 5
      vertex -2.3299 -0.306736 5
      vertex -2.35 0 5
    endloop
  endfacet
  facet normal 0 0 1
    outer loop
      vertex -2.03516 1.175 5
      vertex -5.19615 3 5
      vertex -2.17112 0.899305 5
    endloop
  endfacet
  facet normal 0 0 1
    outer loop
      vertex -1.175 -2.03516 5
      vertex -3 -5.19615 5
      vertex -2.2961 -5.54328 5
    endloop
  endfacet
  facet normal -0 0 1
    outer loop
      vertex -5.54328 2.2961 5
      vertex -2.17112 0.899305 5
      vertex -5.19615 3 5
    endloop
  endfacet
  facet normal 0 0 1
    outer loop
      vertex -1.43059 -1.86438 5
      vertex -3.65257 -4.76012 5
      vertex -3 -5.19615 5
    endloop
  endfacet
  facet normal 0 0 1
    outer loop
      vertex -2.17112 0.899305 5
      vertex -5.54328 2.2961 5
      vertex -2.26993 0.608224 5
    endloop
  endfacet
  facet normal 0 0 1
    outer loop
      vertex -1.6617 -1.6617 5
      vertex -4.24264 -4.24264 5
      vertex -3.65257 -4.76012 5
    endloop
  endfacet
  facet normal -0 0 1
    outer loop
      vertex -5.79555 1.55291 5
      vertex -2.26993 0.608224 5
      vertex -5.54328 2.2961 5
    endloop
  endfacet
  facet normal 0 0 1
    outer loop
      vertex -1.86438 -1.43059 5
      vertex -4.76012 -3.65257 5
      vertex -4.24264 -4.24264 5
    endloop
  endfacet
  facet normal 0 0 1
    outer loop
      vertex -2.26993 0.608224 5
      vertex -5.79555 1.55291 5
      vertex -2.3299 0.306736 5
    endloop
  endfacet
  facet normal 0 0 1
    outer loop
      vertex -2.03516 -1.175 5
      vertex -5.19615 -3 5
      vertex -4.76012 -3.65257 5
    endloop
  endfacet
  facet normal -0 0 1
    outer loop
      vertex -5.94867 0.783156 5
      vertex -2.3299 0.306736 5
      vertex -5.79555 1.55291 5
    endloop
  endfacet
  facet normal 0 0 1
    outer loop
      vertex -2.17112 -0.899305 5
      vertex -5.54328 -2.2961 5
      vertex -5.19615 -3 5
    endloop
  endfacet
  facet normal 0 0 1
    outer loop
      vertex -2.3299 0.306736 5
      vertex -5.94867 0.783156 5
      vertex -2.35 0 5
    endloop
  endfacet
  facet normal 0 0 1
    outer loop
      vertex -2.26993 -0.608224 5
      vertex -5.79555 -1.55291 5
      vertex -5.54328 -2.2961 5
    endloop
  endfacet
  facet normal 0 0 1
    outer loop
      vertex -6 0 5
      vertex -2.35 0 5
      vertex -5.94867 0.783156 5
    endloop
  endfacet
  facet normal 0 0 1
    outer loop
      vertex -2.3299 -0.306736 5
      vertex -5.94867 -0.783156 5
      vertex -5.79555 -1.55291 5
    endloop
  endfacet
  facet normal 0 0 1
    outer loop
      vertex -2.35 0 5
      vertex -6 0 5
      vertex -5.94867 -0.783156 5
    endloop
  endfacet
  facet normal 0.89687 -0.442294 0
    outer loop
      vertex 5.19615 -3 5
      vertex 5.54328 -2.2961 3
      vertex 5.54328 -2.2961 5
    endloop
  endfacet
  facet normal 0.89687 -0.442294 0
    outer loop
      vertex 5.54328 -2.2961 3
      vertex 5.19615 -3 5
      vertex 5.19615 -3 3
    endloop
  endfacet
  facet normal 0.321429 -0.946934 0
    outer loop
      vertex 1.55291 -5.79555 3
      vertex 2.2961 -5.54328 5
      vertex 1.55291 -5.79555 5
    endloop
  endfacet
  facet normal 0.321429 -0.946934 0
    outer loop
      vertex 2.2961 -5.54328 5
      vertex 1.55291 -5.79555 3
      vertex 2.2961 -5.54328 3
    endloop
  endfacet
  facet normal 0.980784 -0.195098 0
    outer loop
      vertex 5.79555 -1.55291 5
      vertex 5.94867 -0.783156 3
      vertex 5.94867 -0.783156 5
    endloop
  endfacet
  facet normal 0.980784 -0.195098 0
    outer loop
      vertex 5.94867 -0.783156 3
      vertex 5.79555 -1.55291 5
      vertex 5.79555 -1.55291 3
    endloop
  endfacet
  facet normal -0.555567 -0.831472 0
    outer loop
      vertex -3.65257 -4.76012 3
      vertex -3 -5.19615 5
      vertex -3.65257 -4.76012 5
    endloop
  endfacet
  facet normal -0.555567 -0.831472 -0
    outer loop
      vertex -3 -5.19615 5
      vertex -3.65257 -4.76012 3
      vertex -3 -5.19615 3
    endloop
  endfacet
  facet normal -0.946934 -0.321429 0
    outer loop
      vertex -5.54328 -2.2961 3
      vertex -5.79555 -1.55291 5
      vertex -5.79555 -1.55291 3
    endloop
  endfacet
  facet normal -0.946934 -0.321429 0
    outer loop
      vertex -5.79555 -1.55291 5
      vertex -5.54328 -2.2961 3
      vertex -5.54328 -2.2961 5
    endloop
  endfacet
  facet normal 0.659348 -0.751838 0
    outer loop
      vertex 3.65257 -4.76012 3
      vertex 4.24264 -4.24264 5
      vertex 3.65257 -4.76012 5
    endloop
  endfacet
  facet normal 0.659348 -0.751838 0
    outer loop
      vertex 4.24264 -4.24264 5
      vertex 3.65257 -4.76012 3
      vertex 4.24264 -4.24264 3
    endloop
  endfacet
  facet normal 0.0654022 -0.997859 0
    outer loop
      vertex 0 -6 3
      vertex 0.783156 -5.94867 5
      vertex 0 -6 5
    endloop
  endfacet
  facet normal 0.0654022 -0.997859 0
    outer loop
      vertex 0.783156 -5.94867 5
      vertex 0 -6 3
      vertex 0.783156 -5.94867 3
    endloop
  endfacet
  facet normal 0.946934 -0.321429 0
    outer loop
      vertex 5.54328 -2.2961 5
      vertex 5.79555 -1.55291 3
      vertex 5.79555 -1.55291 5
    endloop
  endfacet
  facet normal 0.946934 -0.321429 0
    outer loop
      vertex 5.79555 -1.55291 3
      vertex 5.54328 -2.2961 5
      vertex 5.54328 -2.2961 3
    endloop
  endfacet
  facet normal 0.195098 -0.980784 0
    outer loop
      vertex 0.783156 -5.94867 3
      vertex 1.55291 -5.79555 5
      vertex 0.783156 -5.94867 5
    endloop
  endfacet
  facet normal 0.195098 -0.980784 0
    outer loop
      vertex 1.55291 -5.79555 5
      vertex 0.783156 -5.94867 3
      vertex 1.55291 -5.79555 3
    endloop
  endfacet
  facet normal 0.442294 -0.89687 0
    outer loop
      vertex 2.2961 -5.54328 3
      vertex 3 -5.19615 5
      vertex 2.2961 -5.54328 5
    endloop
  endfacet
  facet normal 0.442294 -0.89687 0
    outer loop
      vertex 3 -5.19615 5
      vertex 2.2961 -5.54328 3
      vertex 3 -5.19615 3
    endloop
  endfacet
  facet normal -0.442294 -0.89687 0
    outer loop
      vertex -3 -5.19615 3
      vertex -2.2961 -5.54328 5
      vertex -3 -5.19615 5
    endloop
  endfacet
  facet normal -0.442294 -0.89687 -0
    outer loop
      vertex -2.2961 -5.54328 5
      vertex -3 -5.19615 3
      vertex -2.2961 -5.54328 3
    endloop
  endfacet
  facet normal -0.89687 -0.442294 0
    outer loop
      vertex -5.19615 -3 3
      vertex -5.54328 -2.2961 5
      vertex -5.54328 -2.2961 3
    endloop
  endfacet
  facet normal -0.89687 -0.442294 0
    outer loop
      vertex -5.54328 -2.2961 5
      vertex -5.19615 -3 3
      vertex -5.19615 -3 5
    endloop
  endfacet
  facet normal -0.831472 -0.555567 0
    outer loop
      vertex -4.76012 -3.65257 3
      vertex -5.19615 -3 5
      vertex -5.19615 -3 3
    endloop
  endfacet
  facet normal -0.831472 -0.555567 0
    outer loop
      vertex -5.19615 -3 5
      vertex -4.76012 -3.65257 3
      vertex -4.76012 -3.65257 5
    endloop
  endfacet
  facet normal 0.831472 -0.555567 0
    outer loop
      vertex 4.76012 -3.65257 5
      vertex 5.19615 -3 3
      vertex 5.19615 -3 5
    endloop
  endfacet
  facet normal 0.831472 -0.555567 0
    outer loop
      vertex 5.19615 -3 3
      vertex 4.76012 -3.65257 5
      vertex 4.76012 -3.65257 3
    endloop
  endfacet
  facet normal -0.0654022 -0.997859 0
    outer loop
      vertex -0.783156 -5.94867 3
      vertex 0 -6 5
      vertex -0.783156 -5.94867 5
    endloop
  endfacet
  facet normal -0.0654022 -0.997859 -0
    outer loop
      vertex 0 -6 5
      vertex -0.783156 -5.94867 3
      vertex 0 -6 3
    endloop
  endfacet
  facet normal 0.555567 -0.831472 0
    outer loop
      vertex 3 -5.19615 3
      vertex 3.65257 -4.76012 5
      vertex 3 -5.19615 5
    endloop
  endfacet
  facet normal 0.555567 -0.831472 0
    outer loop
      vertex 3.65257 -4.76012 5
      vertex 3 -5.19615 3
      vertex 3.65257 -4.76012 3
    endloop
  endfacet
  facet normal -0.321429 -0.946934 0
    outer loop
      vertex -2.2961 -5.54328 3
      vertex -1.55291 -5.79555 5
      vertex -2.2961 -5.54328 5
    endloop
  endfacet
  facet normal -0.321429 -0.946934 -0
    outer loop
      vertex -1.55291 -5.79555 5
      vertex -2.2961 -5.54328 3
      vertex -1.55291 -5.79555 3
    endloop
  endfacet
  facet normal -0.980784 -0.195098 0
    outer loop
      vertex -5.79555 -1.55291 3
      vertex -5.94867 -0.783156 5
      vertex -5.94867 -0.783156 3
    endloop
  endfacet
  facet normal -0.980784 -0.195098 0
    outer loop
      vertex -5.94867 -0.783156 5
      vertex -5.79555 -1.55291 3
      vertex -5.79555 -1.55291 5
    endloop
  endfacet
  facet normal -0.751838 -0.659348 0
    outer loop
      vertex -4.24264 -4.24264 3
      vertex -4.76012 -3.65257 5
      vertex -4.76012 -3.65257 3
    endloop
  endfacet
  facet normal -0.751838 -0.659348 0
    outer loop
      vertex -4.76012 -3.65257 5
      vertex -4.24264 -4.24264 3
      vertex -4.24264 -4.24264 5
    endloop
  endfacet
  facet normal -0.195098 -0.980784 0
    outer loop
      vertex -1.55291 -5.79555 3
      vertex -0.783156 -5.94867 5
      vertex -1.55291 -5.79555 5
    endloop
  endfacet
  facet normal -0.195098 -0.980784 -0
    outer loop
      vertex -0.783156 -5.94867 5
      vertex -1.55291 -5.79555 3
      vertex -0.783156 -5.94867 3
    endloop
  endfacet
  facet normal -0.195091 -0.980785 0
    outer loop
      vertex 0.306736 2.3299 0
      vertex 0.608224 2.26993 5
      vertex 0.306736 2.3299 5
    endloop
  endfacet
  facet normal -0.195091 -0.980785 -0
    outer loop
      vertex 0.608224 2.26993 5
      vertex 0.306736 2.3299 0
      vertex 0.608224 2.26993 0
    endloop
  endfacet
  facet normal -0.980785 -0.195091 0
    outer loop
      vertex 2.3299 0.306736 0
      vertex 2.26993 0.608224 5
      vertex 2.26993 0.608224 0
    endloop
  endfacet
  facet normal -0.980785 -0.195091 0
    outer loop
      vertex 2.26993 0.608224 5
      vertex 2.3299 0.306736 0
      vertex 2.3299 0.306736 5
    endloop
  endfacet
  facet normal -0.99786 -0.0653884 0
    outer loop
      vertex 2.35 0 0
      vertex 2.3299 0.306736 5
      vertex 2.3299 0.306736 0
    endloop
  endfacet
  facet normal -0.99786 -0.0653884 0
    outer loop
      vertex 2.3299 0.306736 5
      vertex 2.35 0 0
      vertex 2.35 0 5
    endloop
  endfacet
  facet normal -0.946929 -0.321443 0
    outer loop
      vertex 2.26993 0.608224 0
      vertex 2.17112 0.899305 5
      vertex 2.17112 0.899305 0
    endloop
  endfacet
  facet normal -0.946929 -0.321443 0
    outer loop
      vertex 2.17112 0.899305 5
      vertex 2.26993 0.608224 0
      vertex 2.26993 0.608224 5
    endloop
  endfacet
  facet normal -0.831469 -0.555571 0
    outer loop
      vertex 2.03516 1.175 0
      vertex 1.86438 1.43059 5
      vertex 1.86438 1.43059 0
    endloop
  endfacet
  facet normal -0.831469 -0.555571 0
    outer loop
      vertex 1.86438 1.43059 5
      vertex 2.03516 1.175 0
      vertex 2.03516 1.175 5
    endloop
  endfacet
  facet normal -0.321443 -0.946929 0
    outer loop
      vertex 0.608224 2.26993 0
      vertex 0.899305 2.17112 5
      vertex 0.608224 2.26993 5
    endloop
  endfacet
  facet normal -0.321443 -0.946929 -0
    outer loop
      vertex 0.899305 2.17112 5
      vertex 0.608224 2.26993 0
      vertex 0.899305 2.17112 0
    endloop
  endfacet
  facet normal 0.980785 0.195091 0
    outer loop
      vertex -2.26993 -0.608224 5
      vertex -2.3299 -0.306736 0
      vertex -2.3299 -0.306736 5
    endloop
  endfacet
  facet normal 0.980785 0.195091 0
    outer loop
      vertex -2.3299 -0.306736 0
      vertex -2.26993 -0.608224 5
      vertex -2.26993 -0.608224 0
    endloop
  endfacet
  facet normal -0.99786 0.0653884 0
    outer loop
      vertex 2.3299 -0.306736 0
      vertex 2.35 0 5
      vertex 2.35 0 0
    endloop
  endfacet
  facet normal -0.99786 0.0653884 0
    outer loop
      vertex 2.35 0 5
      vertex 2.3299 -0.306736 0
      vertex 2.3299 -0.306736 5
    endloop
  endfacet
  facet normal 0.99786 0.0653884 0
    outer loop
      vertex -2.3299 -0.306736 5
      vertex -2.35 0 0
      vertex -2.35 0 5
    endloop
  endfacet
  facet normal 0.99786 0.0653884 0
    outer loop
      vertex -2.35 0 0
      vertex -2.3299 -0.306736 5
      vertex -2.3299 -0.306736 0
    endloop
  endfacet
  facet normal 0.321443 0.946929 -0
    outer loop
      vertex -0.608224 -2.26993 0
      vertex -0.899305 -2.17112 5
      vertex -0.608224 -2.26993 5
    endloop
  endfacet
  facet normal 0.321443 0.946929 0
    outer loop
      vertex -0.899305 -2.17112 5
      vertex -0.608224 -2.26993 0
      vertex -0.899305 -2.17112 0
    endloop
  endfacet
  facet normal -0.89687 -0.442295 0
    outer loop
      vertex 2.17112 0.899305 0
      vertex 2.03516 1.175 5
      vertex 2.03516 1.175 0
    endloop
  endfacet
  facet normal -0.89687 -0.442295 0
    outer loop
      vertex 2.03516 1.175 5
      vertex 2.17112 0.899305 0
      vertex 2.17112 0.899305 5
    endloop
  endfacet
  facet normal -0.751837 -0.659349 0
    outer loop
      vertex 1.86438 1.43059 0
      vertex 1.6617 1.6617 5
      vertex 1.6617 1.6617 0
    endloop
  endfacet
  facet normal -0.751837 -0.659349 0
    outer loop
      vertex 1.6617 1.6617 5
      vertex 1.86438 1.43059 0
      vertex 1.86438 1.43059 5
    endloop
  endfacet
  facet normal -0.946929 0.321443 0
    outer loop
      vertex 2.17112 -0.899305 0
      vertex 2.26993 -0.608224 5
      vertex 2.26993 -0.608224 0
    endloop
  endfacet
  facet normal -0.946929 0.321443 0
    outer loop
      vertex 2.26993 -0.608224 5
      vertex 2.17112 -0.899305 0
      vertex 2.17112 -0.899305 5
    endloop
  endfacet
  facet normal 0.751837 0.659349 0
    outer loop
      vertex -1.6617 -1.6617 5
      vertex -1.86438 -1.43059 0
      vertex -1.86438 -1.43059 5
    endloop
  endfacet
  facet normal 0.751837 0.659349 0
    outer loop
      vertex -1.86438 -1.43059 0
      vertex -1.6617 -1.6617 5
      vertex -1.6617 -1.6617 0
    endloop
  endfacet
  facet normal -0.980785 0.195091 0
    outer loop
      vertex 2.26993 -0.608224 0
      vertex 2.3299 -0.306736 5
      vertex 2.3299 -0.306736 0
    endloop
  endfacet
  facet normal -0.980785 0.195091 0
    outer loop
      vertex 2.3299 -0.306736 5
      vertex 2.26993 -0.608224 0
      vertex 2.26993 -0.608224 5
    endloop
  endfacet
  facet normal -0.0653884 0.99786 0
    outer loop
      vertex 0.306736 -2.3299 0
      vertex 0 -2.35 5
      vertex 0.306736 -2.3299 5
    endloop
  endfacet
  facet normal -0.0653884 0.99786 0
    outer loop
      vertex 0 -2.35 5
      vertex 0.306736 -2.3299 0
      vertex 0 -2.35 0
    endloop
  endfacet
  facet normal 0.946929 0.321443 0
    outer loop
      vertex -2.17112 -0.899305 5
      vertex -2.26993 -0.608224 0
      vertex -2.26993 -0.608224 5
    endloop
  endfacet
  facet normal 0.946929 0.321443 0
    outer loop
      vertex -2.26993 -0.608224 0
      vertex -2.17112 -0.899305 5
      vertex -2.17112 -0.899305 0
    endloop
  endfacet
  facet normal -0.831469 0.555571 0
    outer loop
      vertex 1.86438 -1.43059 0
      vertex 2.03516 -1.175 5
      vertex 2.03516 -1.175 0
    endloop
  endfacet
  facet normal -0.831469 0.555571 0
    outer loop
      vertex 2.03516 -1.175 5
      vertex 1.86438 -1.43059 0
      vertex 1.86438 -1.43059 5
    endloop
  endfacet
  facet normal -0.442295 -0.89687 0
    outer loop
      vertex 0.899305 2.17112 0
      vertex 1.175 2.03516 5
      vertex 0.899305 2.17112 5
    endloop
  endfacet
  facet normal -0.442295 -0.89687 -0
    outer loop
      vertex 1.175 2.03516 5
      vertex 0.899305 2.17112 0
      vertex 1.175 2.03516 0
    endloop
  endfacet
  facet normal 0.442295 -0.89687 0
    outer loop
      vertex -1.175 2.03516 0
      vertex -0.899305 2.17112 5
      vertex -1.175 2.03516 5
    endloop
  endfacet
  facet normal 0.442295 -0.89687 0
    outer loop
      vertex -0.899305 2.17112 5
      vertex -1.175 2.03516 0
      vertex -0.899305 2.17112 0
    endloop
  endfacet
  facet normal -0.442295 0.89687 0
    outer loop
      vertex 1.175 -2.03516 0
      vertex 0.899305 -2.17112 5
      vertex 1.175 -2.03516 5
    endloop
  endfacet
  facet normal -0.442295 0.89687 0
    outer loop
      vertex 0.899305 -2.17112 5
      vertex 1.175 -2.03516 0
      vertex 0.899305 -2.17112 0
    endloop
  endfacet
  facet normal -0.321443 0.946929 0
    outer loop
      vertex 0.899305 -2.17112 0
      vertex 0.608224 -2.26993 5
      vertex 0.899305 -2.17112 5
    endloop
  endfacet
  facet normal -0.321443 0.946929 0
    outer loop
      vertex 0.608224 -2.26993 5
      vertex 0.899305 -2.17112 0
      vertex 0.608224 -2.26993 0
    endloop
  endfacet
  facet normal 0.195091 0.980785 -0
    outer loop
      vertex -0.306736 -2.3299 0
      vertex -0.608224 -2.26993 5
      vertex -0.306736 -2.3299 5
    endloop
  endfacet
  facet normal 0.195091 0.980785 0
    outer loop
      vertex -0.608224 -2.26993 5
      vertex -0.306736 -2.3299 0
      vertex -0.608224 -2.26993 0
    endloop
  endfacet
  facet normal 0.946929 -0.321443 0
    outer loop
      vertex -2.26993 0.608224 5
      vertex -2.17112 0.899305 0
      vertex -2.17112 0.899305 5
    endloop
  endfacet
  facet normal 0.946929 -0.321443 0
    outer loop
      vertex -2.17112 0.899305 0
      vertex -2.26993 0.608224 5
      vertex -2.26993 0.608224 0
    endloop
  endfacet
  facet normal 0.195091 -0.980785 0
    outer loop
      vertex -0.608224 2.26993 0
      vertex -0.306736 2.3299 5
      vertex -0.608224 2.26993 5
    endloop
  endfacet
  facet normal 0.195091 -0.980785 0
    outer loop
      vertex -0.306736 2.3299 5
      vertex -0.608224 2.26993 0
      vertex -0.306736 2.3299 0
    endloop
  endfacet
  facet normal 0.555571 -0.831469 0
    outer loop
      vertex -1.43059 1.86438 0
      vertex -1.175 2.03516 5
      vertex -1.43059 1.86438 5
    endloop
  endfacet
  facet normal 0.555571 -0.831469 0
    outer loop
      vertex -1.175 2.03516 5
      vertex -1.43059 1.86438 0
      vertex -1.175 2.03516 0
    endloop
  endfacet
  facet normal -0.555571 0.831469 0
    outer loop
      vertex 1.43059 -1.86438 0
      vertex 1.175 -2.03516 5
      vertex 1.43059 -1.86438 5
    endloop
  endfacet
  facet normal -0.555571 0.831469 0
    outer loop
      vertex 1.175 -2.03516 5
      vertex 1.43059 -1.86438 0
      vertex 1.175 -2.03516 0
    endloop
  endfacet
  facet normal -0.195091 0.980785 0
    outer loop
      vertex 0.608224 -2.26993 0
      vertex 0.306736 -2.3299 5
      vertex 0.608224 -2.26993 5
    endloop
  endfacet
  facet normal -0.195091 0.980785 0
    outer loop
      vertex 0.306736 -2.3299 5
      vertex 0.608224 -2.26993 0
      vertex 0.306736 -2.3299 0
    endloop
  endfacet
  facet normal 0.89687 -0.442295 0
    outer loop
      vertex -2.17112 0.899305 5
      vertex -2.03516 1.175 0
      vertex -2.03516 1.175 5
    endloop
  endfacet
  facet normal 0.89687 -0.442295 0
    outer loop
      vertex -2.03516 1.175 0
      vertex -2.17112 0.899305 5
      vertex -2.17112 0.899305 0
    endloop
  endfacet
  facet normal -0.659349 -0.751837 0
    outer loop
      vertex 1.43059 1.86438 0
      vertex 1.6617 1.6617 5
      vertex 1.43059 1.86438 5
    endloop
  endfacet
  facet normal -0.659349 -0.751837 -0
    outer loop
      vertex 1.6617 1.6617 5
      vertex 1.43059 1.86438 0
      vertex 1.6617 1.6617 0
    endloop
  endfacet
  facet normal 0.831469 -0.555571 0
    outer loop
      vertex -2.03516 1.175 5
      vertex -1.86438 1.43059 0
      vertex -1.86438 1.43059 5
    endloop
  endfacet
  facet normal 0.831469 -0.555571 0
    outer loop
      vertex -1.86438 1.43059 0
      vertex -2.03516 1.175 5
      vertex -2.03516 1.175 0
    endloop
  endfacet
  facet normal 0.0653884 0.99786 -0
    outer loop
      vertex 0 -2.35 0
      vertex -0.306736 -2.3299 5
      vertex 0 -2.35 5
    endloop
  endfacet
  facet normal 0.0653884 0.99786 0
    outer loop
      vertex -0.306736 -2.3299 5
      vertex 0 -2.35 0
      vertex -0.306736 -2.3299 0
    endloop
  endfacet
  facet normal 0.659349 -0.751837 0
    outer loop
      vertex -1.6617 1.6617 0
      vertex -1.43059 1.86438 5
      vertex -1.6617 1.6617 5
    endloop
  endfacet
  facet normal 0.659349 -0.751837 0
    outer loop
      vertex -1.43059 1.86438 5
      vertex -1.6617 1.6617 0
      vertex -1.43059 1.86438 0
    endloop
  endfacet
  facet normal 0.659349 0.751837 -0
    outer loop
      vertex -1.43059 -1.86438 0
      vertex -1.6617 -1.6617 5
      vertex -1.43059 -1.86438 5
    endloop
  endfacet
  facet normal 0.659349 0.751837 0
    outer loop
      vertex -1.6617 -1.6617 5
      vertex -1.43059 -1.86438 0
      vertex -1.6617 -1.6617 0
    endloop
  endfacet
  facet normal 0.751837 -0.659349 0
    outer loop
      vertex -1.86438 1.43059 5
      vertex -1.6617 1.6617 0
      vertex -1.6617 1.6617 5
    endloop
  endfacet
  facet normal 0.751837 -0.659349 0
    outer loop
      vertex -1.6617 1.6617 0
      vertex -1.86438 1.43059 5
      vertex -1.86438 1.43059 0
    endloop
  endfacet
  facet normal -0.751837 0.659349 0
    outer loop
      vertex 1.6617 -1.6617 0
      vertex 1.86438 -1.43059 5
      vertex 1.86438 -1.43059 0
    endloop
  endfacet
  facet normal -0.751837 0.659349 0
    outer loop
      vertex 1.86438 -1.43059 5
      vertex 1.6617 -1.6617 0
      vertex 1.6617 -1.6617 5
    endloop
  endfacet
  facet normal -0.89687 0.442295 0
    outer loop
      vertex 2.03516 -1.175 0
      vertex 2.17112 -0.899305 5
      vertex 2.17112 -0.899305 0
    endloop
  endfacet
  facet normal -0.89687 0.442295 0
    outer loop
      vertex 2.17112 -0.899305 5
      vertex 2.03516 -1.175 0
      vertex 2.03516 -1.175 5
    endloop
  endfacet
  facet normal 0.555571 0.831469 -0
    outer loop
      vertex -1.175 -2.03516 0
      vertex -1.43059 -1.86438 5
      vertex -1.175 -2.03516 5
    endloop
  endfacet
  facet normal 0.555571 0.831469 0
    outer loop
      vertex -1.43059 -1.86438 5
      vertex -1.175 -2.03516 0
      vertex -1.43059 -1.86438 0
    endloop
  endfacet
  facet normal 0.980785 -0.195091 0
    outer loop
      vertex -2.3299 0.306736 5
      vertex -2.26993 0.608224 0
      vertex -2.26993 0.608224 5
    endloop
  endfacet
  facet normal 0.980785 -0.195091 0
    outer loop
      vertex -2.26993 0.608224 0
      vertex -2.3299 0.306736 5
      vertex -2.3299 0.306736 0
    endloop
  endfacet
  facet normal -0.0653884 -0.99786 0
    outer loop
      vertex 0 2.35 0
      vertex 0.306736 2.3299 5
      vertex 0 2.35 5
    endloop
  endfacet
  facet normal -0.0653884 -0.99786 -0
    outer loop
      vertex 0.306736 2.3299 5
      vertex 0 2.35 0
      vertex 0.306736 2.3299 0
    endloop
  endfacet
  facet normal -0.555571 -0.831469 0
    outer loop
      vertex 1.175 2.03516 0
      vertex 1.43059 1.86438 5
      vertex 1.175 2.03516 5
    endloop
  endfacet
  facet normal -0.555571 -0.831469 -0
    outer loop
      vertex 1.43059 1.86438 5
      vertex 1.175 2.03516 0
      vertex 1.43059 1.86438 0
    endloop
  endfacet
  facet normal 0.321443 -0.946929 0
    outer loop
      vertex -0.899305 2.17112 0
      vertex -0.608224 2.26993 5
      vertex -0.899305 2.17112 5
    endloop
  endfacet
  facet normal 0.321443 -0.946929 0
    outer loop
      vertex -0.608224 2.26993 5
      vertex -0.899305 2.17112 0
      vertex -0.608224 2.26993 0
    endloop
  endfacet
  facet normal 0.0653884 -0.99786 0
    outer loop
      vertex -0.306736 2.3299 0
      vertex 0 2.35 5
      vertex -0.306736 2.3299 5
    endloop
  endfacet
  facet normal 0.0653884 -0.99786 0
    outer loop
      vertex 0 2.35 5
      vertex -0.306736 2.3299 0
      vertex 0 2.35 0
    endloop
  endfacet
  facet normal 0.99786 -0.0653884 0
    outer loop
      vertex -2.35 0 5
      vertex -2.3299 0.306736 0
      vertex -2.3299 0.306736 5
    endloop
  endfacet
  facet normal 0.99786 -0.0653884 0
    outer loop
      vertex -2.3299 0.306736 0
      vertex -2.35 0 5
      vertex -2.35 0 0
    endloop
  endfacet
  facet normal 0.89687 0.442295 0
    outer loop
      vertex -2.03516 -1.175 5
      vertex -2.17112 -0.899305 0
      vertex -2.17112 -0.899305 5
    endloop
  endfacet
  facet normal 0.89687 0.442295 0
    outer loop
      vertex -2.17112 -0.899305 0
      vertex -2.03516 -1.175 5
      vertex -2.03516 -1.175 0
    endloop
  endfacet
  facet normal 0.442295 0.89687 -0
    outer loop
      vertex -0.899305 -2.17112 0
      vertex -1.175 -2.03516 5
      vertex -0.899305 -2.17112 5
    endloop
  endfacet
  facet normal 0.442295 0.89687 0
    outer loop
      vertex -1.175 -2.03516 5
      vertex -0.899305 -2.17112 0
      vertex -1.175 -2.03516 0
    endloop
  endfacet
  facet normal -0.659349 0.751837 0
    outer loop
      vertex 1.6617 -1.6617 0
      vertex 1.43059 -1.86438 5
      vertex 1.6617 -1.6617 5
    endloop
  endfacet
  facet normal -0.659349 0.751837 0
    outer loop
      vertex 1.43059 -1.86438 5
      vertex 1.6617 -1.6617 0
      vertex 1.43059 -1.86438 0
    endloop
  endfacet
  facet normal 0.831469 0.555571 0
    outer loop
      vertex -1.86438 -1.43059 5
      vertex -2.03516 -1.175 0
      vertex -2.03516 -1.175 5
    endloop
  endfacet
  facet normal 0.831469 0.555571 0
    outer loop
      vertex -2.03516 -1.175 0
      vertex -1.86438 -1.43059 5
      vertex -1.86438 -1.43059 0
    endloop
  endfacet
endsolid OpenSCAD_Model
