solid OpenSCAD_Model
  facet normal 0 -0.321397 0.946944
    outer loop
      vertex -65.9 27.1123 2.02179
      vertex -64.1 26.9141 1.95452
      vertex -64.1 27.1123 2.02179
    endloop
  endfacet
  facet normal 0 -0.321397 0.946944
    outer loop
      vertex -64.1 26.9141 1.95452
      vertex -65.9 27.1123 2.02179
      vertex -65.9 26.9141 1.95452
    endloop
  endfacet
  facet normal 0 -0.555593 0.831454
    outer loop
      vertex -65.9 27.474 2.23063
      vertex -64.1 27.3 2.11436
      vertex -64.1 27.474 2.23063
    endloop
  endfacet
  facet normal 0 -0.555593 0.831454
    outer loop
      vertex -64.1 27.3 2.11436
      vertex -65.9 27.474 2.23063
      vertex -65.9 27.3 2.11436
    endloop
  endfacet
  facet normal 0 -0.946891 0.321555
    outer loop
      vertex -65.9 27.9782 2.88771
      vertex -64.1 28.0455 3.08589
      vertex -65.9 28.0455 3.08589
    endloop
  endfacet
  facet normal 0 -0.946891 0.321555
    outer loop
      vertex -64.1 28.0455 3.08589
      vertex -65.9 27.9782 2.88771
      vertex -64.1 27.9782 2.88771
    endloop
  endfacet
  facet normal 0 -0.896813 0.44241
    outer loop
      vertex -65.9 27.8856 2.7
      vertex -64.1 27.9782 2.88771
      vertex -65.9 27.9782 2.88771
    endloop
  endfacet
  facet normal 0 -0.896813 0.44241
    outer loop
      vertex -64.1 27.9782 2.88771
      vertex -65.9 27.8856 2.7
      vertex -64.1 27.8856 2.7
    endloop
  endfacet
  facet normal 0 -0.0654247 0.997858
    outer loop
      vertex -65.9 26.7088 1.91369
      vertex -64.1 26.5 1.9
      vertex -64.1 26.7088 1.91369
    endloop
  endfacet
  facet normal 0 -0.0654247 0.997858
    outer loop
      vertex -64.1 26.5 1.9
      vertex -65.9 26.7088 1.91369
      vertex -65.9 26.5 1.9
    endloop
  endfacet
  facet normal -0 0.195059 0.980791
    outer loop
      vertex -65.9 26.2912 1.91369
      vertex -64.1 26.0859 1.95452
      vertex -64.1 26.2912 1.91369
    endloop
  endfacet
  facet normal 0 0.195059 0.980791
    outer loop
      vertex -64.1 26.0859 1.95452
      vertex -65.9 26.2912 1.91369
      vertex -65.9 26.0859 1.95452
    endloop
  endfacet
  facet normal 0 -0.831638 -0.555318
    outer loop
      vertex -65.9 27.8856 4.3
      vertex -64.1 27.7694 4.47402
      vertex -65.9 27.7694 4.47402
    endloop
  endfacet
  facet normal 0 -0.831638 -0.555318
    outer loop
      vertex -64.1 27.7694 4.47402
      vertex -65.9 27.8856 4.3
      vertex -64.1 27.8856 4.3
    endloop
  endfacet
  facet normal -0 0.321397 0.946944
    outer loop
      vertex -65.9 26.0859 1.95452
      vertex -64.1 25.8877 2.02179
      vertex -64.1 26.0859 1.95452
    endloop
  endfacet
  facet normal 0 0.321397 0.946944
    outer loop
      vertex -64.1 25.8877 2.02179
      vertex -65.9 26.0859 1.95452
      vertex -65.9 25.8877 2.02179
    endloop
  endfacet
  facet normal 0 0.896813 0.44241
    outer loop
      vertex -64.1 25.1144 2.7
      vertex -65.9 25.0218 2.88771
      vertex -64.1 25.0218 2.88771
    endloop
  endfacet
  facet normal 0 0.896813 0.44241
    outer loop
      vertex -65.9 25.0218 2.88771
      vertex -64.1 25.1144 2.7
      vertex -65.9 25.1144 2.7
    endloop
  endfacet
  facet normal 0 -0.751821 -0.659367
    outer loop
      vertex -65.9 27.7694 4.47402
      vertex -64.1 27.6314 4.63137
      vertex -65.9 27.6314 4.63137
    endloop
  endfacet
  facet normal 0 -0.751821 -0.659367
    outer loop
      vertex -64.1 27.6314 4.63137
      vertex -65.9 27.7694 4.47402
      vertex -64.1 27.7694 4.47402
    endloop
  endfacet
  facet normal 0 -0.442314 0.89686
    outer loop
      vertex -65.9 27.3 2.11436
      vertex -64.1 27.1123 2.02179
      vertex -64.1 27.3 2.11436
    endloop
  endfacet
  facet normal 0 -0.442314 0.89686
    outer loop
      vertex -64.1 27.1123 2.02179
      vertex -65.9 27.3 2.11436
      vertex -65.9 27.1123 2.02179
    endloop
  endfacet
  facet normal 0 -0.980813 -0.194949
    outer loop
      vertex -65.9 28.0863 3.70884
      vertex -64.1 28.0455 3.91411
      vertex -65.9 28.0455 3.91411
    endloop
  endfacet
  facet normal 0 -0.980813 -0.194949
    outer loop
      vertex -64.1 28.0455 3.91411
      vertex -65.9 28.0863 3.70884
      vertex -64.1 28.0863 3.70884
    endloop
  endfacet
  facet normal -0 0.555593 0.831454
    outer loop
      vertex -65.9 25.7 2.11436
      vertex -64.1 25.526 2.23063
      vertex -64.1 25.7 2.11436
    endloop
  endfacet
  facet normal 0 0.555593 0.831454
    outer loop
      vertex -64.1 25.526 2.23063
      vertex -65.9 25.7 2.11436
      vertex -65.9 25.526 2.23063
    endloop
  endfacet
  facet normal 0 0.997855 0.0654598
    outer loop
      vertex -64.1 24.9137 3.29116
      vertex -65.9 24.9 3.5
      vertex -64.1 24.9 3.5
    endloop
  endfacet
  facet normal 0 0.997855 0.0654598
    outer loop
      vertex -65.9 24.9 3.5
      vertex -64.1 24.9137 3.29116
      vertex -65.9 24.9137 3.29116
    endloop
  endfacet
  facet normal 0 0.946891 -0.321555
    outer loop
      vertex -64.1 24.9545 3.91411
      vertex -65.9 25.0218 4.11229
      vertex -64.1 25.0218 4.11229
    endloop
  endfacet
  facet normal 0 0.946891 -0.321555
    outer loop
      vertex -65.9 25.0218 4.11229
      vertex -64.1 24.9545 3.91411
      vertex -65.9 24.9545 3.91411
    endloop
  endfacet
  facet normal 0 -0.896813 -0.44241
    outer loop
      vertex -65.9 27.9782 4.11229
      vertex -64.1 27.8856 4.3
      vertex -65.9 27.8856 4.3
    endloop
  endfacet
  facet normal 0 -0.896813 -0.44241
    outer loop
      vertex -64.1 27.8856 4.3
      vertex -65.9 27.9782 4.11229
      vertex -64.1 27.9782 4.11229
    endloop
  endfacet
  facet normal 0 0.442314 -0.89686
    outer loop
      vertex -65.9 25.7 4.88564
      vertex -64.1 25.8877 4.97821
      vertex -64.1 25.7 4.88564
    endloop
  endfacet
  facet normal 0 0.442314 -0.89686
    outer loop
      vertex -64.1 25.8877 4.97821
      vertex -65.9 25.7 4.88564
      vertex -65.9 25.8877 4.97821
    endloop
  endfacet
  facet normal 0 0.195059 -0.980791
    outer loop
      vertex -65.9 26.0859 5.04548
      vertex -64.1 26.2912 5.08631
      vertex -64.1 26.0859 5.04548
    endloop
  endfacet
  facet normal 0 0.195059 -0.980791
    outer loop
      vertex -64.1 26.2912 5.08631
      vertex -65.9 26.0859 5.04548
      vertex -65.9 26.2912 5.08631
    endloop
  endfacet
  facet normal 0 0.831638 -0.555318
    outer loop
      vertex -64.1 25.1144 4.3
      vertex -65.9 25.2306 4.47402
      vertex -64.1 25.2306 4.47402
    endloop
  endfacet
  facet normal 0 0.831638 -0.555318
    outer loop
      vertex -65.9 25.2306 4.47402
      vertex -64.1 25.1144 4.3
      vertex -65.9 25.1144 4.3
    endloop
  endfacet
  facet normal 0 -0.980813 0.194949
    outer loop
      vertex -65.9 28.0455 3.08589
      vertex -64.1 28.0863 3.29116
      vertex -65.9 28.0863 3.29116
    endloop
  endfacet
  facet normal 0 -0.980813 0.194949
    outer loop
      vertex -64.1 28.0863 3.29116
      vertex -65.9 28.0455 3.08589
      vertex -64.1 28.0455 3.08589
    endloop
  endfacet
  facet normal 0 0.980813 0.194949
    outer loop
      vertex -64.1 24.9545 3.08589
      vertex -65.9 24.9137 3.29116
      vertex -64.1 24.9137 3.29116
    endloop
  endfacet
  facet normal 0 0.980813 0.194949
    outer loop
      vertex -65.9 24.9137 3.29116
      vertex -64.1 24.9545 3.08589
      vertex -65.9 24.9545 3.08589
    endloop
  endfacet
  facet normal 0 0.659248 -0.751925
    outer loop
      vertex -65.9 25.3686 4.63137
      vertex -64.1 25.526 4.76937
      vertex -64.1 25.3686 4.63137
    endloop
  endfacet
  facet normal 0 0.659248 -0.751925
    outer loop
      vertex -64.1 25.526 4.76937
      vertex -65.9 25.3686 4.63137
      vertex -65.9 25.526 4.76937
    endloop
  endfacet
  facet normal 0 -0.659248 -0.751925
    outer loop
      vertex -65.9 27.474 4.76937
      vertex -64.1 27.6314 4.63137
      vertex -64.1 27.474 4.76937
    endloop
  endfacet
  facet normal -0 -0.659248 -0.751925
    outer loop
      vertex -64.1 27.6314 4.63137
      vertex -65.9 27.474 4.76937
      vertex -65.9 27.6314 4.63137
    endloop
  endfacet
  facet normal -0 0.0654247 0.997858
    outer loop
      vertex -65.9 26.5 1.9
      vertex -64.1 26.2912 1.91369
      vertex -64.1 26.5 1.9
    endloop
  endfacet
  facet normal 0 0.0654247 0.997858
    outer loop
      vertex -64.1 26.2912 1.91369
      vertex -65.9 26.5 1.9
      vertex -65.9 26.2912 1.91369
    endloop
  endfacet
  facet normal 0 -0.555593 -0.831454
    outer loop
      vertex -65.9 27.3 4.88564
      vertex -64.1 27.474 4.76937
      vertex -64.1 27.3 4.88564
    endloop
  endfacet
  facet normal -0 -0.555593 -0.831454
    outer loop
      vertex -64.1 27.474 4.76937
      vertex -65.9 27.3 4.88564
      vertex -65.9 27.474 4.76937
    endloop
  endfacet
  facet normal 0 0.0654247 -0.997858
    outer loop
      vertex -65.9 26.2912 5.08631
      vertex -64.1 26.5 5.1
      vertex -64.1 26.2912 5.08631
    endloop
  endfacet
  facet normal 0 0.0654247 -0.997858
    outer loop
      vertex -64.1 26.5 5.1
      vertex -65.9 26.2912 5.08631
      vertex -65.9 26.5 5.1
    endloop
  endfacet
  facet normal 0 0.751821 0.659367
    outer loop
      vertex -64.1 25.3686 2.36863
      vertex -65.9 25.2306 2.52598
      vertex -64.1 25.2306 2.52598
    endloop
  endfacet
  facet normal 0 0.751821 0.659367
    outer loop
      vertex -65.9 25.2306 2.52598
      vertex -64.1 25.3686 2.36863
      vertex -65.9 25.3686 2.36863
    endloop
  endfacet
  facet normal 0 -0.195059 0.980791
    outer loop
      vertex -65.9 26.9141 1.95452
      vertex -64.1 26.7088 1.91369
      vertex -64.1 26.9141 1.95452
    endloop
  endfacet
  facet normal 0 -0.195059 0.980791
    outer loop
      vertex -64.1 26.7088 1.91369
      vertex -65.9 26.9141 1.95452
      vertex -65.9 26.7088 1.91369
    endloop
  endfacet
  facet normal 0 0.946891 0.321555
    outer loop
      vertex -64.1 25.0218 2.88771
      vertex -65.9 24.9545 3.08589
      vertex -64.1 24.9545 3.08589
    endloop
  endfacet
  facet normal 0 0.946891 0.321555
    outer loop
      vertex -65.9 24.9545 3.08589
      vertex -64.1 25.0218 2.88771
      vertex -65.9 25.0218 2.88771
    endloop
  endfacet
  facet normal 0 0.831638 0.555318
    outer loop
      vertex -64.1 25.2306 2.52598
      vertex -65.9 25.1144 2.7
      vertex -64.1 25.1144 2.7
    endloop
  endfacet
  facet normal 0 0.831638 0.555318
    outer loop
      vertex -65.9 25.1144 2.7
      vertex -64.1 25.2306 2.52598
      vertex -65.9 25.2306 2.52598
    endloop
  endfacet
  facet normal -0 0.659248 0.751925
    outer loop
      vertex -65.9 25.526 2.23063
      vertex -64.1 25.3686 2.36863
      vertex -64.1 25.526 2.23063
    endloop
  endfacet
  facet normal 0 0.659248 0.751925
    outer loop
      vertex -64.1 25.3686 2.36863
      vertex -65.9 25.526 2.23063
      vertex -65.9 25.3686 2.36863
    endloop
  endfacet
  facet normal 0 0.555593 -0.831454
    outer loop
      vertex -65.9 25.526 4.76937
      vertex -64.1 25.7 4.88564
      vertex -64.1 25.526 4.76937
    endloop
  endfacet
  facet normal 0 0.555593 -0.831454
    outer loop
      vertex -64.1 25.7 4.88564
      vertex -65.9 25.526 4.76937
      vertex -65.9 25.7 4.88564
    endloop
  endfacet
  facet normal -0 0.442314 0.89686
    outer loop
      vertex -65.9 25.8877 2.02179
      vertex -64.1 25.7 2.11436
      vertex -64.1 25.8877 2.02179
    endloop
  endfacet
  facet normal 0 0.442314 0.89686
    outer loop
      vertex -64.1 25.7 2.11436
      vertex -65.9 25.8877 2.02179
      vertex -65.9 25.7 2.11436
    endloop
  endfacet
  facet normal 0 -0.997855 -0.0654598
    outer loop
      vertex -65.9 28.1 3.5
      vertex -64.1 28.0863 3.70884
      vertex -65.9 28.0863 3.70884
    endloop
  endfacet
  facet normal 0 -0.997855 -0.0654598
    outer loop
      vertex -64.1 28.0863 3.70884
      vertex -65.9 28.1 3.5
      vertex -64.1 28.1 3.5
    endloop
  endfacet
  facet normal 0 -0.195059 -0.980791
    outer loop
      vertex -65.9 26.7088 5.08631
      vertex -64.1 26.9141 5.04548
      vertex -64.1 26.7088 5.08631
    endloop
  endfacet
  facet normal -0 -0.195059 -0.980791
    outer loop
      vertex -64.1 26.9141 5.04548
      vertex -65.9 26.7088 5.08631
      vertex -65.9 26.9141 5.04548
    endloop
  endfacet
  facet normal 0 -0.831638 0.555318
    outer loop
      vertex -65.9 27.7694 2.52598
      vertex -64.1 27.8856 2.7
      vertex -65.9 27.8856 2.7
    endloop
  endfacet
  facet normal 0 -0.831638 0.555318
    outer loop
      vertex -64.1 27.8856 2.7
      vertex -65.9 27.7694 2.52598
      vertex -64.1 27.7694 2.52598
    endloop
  endfacet
  facet normal 0 0.997855 -0.0654598
    outer loop
      vertex -64.1 24.9 3.5
      vertex -65.9 24.9137 3.70884
      vertex -64.1 24.9137 3.70884
    endloop
  endfacet
  facet normal 0 0.997855 -0.0654598
    outer loop
      vertex -65.9 24.9137 3.70884
      vertex -64.1 24.9 3.5
      vertex -65.9 24.9 3.5
    endloop
  endfacet
  facet normal 0 0.896813 -0.44241
    outer loop
      vertex -64.1 25.0218 4.11229
      vertex -65.9 25.1144 4.3
      vertex -64.1 25.1144 4.3
    endloop
  endfacet
  facet normal 0 0.896813 -0.44241
    outer loop
      vertex -65.9 25.1144 4.3
      vertex -64.1 25.0218 4.11229
      vertex -65.9 25.0218 4.11229
    endloop
  endfacet
  facet normal 0 -0.946891 -0.321555
    outer loop
      vertex -65.9 28.0455 3.91411
      vertex -64.1 27.9782 4.11229
      vertex -65.9 27.9782 4.11229
    endloop
  endfacet
  facet normal 0 -0.946891 -0.321555
    outer loop
      vertex -64.1 27.9782 4.11229
      vertex -65.9 28.0455 3.91411
      vertex -64.1 28.0455 3.91411
    endloop
  endfacet
  facet normal 0 0.321397 -0.946944
    outer loop
      vertex -65.9 25.8877 4.97821
      vertex -64.1 26.0859 5.04548
      vertex -64.1 25.8877 4.97821
    endloop
  endfacet
  facet normal 0 0.321397 -0.946944
    outer loop
      vertex -64.1 26.0859 5.04548
      vertex -65.9 25.8877 4.97821
      vertex -65.9 26.0859 5.04548
    endloop
  endfacet
  facet normal 0 -0.751821 0.659367
    outer loop
      vertex -65.9 27.6314 2.36863
      vertex -64.1 27.7694 2.52598
      vertex -65.9 27.7694 2.52598
    endloop
  endfacet
  facet normal 0 -0.751821 0.659367
    outer loop
      vertex -64.1 27.7694 2.52598
      vertex -65.9 27.6314 2.36863
      vertex -64.1 27.6314 2.36863
    endloop
  endfacet
  facet normal 0 -0.997855 0.0654598
    outer loop
      vertex -65.9 28.0863 3.29116
      vertex -64.1 28.1 3.5
      vertex -65.9 28.1 3.5
    endloop
  endfacet
  facet normal 0 -0.997855 0.0654598
    outer loop
      vertex -64.1 28.1 3.5
      vertex -65.9 28.0863 3.29116
      vertex -64.1 28.0863 3.29116
    endloop
  endfacet
  facet normal 0 -0.442314 -0.89686
    outer loop
      vertex -65.9 27.1123 4.97821
      vertex -64.1 27.3 4.88564
      vertex -64.1 27.1123 4.97821
    endloop
  endfacet
  facet normal -0 -0.442314 -0.89686
    outer loop
      vertex -64.1 27.3 4.88564
      vertex -65.9 27.1123 4.97821
      vertex -65.9 27.3 4.88564
    endloop
  endfacet
  facet normal 0 0.980813 -0.194949
    outer loop
      vertex -64.1 24.9137 3.70884
      vertex -65.9 24.9545 3.91411
      vertex -64.1 24.9545 3.91411
    endloop
  endfacet
  facet normal 0 0.980813 -0.194949
    outer loop
      vertex -65.9 24.9545 3.91411
      vertex -64.1 24.9137 3.70884
      vertex -65.9 24.9137 3.70884
    endloop
  endfacet
  facet normal 0 -0.659248 0.751925
    outer loop
      vertex -65.9 27.6314 2.36863
      vertex -64.1 27.474 2.23063
      vertex -64.1 27.6314 2.36863
    endloop
  endfacet
  facet normal 0 -0.659248 0.751925
    outer loop
      vertex -64.1 27.474 2.23063
      vertex -65.9 27.6314 2.36863
      vertex -65.9 27.474 2.23063
    endloop
  endfacet
  facet normal 0 0.751821 -0.659367
    outer loop
      vertex -64.1 25.2306 4.47402
      vertex -65.9 25.3686 4.63137
      vertex -64.1 25.3686 4.63137
    endloop
  endfacet
  facet normal 0 0.751821 -0.659367
    outer loop
      vertex -65.9 25.3686 4.63137
      vertex -64.1 25.2306 4.47402
      vertex -65.9 25.2306 4.47402
    endloop
  endfacet
  facet normal 0 -0.321397 -0.946944
    outer loop
      vertex -65.9 26.9141 5.04548
      vertex -64.1 27.1123 4.97821
      vertex -64.1 26.9141 5.04548
    endloop
  endfacet
  facet normal -0 -0.321397 -0.946944
    outer loop
      vertex -64.1 27.1123 4.97821
      vertex -65.9 26.9141 5.04548
      vertex -65.9 27.1123 4.97821
    endloop
  endfacet
  facet normal 0 -0.0654247 -0.997858
    outer loop
      vertex -65.9 26.5 5.1
      vertex -64.1 26.7088 5.08631
      vertex -64.1 26.5 5.1
    endloop
  endfacet
  facet normal -0 -0.0654247 -0.997858
    outer loop
      vertex -64.1 26.7088 5.08631
      vertex -65.9 26.5 5.1
      vertex -65.9 26.7088 5.08631
    endloop
  endfacet
  facet normal 0 -0.980813 0.194949
    outer loop
      vertex -65.9 35.0455 3.08589
      vertex -64.1 35.0863 3.29116
      vertex -65.9 35.0863 3.29116
    endloop
  endfacet
  facet normal 0 -0.980813 0.194949
    outer loop
      vertex -64.1 35.0863 3.29116
      vertex -65.9 35.0455 3.08589
      vertex -64.1 35.0455 3.08589
    endloop
  endfacet
  facet normal 0 -0.321397 0.946944
    outer loop
      vertex -65.9 34.1123 2.02179
      vertex -64.1 33.9141 1.95452
      vertex -64.1 34.1123 2.02179
    endloop
  endfacet
  facet normal 0 -0.321397 0.946944
    outer loop
      vertex -64.1 33.9141 1.95452
      vertex -65.9 34.1123 2.02179
      vertex -65.9 33.9141 1.95452
    endloop
  endfacet
  facet normal 0 -0.555593 0.831454
    outer loop
      vertex -65.9 34.474 2.23063
      vertex -64.1 34.3 2.11436
      vertex -64.1 34.474 2.23063
    endloop
  endfacet
  facet normal 0 -0.555593 0.831454
    outer loop
      vertex -64.1 34.3 2.11436
      vertex -65.9 34.474 2.23063
      vertex -65.9 34.3 2.11436
    endloop
  endfacet
  facet normal 0 -0.946891 0.321555
    outer loop
      vertex -65.9 34.9782 2.88771
      vertex -64.1 35.0455 3.08589
      vertex -65.9 35.0455 3.08589
    endloop
  endfacet
  facet normal 0 -0.946891 0.321555
    outer loop
      vertex -64.1 35.0455 3.08589
      vertex -65.9 34.9782 2.88771
      vertex -64.1 34.9782 2.88771
    endloop
  endfacet
  facet normal 0 -0.896813 0.44241
    outer loop
      vertex -65.9 34.8856 2.7
      vertex -64.1 34.9782 2.88771
      vertex -65.9 34.9782 2.88771
    endloop
  endfacet
  facet normal 0 -0.896813 0.44241
    outer loop
      vertex -64.1 34.9782 2.88771
      vertex -65.9 34.8856 2.7
      vertex -64.1 34.8856 2.7
    endloop
  endfacet
  facet normal 0 -0.0654247 0.997858
    outer loop
      vertex -65.9 33.7088 1.91369
      vertex -64.1 33.5 1.9
      vertex -64.1 33.7088 1.91369
    endloop
  endfacet
  facet normal 0 -0.0654247 0.997858
    outer loop
      vertex -64.1 33.5 1.9
      vertex -65.9 33.7088 1.91369
      vertex -65.9 33.5 1.9
    endloop
  endfacet
  facet normal -0 0.195059 0.980791
    outer loop
      vertex -65.9 33.2912 1.91369
      vertex -64.1 33.0859 1.95452
      vertex -64.1 33.2912 1.91369
    endloop
  endfacet
  facet normal 0 0.195059 0.980791
    outer loop
      vertex -64.1 33.0859 1.95452
      vertex -65.9 33.2912 1.91369
      vertex -65.9 33.0859 1.95452
    endloop
  endfacet
  facet normal 0 -0.831638 -0.555318
    outer loop
      vertex -65.9 34.8856 4.3
      vertex -64.1 34.7694 4.47402
      vertex -65.9 34.7694 4.47402
    endloop
  endfacet
  facet normal 0 -0.831638 -0.555318
    outer loop
      vertex -64.1 34.7694 4.47402
      vertex -65.9 34.8856 4.3
      vertex -64.1 34.8856 4.3
    endloop
  endfacet
  facet normal 0 -0.442314 -0.89686
    outer loop
      vertex -65.9 34.1123 4.97821
      vertex -64.1 34.3 4.88564
      vertex -64.1 34.1123 4.97821
    endloop
  endfacet
  facet normal -0 -0.442314 -0.89686
    outer loop
      vertex -64.1 34.3 4.88564
      vertex -65.9 34.1123 4.97821
      vertex -65.9 34.3 4.88564
    endloop
  endfacet
  facet normal -0 0.321397 0.946944
    outer loop
      vertex -65.9 33.0859 1.95452
      vertex -64.1 32.8877 2.02179
      vertex -64.1 33.0859 1.95452
    endloop
  endfacet
  facet normal 0 0.321397 0.946944
    outer loop
      vertex -64.1 32.8877 2.02179
      vertex -65.9 33.0859 1.95452
      vertex -65.9 32.8877 2.02179
    endloop
  endfacet
  facet normal 0 0.896813 0.44241
    outer loop
      vertex -64.1 32.1144 2.7
      vertex -65.9 32.0218 2.88771
      vertex -64.1 32.0218 2.88771
    endloop
  endfacet
  facet normal 0 0.896813 0.44241
    outer loop
      vertex -65.9 32.0218 2.88771
      vertex -64.1 32.1144 2.7
      vertex -65.9 32.1144 2.7
    endloop
  endfacet
  facet normal 0 -0.751821 -0.659367
    outer loop
      vertex -65.9 34.7694 4.47402
      vertex -64.1 34.6314 4.63137
      vertex -65.9 34.6314 4.63137
    endloop
  endfacet
  facet normal 0 -0.751821 -0.659367
    outer loop
      vertex -64.1 34.6314 4.63137
      vertex -65.9 34.7694 4.47402
      vertex -64.1 34.7694 4.47402
    endloop
  endfacet
  facet normal 0 -0.442314 0.89686
    outer loop
      vertex -65.9 34.3 2.11436
      vertex -64.1 34.1123 2.02179
      vertex -64.1 34.3 2.11436
    endloop
  endfacet
  facet normal 0 -0.442314 0.89686
    outer loop
      vertex -64.1 34.1123 2.02179
      vertex -65.9 34.3 2.11436
      vertex -65.9 34.1123 2.02179
    endloop
  endfacet
  facet normal 0 -0.980813 -0.194949
    outer loop
      vertex -65.9 35.0863 3.70884
      vertex -64.1 35.0455 3.91411
      vertex -65.9 35.0455 3.91411
    endloop
  endfacet
  facet normal 0 -0.980813 -0.194949
    outer loop
      vertex -64.1 35.0455 3.91411
      vertex -65.9 35.0863 3.70884
      vertex -64.1 35.0863 3.70884
    endloop
  endfacet
  facet normal -0 0.555593 0.831454
    outer loop
      vertex -65.9 32.7 2.11436
      vertex -64.1 32.526 2.23063
      vertex -64.1 32.7 2.11436
    endloop
  endfacet
  facet normal 0 0.555593 0.831454
    outer loop
      vertex -64.1 32.526 2.23063
      vertex -65.9 32.7 2.11436
      vertex -65.9 32.526 2.23063
    endloop
  endfacet
  facet normal 0 -0.896813 -0.44241
    outer loop
      vertex -65.9 34.9782 4.11229
      vertex -64.1 34.8856 4.3
      vertex -65.9 34.8856 4.3
    endloop
  endfacet
  facet normal 0 -0.896813 -0.44241
    outer loop
      vertex -64.1 34.8856 4.3
      vertex -65.9 34.9782 4.11229
      vertex -64.1 34.9782 4.11229
    endloop
  endfacet
  facet normal 0 0.442314 -0.89686
    outer loop
      vertex -65.9 32.7 4.88564
      vertex -64.1 32.8877 4.97821
      vertex -64.1 32.7 4.88564
    endloop
  endfacet
  facet normal 0 0.442314 -0.89686
    outer loop
      vertex -64.1 32.8877 4.97821
      vertex -65.9 32.7 4.88564
      vertex -65.9 32.8877 4.97821
    endloop
  endfacet
  facet normal 0 0.195059 -0.980791
    outer loop
      vertex -65.9 33.0859 5.04548
      vertex -64.1 33.2912 5.08631
      vertex -64.1 33.0859 5.04548
    endloop
  endfacet
  facet normal 0 0.195059 -0.980791
    outer loop
      vertex -64.1 33.2912 5.08631
      vertex -65.9 33.0859 5.04548
      vertex -65.9 33.2912 5.08631
    endloop
  endfacet
  facet normal 0 0.980813 0.194949
    outer loop
      vertex -64.1 31.9545 3.08589
      vertex -65.9 31.9137 3.29116
      vertex -64.1 31.9137 3.29116
    endloop
  endfacet
  facet normal 0 0.980813 0.194949
    outer loop
      vertex -65.9 31.9137 3.29116
      vertex -64.1 31.9545 3.08589
      vertex -65.9 31.9545 3.08589
    endloop
  endfacet
  facet normal 0 -0.555593 -0.831454
    outer loop
      vertex -65.9 34.3 4.88564
      vertex -64.1 34.474 4.76937
      vertex -64.1 34.3 4.88564
    endloop
  endfacet
  facet normal -0 -0.555593 -0.831454
    outer loop
      vertex -64.1 34.474 4.76937
      vertex -65.9 34.3 4.88564
      vertex -65.9 34.474 4.76937
    endloop
  endfacet
  facet normal 0 0.659248 -0.751925
    outer loop
      vertex -65.9 32.3686 4.63137
      vertex -64.1 32.526 4.76937
      vertex -64.1 32.3686 4.63137
    endloop
  endfacet
  facet normal 0 0.659248 -0.751925
    outer loop
      vertex -64.1 32.526 4.76937
      vertex -65.9 32.3686 4.63137
      vertex -65.9 32.526 4.76937
    endloop
  endfacet
  facet normal 0 -0.659248 -0.751925
    outer loop
      vertex -65.9 34.474 4.76937
      vertex -64.1 34.6314 4.63137
      vertex -64.1 34.474 4.76937
    endloop
  endfacet
  facet normal -0 -0.659248 -0.751925
    outer loop
      vertex -64.1 34.6314 4.63137
      vertex -65.9 34.474 4.76937
      vertex -65.9 34.6314 4.63137
    endloop
  endfacet
  facet normal -0 0.0654247 0.997858
    outer loop
      vertex -65.9 33.5 1.9
      vertex -64.1 33.2912 1.91369
      vertex -64.1 33.5 1.9
    endloop
  endfacet
  facet normal 0 0.0654247 0.997858
    outer loop
      vertex -64.1 33.2912 1.91369
      vertex -65.9 33.5 1.9
      vertex -65.9 33.2912 1.91369
    endloop
  endfacet
  facet normal 0 0.946891 -0.321555
    outer loop
      vertex -64.1 31.9545 3.91411
      vertex -65.9 32.0218 4.11229
      vertex -64.1 32.0218 4.11229
    endloop
  endfacet
  facet normal 0 0.946891 -0.321555
    outer loop
      vertex -65.9 32.0218 4.11229
      vertex -64.1 31.9545 3.91411
      vertex -65.9 31.9545 3.91411
    endloop
  endfacet
  facet normal 0 0.751821 0.659367
    outer loop
      vertex -64.1 32.3686 2.36863
      vertex -65.9 32.2306 2.52598
      vertex -64.1 32.2306 2.52598
    endloop
  endfacet
  facet normal 0 0.751821 0.659367
    outer loop
      vertex -65.9 32.2306 2.52598
      vertex -64.1 32.3686 2.36863
      vertex -65.9 32.3686 2.36863
    endloop
  endfacet
  facet normal 0 0.0654247 -0.997858
    outer loop
      vertex -65.9 33.2912 5.08631
      vertex -64.1 33.5 5.1
      vertex -64.1 33.2912 5.08631
    endloop
  endfacet
  facet normal 0 0.0654247 -0.997858
    outer loop
      vertex -64.1 33.5 5.1
      vertex -65.9 33.2912 5.08631
      vertex -65.9 33.5 5.1
    endloop
  endfacet
  facet normal 0 -0.195059 0.980791
    outer loop
      vertex -65.9 33.9141 1.95452
      vertex -64.1 33.7088 1.91369
      vertex -64.1 33.9141 1.95452
    endloop
  endfacet
  facet normal 0 -0.195059 0.980791
    outer loop
      vertex -64.1 33.7088 1.91369
      vertex -65.9 33.9141 1.95452
      vertex -65.9 33.7088 1.91369
    endloop
  endfacet
  facet normal 0 0.946891 0.321555
    outer loop
      vertex -64.1 32.0218 2.88771
      vertex -65.9 31.9545 3.08589
      vertex -64.1 31.9545 3.08589
    endloop
  endfacet
  facet normal 0 0.946891 0.321555
    outer loop
      vertex -65.9 31.9545 3.08589
      vertex -64.1 32.0218 2.88771
      vertex -65.9 32.0218 2.88771
    endloop
  endfacet
  facet normal 0 0.831638 0.555318
    outer loop
      vertex -64.1 32.2306 2.52598
      vertex -65.9 32.1144 2.7
      vertex -64.1 32.1144 2.7
    endloop
  endfacet
  facet normal 0 0.831638 0.555318
    outer loop
      vertex -65.9 32.1144 2.7
      vertex -64.1 32.2306 2.52598
      vertex -65.9 32.2306 2.52598
    endloop
  endfacet
  facet normal -0 0.659248 0.751925
    outer loop
      vertex -65.9 32.526 2.23063
      vertex -64.1 32.3686 2.36863
      vertex -64.1 32.526 2.23063
    endloop
  endfacet
  facet normal 0 0.659248 0.751925
    outer loop
      vertex -64.1 32.3686 2.36863
      vertex -65.9 32.526 2.23063
      vertex -65.9 32.3686 2.36863
    endloop
  endfacet
  facet normal 0 0.555593 -0.831454
    outer loop
      vertex -65.9 32.526 4.76937
      vertex -64.1 32.7 4.88564
      vertex -64.1 32.526 4.76937
    endloop
  endfacet
  facet normal 0 0.555593 -0.831454
    outer loop
      vertex -64.1 32.7 4.88564
      vertex -65.9 32.526 4.76937
      vertex -65.9 32.7 4.88564
    endloop
  endfacet
  facet normal 0 0.997855 0.0654598
    outer loop
      vertex -64.1 31.9137 3.29116
      vertex -65.9 31.9 3.5
      vertex -64.1 31.9 3.5
    endloop
  endfacet
  facet normal 0 0.997855 0.0654598
    outer loop
      vertex -65.9 31.9 3.5
      vertex -64.1 31.9137 3.29116
      vertex -65.9 31.9137 3.29116
    endloop
  endfacet
  facet normal -0 0.442314 0.89686
    outer loop
      vertex -65.9 32.8877 2.02179
      vertex -64.1 32.7 2.11436
      vertex -64.1 32.8877 2.02179
    endloop
  endfacet
  facet normal 0 0.442314 0.89686
    outer loop
      vertex -64.1 32.7 2.11436
      vertex -65.9 32.8877 2.02179
      vertex -65.9 32.7 2.11436
    endloop
  endfacet
  facet normal 0 -0.997855 -0.0654598
    outer loop
      vertex -65.9 35.1 3.5
      vertex -64.1 35.0863 3.70884
      vertex -65.9 35.0863 3.70884
    endloop
  endfacet
  facet normal 0 -0.997855 -0.0654598
    outer loop
      vertex -64.1 35.0863 3.70884
      vertex -65.9 35.1 3.5
      vertex -64.1 35.1 3.5
    endloop
  endfacet
  facet normal 0 -0.997855 0.0654598
    outer loop
      vertex -65.9 35.0863 3.29116
      vertex -64.1 35.1 3.5
      vertex -65.9 35.1 3.5
    endloop
  endfacet
  facet normal 0 -0.997855 0.0654598
    outer loop
      vertex -64.1 35.1 3.5
      vertex -65.9 35.0863 3.29116
      vertex -64.1 35.0863 3.29116
    endloop
  endfacet
  facet normal 0 -0.195059 -0.980791
    outer loop
      vertex -65.9 33.7088 5.08631
      vertex -64.1 33.9141 5.04548
      vertex -64.1 33.7088 5.08631
    endloop
  endfacet
  facet normal -0 -0.195059 -0.980791
    outer loop
      vertex -64.1 33.9141 5.04548
      vertex -65.9 33.7088 5.08631
      vertex -65.9 33.9141 5.04548
    endloop
  endfacet
  facet normal 0 -0.831638 0.555318
    outer loop
      vertex -65.9 34.7694 2.52598
      vertex -64.1 34.8856 2.7
      vertex -65.9 34.8856 2.7
    endloop
  endfacet
  facet normal 0 -0.831638 0.555318
    outer loop
      vertex -64.1 34.8856 2.7
      vertex -65.9 34.7694 2.52598
      vertex -64.1 34.7694 2.52598
    endloop
  endfacet
  facet normal 0 -0.946891 -0.321555
    outer loop
      vertex -65.9 35.0455 3.91411
      vertex -64.1 34.9782 4.11229
      vertex -65.9 34.9782 4.11229
    endloop
  endfacet
  facet normal 0 -0.946891 -0.321555
    outer loop
      vertex -64.1 34.9782 4.11229
      vertex -65.9 35.0455 3.91411
      vertex -64.1 35.0455 3.91411
    endloop
  endfacet
  facet normal 0 0.321397 -0.946944
    outer loop
      vertex -65.9 32.8877 4.97821
      vertex -64.1 33.0859 5.04548
      vertex -64.1 32.8877 4.97821
    endloop
  endfacet
  facet normal 0 0.321397 -0.946944
    outer loop
      vertex -64.1 33.0859 5.04548
      vertex -65.9 32.8877 4.97821
      vertex -65.9 33.0859 5.04548
    endloop
  endfacet
  facet normal 0 -0.751821 0.659367
    outer loop
      vertex -65.9 34.6314 2.36863
      vertex -64.1 34.7694 2.52598
      vertex -65.9 34.7694 2.52598
    endloop
  endfacet
  facet normal 0 -0.751821 0.659367
    outer loop
      vertex -64.1 34.7694 2.52598
      vertex -65.9 34.6314 2.36863
      vertex -64.1 34.6314 2.36863
    endloop
  endfacet
  facet normal 0 0.980813 -0.194949
    outer loop
      vertex -64.1 31.9137 3.70884
      vertex -65.9 31.9545 3.91411
      vertex -64.1 31.9545 3.91411
    endloop
  endfacet
  facet normal 0 0.980813 -0.194949
    outer loop
      vertex -65.9 31.9545 3.91411
      vertex -64.1 31.9137 3.70884
      vertex -65.9 31.9137 3.70884
    endloop
  endfacet
  facet normal 0 -0.659248 0.751925
    outer loop
      vertex -65.9 34.6314 2.36863
      vertex -64.1 34.474 2.23063
      vertex -64.1 34.6314 2.36863
    endloop
  endfacet
  facet normal 0 -0.659248 0.751925
    outer loop
      vertex -64.1 34.474 2.23063
      vertex -65.9 34.6314 2.36863
      vertex -65.9 34.474 2.23063
    endloop
  endfacet
  facet normal 0 0.751821 -0.659367
    outer loop
      vertex -64.1 32.2306 4.47402
      vertex -65.9 32.3686 4.63137
      vertex -64.1 32.3686 4.63137
    endloop
  endfacet
  facet normal 0 0.751821 -0.659367
    outer loop
      vertex -65.9 32.3686 4.63137
      vertex -64.1 32.2306 4.47402
      vertex -65.9 32.2306 4.47402
    endloop
  endfacet
  facet normal 0 -0.321397 -0.946944
    outer loop
      vertex -65.9 33.9141 5.04548
      vertex -64.1 34.1123 4.97821
      vertex -64.1 33.9141 5.04548
    endloop
  endfacet
  facet normal -0 -0.321397 -0.946944
    outer loop
      vertex -64.1 34.1123 4.97821
      vertex -65.9 33.9141 5.04548
      vertex -65.9 34.1123 4.97821
    endloop
  endfacet
  facet normal 0 -0.0654247 -0.997858
    outer loop
      vertex -65.9 33.5 5.1
      vertex -64.1 33.7088 5.08631
      vertex -64.1 33.5 5.1
    endloop
  endfacet
  facet normal -0 -0.0654247 -0.997858
    outer loop
      vertex -64.1 33.7088 5.08631
      vertex -65.9 33.5 5.1
      vertex -65.9 33.7088 5.08631
    endloop
  endfacet
  facet normal 0 0.831638 -0.555318
    outer loop
      vertex -64.1 32.1144 4.3
      vertex -65.9 32.2306 4.47402
      vertex -64.1 32.2306 4.47402
    endloop
  endfacet
  facet normal 0 0.831638 -0.555318
    outer loop
      vertex -65.9 32.2306 4.47402
      vertex -64.1 32.1144 4.3
      vertex -65.9 32.1144 4.3
    endloop
  endfacet
  facet normal 0 0.997855 -0.0654598
    outer loop
      vertex -64.1 31.9 3.5
      vertex -65.9 31.9137 3.70884
      vertex -64.1 31.9137 3.70884
    endloop
  endfacet
  facet normal 0 0.997855 -0.0654598
    outer loop
      vertex -65.9 31.9137 3.70884
      vertex -64.1 31.9 3.5
      vertex -65.9 31.9 3.5
    endloop
  endfacet
  facet normal 0 0.896813 -0.44241
    outer loop
      vertex -64.1 32.0218 4.11229
      vertex -65.9 32.1144 4.3
      vertex -64.1 32.1144 4.3
    endloop
  endfacet
  facet normal 0 0.896813 -0.44241
    outer loop
      vertex -65.9 32.1144 4.3
      vertex -64.1 32.0218 4.11229
      vertex -65.9 32.0218 4.11229
    endloop
  endfacet
  facet normal 1 0 0
    outer loop
      vertex -64.1 38 7
      vertex -64.1 35.1 3.5
      vertex -64.1 38 0
    endloop
  endfacet
  facet normal 1 0 0
    outer loop
      vertex -64.1 38 7
      vertex -64.1 35.0863 3.70884
      vertex -64.1 35.1 3.5
    endloop
  endfacet
  facet normal 1 0 0
    outer loop
      vertex -64.1 38 7
      vertex -64.1 35.0455 3.91411
      vertex -64.1 35.0863 3.70884
    endloop
  endfacet
  facet normal 1 0 0
    outer loop
      vertex -64.1 38 7
      vertex -64.1 34.9782 4.11229
      vertex -64.1 35.0455 3.91411
    endloop
  endfacet
  facet normal 1 0 0
    outer loop
      vertex -64.1 38 7
      vertex -64.1 34.8856 4.3
      vertex -64.1 34.9782 4.11229
    endloop
  endfacet
  facet normal 1 0 0
    outer loop
      vertex -64.1 38 7
      vertex -64.1 34.7694 4.47402
      vertex -64.1 34.8856 4.3
    endloop
  endfacet
  facet normal 1 0 0
    outer loop
      vertex -64.1 38 7
      vertex -64.1 34.6314 4.63137
      vertex -64.1 34.7694 4.47402
    endloop
  endfacet
  facet normal 1 0 0
    outer loop
      vertex -64.1 38 7
      vertex -64.1 34.474 4.76937
      vertex -64.1 34.6314 4.63137
    endloop
  endfacet
  facet normal 1 0 0
    outer loop
      vertex -64.1 38 7
      vertex -64.1 34.3 4.88564
      vertex -64.1 34.474 4.76937
    endloop
  endfacet
  facet normal 1 0 0
    outer loop
      vertex -64.1 38 7
      vertex -64.1 34.1123 4.97821
      vertex -64.1 34.3 4.88564
    endloop
  endfacet
  facet normal 1 0 0
    outer loop
      vertex -64.1 38 7
      vertex -64.1 33.9141 5.04548
      vertex -64.1 34.1123 4.97821
    endloop
  endfacet
  facet normal 1 0 0
    outer loop
      vertex -64.1 38 7
      vertex -64.1 33.7088 5.08631
      vertex -64.1 33.9141 5.04548
    endloop
  endfacet
  facet normal 1 0 0
    outer loop
      vertex -64.1 38 7
      vertex -64.1 33.5 5.1
      vertex -64.1 33.7088 5.08631
    endloop
  endfacet
  facet normal 1 0 0
    outer loop
      vertex -64.1 38 7
      vertex -64.1 33.2912 5.08631
      vertex -64.1 33.5 5.1
    endloop
  endfacet
  facet normal 1 0 0
    outer loop
      vertex -64.1 38 7
      vertex -64.1 33.0859 5.04548
      vertex -64.1 33.2912 5.08631
    endloop
  endfacet
  facet normal 1 0 0
    outer loop
      vertex -64.1 26.9141 5.04548
      vertex -64.1 33.0859 5.04548
      vertex -64.1 38 7
    endloop
  endfacet
  facet normal 1 0 0
    outer loop
      vertex -64.1 31.9137 3.70884
      vertex -64.1 28.1 3.5
      vertex -64.1 31.9 3.5
    endloop
  endfacet
  facet normal 1 0 0
    outer loop
      vertex -64.1 28.0863 3.70884
      vertex -64.1 31.9137 3.70884
      vertex -64.1 31.9545 3.91411
    endloop
  endfacet
  facet normal 1 0 0
    outer loop
      vertex -64.1 28.0455 3.91411
      vertex -64.1 31.9545 3.91411
      vertex -64.1 32.0218 4.11229
    endloop
  endfacet
  facet normal 1 0 0
    outer loop
      vertex -64.1 27.9782 4.11229
      vertex -64.1 32.0218 4.11229
      vertex -64.1 32.1144 4.3
    endloop
  endfacet
  facet normal 1 0 0
    outer loop
      vertex -64.1 27.8856 4.3
      vertex -64.1 32.1144 4.3
      vertex -64.1 32.2306 4.47402
    endloop
  endfacet
  facet normal 1 0 0
    outer loop
      vertex -64.1 27.7694 4.47402
      vertex -64.1 32.2306 4.47402
      vertex -64.1 32.3686 4.63137
    endloop
  endfacet
  facet normal 1 0 0
    outer loop
      vertex -64.1 27.6314 4.63137
      vertex -64.1 32.3686 4.63137
      vertex -64.1 32.526 4.76937
    endloop
  endfacet
  facet normal 1 0 0
    outer loop
      vertex -64.1 27.474 4.76937
      vertex -64.1 32.526 4.76937
      vertex -64.1 32.7 4.88564
    endloop
  endfacet
  facet normal 1 0 0
    outer loop
      vertex -64.1 27.3 4.88564
      vertex -64.1 32.7 4.88564
      vertex -64.1 32.8877 4.97821
    endloop
  endfacet
  facet normal 1 0 0
    outer loop
      vertex -64.1 33.0859 5.04548
      vertex -64.1 26.9141 5.04548
      vertex -64.1 32.8877 4.97821
    endloop
  endfacet
  facet normal 1 0 0
    outer loop
      vertex -64.1 31.9137 3.70884
      vertex -64.1 28.0863 3.70884
      vertex -64.1 28.1 3.5
    endloop
  endfacet
  facet normal 1 0 0
    outer loop
      vertex -64.1 31.9545 3.91411
      vertex -64.1 28.0455 3.91411
      vertex -64.1 28.0863 3.70884
    endloop
  endfacet
  facet normal 1 0 0
    outer loop
      vertex -64.1 32.0218 4.11229
      vertex -64.1 27.9782 4.11229
      vertex -64.1 28.0455 3.91411
    endloop
  endfacet
  facet normal 1 0 0
    outer loop
      vertex -64.1 32.1144 4.3
      vertex -64.1 27.8856 4.3
      vertex -64.1 27.9782 4.11229
    endloop
  endfacet
  facet normal 1 0 0
    outer loop
      vertex -64.1 32.2306 4.47402
      vertex -64.1 27.7694 4.47402
      vertex -64.1 27.8856 4.3
    endloop
  endfacet
  facet normal 1 0 0
    outer loop
      vertex -64.1 32.3686 4.63137
      vertex -64.1 27.6314 4.63137
      vertex -64.1 27.7694 4.47402
    endloop
  endfacet
  facet normal 1 0 0
    outer loop
      vertex -64.1 32.526 4.76937
      vertex -64.1 27.474 4.76937
      vertex -64.1 27.6314 4.63137
    endloop
  endfacet
  facet normal 1 0 0
    outer loop
      vertex -64.1 32.7 4.88564
      vertex -64.1 27.3 4.88564
      vertex -64.1 27.474 4.76937
    endloop
  endfacet
  facet normal 1 0 0
    outer loop
      vertex -64.1 32.8877 4.97821
      vertex -64.1 27.1123 4.97821
      vertex -64.1 27.3 4.88564
    endloop
  endfacet
  facet normal 1 0 0
    outer loop
      vertex -64.1 32.8877 4.97821
      vertex -64.1 26.9141 5.04548
      vertex -64.1 27.1123 4.97821
    endloop
  endfacet
  facet normal 1 -0 0
    outer loop
      vertex -64.1 22 7
      vertex -64.1 26.9141 5.04548
      vertex -64.1 38 7
    endloop
  endfacet
  facet normal 1 0 0
    outer loop
      vertex -64.1 26.9141 5.04548
      vertex -64.1 22 7
      vertex -64.1 26.7088 5.08631
    endloop
  endfacet
  facet normal 1 0 0
    outer loop
      vertex -64.1 26.7088 5.08631
      vertex -64.1 22 7
      vertex -64.1 26.5 5.1
    endloop
  endfacet
  facet normal 1 0 0
    outer loop
      vertex -64.1 22 1.4
      vertex -64.1 24.9137 3.70884
      vertex -64.1 22 7
    endloop
  endfacet
  facet normal 1 0 0
    outer loop
      vertex -64.1 24.9545 3.91411
      vertex -64.1 22 7
      vertex -64.1 24.9137 3.70884
    endloop
  endfacet
  facet normal 1 0 0
    outer loop
      vertex -64.1 25.0218 4.11229
      vertex -64.1 22 7
      vertex -64.1 24.9545 3.91411
    endloop
  endfacet
  facet normal 1 0 0
    outer loop
      vertex -64.1 25.1144 4.3
      vertex -64.1 22 7
      vertex -64.1 25.0218 4.11229
    endloop
  endfacet
  facet normal 1 0 0
    outer loop
      vertex -64.1 25.2306 4.47402
      vertex -64.1 22 7
      vertex -64.1 25.1144 4.3
    endloop
  endfacet
  facet normal 1 0 0
    outer loop
      vertex -64.1 25.3686 4.63137
      vertex -64.1 22 7
      vertex -64.1 25.2306 4.47402
    endloop
  endfacet
  facet normal 1 0 0
    outer loop
      vertex -64.1 25.526 4.76937
      vertex -64.1 22 7
      vertex -64.1 25.3686 4.63137
    endloop
  endfacet
  facet normal 1 0 0
    outer loop
      vertex -64.1 25.7 4.88564
      vertex -64.1 22 7
      vertex -64.1 25.526 4.76937
    endloop
  endfacet
  facet normal 1 0 0
    outer loop
      vertex -64.1 25.8877 4.97821
      vertex -64.1 22 7
      vertex -64.1 25.7 4.88564
    endloop
  endfacet
  facet normal 1 0 0
    outer loop
      vertex -64.1 26.0859 5.04548
      vertex -64.1 22 7
      vertex -64.1 25.8877 4.97821
    endloop
  endfacet
  facet normal 1 0 0
    outer loop
      vertex -64.1 26.2912 5.08631
      vertex -64.1 22 7
      vertex -64.1 26.0859 5.04548
    endloop
  endfacet
  facet normal 1 0 0
    outer loop
      vertex -64.1 26.5 5.1
      vertex -64.1 22 7
      vertex -64.1 26.2912 5.08631
    endloop
  endfacet
  facet normal 1 -0 0
    outer loop
      vertex -64.1 35.0863 3.29116
      vertex -64.1 38 0
      vertex -64.1 35.1 3.5
    endloop
  endfacet
  facet normal 1 -0 0
    outer loop
      vertex -64.1 35.0455 3.08589
      vertex -64.1 38 0
      vertex -64.1 35.0863 3.29116
    endloop
  endfacet
  facet normal 1 -0 0
    outer loop
      vertex -64.1 34.9782 2.88771
      vertex -64.1 38 0
      vertex -64.1 35.0455 3.08589
    endloop
  endfacet
  facet normal 1 -0 0
    outer loop
      vertex -64.1 34.8856 2.7
      vertex -64.1 38 0
      vertex -64.1 34.9782 2.88771
    endloop
  endfacet
  facet normal 1 -0 0
    outer loop
      vertex -64.1 34.7694 2.52598
      vertex -64.1 38 0
      vertex -64.1 34.8856 2.7
    endloop
  endfacet
  facet normal 1 -0 0
    outer loop
      vertex -64.1 34.6314 2.36863
      vertex -64.1 38 0
      vertex -64.1 34.7694 2.52598
    endloop
  endfacet
  facet normal 1 -0 0
    outer loop
      vertex -64.1 34.474 2.23063
      vertex -64.1 38 0
      vertex -64.1 34.6314 2.36863
    endloop
  endfacet
  facet normal 1 -0 0
    outer loop
      vertex -64.1 34.3 2.11436
      vertex -64.1 38 0
      vertex -64.1 34.474 2.23063
    endloop
  endfacet
  facet normal 1 -0 0
    outer loop
      vertex -64.1 34.1123 2.02179
      vertex -64.1 38 0
      vertex -64.1 34.3 2.11436
    endloop
  endfacet
  facet normal 1 -0 0
    outer loop
      vertex -64.1 33.9141 1.95452
      vertex -64.1 38 0
      vertex -64.1 34.1123 2.02179
    endloop
  endfacet
  facet normal 1 -0 0
    outer loop
      vertex -64.1 33.7088 1.91369
      vertex -64.1 38 0
      vertex -64.1 33.9141 1.95452
    endloop
  endfacet
  facet normal 1 -0 0
    outer loop
      vertex -64.1 33.5 1.9
      vertex -64.1 38 0
      vertex -64.1 33.7088 1.91369
    endloop
  endfacet
  facet normal 1 0 0
    outer loop
      vertex -64.1 33.2912 1.91369
      vertex -64.1 38 0
      vertex -64.1 33.5 1.9
    endloop
  endfacet
  facet normal 1 0 0
    outer loop
      vertex -64.1 33.0859 1.95452
      vertex -64.1 38 0
      vertex -64.1 33.2912 1.91369
    endloop
  endfacet
  facet normal 1 0 0
    outer loop
      vertex -64.1 26.9141 1.95452
      vertex -64.1 33.0859 1.95452
      vertex -64.1 32.8877 2.02179
    endloop
  endfacet
  facet normal 1 -0 0
    outer loop
      vertex -64.1 28.1 3.5
      vertex -64.1 31.9137 3.29116
      vertex -64.1 31.9 3.5
    endloop
  endfacet
  facet normal 1 0 0
    outer loop
      vertex -64.1 28.0863 3.29116
      vertex -64.1 31.9137 3.29116
      vertex -64.1 28.1 3.5
    endloop
  endfacet
  facet normal 1 0 0
    outer loop
      vertex -64.1 31.9137 3.29116
      vertex -64.1 28.0863 3.29116
      vertex -64.1 31.9545 3.08589
    endloop
  endfacet
  facet normal 1 0 0
    outer loop
      vertex -64.1 28.0455 3.08589
      vertex -64.1 31.9545 3.08589
      vertex -64.1 28.0863 3.29116
    endloop
  endfacet
  facet normal 1 0 0
    outer loop
      vertex -64.1 31.9545 3.08589
      vertex -64.1 28.0455 3.08589
      vertex -64.1 32.0218 2.88771
    endloop
  endfacet
  facet normal 1 0 0
    outer loop
      vertex -64.1 27.9782 2.88771
      vertex -64.1 32.0218 2.88771
      vertex -64.1 28.0455 3.08589
    endloop
  endfacet
  facet normal 1 0 0
    outer loop
      vertex -64.1 32.0218 2.88771
      vertex -64.1 27.9782 2.88771
      vertex -64.1 32.1144 2.7
    endloop
  endfacet
  facet normal 1 0 0
    outer loop
      vertex -64.1 27.8856 2.7
      vertex -64.1 32.1144 2.7
      vertex -64.1 27.9782 2.88771
    endloop
  endfacet
  facet normal 1 0 0
    outer loop
      vertex -64.1 32.1144 2.7
      vertex -64.1 27.8856 2.7
      vertex -64.1 32.2306 2.52598
    endloop
  endfacet
  facet normal 1 0 0
    outer loop
      vertex -64.1 27.7694 2.52598
      vertex -64.1 32.2306 2.52598
      vertex -64.1 27.8856 2.7
    endloop
  endfacet
  facet normal 1 0 0
    outer loop
      vertex -64.1 32.2306 2.52598
      vertex -64.1 27.7694 2.52598
      vertex -64.1 32.3686 2.36863
    endloop
  endfacet
  facet normal 1 0 0
    outer loop
      vertex -64.1 27.6314 2.36863
      vertex -64.1 32.3686 2.36863
      vertex -64.1 27.7694 2.52598
    endloop
  endfacet
  facet normal 1 0 0
    outer loop
      vertex -64.1 32.3686 2.36863
      vertex -64.1 27.6314 2.36863
      vertex -64.1 32.526 2.23063
    endloop
  endfacet
  facet normal 1 0 0
    outer loop
      vertex -64.1 27.474 2.23063
      vertex -64.1 32.526 2.23063
      vertex -64.1 27.6314 2.36863
    endloop
  endfacet
  facet normal 1 0 0
    outer loop
      vertex -64.1 32.526 2.23063
      vertex -64.1 27.474 2.23063
      vertex -64.1 32.7 2.11436
    endloop
  endfacet
  facet normal 1 0 0
    outer loop
      vertex -64.1 27.3 2.11436
      vertex -64.1 32.7 2.11436
      vertex -64.1 27.474 2.23063
    endloop
  endfacet
  facet normal 1 0 0
    outer loop
      vertex -64.1 32.7 2.11436
      vertex -64.1 27.3 2.11436
      vertex -64.1 32.8877 2.02179
    endloop
  endfacet
  facet normal 1 0 0
    outer loop
      vertex -64.1 27.1123 2.02179
      vertex -64.1 32.8877 2.02179
      vertex -64.1 27.3 2.11436
    endloop
  endfacet
  facet normal 1 0 0
    outer loop
      vertex -64.1 26.9141 1.95452
      vertex -64.1 32.8877 2.02179
      vertex -64.1 27.1123 2.02179
    endloop
  endfacet
  facet normal 1 0 0
    outer loop
      vertex -64.1 33.0859 1.95452
      vertex -64.1 26.9141 1.95452
      vertex -64.1 38 0
    endloop
  endfacet
  facet normal 1 -0 0
    outer loop
      vertex -64.1 26.7088 1.91369
      vertex -64.1 38 0
      vertex -64.1 26.9141 1.95452
    endloop
  endfacet
  facet normal 1 -0 0
    outer loop
      vertex -64.1 26.5 1.9
      vertex -64.1 38 0
      vertex -64.1 26.7088 1.91369
    endloop
  endfacet
  facet normal 1 0 0
    outer loop
      vertex -64.1 22 1.4
      vertex -64.1 26.5 1.9
      vertex -64.1 26.2912 1.91369
    endloop
  endfacet
  facet normal 1 0 0
    outer loop
      vertex -64.1 24.9137 3.70884
      vertex -64.1 22 1.4
      vertex -64.1 24.9 3.5
    endloop
  endfacet
  facet normal 1 0 0
    outer loop
      vertex -64.1 24.9 3.5
      vertex -64.1 22 1.4
      vertex -64.1 24.9137 3.29116
    endloop
  endfacet
  facet normal 1 0 0
    outer loop
      vertex -64.1 24.9137 3.29116
      vertex -64.1 22 1.4
      vertex -64.1 24.9545 3.08589
    endloop
  endfacet
  facet normal 1 0 0
    outer loop
      vertex -64.1 24.9545 3.08589
      vertex -64.1 22 1.4
      vertex -64.1 25.0218 2.88771
    endloop
  endfacet
  facet normal 1 0 0
    outer loop
      vertex -64.1 25.0218 2.88771
      vertex -64.1 22 1.4
      vertex -64.1 25.1144 2.7
    endloop
  endfacet
  facet normal 1 0 0
    outer loop
      vertex -64.1 25.1144 2.7
      vertex -64.1 22 1.4
      vertex -64.1 25.2306 2.52598
    endloop
  endfacet
  facet normal 1 0 0
    outer loop
      vertex -64.1 22 1.4
      vertex -64.1 25.3686 2.36863
      vertex -64.1 25.2306 2.52598
    endloop
  endfacet
  facet normal 1 0 0
    outer loop
      vertex -64.1 22 1.4
      vertex -64.1 25.526 2.23063
      vertex -64.1 25.3686 2.36863
    endloop
  endfacet
  facet normal 1 0 0
    outer loop
      vertex -64.1 22 1.4
      vertex -64.1 25.7 2.11436
      vertex -64.1 25.526 2.23063
    endloop
  endfacet
  facet normal 1 0 0
    outer loop
      vertex -64.1 22 1.4
      vertex -64.1 25.8877 2.02179
      vertex -64.1 25.7 2.11436
    endloop
  endfacet
  facet normal 1 0 0
    outer loop
      vertex -64.1 22 1.4
      vertex -64.1 26.0859 1.95452
      vertex -64.1 25.8877 2.02179
    endloop
  endfacet
  facet normal 1 0 0
    outer loop
      vertex -64.1 22 1.4
      vertex -64.1 26.2912 1.91369
      vertex -64.1 26.0859 1.95452
    endloop
  endfacet
  facet normal 1 0 0
    outer loop
      vertex -64.1 26.5 1.9
      vertex -64.1 22 1.4
      vertex -64.1 38 0
    endloop
  endfacet
  facet normal 1 0 0
    outer loop
      vertex -64.1 3 0
      vertex -64.1 22 1.4
      vertex -64.1 3 1.4
    endloop
  endfacet
  facet normal 1 0 0
    outer loop
      vertex -64.1 22 1.4
      vertex -64.1 3 0
      vertex -64.1 38 0
    endloop
  endfacet
  facet normal -0 0 1
    outer loop
      vertex -65.9 38 7
      vertex -64.1 22 7
      vertex -64.1 38 7
    endloop
  endfacet
  facet normal 0 0 1
    outer loop
      vertex -64.1 22 7
      vertex -65.9 38 7
      vertex -65.9 22 7
    endloop
  endfacet
  facet normal 0 0 -1
    outer loop
      vertex -64.3 0 0
      vertex -52.1 3 0
      vertex -52.1 -3 0
    endloop
  endfacet
  facet normal 0 0 -1
    outer loop
      vertex -64.3 0 0
      vertex -52.1 -3 0
      vertex -64.3 -3 0
    endloop
  endfacet
  facet normal -0 0 -1
    outer loop
      vertex -52.1 3 0
      vertex -64.3 0 0
      vertex -64.1 3 0
    endloop
  endfacet
  facet normal 0 0 -1
    outer loop
      vertex -65.7 0 0
      vertex -64.1 3 0
      vertex -64.3 0 0
    endloop
  endfacet
  facet normal 0 0 -1
    outer loop
      vertex -68.3 6 0
      vertex -64.1 3 0
      vertex -65.7 0 0
    endloop
  endfacet
  facet normal 0 0 -1
    outer loop
      vertex -64.1 3 0
      vertex -65.7 6 0
      vertex -65.7 22 0
    endloop
  endfacet
  facet normal 0 0 -1
    outer loop
      vertex -64.1 3 0
      vertex -65.7 22 0
      vertex -64.1 38 0
    endloop
  endfacet
  facet normal 0 0 -1
    outer loop
      vertex -65.9 38 0
      vertex -65.7 22 0
      vertex -65.9 22 0
    endloop
  endfacet
  facet normal 0 0 -1
    outer loop
      vertex -65.7 22 0
      vertex -65.9 38 0
      vertex -64.1 38 0
    endloop
  endfacet
  facet normal 0 0 -1
    outer loop
      vertex -68.3 -6 0
      vertex -65.7 0 0
      vertex -65.7 -6 0
    endloop
  endfacet
  facet normal 0 0 -1
    outer loop
      vertex -68.3 6 0
      vertex -65.7 0 0
      vertex -68.3 -6 0
    endloop
  endfacet
  facet normal 0 0 -1
    outer loop
      vertex -64.1 3 0
      vertex -68.3 6 0
      vertex -65.7 6 0
    endloop
  endfacet
  facet normal -1 0 0
    outer loop
      vertex -65.9 38 0
      vertex -65.9 35.1 3.5
      vertex -65.9 38 7
    endloop
  endfacet
  facet normal -1 0 0
    outer loop
      vertex -65.9 38 0
      vertex -65.9 35.0863 3.29116
      vertex -65.9 35.1 3.5
    endloop
  endfacet
  facet normal -1 0 0
    outer loop
      vertex -65.9 38 0
      vertex -65.9 35.0455 3.08589
      vertex -65.9 35.0863 3.29116
    endloop
  endfacet
  facet normal -1 0 0
    outer loop
      vertex -65.9 38 0
      vertex -65.9 34.9782 2.88771
      vertex -65.9 35.0455 3.08589
    endloop
  endfacet
  facet normal -1 0 0
    outer loop
      vertex -65.9 38 0
      vertex -65.9 34.8856 2.7
      vertex -65.9 34.9782 2.88771
    endloop
  endfacet
  facet normal -1 0 0
    outer loop
      vertex -65.9 38 0
      vertex -65.9 34.7694 2.52598
      vertex -65.9 34.8856 2.7
    endloop
  endfacet
  facet normal -1 0 0
    outer loop
      vertex -65.9 38 0
      vertex -65.9 34.6314 2.36863
      vertex -65.9 34.7694 2.52598
    endloop
  endfacet
  facet normal -1 0 0
    outer loop
      vertex -65.9 38 0
      vertex -65.9 34.474 2.23063
      vertex -65.9 34.6314 2.36863
    endloop
  endfacet
  facet normal -1 0 0
    outer loop
      vertex -65.9 38 0
      vertex -65.9 34.3 2.11436
      vertex -65.9 34.474 2.23063
    endloop
  endfacet
  facet normal -1 0 0
    outer loop
      vertex -65.9 38 0
      vertex -65.9 34.1123 2.02179
      vertex -65.9 34.3 2.11436
    endloop
  endfacet
  facet normal -1 0 0
    outer loop
      vertex -65.9 38 0
      vertex -65.9 33.9141 1.95452
      vertex -65.9 34.1123 2.02179
    endloop
  endfacet
  facet normal -1 0 0
    outer loop
      vertex -65.9 38 0
      vertex -65.9 33.7088 1.91369
      vertex -65.9 33.9141 1.95452
    endloop
  endfacet
  facet normal -1 0 0
    outer loop
      vertex -65.9 38 0
      vertex -65.9 33.5 1.9
      vertex -65.9 33.7088 1.91369
    endloop
  endfacet
  facet normal -1 0 0
    outer loop
      vertex -65.9 38 0
      vertex -65.9 33.2912 1.91369
      vertex -65.9 33.5 1.9
    endloop
  endfacet
  facet normal -1 0 0
    outer loop
      vertex -65.9 38 0
      vertex -65.9 33.0859 1.95452
      vertex -65.9 33.2912 1.91369
    endloop
  endfacet
  facet normal -1 0 0
    outer loop
      vertex -65.9 26.9141 1.95452
      vertex -65.9 33.0859 1.95452
      vertex -65.9 38 0
    endloop
  endfacet
  facet normal -1 0 0
    outer loop
      vertex -65.9 31.9137 3.29116
      vertex -65.9 28.1 3.5
      vertex -65.9 31.9 3.5
    endloop
  endfacet
  facet normal -1 0 0
    outer loop
      vertex -65.9 28.0863 3.29116
      vertex -65.9 31.9137 3.29116
      vertex -65.9 31.9545 3.08589
    endloop
  endfacet
  facet normal -1 0 0
    outer loop
      vertex -65.9 28.0455 3.08589
      vertex -65.9 31.9545 3.08589
      vertex -65.9 32.0218 2.88771
    endloop
  endfacet
  facet normal -1 0 0
    outer loop
      vertex -65.9 27.9782 2.88771
      vertex -65.9 32.0218 2.88771
      vertex -65.9 32.1144 2.7
    endloop
  endfacet
  facet normal -1 0 0
    outer loop
      vertex -65.9 27.8856 2.7
      vertex -65.9 32.1144 2.7
      vertex -65.9 32.2306 2.52598
    endloop
  endfacet
  facet normal -1 0 0
    outer loop
      vertex -65.9 27.7694 2.52598
      vertex -65.9 32.2306 2.52598
      vertex -65.9 32.3686 2.36863
    endloop
  endfacet
  facet normal -1 0 0
    outer loop
      vertex -65.9 27.6314 2.36863
      vertex -65.9 32.3686 2.36863
      vertex -65.9 32.526 2.23063
    endloop
  endfacet
  facet normal -1 0 0
    outer loop
      vertex -65.9 27.474 2.23063
      vertex -65.9 32.526 2.23063
      vertex -65.9 32.7 2.11436
    endloop
  endfacet
  facet normal -1 0 0
    outer loop
      vertex -65.9 27.3 2.11436
      vertex -65.9 32.7 2.11436
      vertex -65.9 32.8877 2.02179
    endloop
  endfacet
  facet normal -1 0 0
    outer loop
      vertex -65.9 33.0859 1.95452
      vertex -65.9 26.9141 1.95452
      vertex -65.9 32.8877 2.02179
    endloop
  endfacet
  facet normal -1 0 0
    outer loop
      vertex -65.9 31.9137 3.29116
      vertex -65.9 28.0863 3.29116
      vertex -65.9 28.1 3.5
    endloop
  endfacet
  facet normal -1 0 0
    outer loop
      vertex -65.9 31.9545 3.08589
      vertex -65.9 28.0455 3.08589
      vertex -65.9 28.0863 3.29116
    endloop
  endfacet
  facet normal -1 0 0
    outer loop
      vertex -65.9 32.0218 2.88771
      vertex -65.9 27.9782 2.88771
      vertex -65.9 28.0455 3.08589
    endloop
  endfacet
  facet normal -1 0 0
    outer loop
      vertex -65.9 32.1144 2.7
      vertex -65.9 27.8856 2.7
      vertex -65.9 27.9782 2.88771
    endloop
  endfacet
  facet normal -1 0 0
    outer loop
      vertex -65.9 32.2306 2.52598
      vertex -65.9 27.7694 2.52598
      vertex -65.9 27.8856 2.7
    endloop
  endfacet
  facet normal -1 0 0
    outer loop
      vertex -65.9 32.3686 2.36863
      vertex -65.9 27.6314 2.36863
      vertex -65.9 27.7694 2.52598
    endloop
  endfacet
  facet normal -1 0 0
    outer loop
      vertex -65.9 32.526 2.23063
      vertex -65.9 27.474 2.23063
      vertex -65.9 27.6314 2.36863
    endloop
  endfacet
  facet normal -1 0 0
    outer loop
      vertex -65.9 32.7 2.11436
      vertex -65.9 27.3 2.11436
      vertex -65.9 27.474 2.23063
    endloop
  endfacet
  facet normal -1 0 0
    outer loop
      vertex -65.9 32.8877 2.02179
      vertex -65.9 27.1123 2.02179
      vertex -65.9 27.3 2.11436
    endloop
  endfacet
  facet normal -1 -0 0
    outer loop
      vertex -65.9 32.8877 2.02179
      vertex -65.9 26.9141 1.95452
      vertex -65.9 27.1123 2.02179
    endloop
  endfacet
  facet normal -1 0 0
    outer loop
      vertex -65.9 22 0
      vertex -65.9 26.9141 1.95452
      vertex -65.9 38 0
    endloop
  endfacet
  facet normal -1 0 0
    outer loop
      vertex -65.9 26.9141 1.95452
      vertex -65.9 22 0
      vertex -65.9 26.7088 1.91369
    endloop
  endfacet
  facet normal -1 0 0
    outer loop
      vertex -65.9 26.7088 1.91369
      vertex -65.9 22 0
      vertex -65.9 26.5 1.9
    endloop
  endfacet
  facet normal -1 -0 0
    outer loop
      vertex -65.9 24.9137 3.29116
      vertex -65.9 22 0
      vertex -65.9 24.9 3.5
    endloop
  endfacet
  facet normal -1 -0 0
    outer loop
      vertex -65.9 24.9545 3.08589
      vertex -65.9 22 0
      vertex -65.9 24.9137 3.29116
    endloop
  endfacet
  facet normal -1 -0 0
    outer loop
      vertex -65.9 25.0218 2.88771
      vertex -65.9 22 0
      vertex -65.9 24.9545 3.08589
    endloop
  endfacet
  facet normal -1 -0 0
    outer loop
      vertex -65.9 25.1144 2.7
      vertex -65.9 22 0
      vertex -65.9 25.0218 2.88771
    endloop
  endfacet
  facet normal -1 -0 0
    outer loop
      vertex -65.9 25.2306 2.52598
      vertex -65.9 22 0
      vertex -65.9 25.1144 2.7
    endloop
  endfacet
  facet normal -1 -0 0
    outer loop
      vertex -65.9 25.3686 2.36863
      vertex -65.9 22 0
      vertex -65.9 25.2306 2.52598
    endloop
  endfacet
  facet normal -1 -0 0
    outer loop
      vertex -65.9 25.526 2.23063
      vertex -65.9 22 0
      vertex -65.9 25.3686 2.36863
    endloop
  endfacet
  facet normal -1 -0 0
    outer loop
      vertex -65.9 25.7 2.11436
      vertex -65.9 22 0
      vertex -65.9 25.526 2.23063
    endloop
  endfacet
  facet normal -1 -0 0
    outer loop
      vertex -65.9 25.8877 2.02179
      vertex -65.9 22 0
      vertex -65.9 25.7 2.11436
    endloop
  endfacet
  facet normal -1 -0 0
    outer loop
      vertex -65.9 26.0859 1.95452
      vertex -65.9 22 0
      vertex -65.9 25.8877 2.02179
    endloop
  endfacet
  facet normal -1 -0 0
    outer loop
      vertex -65.9 26.2912 1.91369
      vertex -65.9 22 0
      vertex -65.9 26.0859 1.95452
    endloop
  endfacet
  facet normal -1 -0 0
    outer loop
      vertex -65.9 26.5 1.9
      vertex -65.9 22 0
      vertex -65.9 26.2912 1.91369
    endloop
  endfacet
  facet normal -1 0 0
    outer loop
      vertex -65.9 35.0863 3.70884
      vertex -65.9 38 7
      vertex -65.9 35.1 3.5
    endloop
  endfacet
  facet normal -1 0 0
    outer loop
      vertex -65.9 35.0455 3.91411
      vertex -65.9 38 7
      vertex -65.9 35.0863 3.70884
    endloop
  endfacet
  facet normal -1 0 0
    outer loop
      vertex -65.9 34.9782 4.11229
      vertex -65.9 38 7
      vertex -65.9 35.0455 3.91411
    endloop
  endfacet
  facet normal -1 0 0
    outer loop
      vertex -65.9 34.8856 4.3
      vertex -65.9 38 7
      vertex -65.9 34.9782 4.11229
    endloop
  endfacet
  facet normal -1 0 0
    outer loop
      vertex -65.9 34.7694 4.47402
      vertex -65.9 38 7
      vertex -65.9 34.8856 4.3
    endloop
  endfacet
  facet normal -1 0 0
    outer loop
      vertex -65.9 34.6314 4.63137
      vertex -65.9 38 7
      vertex -65.9 34.7694 4.47402
    endloop
  endfacet
  facet normal -1 0 0
    outer loop
      vertex -65.9 34.474 4.76937
      vertex -65.9 38 7
      vertex -65.9 34.6314 4.63137
    endloop
  endfacet
  facet normal -1 0 0
    outer loop
      vertex -65.9 34.3 4.88564
      vertex -65.9 38 7
      vertex -65.9 34.474 4.76937
    endloop
  endfacet
  facet normal -1 0 0
    outer loop
      vertex -65.9 34.1123 4.97821
      vertex -65.9 38 7
      vertex -65.9 34.3 4.88564
    endloop
  endfacet
  facet normal -1 0 0
    outer loop
      vertex -65.9 33.9141 5.04548
      vertex -65.9 38 7
      vertex -65.9 34.1123 4.97821
    endloop
  endfacet
  facet normal -1 0 0
    outer loop
      vertex -65.9 33.7088 5.08631
      vertex -65.9 38 7
      vertex -65.9 33.9141 5.04548
    endloop
  endfacet
  facet normal -1 0 0
    outer loop
      vertex -65.9 33.5 5.1
      vertex -65.9 38 7
      vertex -65.9 33.7088 5.08631
    endloop
  endfacet
  facet normal -1 0 0
    outer loop
      vertex -65.9 33.2912 5.08631
      vertex -65.9 38 7
      vertex -65.9 33.5 5.1
    endloop
  endfacet
  facet normal -1 0 0
    outer loop
      vertex -65.9 33.0859 5.04548
      vertex -65.9 38 7
      vertex -65.9 33.2912 5.08631
    endloop
  endfacet
  facet normal -1 0 0
    outer loop
      vertex -65.9 26.9141 5.04548
      vertex -65.9 33.0859 5.04548
      vertex -65.9 32.8877 4.97821
    endloop
  endfacet
  facet normal -1 0 0
    outer loop
      vertex -65.9 28.1 3.5
      vertex -65.9 31.9137 3.70884
      vertex -65.9 31.9 3.5
    endloop
  endfacet
  facet normal -1 0 0
    outer loop
      vertex -65.9 28.0863 3.70884
      vertex -65.9 31.9137 3.70884
      vertex -65.9 28.1 3.5
    endloop
  endfacet
  facet normal -1 0 0
    outer loop
      vertex -65.9 31.9137 3.70884
      vertex -65.9 28.0863 3.70884
      vertex -65.9 31.9545 3.91411
    endloop
  endfacet
  facet normal -1 0 0
    outer loop
      vertex -65.9 28.0455 3.91411
      vertex -65.9 31.9545 3.91411
      vertex -65.9 28.0863 3.70884
    endloop
  endfacet
  facet normal -1 0 0
    outer loop
      vertex -65.9 31.9545 3.91411
      vertex -65.9 28.0455 3.91411
      vertex -65.9 32.0218 4.11229
    endloop
  endfacet
  facet normal -1 0 0
    outer loop
      vertex -65.9 27.9782 4.11229
      vertex -65.9 32.0218 4.11229
      vertex -65.9 28.0455 3.91411
    endloop
  endfacet
  facet normal -1 0 0
    outer loop
      vertex -65.9 32.0218 4.11229
      vertex -65.9 27.9782 4.11229
      vertex -65.9 32.1144 4.3
    endloop
  endfacet
  facet normal -1 0 0
    outer loop
      vertex -65.9 27.8856 4.3
      vertex -65.9 32.1144 4.3
      vertex -65.9 27.9782 4.11229
    endloop
  endfacet
  facet normal -1 0 0
    outer loop
      vertex -65.9 32.1144 4.3
      vertex -65.9 27.8856 4.3
      vertex -65.9 32.2306 4.47402
    endloop
  endfacet
  facet normal -1 0 0
    outer loop
      vertex -65.9 27.7694 4.47402
      vertex -65.9 32.2306 4.47402
      vertex -65.9 27.8856 4.3
    endloop
  endfacet
  facet normal -1 0 0
    outer loop
      vertex -65.9 32.2306 4.47402
      vertex -65.9 27.7694 4.47402
      vertex -65.9 32.3686 4.63137
    endloop
  endfacet
  facet normal -1 0 0
    outer loop
      vertex -65.9 27.6314 4.63137
      vertex -65.9 32.3686 4.63137
      vertex -65.9 27.7694 4.47402
    endloop
  endfacet
  facet normal -1 0 0
    outer loop
      vertex -65.9 32.3686 4.63137
      vertex -65.9 27.6314 4.63137
      vertex -65.9 32.526 4.76937
    endloop
  endfacet
  facet normal -1 0 0
    outer loop
      vertex -65.9 27.474 4.76937
      vertex -65.9 32.526 4.76937
      vertex -65.9 27.6314 4.63137
    endloop
  endfacet
  facet normal -1 0 0
    outer loop
      vertex -65.9 32.526 4.76937
      vertex -65.9 27.474 4.76937
      vertex -65.9 32.7 4.88564
    endloop
  endfacet
  facet normal -1 0 0
    outer loop
      vertex -65.9 27.3 4.88564
      vertex -65.9 32.7 4.88564
      vertex -65.9 27.474 4.76937
    endloop
  endfacet
  facet normal -1 0 0
    outer loop
      vertex -65.9 32.7 4.88564
      vertex -65.9 27.3 4.88564
      vertex -65.9 32.8877 4.97821
    endloop
  endfacet
  facet normal -1 0 0
    outer loop
      vertex -65.9 27.1123 4.97821
      vertex -65.9 32.8877 4.97821
      vertex -65.9 27.3 4.88564
    endloop
  endfacet
  facet normal -1 0 0
    outer loop
      vertex -65.9 26.9141 5.04548
      vertex -65.9 32.8877 4.97821
      vertex -65.9 27.1123 4.97821
    endloop
  endfacet
  facet normal -1 0 0
    outer loop
      vertex -65.9 33.0859 5.04548
      vertex -65.9 26.9141 5.04548
      vertex -65.9 38 7
    endloop
  endfacet
  facet normal -1 0 0
    outer loop
      vertex -65.9 22 7
      vertex -65.9 26.9141 5.04548
      vertex -65.9 26.7088 5.08631
    endloop
  endfacet
  facet normal -1 0 0
    outer loop
      vertex -65.9 22 7
      vertex -65.9 26.7088 5.08631
      vertex -65.9 26.5 5.1
    endloop
  endfacet
  facet normal -1 0 0
    outer loop
      vertex -65.9 22 7
      vertex -65.9 26.5 5.1
      vertex -65.9 26.2912 5.08631
    endloop
  endfacet
  facet normal -1 0 0
    outer loop
      vertex -65.9 22 7
      vertex -65.9 24.9 3.5
      vertex -65.9 22 0
    endloop
  endfacet
  facet normal -1 0 0
    outer loop
      vertex -65.9 24.9 3.5
      vertex -65.9 22 7
      vertex -65.9 24.9137 3.70884
    endloop
  endfacet
  facet normal -1 0 0
    outer loop
      vertex -65.9 24.9137 3.70884
      vertex -65.9 22 7
      vertex -65.9 24.9545 3.91411
    endloop
  endfacet
  facet normal -1 0 0
    outer loop
      vertex -65.9 24.9545 3.91411
      vertex -65.9 22 7
      vertex -65.9 25.0218 4.11229
    endloop
  endfacet
  facet normal -1 0 0
    outer loop
      vertex -65.9 25.0218 4.11229
      vertex -65.9 22 7
      vertex -65.9 25.1144 4.3
    endloop
  endfacet
  facet normal -1 0 0
    outer loop
      vertex -65.9 26.9141 5.04548
      vertex -65.9 22 7
      vertex -65.9 38 7
    endloop
  endfacet
  facet normal -1 0 0
    outer loop
      vertex -65.9 26.0859 5.04548
      vertex -65.9 22 7
      vertex -65.9 26.2912 5.08631
    endloop
  endfacet
  facet normal -1 0 0
    outer loop
      vertex -65.9 25.8877 4.97821
      vertex -65.9 22 7
      vertex -65.9 26.0859 5.04548
    endloop
  endfacet
  facet normal -1 0 0
    outer loop
      vertex -65.9 25.7 4.88564
      vertex -65.9 22 7
      vertex -65.9 25.8877 4.97821
    endloop
  endfacet
  facet normal -1 0 0
    outer loop
      vertex -65.9 25.526 4.76937
      vertex -65.9 22 7
      vertex -65.9 25.7 4.88564
    endloop
  endfacet
  facet normal -1 0 0
    outer loop
      vertex -65.9 25.3686 4.63137
      vertex -65.9 22 7
      vertex -65.9 25.526 4.76937
    endloop
  endfacet
  facet normal -1 0 0
    outer loop
      vertex -65.9 25.2306 4.47402
      vertex -65.9 22 7
      vertex -65.9 25.3686 4.63137
    endloop
  endfacet
  facet normal -1 0 0
    outer loop
      vertex -65.9 25.1144 4.3
      vertex -65.9 22 7
      vertex -65.9 25.2306 4.47402
    endloop
  endfacet
  facet normal 0 1 -0
    outer loop
      vertex -64.1 38 0
      vertex -65.9 38 7
      vertex -64.1 38 7
    endloop
  endfacet
  facet normal 0 1 0
    outer loop
      vertex -65.9 38 7
      vertex -64.1 38 0
      vertex -65.9 38 0
    endloop
  endfacet
  facet normal 0 -1 0
    outer loop
      vertex -65.9 22 7
      vertex -65.7 22 1.4
      vertex -64.1 22 7
    endloop
  endfacet
  facet normal 0 -1 0
    outer loop
      vertex -65.9 22 0
      vertex -65.7 22 1.4
      vertex -65.9 22 7
    endloop
  endfacet
  facet normal 0 -1 -0
    outer loop
      vertex -65.7 22 1.4
      vertex -65.9 22 0
      vertex -65.7 22 0
    endloop
  endfacet
  facet normal 0 -1 -0
    outer loop
      vertex -64.1 22 7
      vertex -65.7 22 1.4
      vertex -64.1 22 1.4
    endloop
  endfacet
  facet normal -0 0 1
    outer loop
      vertex -65.7 6 1.4
      vertex -64.1 3 1.4
      vertex -64.1 22 1.4
    endloop
  endfacet
  facet normal 0 0 1
    outer loop
      vertex -65.7 6 1.4
      vertex -64.1 22 1.4
      vertex -65.7 22 1.4
    endloop
  endfacet
  facet normal 0 0 1
    outer loop
      vertex -64.1 3 1.4
      vertex -65.7 6 1.4
      vertex -64.3 3 1.4
    endloop
  endfacet
  facet normal 0 0 1
    outer loop
      vertex -65.7 0 1.4
      vertex -64.3 3 1.4
      vertex -65.7 6 1.4
    endloop
  endfacet
  facet normal 0 0 1
    outer loop
      vertex -64.3 3 1.4
      vertex -65.7 0 1.4
      vertex -64.3 0 1.4
    endloop
  endfacet
  facet normal 1 0 0
    outer loop
      vertex -65.7 6 1.8
      vertex -65.7 0 1.4
      vertex -65.7 6 1.4
    endloop
  endfacet
  facet normal 1 -0 0
    outer loop
      vertex -65.7 -6 1.8
      vertex -65.7 0 1.4
      vertex -65.7 6 1.8
    endloop
  endfacet
  facet normal 1 0 0
    outer loop
      vertex -65.7 -6 0
      vertex -65.7 0 1.4
      vertex -65.7 -6 1.8
    endloop
  endfacet
  facet normal 1 0 0
    outer loop
      vertex -65.7 0 1.4
      vertex -65.7 -6 0
      vertex -65.7 0 0
    endloop
  endfacet
  facet normal -1 0 0
    outer loop
      vertex -65.7 6 0
      vertex -65.7 22 1.4
      vertex -65.7 22 0
    endloop
  endfacet
  facet normal -1 -0 0
    outer loop
      vertex -65.7 22 1.4
      vertex -65.7 6 0
      vertex -65.7 6 1.4
    endloop
  endfacet
  facet normal 0 -1 0
    outer loop
      vertex -65.7 0 0
      vertex -64.3 0 1.4
      vertex -65.7 0 1.4
    endloop
  endfacet
  facet normal 0 -1 -0
    outer loop
      vertex -64.3 0 1.4
      vertex -65.7 0 0
      vertex -64.3 0 0
    endloop
  endfacet
  facet normal 1 -0 0
    outer loop
      vertex -52.1 -3 3.25
      vertex -52.1 3 0
      vertex -52.1 3 3.25
    endloop
  endfacet
  facet normal 1 0 0
    outer loop
      vertex -52.1 3 0
      vertex -52.1 -3 3.25
      vertex -52.1 -3 0
    endloop
  endfacet
  facet normal -0 0 1
    outer loop
      vertex -53.7 3 3.25
      vertex -52.1 -3 3.25
      vertex -52.1 3 3.25
    endloop
  endfacet
  facet normal 0 0 1
    outer loop
      vertex -52.1 -3 3.25
      vertex -53.7 3 3.25
      vertex -53.7 -3 3.25
    endloop
  endfacet
  facet normal -0 0 1
    outer loop
      vertex -55.7 3 3.25
      vertex -55.1 -3 3.25
      vertex -55.1 3 3.25
    endloop
  endfacet
  facet normal 0 0 1
    outer loop
      vertex -55.1 -3 3.25
      vertex -55.7 3 3.25
      vertex -55.7 -3 3.25
    endloop
  endfacet
  facet normal -0 0 1
    outer loop
      vertex -64.3 3 3.25
      vertex -57.4 -3 3.25
      vertex -57.4 3 3.25
    endloop
  endfacet
  facet normal 0 0 1
    outer loop
      vertex -57.4 -3 3.25
      vertex -64.3 3 3.25
      vertex -64.3 -3 3.25
    endloop
  endfacet
  facet normal -1 0 0
    outer loop
      vertex -64.3 0 0
      vertex -64.3 -3 0
      vertex -64.3 0 1.4
    endloop
  endfacet
  facet normal -1 0 0
    outer loop
      vertex -64.3 0 1.4
      vertex -64.3 3 3.25
      vertex -64.3 3 1.4
    endloop
  endfacet
  facet normal -1 0 0
    outer loop
      vertex -64.3 -3 3.25
      vertex -64.3 0 1.4
      vertex -64.3 -3 0
    endloop
  endfacet
  facet normal -1 0 0
    outer loop
      vertex -64.3 0 1.4
      vertex -64.3 -3 3.25
      vertex -64.3 3 3.25
    endloop
  endfacet
  facet normal 0 1 -0
    outer loop
      vertex -52.1 3 0
      vertex -53.7 3 3.25
      vertex -52.1 3 3.25
    endloop
  endfacet
  facet normal 0 1 0
    outer loop
      vertex -53.7 3 3.25
      vertex -52.1 3 0
      vertex -55.1 3 3.25
    endloop
  endfacet
  facet normal 0 1 0
    outer loop
      vertex -55.1 3 3.25
      vertex -52.1 3 0
      vertex -55.7 3 3.25
    endloop
  endfacet
  facet normal 0 1 0
    outer loop
      vertex -55.7 3 3.25
      vertex -52.1 3 0
      vertex -57.4 3 3.25
    endloop
  endfacet
  facet normal 0 1 0
    outer loop
      vertex -57.4 3 3.25
      vertex -64.1 3 1.4
      vertex -64.3 3 3.25
    endloop
  endfacet
  facet normal 0 1 0
    outer loop
      vertex -64.1 3 0
      vertex -57.4 3 3.25
      vertex -52.1 3 0
    endloop
  endfacet
  facet normal 0 1 0
    outer loop
      vertex -57.4 3 3.25
      vertex -64.1 3 0
      vertex -64.1 3 1.4
    endloop
  endfacet
  facet normal 0 1 -0
    outer loop
      vertex -53.7 3 3.25
      vertex -55.1 3 3.51667
      vertex -53.7 3 4.13889
    endloop
  endfacet
  facet normal 0 1 0
    outer loop
      vertex -55.1 3 3.51667
      vertex -53.7 3 3.25
      vertex -55.1 3 3.25
    endloop
  endfacet
  facet normal 0 1 0
    outer loop
      vertex -53.7 3 4.13889
      vertex -53 3 4.85
      vertex -53 3 4.45
    endloop
  endfacet
  facet normal 0 1 0
    outer loop
      vertex -53 3 4.85
      vertex -53.7 3 4.13889
      vertex -55.1 3 4.85
    endloop
  endfacet
  facet normal 0 1 0
    outer loop
      vertex -55.1 3 4.85
      vertex -53.7 3 4.13889
      vertex -55.1 3 4.27222
    endloop
  endfacet
  facet normal 0 1 0
    outer loop
      vertex -55.1 3 3.51667
      vertex -55.1 3 4.27222
      vertex -53.7 3 4.13889
    endloop
  endfacet
  facet normal 0 1 0
    outer loop
      vertex -55.7 3 3.25
      vertex -55.1 3 4.27222
      vertex -55.1 3 3.51667
    endloop
  endfacet
  facet normal 0 1 0
    outer loop
      vertex -55.1 3 4.27222
      vertex -55.7 3 3.25
      vertex -57.4 3 3.25
    endloop
  endfacet
  facet normal 0 1 0
    outer loop
      vertex -64.3 3 3.25
      vertex -64.1 3 1.4
      vertex -64.3 3 1.4
    endloop
  endfacet
  facet normal 0 -1 0
    outer loop
      vertex -64.3 -3 0
      vertex -57.4 -3 3.25
      vertex -64.3 -3 3.25
    endloop
  endfacet
  facet normal 0 -1 0
    outer loop
      vertex -52.1 -3 0
      vertex -57.4 -3 3.25
      vertex -64.3 -3 0
    endloop
  endfacet
  facet normal 0 -1 0
    outer loop
      vertex -57.4 -3 3.25
      vertex -52.1 -3 0
      vertex -55.7 -3 3.25
    endloop
  endfacet
  facet normal 0 -1 0
    outer loop
      vertex -55.7 -3 3.25
      vertex -52.1 -3 0
      vertex -55.1 -3 3.25
    endloop
  endfacet
  facet normal 0 -1 0
    outer loop
      vertex -55.1 -3 3.25
      vertex -52.1 -3 0
      vertex -53.7 -3 3.25
    endloop
  endfacet
  facet normal 0 -1 0
    outer loop
      vertex -53.7 -3 3.25
      vertex -52.1 -3 0
      vertex -52.1 -3 3.25
    endloop
  endfacet
  facet normal 0 -1 0
    outer loop
      vertex -53.7 -3 4.13889
      vertex -53 -3 4.85
      vertex -55.1 -3 4.85
    endloop
  endfacet
  facet normal 0 -1 0
    outer loop
      vertex -53.7 -3 4.13889
      vertex -55.1 -3 4.85
      vertex -55.1 -3 4.27222
    endloop
  endfacet
  facet normal 0 -1 -0
    outer loop
      vertex -53 -3 4.85
      vertex -53.7 -3 4.13889
      vertex -53 -3 4.45
    endloop
  endfacet
  facet normal 0 -1 0
    outer loop
      vertex -55.1 -3 4.27222
      vertex -55.1 -3 3.51667
      vertex -53.7 -3 4.13889
    endloop
  endfacet
  facet normal 0 -1 0
    outer loop
      vertex -55.7 -3 3.25
      vertex -55.1 -3 4.27222
      vertex -57.4 -3 3.25
    endloop
  endfacet
  facet normal 0 -1 -0
    outer loop
      vertex -55.1 -3 4.27222
      vertex -55.7 -3 3.25
      vertex -55.1 -3 3.51667
    endloop
  endfacet
  facet normal 0 -1 0
    outer loop
      vertex -53.7 -3 3.25
      vertex -55.1 -3 3.51667
      vertex -55.1 -3 3.25
    endloop
  endfacet
  facet normal 0 -1 0
    outer loop
      vertex -55.1 -3 3.51667
      vertex -53.7 -3 3.25
      vertex -53.7 -3 4.13889
    endloop
  endfacet
  facet normal -0 0 1
    outer loop
      vertex -55.1 3 4.85
      vertex -53 -3 4.85
      vertex -53 3 4.85
    endloop
  endfacet
  facet normal 0 0 1
    outer loop
      vertex -53 -3 4.85
      vertex -55.1 3 4.85
      vertex -55.1 -3 4.85
    endloop
  endfacet
  facet normal 0.406137 0 -0.913812
    outer loop
      vertex -53.7 -3 4.13889
      vertex -53 3 4.45
      vertex -53 -3 4.45
    endloop
  endfacet
  facet normal 0.406137 0 -0.913812
    outer loop
      vertex -53 3 4.45
      vertex -53.7 -3 4.13889
      vertex -53.7 3 4.13889
    endloop
  endfacet
  facet normal 0.406143 0 -0.91381
    outer loop
      vertex -55.7 -3 3.25
      vertex -55.1 3 3.51667
      vertex -55.1 -3 3.51667
    endloop
  endfacet
  facet normal 0.406143 0 -0.91381
    outer loop
      vertex -55.1 3 3.51667
      vertex -55.7 -3 3.25
      vertex -55.7 3 3.25
    endloop
  endfacet
  facet normal -0.406138 0 0.913812
    outer loop
      vertex -57.4 3 3.25
      vertex -55.1 -3 4.27222
      vertex -55.1 3 4.27222
    endloop
  endfacet
  facet normal -0.406138 0 0.913812
    outer loop
      vertex -55.1 -3 4.27222
      vertex -57.4 3 3.25
      vertex -57.4 -3 3.25
    endloop
  endfacet
  facet normal 1 -0 0
    outer loop
      vertex -53 -3 4.85
      vertex -53 3 4.45
      vertex -53 3 4.85
    endloop
  endfacet
  facet normal 1 0 0
    outer loop
      vertex -53 3 4.45
      vertex -53 -3 4.85
      vertex -53 -3 4.45
    endloop
  endfacet
  facet normal 1 -0 0
    outer loop
      vertex -53.7 -3 4.13889
      vertex -53.7 3 3.25
      vertex -53.7 3 4.13889
    endloop
  endfacet
  facet normal 1 0 0
    outer loop
      vertex -53.7 3 3.25
      vertex -53.7 -3 4.13889
      vertex -53.7 -3 3.25
    endloop
  endfacet
  facet normal -1 0 0
    outer loop
      vertex -55.1 -3 4.27222
      vertex -55.1 3 4.85
      vertex -55.1 3 4.27222
    endloop
  endfacet
  facet normal -1 -0 0
    outer loop
      vertex -55.1 3 4.85
      vertex -55.1 -3 4.27222
      vertex -55.1 -3 4.85
    endloop
  endfacet
  facet normal -1 0 0
    outer loop
      vertex -55.1 -3 3.25
      vertex -55.1 3 3.51667
      vertex -55.1 3 3.25
    endloop
  endfacet
  facet normal -1 -0 0
    outer loop
      vertex -55.1 3 3.51667
      vertex -55.1 -3 3.25
      vertex -55.1 -3 3.51667
    endloop
  endfacet
  facet normal -0 0 1
    outer loop
      vertex -68.3 6 1.8
      vertex -65.7 -6 1.8
      vertex -65.7 6 1.8
    endloop
  endfacet
  facet normal 0 0 1
    outer loop
      vertex -65.7 -6 1.8
      vertex -68.3 6 1.8
      vertex -68.3 -6 1.8
    endloop
  endfacet
  facet normal -1 0 0
    outer loop
      vertex -68.3 -6 0
      vertex -68.3 6 1.8
      vertex -68.3 6 0
    endloop
  endfacet
  facet normal -1 -0 0
    outer loop
      vertex -68.3 6 1.8
      vertex -68.3 -6 0
      vertex -68.3 -6 1.8
    endloop
  endfacet
  facet normal 0 1 -0
    outer loop
      vertex -65.7 6 1.4
      vertex -68.3 6 1.8
      vertex -65.7 6 1.8
    endloop
  endfacet
  facet normal 0 1 0
    outer loop
      vertex -68.3 6 0
      vertex -65.7 6 1.4
      vertex -65.7 6 0
    endloop
  endfacet
  facet normal 0 1 0
    outer loop
      vertex -65.7 6 1.4
      vertex -68.3 6 0
      vertex -68.3 6 1.8
    endloop
  endfacet
  facet normal 0 -1 0
    outer loop
      vertex -68.3 -6 0
      vertex -65.7 -6 1.8
      vertex -68.3 -6 1.8
    endloop
  endfacet
  facet normal 0 -1 -0
    outer loop
      vertex -65.7 -6 1.8
      vertex -68.3 -6 0
      vertex -65.7 -6 0
    endloop
  endfacet
endsolid OpenSCAD_Model
